<svg xmlns="http://www.w3.org/2000/svg" id="_레이어_2" data-name="레이어 2" viewBox="0 0 1607 1910.1"><defs><style>.cls-1,.cls-2{fill:#364b6d;stroke-width:0}.cls-2{fill:#fff}</style></defs><g id="_빛살" data-name="빛살"><path d="M36 1880c-1-1.5-1.5-3.1-1.3-4.8.3-3.8.6-7.7 1.3-11.4.9-4.9 2.1-9.8 3.4-14.6 1-4 1-7.9.3-11.9-1.5-7.2-4.2-14-6.6-21-1.3-3.9-2.9-7.7-4.3-11.6l-1.5-4.8c-2.4-6.5-5.3-12.9-5.9-20 0-1.4-.2-3-.6-4.3-.2-.9-1-1.5-1.7-2.5-1.9 1.7-3.4 3-5.8 3.3-2.4.2-4.9.8-7.3 1.3-1.6.3-2.7-.4-2.6-2l.6-6c.6-7.2 1.1-14.3 1.8-21.4.3-4 .8-8 1-12 .2-1.6.6-3.5-.7-4.7-2.5-2.4-2.1-5-1.6-8l2.2-10.7c.4-2 .9-4.2.7-6.6-1.4.3-2.4.6-3.5.7-1.6.2-2.6-.6-2.8-2.2-.4-4.3-1-8.6-1-12.9-.2-3 0-6 .5-9s.7-5.9-.5-9c2.7-2.7 3.8-6.2 4.5-9.8.3-2 .9-4 1.5-5.8.2-1 .5-2 1.2-2.7 2.7-2.6 4.4-5.8 6.2-9 1-1.6 2-3 3.9-3.7 4.1-1.3 8.3-2.5 12.7-2 .8 0 1.7.3 2.5.1 4.2-.9 8.2.6 12.2 1.5 3.1.7 5.2 2.7 6.5 5.7a38.4 38.4 0 0 1 2.8 19c-.1 2-.8 4-2 5.6-.8 1-1.4 2-1.9 3-.4.8-.1 1.7.6 2.2 2.7 1.6 5.3 3.5 8.2 4.7 3.6 1.7 6.4 4 8.6 7.3 3 4.6 6.2 9 9.1 13.7 1 1.6 1.6 3.6 2.2 5.5.4 1.5.5 3 1 4.4a94.7 94.7 0 0 1 4.3 31c0 2 .3 4 .5 6l1.4 11.4c.1 1.5.2 3-1.2 4.1l-8.2 6.5c-1.3.9-2.3 1.9-2.5 3.5-.3 1.9-1.3 3.5-2.8 4.6-2.3 1.6-2.9 3.9-3.1 6.4-.2 2.5-.4 5-1 7.4-1.2 5.4-2.6 10.7-4.1 16-1.7 6-3.3 12.2-5.4 18.2-1.5 4-1.6 7.8-1 11.7.7 4 1.7 7.9 2.5 11.8l5.6 27.9a14 14 0 0 1-1.7 10.5l-1.1 2c.8 1.6 1.6 2.8 2.4 4.1 1.7 3 2 6.3 1.4 9.7-.6 3.4-2.6 4.5-5.7 3.2-1.3-.5-2.4-1.2-3-2.5-.7-1.7-1.5-3.4-1.8-5.2a8 8 0 0 0-4.4-6.1c-3-1.7-5.3-4.2-5-8v-.5c-.4-1.9-1.2-2.6-3-2.7h-4.2l-2.9-4.6Zm11.1-89.7c1.5-.9.8-2 1-3l.3-.4-.2.4-1 3ZM25.2 1680c-3-.1-3.8 3.4-6 5 1-.1 2-.5 3-.4 1.2 0 2.3.5 3.4.8 1.3.3 2.3-.2 3.3-.9s2-1.6 3.2-2.3c.9-.7 1.8-1.1 3.3-2-3.7-2.2-7-.1-10.1-.2Zm13.7.5c.6 1 1.6 1.2 2.5.7.2-.2.5-.6.5-.8-.3-1.1-1.2-1-2-1l-1.2.4.2.7ZM741.6 1432.4c-.7 0-1.1-.2-1.5-.1-4.7.9-5.8.5-7.2-3.8-1.2-3.7-1.7-7.5-2.5-11.3-.3-1.2-.2-2.4-.5-3.6-2.3-7.2-2-14.8-2.1-22.2 0-2.7-.4-5.3-.4-8-.2-5.4-.4-10.8-.3-16.3 0-7 .4-14.1.8-21.2.2-6.3.6-12.5 1-18.8 0-2.4.1-4.7-.1-7.8a21.1 21.1 0 0 0-3 10.2c-.7 13-2 26.2-1.3 39.3 0 2.4.4 4.9-.8 7-1.3.7-2.1 0-2.5-1-.6-1.8-1.4-3.8-1.5-5.8-.1-7.2-.4-14.5.6-21.8 1-7 1-14.1-.6-21.1a64.8 64.8 0 0 1-.7-23c1-7.6 2.6-15 4.2-22.6l.4-1.8a116 116 0 0 0 5.3-19.2c1-4.6 4.6-7.5 9.3-8.5 1.7-.4 3.3 0 4.5 1.2 1.2 1 2.2 2.3 3.5 3.7.3-.6.8-1.2.7-1.5-1.1-5 .8-8.7 4.2-12 .5-.6 1-1.2 2-2.1l-1.1-6.3c-1.4-6.5.4-12.5 2.5-18.4 1.2-3.7 3.7-4.8 7.7-4.3 6 .7 9.1 3.8 9.6 9.8.5 7.5-.3 14.9-3.1 21.9.4.3.8.7 1 .6 1.6-.3 3.2-1 4.4.8 1.3 1.9 2.2 3.9 1 6.2-5 9.5-8.4 19.7-10.7 30.1l-.5 1.8-6.6 17.8c-.8-5.5-2-10-1-14.8 1-5.2 0-10-2.5-14.6-1-1.7-1.3-3.8-1.8-5.7-.3-.9-.3-.9-2.5-2.7-.2.8-.7 1.6-.5 2.2.6 2.8 1.2 5.6 2.2 8.2 1.7 4.8 2.6 9.7 2.5 14.9 0 2.6.5 5.2.7 7.8l.5 9.7 1 15.7c0 1 .5 1.9.8 3.2l7-1.3c.2-1.3.6-2.5.6-3.6 0-6.5.6-13-1.8-19.2-.9-2.3-.3-4.8.4-7.1l8-25c1.2-3.8 2.4-7.6 3.8-11.4.6-1.7 1.4-3.4 2.4-4.9 2.5-3.7 4.2-3.6 7.7-.7 3.8 3 5.4 7.2 6.6 11.3 2.3 8.3 6.8 15.6 9.7 23.5l4.9 13c.5 1.4.7 2.8.8 4.2.4 5.3 1 10.5 1 15.8 0 4.8-.6 9.6-1 14.4l-1 11c-.4 3.5-.9 7.1-1.1 10.8-.2 2.7-.9 5.1-2.3 7.4-1.3 2-2.2 4.4-3.7 6.3-2.5 3-2.7 6.5-2.5 10.2l.9 22.4c.1 3.4.2 6.9 0 10.3 0 3.2-1 6-4 7.7-1 .6-1.9 1.6-2.8 2.4-2.6 2.4-5.4 3.7-9.3 3-3.7-.6-6 1.6-6.8 5.3-.8 4.2-1.8 8.4-2.2 12.6-.5 4.7-1.9 9-3.6 13.4l-3.1 8.6c-1 2.2-2.3 3-4.1 3-2.5-.3-4.3-1.7-4.8-4-.2-1.6-.3-3.3-.1-4.8 1-11.1 2.5-22.2 6.3-32.7l.5-1.8c.8-1.9.3-3.5-1.2-4.9-.8-.8-1.4-2-2.4-3.2-2.5 2.6-3.5 5.2-5.2 7.7 2.2 3.8 1.9 7.7 1 11.8-.4 2-.4 4-.4 6a124 124 0 0 1-2.6 21.6 9 9 0 0 1-1.7 3.8c-1.4 1.8-4 1.6-5.1-.4-2.8-4.6-4-9.8-4.2-15-.2-5.7.2-11.4.3-17v-2.3ZM894.8 1286.6l1.6 3.3c1 2 1.2 4 .5 6.1-1 3-2 6.2-3.3 9.1a23 23 0 0 0-2.2 7.7c0 1.4-.7 3-1.5 4.2-2 2.8-4.6 3.3-7.3 1-3.4-2.8-7.1-4.3-11.3-5.3-2.5-.7-5-1.7-7.3-3-4.8-3-6.2-7.5-4.8-13a36.6 36.6 0 0 1 7.5-14.6c2.3-2.8 3.7-5.7 3.1-9.4-.2-1.5 0-3 0-4.6a16 16 0 0 0-2.3-9.2c-2.6-4.2-3.5-9-3.4-13.8 0-7.8 1-15.6 4.6-22.7 3.1-6.1 6.3-12.2 9.7-18.2 3.3-5.8 7.7-10.8 12-16 3.5-4 6.8-8.1 11.3-10.6 0-1.7-.8-1.5-1.5-1.7-2.4-.6-3.2-1.4-2.9-3.3.3-1.7.7-3.4 1.6-4.8 3.7-6.2 7.6-12.3 12.7-17.6a65 65 0 0 1 5.4-5c3.8-3.2 8.1-4.4 12.7-2 2.6 1.3 5.2.8 7.7.3 3 2.7 4.6 5.5 3.8 9.3a7 7 0 0 0-.1 2.8c1.4 6.3-1.3 11.6-3.7 17-.8 1.8-2.6 3.2-4 4.6-2 1.7-4 3-5.9 4.7-2.7 2.1-5.2 2-7.4-.8-.5-.5-.8-1.2-1.3-1.9l-1.3-2c-1 4.9-.8 5 2.2 7.3 2.5 1.7 4.7 3.8 7.2 6h2.5c4 .8 7.4 0 10.6-2.6a6.1 6.1 0 0 1 5.5-1c3.3.8 6.7.9 10.2.8 2 0 3 1.4 2.6 3.5-.4 2.4-1.4 4.6-3.3 6.4-6.2 5.7-9.8 13-13.6 20.4-1 2-1.3 4.3-1 6.6.5 5.2 1.2 10.3 1.3 15.4.2 6.3 0 12.6-.2 18.9 0 2.3-.3 4.5 1.4 6.4 1.4 1.5 1.6 3.5 1.4 5.4-.4 5.1-.7 10.2-1.4 15.3l-4.5 30.6c-.5 3.4-1 6.9-4.6 8.5v4.9c0 2.9 0 5.7-1.2 8.4-.5 1-.9 2.5-.4 3.3 1.8 3.7.8 7.5.2 11.2-2 11.7-4.1 23.3-6.3 34.9l-1.4 6.7c-.2 1-.7 2-.5 2.8 1 5-1.7 9.3-2.1 14 0 .6-.3 1.1-.6 1.6-.9 1.8-3.6 2-4.7.2a7.6 7.6 0 0 1-1.1-3.7c0-4.7.2-9.6 3.7-13.5l-1.4-9.6c-.2-2.3-.4-4.6-.2-6.9 1-9 2.4-18.1 5-27l2.7-7.7c-1.7.8-2.5 1-3.2 1.5-3.8 2.6-7.5 5.3-11.3 7.8-5.6 3.5-10 8.3-14.5 12.9-3.1 3-6.4 5.5-10.6 6.5a16 16 0 0 0-6.8 4c-1.3 1-2.7 1.4-4.2.6-3-1.5-3.3-4-.5-5.6 2-1.2 4.5-1.9 7-3 1.7-4 5.9-6.4 9-9.7 3.1-3.3 6.4-6.5 9.6-9.7 4-3.9 7.7-8 11.9-11.6 2.3-2 3.1-4.1 2.2-7-.9-2.5-1.7-5-3.3-7.2a54.5 54.5 0 0 1-9.1-23.2l-2.2-10.7c-.4-1.7-1.2-3.2-3-3.9-.4-.1-1 0-1.8.2Zm-5.3-16q-3-1.9-5.6-1.4c1 2.3 2.2 4.6 3.9 6.7 1.6-2.7 1.6-2.7 1.7-5.4Zm41.3 30.4q.8-5-.6-7.5c-1.5 2.9.1 5.1.6 7.5ZM659 1402.2c2 1.7 4 1.5 5.8 1.9 3.4.7 6.6 1.9 8.7 4.9 1 1.4 2 2.8 2.5 4.4 2.9 9.4 4.3 19 3.8 28.8-.3 5.1.2 10 1.5 15.2 4 15.3 7.8 30.7 10.4 46.3.6 3.2.8 6.4 1 9.7.1 2-1.8 3.2-3.5 2.4-1.4-.7-2.7-1.5-3.7-2.6-2-2.1-3.2-4.7-3.9-7.6-.4-1.8-.8-3.7-1.5-5.5-1-2.3-2.5-4.2-5.7-4.1 0 1-.3 1.7-.1 2.4 1.4 5 .4 9.8-.5 14.7-.5 2.3-.7 4.5-.4 6.8.5 3.4.3 7 1.2 10.2a86.2 86.2 0 0 1 2.7 15.7c.6 5.3.7 10.6 1.4 16 1 6.8.7 13.6.5 20.4-.1 4.2.3 8.4.6 12.6.2 2 1.3 3 3.3 3.4 1.1.2 2.3.2 3.4.3 5.3.4 6.2.7 11.7 4.6-.4.7-.8 1.8-1.4 2-3.8 2-7.6 3.7-11.4 5.4-4.3 1.9-8.9 2.2-13.4 2.5-1.8.1-3-.8-3.3-2.5-.5-2.5-.9-5-.9-7.4l.2-19.5c0-3.4 0-6.7-2.1-9.8-1-1.5-1-3.7-1.4-5.5l-1.4-7.5-1.9 2a249.6 249.6 0 0 0-7.6 11.5c-.5.8-.8 1.7-1.4 2.4-6.1 7.1-8.7 16-13 24.1l-3.4 7.3c-.5 1-.9 2-1.2 3.2-.9 3-.2 4.7 2.6 6.1l8.7 4.2 2.5 1.4c1.1.9 1.1 2.9-.1 3.5-3.5 1.6-6.8 3.6-10.5 4.4-8.4 2-8.4 1.7-16.2-2.4l-2.2-1.3c.2-1 .1-2.3.7-3.2 2-3 3.2-6.4 3.5-10.1.1-1.1.6-2.2 1-3.3 3.1-10.5 7.8-20.2 13.6-29.5 1.8-3 3.4-5.9 3.9-9.4.3-2.2 1.5-4.3 2.4-6.4 1.5-3.3 1.8-6.5 1.2-10a313.3 313.3 0 0 1-4.3-32.4c-.2-2.6-1-5.2-1.6-7.8-.5-2-1.5-3.9-3.3-5.1a9.2 9.2 0 0 1-4-9c.2-3.2-.4-5.8-3.1-8-2.4-2-3.6-5-4-8-.3-2.7-.8-5.4-.8-8l-.2-53.8c0-4.3.6-8.6 3-12 2.7-4 5.7-7.7 10.1-10 .3 0 .7-.2 1-.4 6.3-4 6.3-1.6 6.5-10.4.1-5.8 2.4-10.8 6.1-15.1.8-1 2-1.8 3.2-2.3 1.9-.8 4-1.4 6-2 2.7-.8 4.3 0 5.5 2.5 1.4 3 1.4 6 .7 9-.8 2.7-1.9 5.4-3 8l-3.3 6c-1 1.8-1.6 3.5-1.1 5.7ZM1550.1 147.6l2-3c1.1-1.4 2.5-1.9 4.2-1.3l5.9 2c2.1.7 2.3 3 3.5 4.3 1.2 0 1-1 1-1.5l-.6-17.7c-.2-6.3-.7-12.7-.1-18.9.9-9 .6-18 .8-26.9l1-22.2c.1-4 .5-8-1.5-11.8-1.4-2.8-.9-5.5 1.3-8 1.4-1.4 2.5-3.2 3.6-4.7 2.5-.5 3.9 1 5.4 2 1.7 1 3.1 2.5 4.8 3 4 1.5 6.1 4.5 7.5 8.2 1.4 3.7 2.7 7.5 4.2 11.2l5.4 12a77 77 0 0 1 5.2 16.3c1.1 5.4 2 11 3 16.4.2 1.3.3 2.6.3 4 .1 1.5-.3 3-1.3 4.2-.7.7-1.3 1.4-1.8 2.2-2.4 3.8-4.2 7.7-3.3 12.4.8 4.3 1.3 8.6 2 13 .7 3.1 1 6.3.6 9.6-.3 1.9-.4 3.8-.4 5.7-.2 3 0 6 2.6 8.3 1.5 1.3 1 3.3-1 4.2l-11 5.4c-.4 3.5-1 7.3-1.1 11a28 28 0 0 1-2.3 10.6c-4.3 9.8-6.8 20.2-8.5 30.8-1.1 6.5-1.3 13.2-1.6 19.9-.3 6-1.7 11.7-3 17.4-.4 2.2-1.8 4.2-3.1 6-1.4 2-4 1.8-5.2-.4a23.2 23.2 0 0 1-3.4-12.5c.3-13.3.5-26.7.4-40 0-6.5-.8-13-1.4-19.4 0-.7-.4-1.4-.6-2-1.8.4-1.6 1.8-1.8 2.7-1.6 9.2-3.1 18.5-3 27.9.2 5.1 0 10.2-.6 15.4-.5 4.7-.3 9.5-.3 14.3 0 2.5-.2 5-1.5 7.2-1.2 2.1-3.6 2.4-5.1.4a17 17 0 0 1-4-8.7c-1-9.6-2-19.3-3.3-29-1-7.5-2.6-15-4.1-22.4-1.3-6.4-2-12.9-2.3-19.3-.1-2.5 0-5 .3-7.4a8 8 0 0 0-1.5-6.5c-4.3-5.1-5.5-11.6-7.7-17.7-.6-2-.6-4.1-.8-6.2l-1.2-11.4c-.4-3-1-3.5-4-4h-.5c-4.4.2-7.3-1.7-8.6-6a5.4 5.4 0 0 0-4.6-3.7c-6.4-.8-10.8-4.5-14.4-9.4-.6-.7-1.4-1.1-2.7-2.1v3.4c2.6 12.2 5 24.3 7.7 36.4 1.2 5.7.7 7.5-4 10.6-.7.4-1.4.7-2 1.2-1.2 1-2 2.5-1.3 4 2 4.8 1.4 9.8 1.4 14.8 0 12.8 1.5 25.5 4.5 38 1.5 6 2.8 12.2 4.2 18.3.3 1.3.4 2.7.3 4-.6 6.5.4 13 2 19.2.9 4 1.6 7.8.8 11.9-.4 2-.2 4.2-.3 6.3a7.8 7.8 0 0 1-3.1 5.8c-1.9 1.4-4.5 1.1-5.5-1a40.7 40.7 0 0 1-3-8.5c-1-4.7-1.5-9.4-2.3-14.1-.1-1.2-.1-2.4-.7-3.4-1.8-3.3-1.8-7-2.4-10.5-.3-2.2 0-4.5.4-6.8.6-3.7.3-7.4-2.1-10.3-3.3-4-3.5-8.8-4.4-13.4-.5-3-.8-6-1.6-9-1.3-5-3.3-9.7-4.3-14.8-1-4.6-2.5-9.2-2.2-14 0-1-.1-2-.4-2.8-.3-1-1.1-1.6-2.2-1.4-.9.1-1.8.4-2.7.7-2.6 1-3.8 2.2-2.4 5.2 1.5 3 1.4 6.3.1 9.5-.8 2-.7 4-.5 6.1.5 4.6.7 9.2 1.1 13.7l4 37c.6 4.7 1.3 9.4.5 14.2-.3 2.2.2 4.5.2 6.8 0 .4-.6 1-1 1.2-.4.1-1.2-.1-1.5-.5-.5-.5-1-1.2-1.2-1.9a27 27 0 0 0-4.6-7.8c-.9-1-1.2-2.4-1.8-3.6l-.1-.5c-2.5-5.4-3.4-11.2-4.3-17-1.3-8.3-3.7-16.3-5.6-24.5-2.2-10-4.4-20.1-4-30.6 0-.9-.3-1.8-.4-2.6-5.1-2.8-5.2-2.8-6.6-8.6-1.8-7.3-3-14.6-3.2-22-.3-9.6-.8-19.1-1.4-28.6-.1-2.3-.6-4.5-1-7.7l-1.8 2.5c-1.2 2.1-2.3 4.4-3.7 6.4a35.9 35.9 0 0 0-5.2 10.1c-1 3.3-2.2 6.5-4.4 9.2-.8 1-1.2 2.4-1.8 3.6-2.6 5-5.5 10-10.2 13.2-1.8-.5-2.1-2-2.2-3.2-.3-4-.3-7.9.9-11.9 2-7 5-13.5 8-20.1 4.3-9.8 8.3-19.7 12.5-29.5l5.7-13.7c.4-.9.8-1.8 1.4-2.5 2-2.5 3.2-5.1 3.6-8.3.2-1.9 1.7-2.4 3.4-1.8 2 .8 3.6 2.3 4.6 4.1 1.4 2.3 2.6 4.7 3.8 7l5 10.3c.5.8 1.2 1.3 2.2 2.4l6.5-9.8 6.4-10.2a4.4 4.4 0 0 1 4.9-2.2c4.3.8 8.2 2 11.4 5.8 3.8 4.5 7.7 8.9 11 13.8 4 5.7 8.2 11 12.3 16.5 1 1.4 2.3 2.5 3.3 3.5 1.7-.1 2-1.2 2.2-2l1.7-7.9 2.3-10.6.5-1.6c1.4-9.8 2.8-19.6 4-29.4.3-2 1.2-3.7 2.3-5.2 1.7-2.3 3.7-4.3 4.8-7 .4-1 1.4-1.9 2.3-2.6 1.1-1 2.8-.6 3.3.8.9 2.5 1.8 5 2.1 7.7l2.8 23.2.7 4a120 120 0 0 1 3.7 30c0 1.9.3 3.8.4 5.7.3 3.8.7 7.6.7 11.4a87 87 0 0 0 3 21.4c.1.2.3.2.8.6Z" class="cls-1"/><path d="M1563.7 22.5c.2 3.5-.5 7-2.6 10.2-1 1.7-1.4 3.9-2.1 5.8-.5 1.2-1 2.5-1.7 3.6-1.4 1.8-3.5 1.6-4.6-.5l-.9-2.1a5 5 0 0 0-3.6-3.3c-2.5-.6-3.7-2.4-4.2-4.9-.5-3.2-1-6.3-.5-9.6.6-4 .3-8 1.7-11.9A74 74 0 0 1 1548 3c.6-1.4 1.9-2.3 3.4-2.7 1.6-.5 3.2-.4 4.3.8 2.5 2.7 5 5.2 6 8.9 1.1 4 2.2 8 2 12.5ZM1451.8 68.8c.7-3.4.2-6.5-1.1-9.6-1.8-4.3-2-8.8-1.6-13.4.3-2.8 1.4-5.1 3.4-7 1.9-1.7 3.9-2 5.7-.5 7.4 6.2 11 12.5 8.2 21.9-.7 2.2-2.2 4.4-3.6 6.3a20.5 20.5 0 0 0-4.8 10.8c-.1 1.3-.8 2.6-2.3 2.9-1.3.2-2.5-.9-2.9-3-.5-2.8-.7-5.6-1-8.4ZM1392.6 607.3c.3-2 .5-4 1-5.8l2.6-12.4c.8-4 1.5-8 1.9-12 .7-6.2 1.2-12.5 1.7-18.8a12 12 0 0 1 2.2-6l.8-1c.5-.7.8-1.5.3-2.3-.8-1.2-.8-2.5-.7-3.9 0-2.8.2-5.5.8-8.3v-2.4c-.2-1.3 0-2.4.8-3.5.3-.4.4-1 .5-1.5 1-4.3 2.1-6.1 5.6-8.9l.4-2 4.6.4a6 6 0 0 0 3.1-.3c3.3-1.3 6.8-1 10.2-.8.9 0 1.7.5 2.6.7.8.2 1.7.5 2.5 0v-.6c-3-3.2-3.3-7-2.7-11.1a213.9 213.9 0 0 1 2.4-11.4c.6-1.8 1.4-3.5 3.6-4 1.6-1.1 3.6-1 5.4-1.6.9-.3 1.7 0 2.5.6 1 .6 1.8 1.2 2.6 1.9.9.6 1.4 1.4 1.6 2.4.8 3 .7 6.1 0 9.3-.8 2.8-2 5.6-2.4 8.5 0 .8-.4 1.6-.6 2.4l-1 4.4c-.3 1.3.2 2.2 1.2 2.8 1.5.7 3 1.4 4.7 1.9.8.2 1.6.2 2.3.7.3.2.7.4 1 .4 1.5-.3 2.7.7 4.2.8.9.1 1.7.7 2.2 1.4 1.4 2.3 3.5 3.8 5.7 5.3 1 .7 2 1.2 3.1 1.4a6 6 0 0 1 3.3 1.5c-.2 2.2 1.2 4 2 5.9.5 1.1 1.2 2.2 1.2 3.5 0 .8.5 1.5.7 2.3.3 1.5 0 2-1.2 2.6l-1 .3c-1.3.5-1.6 1.2-1 2.3l1 1.6c.3.2.6.6.6.9 0 1.4.8 2.5 1.1 3.8.7 2.3.7 4.7.2 7-.6 3.3-1.2 6.7-2.2 10a869 869 0 0 1-7.1 23.4c-1.3 3.9-2.8 7.6-4.3 11.3-.5 1.4-1.2 2.6-2.7 3.3-1.3.5-2 1.7-2.3 3.1l-.4 1.9-2.5 18.7c-.4 3.7-.4 7.5-.4 11.3 0 1.5-.3 3-.4 4.5l-.1 1.4c0 5.7-.9 11.4-1.5 17.1-.5 4.1-1.5 8.2-2.3 12.2-.2.7-.4 1.4-.8 2-1.2 1.5-1.5 3.3-1.9 5-.4 2-1.1 4-1.2 6-.2 2.5-1 4.8-.8 7.3.1 1.4 0 2.9-.3 4.3-.6 4-.3 8-.4 12 0 .7 0 1.4.4 1.9 1.4 1.7 1.3 3.6 1 5.6 0 2-.4 4-.7 5.9l-.6 6.2a43 43 0 0 1-1 4.7c-.2 1.2-.6 2.5-1.2 3.6-1 1.5-1.4 3-1.6 4.8l-.5 3.7c0 1.5-.8 2.7-1.6 4-.6 1.2-3 1.1-3.5-.3-.5-1.1-1.3-2.2-1.9-3.2-1-1.8-1.6-3.6-.8-5.7l1.5-3.5c.6-1.3.8-2.5-.1-3.8-1-1.4-1.2-3-.9-4.6l.9-5.6a28 28 0 0 0 0-9.4 93 93 0 0 1-.8-14.2l-.1-12.2c0-1.7-.3-3.5-.3-5.3l.2-9.7.2-4c-.1-3 .2-5.8.8-8.6.3-2.1.3-4.3 1.2-6.4.2-.4.2-1 .2-1.6 0-1.8.5-3.5 1-5.2.8-3 1.4-6.1 2-9.2.2-.3.2-.7.1-1-.5-2 0-3.8.7-5.6l-.1-.7c-2.2-.3-3.8 1-5.6 2.2l-.3-1.6-3 .3c-1.3.3-2 1.2-1.7 2.6.4 1.5.4 3 .6 4.5v2.3l.6 1c.6.8.7 1.7.4 2.8a35.2 35.2 0 0 0-1 13.3c0 2.8.6 5.5.9 8.3v2.2l.3 5c.3 3.2.4 6.3-.8 9.4-.3.7-.3 1.6-.2 2.3.4 2.7.7 5.4.3 8l.2 2.2c.1 2 .5 4.2.3 6.2-.3 3.1-1 6.2-1.6 9.3a6 6 0 0 1-1.5 3c-.7.8-2 .8-2.3-.1-.7-1.5-1.9-2.7-2.8-4-.7-.8-1.1-1.8-1.1-3-.1-1.7-.2-3.5.3-5.3.6-2.3.9-4.6.8-7v-11.8c-.2-2.2-.6-4.3-1-6.4-.3-2.2-.6-4.5-.7-6.7a268 268 0 0 0-1-12.7c-.2-3-.7-6.2-1-9.3v-10.3c-.6-3.7-1-7.4-1.7-11.1-.5-3.2-1.5-6.3-1.6-9.6 0-.6-.2-1.2-.4-1.8-.8-4-.6-8-1-11.8.5-2.6-.3-5.2 0-7.8.3-1.7-.2-3.6-.4-5.3l-1-9.4a812 812 0 0 1-.9-14l-.1-5.1-.6-5.1c0-.5-.3-1-.5-1.5-.5-1-1.4-1-2-.2a6 6 0 0 0-.6 1.5c-.4 1.4-1 2.9-1.2 4.4l-1.5 11.2-.5 3-.4 2.9v1.3l-2 11.4c-.4 2.2-.6 4.5-.8 6.7l-.6 7.2c-.6 4.4-1 8.8-2.6 13-1 2.3-2.2 4.5-3.3 6.7-.2.4-.6.7-1 1a1 1 0 0 1-1.5-.1l-.8-1.1-4-6.4a5 5 0 0 1-.7-2l-.7-8.6c0-1 .3-2.1.3-3.2l.2-4.8c.2-3.6.1-7.2.1-10.8 0-5-.7-10-1.7-15l-.7-2.2-1.6-5.2c-1-3.4-2-6.7-2.8-10.1-.7-2.8-1.5-5.6-2-8.4-.4-1.8-.4-3.6-.5-5.4 0-1.3.6-2.6 1.1-3.8.4-.8 1-1.3 2-1.3s1.7.4 2 1.3c.6 1.5 1.2 3 1.3 4.4.5 3.9.7 7.7.9 11.6.2 5 1 10 2 15 .8 3.3 1.9 6.7 2.5 10.1a167 167 0 0 1 1.7 11 22 22 0 0 0 2 7ZM1347.5 705.3l1.2.4c1 .2 1.3 1 1.4 1.8 0 1 0 2-.2 3-.8 3-.9 6.1-1.4 9.2 0 .6 0 1.1-.2 1.6-.8 2.6-1 5.3-1.5 8l-.3 1.5c-1.4 4.5-2.6 9-4.1 13.4-.8 2.1-2 4-2.3 6.3l-.6 4.6-.7 8c-.2 2-.6 3.9-.4 5.9 0 .7-.3 1.4-.5 2l-1.4 3.9-.3.7c-.5.7-1.7.7-2 0-1-2-1.8-4-1.1-6.3.6-2.3 1.2-4.7 1.6-7 .8-4.5 1.7-8.9 2-13.4.3-3.3 1-6.7 1.6-10 1-6.6 2.2-13.2 3.1-19.7.7-4.8 2-9.4 3.3-14 .2-.8.6-1.7 1.3-2.2.4-.2.9-.2 1.3-.1.2 0 .4.5.4.8l-.2 1.6ZM1348.7 516.4c-3.4 0-6-1.4-6.7-4.7-.6-2.8-1.1-5.6-.7-8.5.3-2 .4-4.1 1-6 .6-2.1 1.6-3.9 3.4-5.2l1.2-1c1.3-1.4 3-1.8 4.7-1.5a5 5 0 0 1 4 3.4c.5 1.3.9 2.7.8 4-.1 5 1 9.8 2 14.7.5 2.9.3 3.2-2.6 3.8l-7.1 1ZM1321.7 711.4c1.2 1 1.7 2.3 2 3.9.5 3.9.6 7.8.5 11.8v10.8l1 11c.4 2.5.6 5.1.7 7.7 0 2.3.2 4.5.4 6.7v1.7l.3 8c0 .6-.1 1.1-.7 1.4-.5.2-1.1 0-1.5-.3-1.2-1.4-2.3-2.9-2.3-4.8.1-2.9-.6-5.7-1-8.5-.5-5.4-1-10.8-.4-16.1v-.8l-.4-8.4c-.4-4-1.1-8.2-1-12.3v-1c-.8-3 0-5.8.1-8.7 0-1.5.4-1.7 2.2-2.2Z" class="cls-1"/><path d="M1380.7 545.3c-.5 0-1-.4-1-1-.1-.8.3-1.4.9-1.4.5 0 1 .4 1 1 .2.6-.3 1.3-.9 1.4ZM1379.1 587.4v-.2l.2.1-.2.1zM1383.1 598.9v-.2l.1.1-.1.1z" class="cls-1"/><path d="M1392.6 688c-.1-.7-.3-1.3-.7-1.8-1-1.8-1.8-3.9-2.5-5.8-.3-.9-.3-1.7.3-2.3 2-1.8 2.7-4 3.1-6.6.2-.8.3-1.4.1-2.1l-.6-2.1c-.7-2.8-1.5-5.6-2-8.4-.5-1.9-.7-3.9-1-5.8l-2.2-11.4c-.4-2-.5-4.1-1-6.1-.2-1.3-.6-2.5-.4-3.7.2-1.3-.8-1.4-1.6-1.7.1-1 .1-2.2-.5-2.8-1.3-1.5-1.8-3.5-2.8-5.2-1-2-1-2 .4-3.7l.1-.7a4.8 4.8 0 0 1-1.2-3.3c0-1-.3-1.9 0-2.9.1-.9-.1-1.9-.2-3 1.2.1 1.9.6 2.5 1.3-.2 1-1.2 1.6-.6 2.8l1.3.6.7.1.2-.2v-.6c.3-2.5-.1-4.6-2.6-6-1-.4-1.6-1.4-2-2.4-.1-.6-.5-1.2-.7-1.7v-.6l1.1-.5a5 5 0 0 0 0-4.1c-.4-1-1-2-.7-3.1.1-.8-.4-1.4-1-1.8-.8-.4-1.7-.6-2.2-1.6.7-.7 1.8-1 1.4-2.3l-.4-.3-.8-.2c-1-.4-1.3-1.1-.6-2 .3-.5 1-.6.9-1.4-1 0-1.6-.6-2.2-1.1-.7-.6-1.7-.7-2.5-1-.3-.2-.7-.3-.9-.6-1.5-1.9-3.6-3-5.7-3.9-.2 0-.3-.2-.4-.4v-1l-3.3-2.6-1.4.7-.1-1.8-.7-.4c-1-.2-1.5-1-1.7-1.9l-.8-3.4c-.3-1.8 0-3 2-3.4.3 0 .7-.1 1-.4.4-.3 1-.7 1-1.1.1-1.5 1.2-2.4 1.8-3.6a6.8 6.8 0 0 1 3-2.9c1.1-.6 2.3-1.3 3-2.2 1-1.2 2.1-2 3.4-2.6l2.2-1.1c-.3-1.7 1-2.4 2.2-3 0-1.7.6-3 1.5-4.2-.3-1.3-.7-2.4-.8-3.6-.2-1-.6-1.6-1.3-2.1l.7-1.6-1.7-1c-.5-.3-1.2-.7-1.4-1.2-.6-1.7-1.8-2-3.4-1.8l-.7-.3-.4-.7c-.8-2-2-3.6-4.3-4l-1.2-.6c-1-1-2.1-2-3.2-2.8-.5-.4-1-.8-1.6-1-1.7-.4-3-1.2-4-2.6-.6-.8-1.4-1-2.4-1-.5.2-1 0-1.6.2-1.3.2-2.6-.2-3.9-.5-2.3-.6-4.7-1.2-7 .1-.7.4-1.4.4-2.1.6-1.7.4-3.1 1.1-3.7 2.8-.6 1.5-1.6 2-3 2.2-.6 0-1.1.2-1.7.3-.8 0-1.5.4-2.1 1l-1.4 1.3c-.9.7-1.4 1.6-1.1 2.8v1.2l-2.8 2c-.7.6-1.7 1.1-2 1.9-.6 1.8-1.7 3.5-2.1 5.4-1.3 5.7-1.1 11.3-.9 17a5 5 0 0 0 1.3 3.2l2.6 2.6c1.4 1.2 1.6 1.7.6 3.2-.9 1.6-1.8 3-3 4.5-3 3.7-5 7.9-5.8 12.6a9 9 0 0 1-.6 2c-.5 1-1 1.5-1.5 1.3-.7-.3-.6-1-.6-1.6.3-3 .4-6 .9-8.9.3-2.2 1.1-4.3 1.5-6.5.7-3.6 1.2-7.1 1.7-10.7l.2-1.6a9 9 0 0 1 .7-3.7c.5-1.1.5-2.4.1-3.7 0-.2-.3-.5-.5-.5-.3 0-.7.1-1 .3a2 2 0 0 0-.5 1l-1.5 4.8c-1.3 6-2 12.3-2.7 18.4-.5 5.1-.7 10.2-1 15.3l-.7 11.6c0 .8-.3 1.6-.9 2.2a369 369 0 0 0-4 4.7c-1.6 2-3.3 3.7-4.3 6.2a9.5 9.5 0 0 1-2 3c-.6.6-1 1-1.2 1.8-.1.5-.3 1-.7 1.4-1 1.2-1.2 2.6-1.1 4l.3 3c.1 1-.3 1.5-1.3 1.6-.8 0-1.7-.2-2.4.5l.1 1.7c-.8.8-1.8 1.4-2.3 2.3a14.9 14.9 0 0 0-2.5 7.3c0 1-.3 1.8-.7 2.6l-1 2.2c-1.2 1.9-1.3 4-2 6.2a101.2 101.2 0 0 0-3.5 21.2c0 3-.6 6 .7 9 .2.4.1.9.2 1.3l1.3 5.5c.7 2.6 2.5 4.1 5 4.8l2.4.4c1 .1 1.6.6 2 1.6.4 1.2.9 2.5 1.5 3.7 1.3 2.4 3 4.1 6 4.5 1.4.2 2.8.1 4.2-.3 1.8-.5 3.6-.7 5.3.2 2.7 1.4 5.5 1.3 8.4 1 .8-.2 1.6-.2 2.4-.2 1 0 1.9.4 2.5 1.4l2.8 4.2c.6.8 1.3 1.2 2.3 1.3h1.6c3.8-.6 7.6-1 11.4-1.7 1.7-.3 3.2-1.4 3.4-3.4l.3-1.3c.3-1 .9-2 2.2-2 1.2-.2 1.9-.9 2-2.1 0-1.1.6-1.9 1.6-2.3.3 0 .5-.2.7-.4 1.3-1 2.7-1.4 4.3-.9.5.2 1.2 0 2 0l1 1.5c.4.5.8 1 1.3 1.3l3.4 2 1.9-.3a4 4 0 0 1 1.7.6c.7.4.4 1.1.4 1.7l.2.8 1 .2c1.5-.1 2.5.5 2.8 2l.8 2.5c.2.6.4 1.3.7 1.7l4.7 5.9c.6.6 1.2 1 2 1.2.8.1 1.3 0 1.7-.7.4-.6.4-1.6 1.4-2l2.8 3.8a20 20 0 0 0 1.8 2c.3.4 1 .3 1.4-.2.6-.8.7-1.7.7-2.8l-.4-6.4c-.1-1.8.6-3.2 2.2-4a7 7 0 0 0 3.1-4c.5-1 .8-2.3 1.2-3.5.4-1.2 1-2.3 1.2-3.5.2-1.3 0-2.7-.1-4l-.2-4.4Zm-34.4-114.2.2-.1v.2l-.2-.1Z" class="cls-1"/><path d="m468 1580.3-.7-6.6-1.2-8.4c-.4-2.7-.9-5.2-1.9-7.7-.5-1.3-1.6-2.5-1.2-4.1l-.2-.5-2-5.5c-.5-1.3-.7-2.7-1-4-.2-.8-.4-1.5-.9-2a7.2 7.2 0 0 1-1.6-3.9 5.5 5.5 0 0 0-1.4-3.2l-4.2-4.9c-.8-.7-1.1-1.4-.9-2.5.5-2.4.9-4.7 1.2-7.1.2-1 .3-2.2.1-3.2-.3-2.4-.7-4.9-1.2-7.3-1-5.7-2.2-11.3-5-16.5a12.4 12.4 0 0 0-10-6.9 16 16 0 0 0-4.3 0c-4 .6-7.3 2-9.2 6a46.5 46.5 0 0 0-4.7 17c-.3 3.3.6 6.3 3 8.7l.6.7c.6.7.6 1.5-.1 2.2-.5.5-1 1-1.2 1.6-.3 1.1-1 1.9-1.7 2.7-.8.8-1.4 1.6-2 2.5l-2.4 2.7-.9-1.3-.9-3c-.4-2.2-1.4-4.1-2.6-6l-2.5-4-1.8-2.7-6.5-8c-.5-.6-.7-1.3-.6-2l.9-5.5c.2-1.2.5-2.4.5-3.5 0-1.2-.2-2.4-.5-3.5-.8-2.8-3-4.6-4.8-6.6a8.8 8.8 0 0 0-6.8-2.9c-.4 0-.9.2-1.1.5a53 53 0 0 0-2.6 3.5c-.9 1.3-1.6 2.8-2.6 4a9.6 9.6 0 0 0-1.7 4.4l-1 6c-.3 1.7-.6 3.5-.6 5.3 0 1.4-.4 2.6-1.7 3.3l-2.2 1.4c-2.1 1.1-2.8 2.3-2.5 4.7l.3 2.4v1.3c-.5-.5-1-.7-1.2-1-.7-.7-1.3-.6-2.1-.3a11 11 0 0 0-6.1 6.2l-.7 1-1.3-3.2c-.5-1.6-1-3.1-.9-4.8.1-1.4.2-1.5 1.6-1.6 1 0 2.2 0 3.4-.2 1-.1 1.5-.7 1.7-1.8 0-.6.3-1.1.6-1.7.5-1 1.1-1.9 1.4-2.9.6-1.6.9-3.3 1.4-4.9.2-.7.7-1.3 1.2-1.8.5-.6 1.2-1 1.8-1.4 2.2-1.2 3-2.9 2.6-5.4l-1.1-9.8c-.1-1-.5-2.1-1-3-1.8-3.2-3.8-6.4-5.8-9.5-.5-.8-1.5-1.3-2.4-1.8l-1.8-.9 1.8-2.5c.3-.6.7-1.2.8-1.9l.1-4c0-1.5-1-2.8-2-3.1-1-.3-2.5.4-3.2 2a17 17 0 0 0-1.9 9.3c.3 1.7.4 3.4-1.2 4.7-.3.3-.4.8-.6 1.2a43.3 43.3 0 0 0-4.2 17.6v4.5l-.3 1.6c-1.5-1-2.5-2-3.4-3.1l-1.5-1.7c-.7-.7-1.6-1.2-2.4-1.8a6 6 0 0 0-5.5-1.3l-5.5 1.4c-3.8 1-6.8 3-8.7 6.5-.7 1.3-1.1 2.6-1 4 0 .7 0 1.5-.6 2.2l-2.3-4.1c-1.4-2.5-3.2-4.6-6.2-4.6-2.2 0-3.6-1.3-5.4-2 1.6-.6 2.7-1.6 3-3.3.6-2.5 1.2-5 .7-7.5a15 15 0 0 0-2.8-6.6c-.9-1-1.7-2.1-3.4-1.5-.4.1-.9-.1-1.3-.1-4.2-.3-7.3 4-6.7 7.3l1.1 5.5c.3 1.4.9 2.7 1.2 4 0 .6 0 1.3-.2 1.8-.4.9-1 1.7-1.6 2.4a21 21 0 0 0-4.7 11.3l-.5 4.7c-.3 2-.3 4.1.3 6.2.3 1.1.4 2.4.6 3.6 0 1-.2 1.3-1.2 1.5-1.8.3-2.7-.7-2.7-2.6 0-2.5 0-5-.2-7.4-.2-1.2-.6-2.5-1-3.6l-1.6-3.1-2.3-4.4a3 3 0 0 0-.8-1 51 51 0 0 0-3.7-2.4c-.5-.3-1.2-.4-1.8-.6-.8-.2-1.7-.3-2.5-.6-1.5-.6-3-1.3-4.4.1l-.3.1c-1.2.3-1.9 1-2.4 2-.7 1.2-1.4 2.5-2.4 3.5s-1.6 2.2-2 3.5c-.5 1.6-1.2 3-1.8 4.7-2.7-.8-4.8-2-5.6-4.6-.4-1.5-1.2-2.5-2.5-3-2-.6-4-1.1-6-1.4-.8-.2-1.8.3-2.4.9-.8.7-1.5.7-2.3.2l-1.4-1a6.9 6.9 0 0 0-4-1.4c-1 0-2 .2-2.6 1.1a12.5 12.5 0 0 0-3 5.9 6 6 0 0 1-2 3.4c-1.1-1.1-1.3-1.4-1.3-3.2.2-3.3-1-6.5-.5-9.8.1-.5 0-1-.1-1.4-.2-1.3-.5-2.7-.4-4.1l1-11.4-.2-1.8a3.3 3.3 0 0 0-2-2.9l-2.2-1.3a16.8 16.8 0 0 0-11.5-3.1l-9.4.6-3.6.4c-1 3-1.7 3.2-4.6 2.2l-5-1.4c-1 .7-1.5 1.4-2.2 1.6-1 .4-1.5.8-1.9 1.7-.3 1-1 1.1-1.8.9l-2.4-.7c-2-.6-3.3 0-4.5 1.6l-1.4 1.8c-2.5 3-3.2 6.5-3.3 10.1 0 .8.4 1.8.9 2.4 1.1 1.4 2.4 2.6 4.4 2.6 1.4 0 1.8.9 1.7 2.2-.1 1.2 0 2.4-.3 3.6-.4 1.8.1 3.4 1.2 4.8.7 1 .9 2 .7 3-.3 1.6-.4 3.2.2 4.8l2.1 5.4a7 7 0 0 0 6.1 4.5c2.5.3 4.9.9 7.2 1.6 1.7.5 3.3.4 5 .4l8.3-.1 7-.1 1.9-.1c1.2 0 1.4.5 1.2 1.6l-1 4.2c-1.1 3-.4 5.8 1 8.5.5 1 1.3 1.8 2.5 2.1l2 .7c1.9.6 2 .6 2 2.6l-.4 8.4-.4 6.8c0 3.7-.5 7.5 1.5 11 .1.3.2.7.1 1-.3 1.5-.5 3-1 4.3a8 8 0 0 0-.4 4v1.8l-.2 5.7c0 2.3 1 4.2 3.1 5.3 1 .4 1.5 1.2 1.5 2.2l-.1 4.8c-.2 3.8-.6 7.6-.7 11.3 0 2.8.2 5.6.4 8.4.2 3.7.3 7.3.8 11 .4 3.3 1.3 6.6 3.5 9.3l1.9 2.4c.5.6.9 1.2.7 2.2-.1 1.4.6 2.6 1.7 3.5 1.4 1.2 1.5 1.3.5 3l-.7 1c-.7.7-1 1.5-1 2.4 0 3-.1 6 .3 8.9.4 2.6 1.1 5 .7 7.7-.2 1.3 0 2.7 0 4 0 1.1.3 2 1.2 2.6 1.2 1 2.4 1.9 3.5 3 1.7 1.5 4 1.2 5.2-.7.6-1 1-2.2 1.7-3.3 1.2-2 1.2-4-.3-6a7.7 7.7 0 0 1-1.8-5v-4.2c-.4-4.7-.8-9.4-1-14-.1-1 0-2 .1-3 .3-2.5.7-5 .8-7.4.1-2-.2-3.9-.3-5.8l-.8-12.4.2-4.1v-2.3c-.7-3.3.4-6.3 1.4-9.4 0-.5.5-1 .9-1.2 1-.8 1.8-1.8 1.9-3.3 0-.3.3-.7.4-1 .4-1.6 1.7-2.8 1.6-4.6 0-.6.4-1.3 1.3-1.4.6 1.1 0 2.2 0 3.2l-.2 3.6v1.5l.1 1.9c.1.8.4 1.7.4 2.6l-.9 12.3c-.2 1.9-.4 3.8-.8 5.8-.4 1.6 0 3.5.4 5.2.4 1.4 1.1 2.7 1.7 4l1 1.6 1.7 2.2c.9 1.4 1.8 2.6 3.4 3.2 2 .7 2 1 1.5 2.9 0 .4-.2.9-.4 1.2-1.4 1.8-.8 3.6-.4 5.4.7 3.2 1.4 6.3 1.8 9.5l1.5 14c.5 3.5 1.2 7 1.6 10.5.7 6.3 1.8 12.4 3 18.6.8 4 2.7 8 1.6 12.2l.1 1 2.4 9.3c.5 1.7 1.5 3.1 2 4.8a9.3 9.3 0 0 0 2.7 4.7c.8.7 1.1 1.6 1.2 2.6v2c.1 5.8.2 11.6.5 17.4 0 2.5.3 5 .8 7.6.4 2.7 2.6 5.5 6.2 4.1.8-.3 1.2 0 1.4.8.4 1.3.8 2.5 1 3.8.3 2.8 1.1 3-2.4 4.4l-.5.2c-1.2.6-1.8 1.5-1.6 2.8 0 1.2.2 2.4.5 3.5.2 1.1.7 2.2 1 3.3.1 1.1.7 1.8 1.9 2l4.8 1c.4 2.7 2.4 3.8 4.8 4.4 2.2.6 3.2 0 4.2-2 .7-1.4 1-3 2-4.1 2-2.6 2.8-5.5 2.5-8.7-.2-2.2.6-4.1 1.4-6 .4-1 .8-2.2.9-3.3.1-2.8.5-5.5.7-8.3.1-3.6-.2-7.3.6-11 .5-2 .3-4.4.5-6.6.2-1.8-.2-3.4-1.5-4.8-1.8-2-1.6-3 .3-4.8l.2-.1c.6-.9 1.4-1.6 1.9-2.6.7-1.5.4-3.4 1.7-4.7l.1-.5-.6-9.5c-.2-2-.7-3.8-.7-5.8-.1-2.6 0-5.3.1-8v-3.4c0-1 0-2.1-.3-3.1a19 19 0 0 1-3-4.6c-.5-.9-.4-2 .5-2.7-.1-2.4.5-4.8 0-7.2-.7-3.7-2.2-7.1-2.9-10.8v-.4c-.5-1.3-1.2-2.2-2.5-2.7-.2 0-.3-.2-.4-.4-.6-2-1.2-4-.6-6.1.3-1 .1-1.9-.7-2.6l-.7-.7c.7-.8 1.5-1.3 1.8-2 .5-1.5.7-3.1 1-4.6l1-.6.5-1.8c-.2-.8 0-1.2.7-2.2a128.9 128.9 0 0 0 4-14.2c.9-3.9 1.6-9.9 4.7-13.1v-.2l4.2-4a8.7 8.7 0 0 1 2 5c0 1 .4 1.8 1.2 2.5.5.4 1.1 1 1.1 1.4 0 1.3 1 1.6 1.6 1.8.4 2.5.4 4.7 2.3 6.4 3.2 3 5.8 6.6 8.5 10 .3.2.5.6.6 1 .2.7-.3 1.5-.7 2.2-1.8 3.2-.2 5.5 1 8.5.4 1 .3 2 .5 3.1.3 2.2 3.5 6.2 6 4 1-.8.7-3 .8-4 .4-4.1.8-7.8-.3-11.8-.1-.4-.2-.8-.5-1.1-1.3-2.1 0-2.5-.2-4.8-.1-.8-.7-1.4-.9-2.2-.2-1 .2-2 .5-2.9 1-2.5 2-4.7 2.1-7.4l-.2-.2.3-.5a346.3 346.3 0 0 1 1.5-14.5c-.3-.6-.6-1.4.2-1.9l.3-.2.5-1.2v-.7c-.2-1.5.2-2.8.8-4.3.8.4 1.5 1 2.2 1 .8.2 1.2.6 1.3 1.2.3 1.2 1 1.2 2 1 .4-.1.9-.3 1.4-.3l2.3.7c1.3.3 2.4-.2 3.1-1.2l1-1.5 4 .9c.9.1 1.3.6 1.2 1.5v1l.8 19.5c.2 4.4.8 8.7 2 12.9.2.6.2 1.4 0 2v.8a87.7 87.7 0 0 1 4.6 27.7c0 1.6.3 3.2.6 4.7l-.1 1.3c.2 2 .4 4-1 5.7l-.3.3-.2 2.3c.4 1-.1 1.7-.7 2.5 0 .7 0 1.3.2 2h.1c1.3.7 1.6 2 2.4 2.9v.3c.4.3.7.8.7 1.4l.1.8c.5.1 1 .3 1.3 1-.4.4-.5.8-.6 1.2l2.7 3.8c1.7 1.5 3.9 2.6 6 3.7h.5l.4-.6c0-.2.3-.4.4-.5q1.7 1.7 4.3 1.9l1.3.1c1.2.1 1.7-.2 1.4-1.4-.3-1.3 0-2.4.6-3.6l.3-1.5c-.3-2.9-.5-5.8-1-8.6-.1-1.1 0-1.8 1.2-2.5.3.6.6 1.1.7 1.7.5 1.5.8 3 1.4 4.5.8 2.2 2.2 4 4.5 5 1.6.7 2.7.6 3.8-.8l1.4-2.3c.6-1 1-2 .7-3.2l-.4-2.8-.5-9.9-.6-5.4-.6-2a2 2 0 0 1-.2-.3c-.2-.5-.5-1.1-.4-1.6a187 187 0 0 1-4.2-17.4 33.4 33.4 0 0 0-1.8-3.1 10 10 0 0 1-2-6.2l-.1-.5c-.8-1.2-.4-2.1.6-3l1.4 1c1 .6 1.5.5 2-.5a6 6 0 0 0 .5-2.2c.1-2 .3-3.7 1.5-5.4.9-1.1 1.3-2.5 1.6-4 .5-2.6.5-5.4 2.3-7.7.3-.4.4-1 .2-1.5-1.1-2.4-.3-4.9-.3-7.3 0-2.8.4-5.7.8-8.5.3-2 0-4 1-6 .4-.8.4-1.7.1-2.7-.4-1.4-.5-2.9.2-4.3 1 .2 1.4.8 1.4 1.6v2c-.5 3.6-.8 7.2.5 10.7.2.6.2 1.3.1 1.9a58 58 0 0 1-.9 5.4l-1.2 3.6v1.4c0 2.2.1 4.4.4 6.6.2 1.5-.3 3-.2 4.5a814.4 814.4 0 0 0 1 20.3l.9 3c.4 1 1 1.1 2 .7l.6-.3c1.9-.7 3.3.5 3.2 2.5-.1 1-.3 2.2-.2 3.4 0 2.7.3 5.5.4 8.3l.4 5.1c1.2 7.2 2.4 14.4 4.9 21.3.2.6.3 1.2.3 1.9l.4 11c.1 2.4.2 5 .5 7.4.6 6 1.2 12 1 18l.3 5.5a56 56 0 0 0 5.4 20.2c.6 1.3 1.1 1.3 2.2.4 1.5-1.3 2-3.2 2.3-5 .3-2.6 1.8-4.9 2.4-7.4.3-1 1.2-2 1.3-3 .2-1.8.1-3.7-.1-5.5-.3-2-1-4-1.1-6.1-.2-2.4 0-4.8 0-7.2l1 5.1 3.1 12.7c.7 2.8 2 5.3 3.4 7.8.3.5.8 1 1.3 1.2 2.2 1.4 2.3 1.7 1.8 4.3a21 21 0 0 0-.4 4.3c0 2.5 2 3.5 4 2 2.3-1.6 3.8-4 3.5-6.8-.3-2.5.1-4.9.3-7.3.2-2.6.4-5.1.3-7.6-.3-5.8-.1-11.5.5-17.3.2-2.1 0-4.4-.2-6.6-.2-2.2-.8-4.4-1.2-6.6v-1.3c.6-1.9.3-4 1.7-5.6l.2-.6c.5-3.3 0-6.6-.5-9.9-1.2-1.5-1-3.1-.5-4.8v-.4c-.6-1.8.2-3.7-.8-5.5a3 3 0 0 1 0-2.6c.3-.6.4-1.5.2-2.2l-1.6-6.6c-.2-1.1-.2-2.4-.3-3.6-.2-3-.4-5.9-2.2-8.4l-.1-.8 1.8-.8c1-.5 2.2-.9 2.7-2.1a17 17 0 0 0 1-4.2c.2-2.6.1-5.1.6-7.7.3-2.1.4-4.3.8-6.3 1-4.3 1.7-8.6 2.1-13 .3-3 .2-5.9 0-8.9a19 19 0 0 1 .1-5c.4-2 .8-4 .7-6 0-.7.2-1.3.4-2 2 .8 2.7.6 3.4-1.4.3-.8.4-1.7.6-2.6.4-2.2.1-4.5 1.2-6.7.2-.4.1-1 0-1.6l-.9-8.5Zm-170.3 157.2-3.2 2c-1 .4-1.5 1-1.4 2.1 0 .8-.3 1.6-.5 2.4l-.5 4.1c0 .3-.5.6-.8.9-.3-.3-.8-.6-.8-.9-.2-1.3-.2-2.6-.2-4v-7c.8-2 2.4-3.4 3.7-5.3l3.9 3.6c.8.9.7 1.4-.2 2Zm28.2-192.9-.3.2-1.1-1.5c-.6-1.1-1.3-2-2.7-2.2-.3 0-.6-.3-.8-.5-1-1-1.8-2.2-2.8-3.3a481.7 481.7 0 0 0-7.6-5.6c-.9-.6-1.4-1.2-1.1-2.3.4-1.3.9-2.4 2.4-2.6l5.2-1c1.2-.2 2.4-.6 3.6-1l1.8-.6c1.8-.4 3 .5 3 2.4l-.2 1.3c-.5 3.9-.2 7.7.5 11.5.3 1.7 0 3.5 0 5.2Zm96.4 25.8-2.7 2.6c-.8.8-1.1 1.6-1.3 2.7-.2 1.2-.8 2.3-1.3 3.5l-1.2 3-2 6.7c-.2.5-.6 1-1 1.4h-.4c-.2-.8-.5-1.6-.5-2.3l.2-9.1a65 65 0 0 0-.6-7c0-1.1.1-2 1-2.7 1.3-1.1 1.7-2.6 2.1-4.1.3-1 .6-1.8 1.4-2.4.7-.4 1-1.1 1-2v-2c.1-.7.2-1.3.5-1.9.3-.5.9-1.2 1.4-1.3.8 0 1 1 1 1.6a6 6 0 0 0 1.4 2.8c.5.6.7 1.5.8 2.3a22 22 0 0 0 1.2 4.2c.5 1.3 0 2.8-1 4Zm21.7 137.2c-.6.7-1.2 1.5-1.6 2.3-1.7 3.5-3 7.2-2.5 11.3v3c-.3-1.8-.6-3.6-.7-5.4v-7.2c0-.6.3-1.2.5-1.8l1.7-4.9c.2-.6.2-1.5 0-2.2-.7-2.9-1.6-5.7-2.4-8.6-.2-.5-.4-1.1-.8-1.5-1-.8-1.2-1.9-1.3-3v-11c0-.6.2-1.3.7-2 .2 1.3.6 2.6.7 4l1 11c.5 3.3 1.5 6.3 3 9.2l2.2 4.2c.5 1 .3 1.8-.5 2.6Z" class="cls-2"/><path d="m225.2 1563.7-.1-1.5a2 2 0 0 0-2.6-1.4c-.8.3-1.7.5-2.4 1-.6.4-1 .3-1.7.2-1.1-.1-2.3-.1-3.4.2-1.8.4-2.4 2-2.7 3.7-.2.6 0 1.4-1 2-.4-2.2-.2-4.2.5-6.1.2-.4.8-.7 1.2-.8.9-.2 1.4-.7 2-1.3 1.4-1.3 2.8-2.6 5-1.8.7.2 1.6.2 2-.5.9-1.3 1.6-2.6 2.3-3.9.2-.3 0-.7 0-1.1 0-.6-.4-1.2-.3-1.7.4-1.9-.6-3.3-1.4-4.8-.2-.4-.5-.8-1-1.1l-3.2-2.2c-1.3-1-2.8-2-3.1-3.7-.3-1.7-1.3-2.7-2.4-3.7l-5.9-4.2a161.5 161.5 0 0 0-7.3-1.7c-2.7 1-4.8 0-6.5-2.2l-.3-.3c-.7-1-1.7-1.4-2.9-2-1.3-.5-2.3.1-3.3.6-1 .4-2 .5-3 0-.4-.3-1-.2-1.5-.2h-1.7c-1.6 0-3.2-.3-4.8.9l-.3-1.5c.1-1.2.1-2.4.4-3.5.8-4-.1-7.7-.5-11.6 0-.4-.3-.8-.4-1.2l-2.6-5.3c-.4-.6-1-1.4-1.5-1.6-2.9-.8-5.6-1.9-8.8-1.5-1.8.2-3.2.4-3.3 2.6 0 .3-.3.6-.4 1-.4.9-1 1.9-1 2.9-.9 5-1 10 0 15.1.6 2.6 1.5 4.9 3.4 6.7l.8 1.3-2.9 1.2-.8.4c-.8.8-1.8.8-2.8.9-.7 0-1.4 0-2 .3-1.3.4-2.5 1-3.7 1.5l-2.2 1.4c-1.5 1.3-.9 3.5-2.1 5l.1.7c.3.6.4 1.3.8 1.9 1.1 1.5.6 3 .3 4.5l-.5 1.1c-6-5.2-11.7-9.8-18.6-13-.8 1.4-1.9 1.7-3.3 1.2-.3-.1-.8 0-1.2.1l-1.6.1v-1.6l.3-.7c1.2-2.6 2-5.3 2.4-8.1.2-1.7.1-3.3-.4-4.9a5 5 0 0 1-.3-1.6c0-4.1-1.6-7.6-4.1-10.6-1.7-2-4-3.5-6.1-5a13 13 0 0 0-3.6-1.8c-1.6-.6-2.3-.2-3.2 1.2l-.5.6a14 14 0 0 0-4 7.2c-1.3 4-2 8-1.6 12.3a21 21 0 0 0 3.2 11c.2.3.1.9.2 1.3-.5 0-1 .2-1.4 0-1-.4-1.7-1-2.6-1.6-1.1-.7-1.4-.7-2.1.4-1 1.5-2.4 2-4.1 1.7-1.7-.2-3.2.1-4.7.8l-2.8 1c-2.1.9-4.4 1.5-5.4 3.8l-.6.6-4.1 4c-.2.1-.2.4-.3.7a12 12 0 0 0 .3 6.7c.6 1.5.4 2.8-.4 4.2l-2.3 4.8a8.3 8.3 0 0 0 0 8.1c.5.8.4 1.5-.1 2.2l-2.3 3c-1 1.4-1.6 3-1.7 4.8a447 447 0 0 0-.4 11.6c0 6 0 11.9.7 17.8.3 2 .4 3.9 1.3 5.7a13 13 0 0 1 1.3 3.5c.2 1.6.2 3.2.2 4.8-.2 8 .2 16 .8 24 .2 2.5.5 5 1.4 7.3a17 17 0 0 1 1.2 6.7c-.2 3.8.6 4.6 4.2 5.2 1.7.3 2.4-.3 2.2-2-.2-1.4-.6-2.7-1-4.1 0-.6-.2-1.3 0-1.8.5-1.8.3-3.5.1-5.3 0-.5-.2-1-.1-1.5 0-3 .1-6 .3-8.9 0-1.3.3-2.5.3-3.8.2-6.4.5-12.8.4-19.1-.1-3.7.9-7 2.3-10.1.3-1 1-1.7 1.8-2.4.6-.5 1.2-.3 1.5.5.3.5.4 1.3.9 1.6 1.6 1.3 1.7 2.9 1.2 4.6l-.7 2.6-2 6a87 87 0 0 0-3.4 19.4l.3 5.3c0 1.2-.1 2.5.1 3.8 1 5 .6 10.2 1 15.3.2 1.8.4 3.5 1.5 5a9.6 9.6 0 0 1 1.7 6c-.1 3.2 0 6.5.4 9.8.5 4.7 1.1 9.5 1.8 14.2 1.2 9.2 2.2 18.4 5.2 27.3 1 3.2 1.7 6.4 2.3 9.6.4 2 1.3 3.7 3 5 1.7 1.3 3.2 2.8 3.4 5.2.1 1.2.8 2.3 1.2 3.4.8 2 2.5 2.7 4.4 3.2.9.3 1.5-.2 2-.9l1.2-1.7c.2 1 .5 1.8.4 2.5 0 1.7.7 3 1.5 4.3.8 1.5 2.1 1.6 3.5.6 1.2-1 1.6-2.2 1.7-3.6v-3.8c0-2.6-.4-5-1.5-7.2-1.1-2.1-1.3-2.4-3.7-2.2-.1-1.3-.7-2.6 0-4 1.7.8 2.3 2.2 3.2 3.4.6 1 1 1 1.9.2 2.3-2.6 3.7-5.6 4.6-8.8a98 98 0 0 0 3.3-17.2c.4-3.6 1-7.3 1-11-.1-2.4.2-4.8.2-7.2l-.3-6.6-.4-3.2-.4-3.6.1-1.6 3.2-11 1.4-4.3c.6-2.7 1-5.5 1.5-8.2l1.4-6.8.7-3.8a71.3 71.3 0 0 1 2.3-7.4c1.5-2.5 3.1-5 4.2-7.8 1.3-3.4 2.8-6.7 4.3-10 1.3-3 2.4-6 4.4-8.5 2.3.4 3.5 2.6 5.6 3.6.4-.8.8-1.3 1-2l1.5-5c.2-.7.2-1.5 1.3-1.6l.2 1.4.4 11.8c0 3.9.9 7.5 2.1 11.1l.7 1c1.6 1.1 3.2 2.4 5 3.4 2 1.2 4.2 2.4 6.5 3 4.2 1 8.5 1.5 12.8 2.2 1.5.3 3.1.2 4.6.5 2.6.6 4.8-.1 7-1.6.4-.3 1-.6 1.5-.7l7.7-.8a5 5 0 0 0 3.9-2.8c.8-1.6 1.7-3.2.5-5-.2-.2-.2-.5-.2-.7 0-1.5 0-3-.2-4.6 0-1.7.2-3.3.8-4.8 4-.1 5-.8 6.4-4.4 1.3-3.4 1.7-7 2.6-10.5v-.4c.3-3.1.4-6.3.9-9.4.5-4.4 1.2-8.8 1.3-13.2 0-2.5.4-5 .5-7.6V1570c0-2.1-.3-4.2-.4-6.3Zm-112.6 155-.7 6.5-1.4-10.4c-.3-1.9-.4-3.8-.1-5.8.4-2.6.4-5.3.3-8-.2-3.4-.7-6.9-1-10.3l.2-3.4c0-.3.2-.7.4-.9.2-.2.6-.3.8-.3.2.1.5.5.4.8-1 4.8-.1 9.7.2 14.5.3 4.2.9 8.4 1.2 12.7l-.3 4.7Zm26.8-140.7c-.8 4.5-.9 9-1 13.6-.1 3-.4 6-.4 9 0 2.4.4 4.8.7 7.3.1.9 0 1.6-.4 2.5-.6 1.1-1 2.4-1.6 3.6l-.8 2-3.4-2.8c-.7-.5-.6-1.2-.1-1.8 1-1.6 2-3.1 2.8-4.7.7-1.3 1.5-2.6 1.4-4.1 0-.3 0-.7.2-1 1-1 .6-2.2.5-3.5l-1.5-11c-.1-.9-.5-1.7-.6-2.5-.4-3 1-5.5 3-7.6l.6-.2.6-.2v1.4ZM545.4 1551.4c-.6-1.2-1.5-2.2-2.2-3.4-1.7-2.9-4-5.6-3.7-9.3l-.3-1.7c-.8-2.5-1.9-4.8-2.8-7.2a12.3 12.3 0 0 0-6.4-6.7l-8.3-4c-3-1.5-5.8-3-9-3.7-1.5-.2-3-.6-4.4-1-.5 0-1-.2-1.5-.4l.3-1c.6-1 1.4-2 1.7-3.2.6-2.3 1-4.8 1.4-7.2.2-1.2.2-2.5.2-3.8 0-3.2-.4-6.3-1.5-9.3a3 3 0 0 1-.2-1.2c.1-1.1-.4-2-1.1-2.9l-1.6-2.1a5.1 5.1 0 0 0-4-2.5 44 44 0 0 0-5.5-.1c-2.2.1-4 1.2-5.2 3-3.8 5.5-6 11.6-6.8 18.2-.5 4 0 7.6 3.8 10 .8.6 1.4 1.3 2.4 1.3 1.6 0 2.2 1 2.7 2.5l-7.8 1.4c-.5 0-1-.2-1.5-.4-1.4-.6-2.9-1.3-4.4-1.8-.5-.2-1.2-.4-1.8-.3a9 9 0 0 0-4.6 2.5l-1.1 1-1.7 1.5c-1 1.3-1.8 2.9-3.1 3.8-2.1 1.5-3.5 3.8-5.4 5.4-.2.2-.4.6-.4.9.1 1.9-.8 3.4-1.7 5-.8 1.1-.8 2.4-.1 3.7 1 2 2.5 3.5 4.1 4.9 3 2.4 6 4.7 8.9 7.2.4.3.7 1 .7 1.4 0 1.2-.2 2.4-.4 3.6-.5 2-1.2 4-1.4 6-.2 2.1 0 4.2 0 6.3l.1 8.5-.2 3.8v3.6c0 1.6-.2 3.2-.1 4.7.1 2.4.3 4.8.7 7.2.2 1.3.6 2.7 1.4 3.6a9 9 0 0 0 3.4 2.1c2.2 1 2.5 2.1.7 3.7l-1 .5c-.5.3-1 .5-1.4.9a6.2 6.2 0 0 0-2.2 5.8 5 5 0 0 1-.8 4c-.5.5-.7 1.4-.8 2.2-.5 2.5-1.1 5-.5 7.5v1.3c-.3 1.5.2 2.6 1.2 3.6l1.7 1.8c.7.7 1.6 1 2.6 1l3 .1c1.1.1 1.6.6 1.6 1.7 0 1.4-.3 2.7-1.3 3.7-.4.3-.7.6-.9 1-.4 1.7-.8 3.4-1.5 5-.7 1.5-.7 3.3-1 5l-.6 2.7c-.5 2-1 4-1.3 6l-.9 9.6-.7 11 .2 3.2v10.2c0 2.4.4 4.8.4 7.2 0 6.3 1 12.5 1.9 18.7a81.6 81.6 0 0 0 9.6 28.5c2 3 4.6 4.8 8.4 4.4 1.5-.1 3.1-.5 4.1-1.7 1.6-2 3.2-4.1 4-6.6a6 6 0 0 1 1.3-2c2-2.2 3.7-4.6 4-7.6l.5-6.7c0-.6.4-1.2.6-2l1.5.7c2.3 1 4.8 2 7.5 1.6l2-.4 1.9-.2c1.8-.1 3.9.4 5.3-1.5l.7-.3 3.3-2.5a16 16 0 0 0 4.3-4.7l.8-.9.8-1.2c1.3-2.9 1.6-6 1.4-9l-.5-8.8v-18.6c0-1.3.3-2.7.4-4 0-3.6-.6-7.3.3-11 .3-1.3.3-2.7.4-4 .4-5.7.6-11.3 2-16.8.6-2.5.7-5.1.5-7.7-.2-2.9.1-5.7.2-8.6 0-1.3-.2-2.6-.9-3.8-.3-.6-.6-1.2-.7-1.8 0-2.6-.6-5-2.6-6.8l-.3-.7a4.9 4.9 0 0 0-3.4-3.1c-1.8-.6-3.7-1.1-5.5-2a8.4 8.4 0 0 0-4.3-.5c-1.4 0-2.8.2-4 1.1-1 .7-2 1.2-3 1.6-.8.3-1.9.8-2.6.5-3.6-1.6-7.1-3.5-10.7-5.3-.7-.3-.8-1-.7-1.8.1-.7.5-1.2 1.3-1.2 2.4-.3 4.8-.9 7.1-1.8a3 3 0 0 1 1.1-.2c1.7 0 3-.8 4.5-1.5 3-1.6 6.2-3.1 9.6-3.9 1.8-.3 3.5-.8 5.1-1.4 1.6-.6 3-1.5 4.5-2.2 1.7-1 3.3-2 4.6-3.6 1-1.4 1.7-2.8 1.4-4.6-.6-3-.5-6.2-.4-9.3 0-2.2.1-4.5.7-6.7.4-1.4.6-2.9 1.2-4.2.6-1.3 1.4-2.5 2.2-3.7a7.9 7.9 0 0 0 .5-8.8Zm-42.8 85 6.8-1.2 1.3 2c-2.5 1.3-1.5 3.5-1.3 5.6.1 1 .9 2.1.3 3.3-.2.3-.5.8-.8 1-1 .2-1.3 1-1.4 1.7l-.5 4.3-.7 4.1c0 .2-.2.4-.1.6.6 2.6-1.1 4.7-1.3 7.2 0 1.2-.4 2.4-.6 3.5 0 .3-.3.5-.5.8-.8-.4-.7-1-.8-1.7l-.7-3.3-2.6-9.5c-.3-1.2-.1-2.4-.1-3.6 0-2.7.2-5.3.4-8 .2-1.7.6-3.4 1-5.2.2-.8.6-1.5 1.6-1.7Z" class="cls-2"/><path d="M203.7 1645.3c-2.6.3-5 1.3-6.5 3.8-.7 1.3-1.6 1.8-3.1 1.3-3.6-1.2-6.8.7-8 4.4l-.8 1.9h-.6l-1-5.2c-.2-1.1-.3-2.2-1.3-2.9-2.9-2-6-3.7-9.8-3.3-3.8.4-5.2 2.1-5.6 5.8v1.1c.2 4 .4 8 .8 12 .6 5.1 1.5 10.2 2.2 15.4l1.1 9.6.8 3.9c1.3 8.8 2.6 17.7 5 26.3 1.2 4 3.4 7.4 6 10.6.4.4.7 1 .7 1.7.2 1.7.4 3.5.4 5.3.2 6.8 2.1 13 5.4 19a5 5 0 0 0 1.7 1.7c2.5 1.5 5.4 1.8 8.3 1.4.6 0 1.4-.5 1.9-1a6 6 0 0 0 1.4-2.7c.6-3.5 1-7 1.4-10.5l.3-1.3c.1-1 .5-2 .4-3 0-1.8-.4-3.7-.5-5.6l.1-1.5.3-1.8c0-3.4.9-6.8.4-10.2v-1.6l.6-11.2c0-2.5 0-5.1.2-7.7l.6-10.8c.1-2.6.1-5 .7-7.6.3-1.3.2-2.8.3-4.1.2-3.6.3-7.1.7-10.7.5-5 1.2-9.9 2-14.8.2-2-.5-3.9-1.5-5.4a5.2 5.2 0 0 0-5-2.3ZM195.7 1468.5c1.5 3.6 4.7 4.8 8.5 2.1.7-.6 1.4-1.3 2.2-1.7 1.6-.8 2.5-2 3.2-3.6.2-.5.2-1.2.6-1.6 1.5-1.8 1.7-4 1.8-6.2a8 8 0 0 0-3.5-7.5c-1-.7-2-.5-3-1-1.7-.8-3.5-.6-5.3-.8-1.3-.2-2.5.6-3.3 1.6-.6.8-1.2 1.8-1.5 2.8a26 26 0 0 0-1.3 7.3l1.2 7.3c0 .4.2.8.4 1.2ZM526.7 1731.8c-.1-1.2-.6-2-1.7-2.5l-1.3-.8c-1.3-.9-2.6-1.2-4.1-.4-.5.2-1.1.3-1.6.6-2.3 1.1-4.3 2.5-4.5 5.3l-.2 4.4v3c.5 1.8 0 3.4-.3 5l-.7 4.3h.1v1.4c0 1.8.8 3.1 2.2 4l3.8 1.6c1.4.6 2.1.3 2.8-1 1.2-2.5 2-5 2.1-7.8 0-1.2.5-2.4.6-3.6.2-2.5 1.3-4.7 2.9-6.6.7-.8.9-1.9.6-3-.3-1.3-.6-2.6-.7-3.9ZM244 1501.2c1.3 1.8 3.3 1.7 4.6-.3 1-1.6 1.8-3.3 2.9-4.8a14 14 0 0 0 2.4-7.7c-.2-1-.2-2.2-.6-3.1-.6-1.6-1.4-3-2.2-4.5a8 8 0 0 0-4.7-3.6c-.3-.1-.8-.2-1 0-1.6.5-3 1.3-3.9 2.9l-1.1 2.6a15.7 15.7 0 0 0-1 9.6c.7 3.3 2.4 6.3 4.5 9ZM354.9 1682.1c-.9-1.8-1.3-3.3-.1-5.2.4-.7.3-1.8.1-2.7 0-.4-.9-.7-1.4-1l-.8-.8c-.9-1.3-2.1-2.2-2.4-3.9 0-.3-.4-.7-.8-1l-3.3-3.2-1.7.5c-.9.3-1.4 1-1.2 1.9.4 1.8.6 4 1.6 5.5 1 1.7 1.1 3 .6 4.7-.4 1.4-.1 2.5.8 3.5.6.6 1.3 1.3 1 2.3 0 .2.3.7.5.8 1 .4 1.5 1.4 1.8 2.3.7 1.6 2 2.3 3.3 3 1.4.8 3.4-.4 3.2-2-.3-1.6-.6-3.3-1.3-4.7ZM339.6 1488.8c.6-.7 1.1-1.5 1.8-2a5.8 5.8 0 0 0 2-4.4c0-2.3-.8-4.4-2.2-6.2-1.7-2.2-4.7-2.4-6.9-.7a8.7 8.7 0 0 0-3.4 7.3c-.4 1.7.6 3.1 1 4.7 1 3.2 5.5 4 7.7 1.3ZM195.8 1763.3c-1.2-.7-2.4-1.3-3.7-1.8-1.1-.5-1.6-.3-2.1.8l-.9 3h.2l.1 2.3a3.6 3.6 0 0 0 2.6 3c1 .2 2.5-.7 3.3-2l.1-.3 1.1-3c.2-.8 0-1.6-.7-2ZM295 1521.9l-.7-.4c-.2 0-.4.2-.6.4l.7.5.7-.5ZM1230.9 869.6c-1.6 0-2.4 1-2.8 2-1 2.4-1.8 4.9-3 7.1-1 2.3-2.5 4.4-3.8 6.5-1.2 2-2.6 4-3.6 6a48 48 0 0 0-2.7 7c-.6 1.8-.8 3.8-1.2 5.7-.7 2.7-1.5 5.4-2 8l-.9 5.6c-.3 2.6-.4 5.1-.8 7.7-.5 3.4-1.4 6.7-1.8 10.1-.4 3-.4 6-.5 9 0 .5.3 1.1 0 1.5-1 2.7-1 5.3-.2 8v.4l-.5 11.1c0 1.5.2 3 .4 4.4.2 1.6.6 3.2.7 4.8.2 4 .5 8.1.5 12.1 0 1.5-1 2.9-1.6 4.3-.3 1-.8 2-1 3-.4 3.1-2.1 5.3-4.6 6.9-1.8 1.1-4.3-.2-4.6-2.4v-.6c-3.2-6-3.2-12.5-3.5-18.9-.3-5.2.3-10.5.6-15.8l1-15.5.8-13c.1-2 .5-4.1.5-6.2l-.3-7.3c0-3.4-.6-6.9.4-10.3.3-1.4-.1-3-.2-4.5l-.1-1.4v-16l.9-21.2c0-.7-.2-1.5-.1-2.2 0-1.2-.6-1.9-1.5-2.4a6 6 0 0 1-3-4.2c-.4-1.8-1.3-3.6-1.7-5.4a122 122 0 0 1-2-21c0-.8.7-1.7 1-2.7l.5-3.4c0-.2-.2-.5-.5-.7-2.2-1.7-2-4-.3-5.6 1.3-1.3 2.5-2.6 2-4.5 0-.7-.6-1.7-1.3-2-2.2-1.4-3.9-1-6 .7-.2.2-.5.1-.5.1-.2-.8-.3-1.5-.6-2-.2-.3-1.3-.3-1.5 0-.3.4-.4 1.1-.3 1.7.1.4.6 1 1 1.1 1.4.7 3 1 4.2 2 .8.5 1.5 1.7 1.4 2.6-.4 4.4.2 9-2.7 12.8-.3.4-.1 1-.4 1.5-.5 1-1 2-1.7 2.6-1.2 1.1-2.5.8-3.4-.6l-1.4-2.3c-2 .8-2.5 2.4-2.4 4.4l-.3 6.2c0 1.6.4 3.1.6 4.6l1.6 8.5.3 1.6c1 2.3.3 4.6 0 7-.3 1.7-.4 3.4-.5 5.1 0 1.3-.1 2.4-2 2.2a2 2 0 0 0-1.4.6c-2.1 2.3-5 2.6-7.8 2.8-2.7.2-5.4.6-8.1 1-1 0-1.8.5-2 1.7 0 .6-.4 1.2-.8 1.7-2.3 3.1-2.8 6.9-3.3 10.6-.7 4.6-.7 9.3-1.1 14l-1.6 18.8-1 11.2c0 1.5.3 3 .3 4.6l-.3 11.1c0 1.5-.3 3-.4 4.5l-1.1 12.7c-.1 1 .2 2 .2 3-.1 2-1.1 3.5-2.7 4.7l-1.4 1.5c-1 .9-1.7 1.9-2.8 2.5-1.7 1-2.4 4-1 5.5 1 1.2 2.3 2.4 3.1 3.8 2.5 4 1.2 8.1-2.6 11.3-1 .8-2 1.6-3 2.1-.8.3-1.9.6-2.4.3a3.5 3.5 0 0 1-1.4-2.2c-.8-4.7 1-9 2-13.4l.4-1.9c.4-2.6 0-3.3-2.4-3.9-1.8-.4-2.5-1.3-3-3-.6-2.2-.6-4.3-.5-6.5.4-6.7-.4-13.3-1.7-20-1-5-1.3-10.1-1-15.2.1-3.8.2-7.5-1.3-11-.3-.7-1-1.2-1.4-1.8a144 144 0 0 0-2.2-2.7l-2.1-2.4c-3-3.7-4-8-4-12.7.2-3.7-.4-7.3-.8-10.9l-1.2-9.9c-.1-.8-.7-1.7-1.3-2.4-1.3-1.2-2-2.6-1.9-4.5.2-2.2-.5-4.4.4-6.6.4-1 .5-2.1 1-3.1.3-1 .1-1.6-1-2l-4-1.7c-3.6-1.4-4.8-4.7-5.8-8-1-3.8-.7-7.5-.2-11.2 0-.4-.1-1-.4-1.3l-2.1-2.3c-1.3.3-2 1-2 2.3l-.7 6.2c-.4 4.6-.6 9.2-3 13.4a47.1 47.1 0 0 0-4.2 8.3c-1 2.7-1.1 5.5-1.6 8.3-.3 1.6 0 3.1.3 4.7.7 3.4 1 6.9 1.2 10.4.3 5.8.5 11.6.5 17.4 0 3.7-.6 7.5-1 11.3 0 1.4 0 2.8-.2 4.2-.1 1.7-.5 3.4-.6 5v7.3l-.1 2c-1 3.8-.7 7.7-.6 11.5.1 4.2.1 8.4.4 12.6.2 2.7.6 5.4 1.4 8 1.2 4.1.4 7.9-1.5 11.5a10.6 10.6 0 0 1-8.2 6c-2.7.4-5.3-1.8-5.6-4.5l-1.5-9a14 14 0 0 1-.2-2.6l.4-7.8c.3-8.2.8-16.3 1-24.4 0-4.3-.5-8.6-.9-13-.7-8-1-16-.5-24l1-13.6.1-1.2v-1.9c-.7 0-1.5-.1-2.1.1-2 .8-3.3 2-3.9 4.4-.9 3.8-1 7.6-.8 11.6v11.3c0 2.6.2 5.1 0 7.7a7 7 0 0 1-1.4 4c-1.7 1.9-5.9.7-6.7-1.9a63 63 0 0 1-1.8-8.1l-1.8-13.2a24 24 0 0 1-.2-2.4c-.1-5.2-.4-10.4-.3-15.7 0-2.7.6-5.5 1-8.2v-2.2c0-.3 0-.8.2-1 1.3-1 .8-2.4.7-3.6l-1.6-11c-.1-1-.5-1.2-1.5-1.1-2.7.3-5-.5-7.6-1.4-3-1-4.3-3.3-5.7-5.6-3.2-5.3-4.6-11.3-6-17.4-1.5-6.3-2-12.6-1.7-19 .2-3.6.2-7.4 2-10.9.8-1.7 2.2-2.2 4-1.4l.6.3c1.7-2 0-3.5-.5-5-.4-1.2-1.5-2-2-3.2-.6-1.7-1.5-3.5-1.4-5.3 0-6.7.2-13.3.5-20 .2-2.4.6-4.9 1-7.3l1.9-10.4c.5-3 1.9-5.5 4.3-7.4.8-.6 1.1-1.7 2-2.3 1.7-1.4 3.5-2.8 5.5-4 3.9-2.5 8-4.5 12.7-4.8l4 .2c.7 0 1.4.3 2.1.4-.1-2.2-.4-4.3-.4-6.4 0-4 0-8 .4-12 .3-2.4 1.5-4.8 2.5-7.1s5.7-4.1 8.2-3.7c.6 0 1.2.7 1.7 1.1 1.8 1.6 3.5 3 5.2 4.8.4.4.6 1.3.6 2 .1 1.8.3 3.6 0 5.3-.7 2.5-1 5.2-3 7.3-1.6 1.7-3.3 3.4-4.8 5.2l-4.2 5.6c2.4.6 4.6 1 6.6 1.7 1.2.4 2.3 1.4 3.2 2.3.7.7 1.1 1.2 2.2.8 1.4-.5 2.6.2 3.8 1v.2c2 1.5 4 2.8 5 5.2 0 .3.6.5 1 .7 1.4.7 2.3 1.7 2.5 3.4.2 3 2.6 4 5.2 2.3a6 6 0 0 1 2.3-1c1.4-.2 2.3-1 3-2.2l5.5-10.6c.7-1.3 1.7-2.3 2.5-3.5l3-4a8.8 8.8 0 0 1 5-3.3c1.9-.3 2.1-.5 1.7-2.4-1.1-4.8-1.4-9.6-1.2-14.5.1-1.7.6-3.5 1-5.2.1-.4.4-.8.7-1 1.6-.9 2.4-2.3 3.2-4 1-2 4.7-2.2 6.8-.5l5 3.7c4.2 3.7 6.5 8 5.4 14-.6 3.7-2.7 5.8-5.5 7.6l-.5.4c-.6.7-1.5 1.3-1.6 2-.1 1.2 1.1 1.6 2.1 2 1.7.8 3.2 1.8 4.8 2.6 1.4.7 3 1 3.9 2.8.2.4 1.2.6 1.8.8.4.2 1.1.1 1.2.3 1 2.3 3.4 2.2 5 3.4 2.8 2.1 3.9 4.8 4.2 8 0 1 .2 2 .5 2.8.3.8.7 1.6 1.4 2.1 2.6 2 4.2 4.6 5.6 7.5l.1.1 2.2 1.9c.5-.8 1.4-1.6 1.4-2.3 0-2.6 1.1-4.7 2.2-6.8.3-.5.2-1.2.3-1.8l.4-1.7c0-.2.4-.5.3-.6-1-1.5.3-2.3 1-3.1 1.3-1.3 1.4-2.8 1.4-4.4 0-1.1.3-1.9 1.5-2.3 1.4-.5 1.8-1.6 1.2-3-.4-1-.1-1.4.7-1.8l3.4-1.6a2.9 2.9 0 0 0 1.5-3l-.2-1.6c-.2-1.6.2-2.8 2.1-3 .3 0 .8-.1.9-.3.9-1.8 2.5-1.8 4-1.8.6 0 1.1-.4 1.7-.6l-1-1.9 1.2-.2 10.4.5 3.3.5 3-.1c1-.2 1.3-.9 1.3-2 0-3 0-6 .2-9 .3-3.6 1-7.2 1.5-10.7.2-.8.7-1.4 1.2-2 .6-1 1.5-1.9 1.9-2.9.7-2.2 2.1-3.3 4-4l1-.6 4.2-3.4c1.3-1 2.5-.8 3.7.3 1.9 1.8 2.4 4.2 3 6.6.7 2.2 1.9 4.4 2 6.7.3 3 .8 6-1.5 8.6-.6.6-.8 1.5-1 2.3-1 2-1.6 4.1-2.7 6-.8 1.1-2.3 1.9-3.4 2.8 1 .3 1.2 1 .3 2.1-.2.2 0 .6 0 1 0 1-.6 1.4-1.6 1.1-1.3-.3-3.6.7-4 2-.3.4-.2 1.2.1 1.5.3.3 1.3.4 1.6.1 1.3-1.3 2.5-1.2 4-.1.2.2 1.5-.3 1.5-.6.2-1.2 0-2.4 0-3.7 1.8-.1 3.9-.6 5.8.8.4.3 1.1.2 1.7.3a7 7 0 0 1 5.2 2.5c.5.6.7 2.3.3 2.8-1.3 1.5-.3 2.3.5 3.2.4.5 1.2.7 1.8 1.1.3.2.7.3.8.6 1.2 2 2.1 4.4 3.6 6.2a19 19 0 0 1 3.9 8.2c.3 2.8 1.7 4 4.4 3.5h1c1.7.6 3.3 4.7 2.6 6.5-.4 1-.5 2.1-.6 3.2 0 .8.2 1.3 1.2 1.2.3 0 1 .8.9 1-.3 1.1-.8 2.2-1.3 3.1-.7 1-1.3 2-.6 3.2.8 1.3 1.6 1.5 2.4.4 1.2-1.8 2.4-1.5 4-.6 1.7 1 3.5 1.7 5.3 2.5l1.4.4 2.8.5 1.7-.2c-.3-.6-.4-1.4-.8-1.8-.3-.3-1-.3-1.6-.5-2-.4-2.7-1.2-2.4-2.3.4-1.2 2.6-2.4 3.8-2l4.1 1.3 4.2-9.5 2-5.2c.6-1.4 1.2-2.8 2-4.1.2-.5.7-1 1.2-1a3.9 3.9 0 0 0 2.9-3.4c0-.4.4-1 .8-1.2l2.5-1c4.5-1.6 9-1.4 13.4.2 1.6.6 3 1.7 4.6 2.1 1.7.5 3.5.6 5.2.6.3 0 .9-1.3.8-2-.4-2.5-1.2-5-1.4-7.5a38 38 0 0 1 .2-8.1c.2-1.7.8-3.8 2-4.7 1.6-1.2 3-2.3 4.3-3.9.8-1 2.6-1.4 4-1.9 1.5-.5 4 .6 4.8 2 1.3 2.5 2.5 5 2 8.1-.3 1.8.2 3.8.1 5.7-.2 2.7-.6 5.4-1 8.1 0 .5-.4 1-.7 1.4-.5 1-1.3 1.9-1.8 2.9-1.4 2.7-.8 4 2.1 4.8 3 .9 6.1 2 9 3.2 2.2 1 3.1 3.1 4.2 5.1 1 1.7 2.4 3.2 3.7 4.6 2.1 2.4 4.1 4.8 4.5 8.1 0 .4 0 .9.3 1 2.3 1.7 1.7 4.4 2.2 6.7.4 2.1.3 4.4.6 6.6.5 3.4-1.5 5.4-3.5 7.5-1.7 1.7-3 3.7-4.4 5.5v.3c-.5 5.2-2 10.2-2.6 15.3 0 1 0 2-.2 3-1 5.3-2 10.6-2.8 16l-2.2 15.8c-.6 4.4-1.5 8.6-2.4 13-.3 1.3-.7 2.6-1.2 3.8-.2.5-1.2 1-1.5.9-.6-.3-1.2-1-1.2-1.7v-12.8c.1-2.9.4-5.8.4-8.7 0-2-.9-2.6-2.8-1.8-2.2.9-4.4 1.8-6.6 2.9-.7.3-1.2 1.3-1.5 2.1l-1.3 4.6-4 10.9-.3.7c.1 3.2-2 5.6-3 8.3-1.8 4.9-3.7 9.7-3 15.2l2.3-.4c1.5-.6 2.8 0 3.6 1.5 1.3 2.4 1.6 4.8 1.2 7.5-.5 4-.7 8-.7 12 0 2.2.8 4.4 1.6 6.5.8 2.3 2.4 4.4 3.1 6.8.8 2.4 1.2 5 1.1 7.6a76 76 0 0 0 1.4 14.6c.5 2.8 0 5.8-.3 8.7-.3 3.2-1 6.2-1.5 9.4-.7 3.5-1.3 7-1.8 10.7-.2.8.1 1.8 0 2.7-.3 2-1 3.7-2.5 5.2-2.9 2.7-4 6.3-4.7 10-.6 3.3-2 5.8-4.8 7.6-1.6 1-2.8 1.2-3.8-.5-1.7-2.9-3.4-5.9-3.3-9.5v-.8c.1-2.4-.4-2.8-2.8-2.2-2.3.7-4.6 1.4-7 .8-.6-.1-1.5-.4-1.7-.8-1.5-3.2-3.4-6.2-3.3-10 0-3.2-.7-6.3-.9-9.5 0-1.7 0-3.5.5-5.2a38.7 38.7 0 0 0 1.5-16c-.7-4.5-.8-9-1.1-13.6l-1.1-16.5c-.1-1.6-.5-3.2-.8-4.9-.6-3-2.7-4.7-6-4.5-1.4 0-3 .3-4.4.4l-3.8-.1c-.4 0-.9-.4-1-.7-.8-2.4-1.9-4.8-2.2-7.3-.8-6.7-.3-13.3.4-20 .5-4.6.6-9.3 1.2-13.9.8-6.5 2-13 3-19.5l.3-2.2c.5-3 3-4.5 5.4-5.7 2-1 2.6-2.7 2.8-4.5a46 46 0 0 0 0-8.4c-.3-1.8-1.2-3.5-2-5.1-.4-1-1-.8-1.6 0-.2.2-.3.5-.3.8-.7 4.5-3.5 8-5.8 11.8-.8 1.3-2 2-3.4 2.5-3.6 1-4.6 2.4-3.7 6 1 4.3-.1 7.6-3.6 10.4-2 1.5-3.7 3.5-5.4 5.4-1.5 1.6-1.6 3.8-.5 5.8 1.9 3 1.6 5.9-.9 8.5l-.8 1.2-5.2 8c-.5.8-1.3 1.5-2.1 2-2 1-3.1 2.8-4 4.9-.9 1.7-2.2 3.1-3.3 4.7-1.7 2.2-2.1 5-2.9 7.5a243.3 243.3 0 0 0-4.2 17.4 27 27 0 0 1-3 9.6l-.2.4c-.5 2.2-.8 4.4-1.5 6.5-.4 1.5-1.3 2.8-2 4.2l-1 1.3c-.8 1.7-2.2 1.5-3.4 1-.5-.2-.9-1.4-.9-2a876.5 876.5 0 0 1 1.1-27.5l.8-5.5 1-9.6c.6-3.9 1.3-7.7 1.7-11.7.4-3.6.6-7.3.9-11l.3-4c0-.3-.2-.6-.3-.8Zm-90.6 20.5-4.7-1.3c-1.3-.4-2.1 0-2.7 1.3-.8 1.5-1.9 2.9-2.8 4.4-.2.2-.3.6-.3.9l.3 11.3c.1 1.4.3 2.7-.4 4-.5 1-1 2.1-1 3.2-.2 3.4-.4 6.8-.2 10.2.2 2.3 1.1 4.6 1.6 6.7l3.7-1c.6-2.2 1.4-4.7 1.8-7.2l3.5-23.7 1.2-8.8Zm172.8 23.7c-3 1.7-4.5 3.8-4.5 6.8 0 .6-.2 1.4-.6 2-.7 1-.7 1.9-.3 3 .3.6.5 1.4.6 2.1l2.2 14 1.1 6.2h.6l.2-1.1c.5-3 1.3-6 1.5-9 .2-3.1 0-6.3 0-9.4l-.3-6.2-.5-8.4Zm-97-38.6c-2 1.1-2.3 2.5-1.4 4.1l1.4-4Z" class="cls-2"/><path d="M1230.7 984.4c-2.2 0-3.1-.8-4.2-2.5a8.4 8.4 0 0 1-1-5.7c.2-2.2-.5-4.3-1.5-6.3-.3-.5-.3-1.7 0-2 3-2.9 5.7-4.3 9.7-2 2.6 1.5 4.3 3.6 4.2 6.8 0 1-.4 2-.8 2.8-1.1 2.4-2.5 4.7-3.6 7.1-.6 1.4-1.4 2-2.8 1.8Z" class="cls-2"/></g></svg>