<?xml version="1.0" encoding="UTF-8"?>
<svg id="_레이어_2" data-name="레이어 2" xmlns="http://www.w3.org/2000/svg" viewBox="0 0 181.16 110">
  <defs>
    <style>
      .cls-1 {
        fill: #fff;
      }
    </style>
  </defs>
  <g id="_레이어_2-2" data-name=" 레이어 2">
    <g>
      <g>
        <path class="cls-1" d="M30.52,38.74H1.74v-5.71l14.69-13.87c1.56-1.49,2.61-2.76,3.16-3.83.54-1.07.82-2.13.82-3.18,0-1.52-.52-2.69-1.55-3.51s-2.55-1.22-4.54-1.22c-1.67,0-3.17.32-4.52.95-1.34.64-2.47,1.59-3.37,2.86L0,7.08C1.49,4.87,3.54,3.14,6.15,1.89S11.75.01,15.12.01c2.83,0,5.3.46,7.43,1.39,2.12.92,3.77,2.23,4.95,3.92s1.77,3.67,1.77,5.96c0,2.07-.44,4.01-1.31,5.82s-2.56,3.88-5.06,6.2l-8.76,8.27h16.38v7.18h0Z"/>
        <path class="cls-1" d="M42.16,37.06c-2.47-1.56-4.4-3.82-5.79-6.77-1.4-2.95-2.09-6.48-2.09-10.58s.7-7.62,2.09-10.58c1.4-2.96,3.33-5.21,5.79-6.77C44.63.8,47.44.02,50.59.02s5.97.78,8.43,2.34c2.47,1.56,4.4,3.82,5.79,6.77,1.4,2.96,2.09,6.48,2.09,10.58s-.7,7.63-2.09,10.58c-1.4,2.96-3.33,5.21-5.79,6.77-2.47,1.56-5.28,2.34-8.43,2.34s-5.97-.78-8.43-2.34ZM56.06,28.95c1.32-1.99,1.99-5.08,1.99-9.25s-.66-7.25-1.99-9.25c-1.32-1.99-3.15-2.99-5.47-2.99s-4.09,1-5.41,2.99-1.99,5.08-1.99,9.25.66,7.25,1.99,9.25c1.32,1.99,3.13,2.99,5.41,2.99s4.14-1,5.47-2.99Z"/>
        <path class="cls-1" d="M99.72,38.74h-28.78v-5.71l14.69-13.87c1.56-1.49,2.61-2.76,3.16-3.83.54-1.07.82-2.13.82-3.18,0-1.52-.52-2.69-1.55-3.51s-2.55-1.22-4.54-1.22c-1.67,0-3.17.32-4.52.95-1.34.64-2.47,1.59-3.37,2.86l-6.42-4.13c1.49-2.21,3.54-3.94,6.15-5.2S80.96.02,84.34.02c2.83,0,5.3.46,7.43,1.39,2.12.92,3.77,2.23,4.95,3.92,1.18,1.69,1.77,3.67,1.77,5.96,0,2.07-.44,4.01-1.31,5.82s-2.56,3.88-5.06,6.2l-8.76,8.27h16.38v7.18l-.02-.02Z"/>
        <path class="cls-1" d="M129.2,16.33c1.99.98,3.57,2.37,4.73,4.16,1.16,1.8,1.74,3.87,1.74,6.23,0,2.54-.64,4.77-1.9,6.69-1.27,1.92-3,3.4-5.2,4.43-2.19,1.03-4.63,1.55-7.32,1.55-5.33,0-9.5-1.63-12.51-4.9-3.01-3.26-4.52-7.92-4.52-13.98,0-4.32.82-8.02,2.45-11.1s3.91-5.42,6.83-7.02c2.92-1.6,6.3-2.39,10.15-2.39,2.03,0,3.98.23,5.85.68,1.87.45,3.46,1.1,4.76,1.93l-3.26,6.47c-1.89-1.27-4.26-1.9-7.13-1.9s-4.98.68-6.77,2.04c-1.8,1.36-2.98,3.35-3.56,5.96-.18.84-.31,1.85-.38,3.05,2.25-2.25,5.39-3.37,9.41-3.37,2.43,0,4.64.49,6.64,1.47h-.01ZM125.37,31.29c1.18-1.01,1.77-2.39,1.77-4.13s-.59-3.13-1.77-4.16c-1.18-1.03-2.75-1.55-4.71-1.55s-3.5.54-4.73,1.61-1.85,2.44-1.85,4.11.6,3.03,1.79,4.08c1.2,1.05,2.83,1.58,4.9,1.58,1.89,0,3.42-.51,4.6-1.52v-.02Z"/>
      </g>
      <g>
        <path class="cls-1" d="M0,64.62v-8.64h12.97v-4.92h11.03v4.92h11.4v8.64H0ZM6.74,86.9c-3.1-2.09-4.66-4.99-4.66-8.72s1.55-6.69,4.66-8.76c3.1-2.06,7.02-3.09,11.74-3.09s8.63,1.03,11.74,3.09,4.66,4.98,4.66,8.76-1.55,6.63-4.66,8.72c-3.1,2.09-7.02,3.13-11.74,3.13s-8.63-1.04-11.74-3.13ZM53.88,109.34H4.47v-17.59h10.88v7.75h38.53s0,9.84,0,9.84ZM13.97,75.54c-1.12.72-1.68,1.6-1.68,2.65s.56,1.91,1.68,2.61,2.62,1.04,4.51,1.04,3.39-.35,4.51-1.04c1.12-.7,1.68-1.56,1.68-2.61s-.56-1.92-1.68-2.65c-1.12-.72-2.62-1.08-4.51-1.08s-3.39.36-4.51,1.08ZM37.26,86.08v-9.46h5.29v-4.84h-5.29v-9.46h5.29v-10.21h10.58v42.7h-10.58v-8.72h-5.29,0Z"/>
        <path class="cls-1" d="M114.32,99.57c0,3.73-2.17,6.4-6.52,8.01s-10.44,2.42-18.29,2.42c-16.59,0-24.89-3.48-24.89-10.43,0-6.16,6.48-9.61,19.45-10.36v-2.83h-22.13v-8.57h55.07v8.57h-22.06v2.83c12.92.75,19.38,4.2,19.38,10.36h-.01ZM76.94,74.57c-4.15.97-8.53,1.48-13.15,1.53v-8.42c4.12-.1,8.06-.61,11.81-1.53s6.45-2.1,8.09-3.54h-18.93v-8.35h19.3v-4.47h10.88v4.47h19.23v8.35h-18.63c-.05.3-.22.7-.52,1.19l20.49,4.32-2.24,8.27-25.49-5.81c-3.08,1.69-6.69,3.02-10.84,3.99ZM89.5,97.26c-8.99,0-13.49.77-13.49,2.31s4.5,2.31,13.49,2.31,13.41-.77,13.41-2.31-4.47-2.31-13.41-2.31Z"/>
        <path class="cls-1" d="M147.1,76.77l15.8,23.32-8.87,6.48-10.8-16.69c-2.24,5.37-5.03,9.49-8.38,12.37-3.36,2.88-7.09,4.35-11.22,4.4v-11.62c2.88-.35,5.41-2.33,7.6-5.96s3.9-8.53,5.14-14.72,1.86-13.23,1.86-21.13l10.95.37c0,8.5-.7,16.22-2.09,23.18h0ZM174.75,84v25.34h-10.73v-57.23h10.73v20.94h6.41v10.96h-6.41Z"/>
      </g>
    </g>
  </g>
</svg>