<?xml version="1.0" encoding="UTF-8"?>
<svg id="_레이어_2" data-name="레이어 2" xmlns="http://www.w3.org/2000/svg" viewBox="0 0 288.24 109.99">
  <defs>
    <style>
      .cls-1 {
        fill: #b8f703;
      }
    </style>
  </defs>
  <g id="_레이어_2-2" data-name=" 레이어 2">
    <g>
      <g>
        <path class="cls-1" d="M166.57,5.18c11.43-.83,21.3,7.64,22.24,18.75-.6,12.05.78,24.82,0,36.79-.95,14.66-17.36,23.46-30.59,16.47-6.85-3.62-10.53-10.29-10.91-17.82-.56-11.2.44-22.84,0-34.09.24-10.5,8.52-19.32,19.25-20.1h.01ZM166.4,7.37c-4.58.54-8.51,4.89-8.89,9.34.13,17.71-.38,35.51.26,53.18,2.91,11.14,18.97,10.42,20.86-.92l.03-52.45c-.84-6.09-6.03-9.87-12.26-9.14h0Z"/>
        <path class="cls-1" d="M195.26,80.03c-.26-.07-.4-.56-.09-.76.17-.11,1.01-.14,1.43-.28,1.17-.41,1.82-1.6,2.02-2.75V9.42c-.01-.96-.8-2.31-1.67-2.74-.68-.33-2.07-.11-1.94-1.05l17.1-.15.26.25.02.57c-1.5-.02-2.79.64-3.31,2.07-.06.17-.31,1.12-.31,1.22v13.92h9.64v1.86h-9.38l-.26.25v30.11h9.64v2.02h-9.64v18.3c0,.95.93,2.34,1.83,2.76.73.35,2.41.28,1.53,1.2h-16.87v.02Z"/>
      </g>
      <g>
        <path class="cls-1" d="M254.41,77.34c-.26-.07-.4-.56-.09-.76.19-.12.97-.12,1.42-.29,1.55-.6,1.93-2.3,2.03-3.74-.67-11.36.87-23.67,0-34.93-.19-2.42-.96-3.78-3.59-3.98v-.63c.35-.18.72-.18,1.09-.2,10.47-.59,21.5.46,32.03,0l.91.2v.63c-2.97.22-3.44,1.91-3.6,4.48-.67,11.24.52,23.12.01,34.42.17,1.46.43,3.13,2.02,3.75.45.17,1.23.17,1.42.29.36.23.08.76-.09.76h-33.56ZM274.63,51.7v-13.92c0-.2-.19-1.34-.25-1.61-.58-2.64-4.3-3.34-5.85-1.16-.12.17-.61,1.14-.61,1.25v15.44s6.71,0,6.71,0ZM274.63,53.73h-6.71v20.16c0,.06.42,1.03.51,1.19,1.35,2.32,5.37,1.75,5.95-.92.06-.28.25-1.41.25-1.61v-18.81h0Z"/>
        <path class="cls-1" d="M236.05,82.29c11.75.53,24.45-.88,36.1-.06,16.96,1.2,17.47,25.46.66,27.48-11.97-.56-24.77.82-36.64.03-16.72-1.12-17.2-25.96-.11-27.45h-.01ZM243.44,84.31c-14.26,2.59-13.29,22.57,1.5,23.57,5.27.36,13.13.33,18.42,0,7.7-.46,13.36-6.87,11.67-14.49-1.03-4.63-5.42-8.71-10.3-9.13-6.76-.59-14.43.4-21.29.04h0Z"/>
        <path class="cls-1" d="M234.32,43.15c14.13-1.08,23.99,13.86,17.16,26.1-6.29,11.26-22.46,12.31-30.28,2.01-8.43-11.11-.86-27.04,13.12-28.11ZM234.32,45.17c-6.83.91-6.91,13.28-6.68,18.27.21,4.42,1,11.67,6.34,12.85,9.83,2.18,9.62-12.97,9.34-18.94-.27-5.6-1.45-13.18-9-12.18Z"/>
        <path class="cls-1" d="M243.74,31.29c.35.06.61.35.35.68-1.23.37-2.36.52-3.06,1.73-.11.18-.48,1.09-.48,1.22v3.46h12.91v1.86h-37.17v-1.86h14.11v-3.29c0-.92-1.06-2.29-1.95-2.65-.66-.27-2.29-.21-1.41-1.15h16.7Z"/>
      </g>
      <g>
        <path class="cls-1" d="M73.11,19.67h-10.26V5.1h0v-1.85c0-.08.19-.83.24-.96.41-1.13,1.43-1.65,2.61-1.64l-.02-.45-.21-.2-13.51.12c-.1.74,1,.56,1.53.83.69.34,1.31,1.4,1.33,2.16v1.99h.03c0,3.58.07,7.16,0,10.74,0,.36-.16.68-.17,1.04-.04,2.12.28,5.1,0,7.08-.03.21-.05.27-.15.45-.3.52-2.46,2.33-3.07,2.85-9.05,7.78-21.36,14.68-33.89,12.5-6.19-1.08-9.11-6.44-9.47-12.2-.35-5.61.1-11.75,0-17.44-.02-1.51-.35-3.13-.17-4.66.03-.22.02-.39.24-.52h36.23v-1.65H0v24.12c.79,17.44,20.19,17.36,32.97,12.8,8.14-2.91,15.26-7.94,21.72-13.48v12.72h0v1.85c0,.08-.2.83-.25.96-.42,1.13-1.45,1.65-2.67,1.64l.02.45.21.2,13.77-.12c.11-.74-1.02-.56-1.56-.83-.71-.34-1.34-1.4-1.35-2.16v-1.99h-.04v-18.13h10.03c.44-.4.16-1.12.23-1.65h.04Z"/>
        <path class="cls-1" d="M38.85,81.39c-7.06,1.03-16.6,1.87-22.49-2.83-4.86-3.88-5.98-9.72-5.59-15.62h52.09v-16.98H2.35v1.65h52.24v13.67H2.66c.07,4.37-.52,8.68,1.5,12.72,6.73,13.45,33.42,10.48,45.34,6.7,7.52-2.38,15.32-6.61,20.1-12.89l-1.52-.76c-6.94,8.49-18.46,12.77-29.21,14.33h-.02Z"/>
      </g>
      <g>
        <path class="cls-1" d="M145.67,105.5c-1.97.66-4.27,1.24-6.36,1.35-7.28.39-13.74-3.94-19.68-7.44,6.91-4.91,13.53-11.1,18.42-18,.48-.68,1.07-1.45,1.34-2.21h-30.33l1.53-.97c2.07-1.8,3.2-4.39,3.83-6.99h-9.65c-.2,2.23-.39,5.48-2.16,7.12-.19.18-1.27.84-1.44.84h-25.35v1.65h52.7l-2.3,3.08c-3.85,4.43-8.05,8.55-12.66,12.22-5.12-2.26-10.54-4.84-16.22-5.38-6.33-.61-13.91,1.19-19.06,4.89-3.82,2.74-7.63,7.87-2.67,11.6,4.73,3.56,15.89,2.96,21.53,1.93,7.62-1.39,14.52-4.62,21.01-8.64,6.68,3.79,13.33,8.42,21.48,7.94,2.16-.13,4.44-.73,6.5-1.37l-.46-1.64v.02ZM91.01,107.1c-3.9.67-8.57.86-12.37-.4-6.14-2.03-3.5-6.52.25-9.38,5.68-4.33,14.17-5.84,21.15-4.4,4.15.85,8.05,2.69,11.92,4.31-6.01,4.71-13.29,8.56-20.96,9.87h0Z"/>
        <g>
          <path class="cls-1" d="M129.72,65.78v1.85c0,.08-.2.83-.24.96-.41,1.13-1.45,1.65-2.65,1.64l.02.45.21.2,13.71-.12c.11-.74-1.01-.56-1.56-.83-.7-.34-1.33-1.4-1.35-2.16v-1.99h-.01l-.13-34.35h0v-1.85c0-.08.19-.83.24-.96.41-1.13,1.43-1.65,2.61-1.64l-.02-.45-.21-.2-13.51.12c-.1.74,1,.56,1.53.83.69.34,1.31,1.4,1.33,2.16v1.99h.04v34.35h-.02.01Z"/>
          <path class="cls-1" d="M73.52,31.45h0v38.74h8.12v-4.81c.3.19.43.61.69.9,4.55,5.18,12.74,5.08,19.1,4.01,8.6-1.44,15.18-5.57,15.28-14.75.07-5.84-.03-11.68,0-17.51,2.69-.16,5.41-.34,8.03.43l.7-1.26c.07-.29-.54-.38-.76-.44-2.59-.72-5.33-.38-7.97-.37v-4.94h.12v-1.85c0-.08.2-.83.24-.96.41-1.13,1.45-1.65,2.66-1.64l-.02-.45-.21-.2-13.72.12c-.11.74,1.01.56,1.56.83.7.34,1.33,1.4,1.35,2.16v1.99h.05v6.22c-1.95.68-4.07,1.1-6.09,1.69-7.4,2.17-14.24,4.83-18.91,11.2l-2.11,3.41v-22.52h.02v-1.85c0-.08.2-.83.24-.96.41-1.13,1.45-1.65,2.66-1.64l-.02-.45-.21-.2-13.72.12c-.11.74,1.01.56,1.56.83.7.34,1.33,1.4,1.35,2.16v1.99h0ZM84.39,52.53c2.98-4.59,7.97-7.93,13.1-9.84,1.19-.45,10.85-3.56,11.26-3.15-.21,5.48.28,11.15,0,16.61-.49,9.92-6.47,13.64-16.17,12.99-10.09-.68-13.55-8.36-8.2-16.6h.01Z"/>
        </g>
      </g>
    </g>
  </g>
</svg>