<?xml version="1.0" encoding="UTF-8"?>
<svg xmlns="http://www.w3.org/2000/svg" width="38" height="48" viewBox="0 0 38 48" fill="none">
  <path d="M36.9512 18.8581C36.9512 8.95929 29.001 0.918821 19.1373 0.77251C9.18817 0.625248 0.934886 8.62107 0.779074 18.5674C0.735574 21.0779 1.21676 23.5698 2.19182 25.8836C3.16688 28.1974 4.61433 30.2821 6.44151 32.0043C10.4147 35.759 13.6925 40.1882 15.9888 45.1495L16.1646 45.5295C17.2296 47.8297 20.4978 47.8297 21.5629 45.5295L21.7386 45.1495C24.0299 40.2177 27.2508 35.7741 31.2251 32.0622C33.0348 30.3722 34.4771 28.3277 35.4622 26.056C36.4473 23.7844 36.9542 21.3342 36.9512 18.8581Z" fill="#FDB876"></path>
  <path d="M28.288 28.2882C33.4957 23.0806 33.4957 14.6372 28.288 9.42953C23.0804 4.22185 14.637 4.22185 9.42935 9.42953C4.22166 14.6372 4.22166 23.0806 9.42935 28.2882C14.637 33.4959 23.0804 33.4959 28.288 28.2882Z" fill="#F7F5FB"></path>
  <path d="M27.7368 22.3905C26.9236 23.7985 25.7649 24.9759 24.3702 25.8115C22.9755 26.6472 21.3907 27.1136 19.7657 27.1666C14.2743 27.3433 9.73578 22.8228 9.89159 17.3304C9.96174 14.8459 10.9991 12.487 12.7827 10.7559C12.8921 10.65 13.0314 10.5801 13.1818 10.5559C13.3322 10.5316 13.4864 10.5541 13.6236 10.6203C13.7607 10.6865 13.8743 10.7933 13.9489 10.9261C14.0235 11.0589 14.0555 11.2114 14.0406 11.363C14.0171 11.5993 14.0019 11.8381 13.995 12.0794C13.8505 17.5718 18.3976 22.0818 23.8881 21.8946C24.897 21.8625 25.8944 21.6701 26.8428 21.3246C26.9854 21.2748 27.1397 21.2697 27.2853 21.3097C27.4308 21.3498 27.5608 21.4332 27.6578 21.5489C27.7548 21.6646 27.8143 21.8071 27.8285 21.9574C27.8426 22.1077 27.8106 22.2588 27.7368 22.3905Z" fill="#F5D367"></path>
  <path d="M19.5404 12.6639L20.2672 13.3185C20.4115 13.4481 20.5932 13.5289 20.7861 13.5492C20.9791 13.5695 21.1736 13.5283 21.3417 13.4315L22.1892 12.9422C22.3572 12.8448 22.5519 12.8031 22.7451 12.8232C22.9383 12.8433 23.1202 12.9241 23.2646 13.0541C23.409 13.184 23.5085 13.3564 23.5488 13.5464C23.5891 13.7365 23.5681 13.9344 23.4889 14.1118L23.0908 15.0058C23.0117 15.183 22.9908 15.3807 23.0311 15.5705C23.0713 15.7603 23.1708 15.9325 23.315 16.0623L24.0418 16.7169C24.1857 16.8469 24.2847 17.0191 24.3247 17.2088C24.3647 17.3986 24.3437 17.5961 24.2646 17.7731C24.1855 17.9502 24.0524 18.0976 23.8844 18.1944C23.7164 18.2912 23.5221 18.3324 23.3293 18.3121L22.3583 18.217C22.1652 18.1967 21.9706 18.2381 21.8025 18.3352C21.6344 18.4323 21.5013 18.5802 21.4225 18.7576L21.0244 19.6507C20.9457 19.8282 20.8127 19.9762 20.6446 20.0735C20.4765 20.1707 20.2819 20.2121 20.0887 20.1919C19.8956 20.1716 19.7138 20.0907 19.5696 19.9607C19.4253 19.8307 19.326 19.6583 19.2858 19.4683L19.0824 18.5116C19.0422 18.3217 18.9428 18.1495 18.7986 18.0196C18.6543 17.8897 18.4727 17.8088 18.2796 17.7886L17.3068 17.686C17.1135 17.666 16.9316 17.5853 16.7871 17.4555C16.6426 17.3256 16.543 17.1533 16.5025 16.9633C16.4621 16.7733 16.483 16.5754 16.5621 16.3979C16.6412 16.2205 16.7745 16.0727 16.9429 15.9758L17.7904 15.4865C17.9583 15.3893 18.0912 15.2415 18.17 15.0642C18.2489 14.8869 18.2696 14.6892 18.2293 14.4994L18.026 13.5427C17.9845 13.3525 18.0045 13.154 18.083 12.9759C18.1616 12.7978 18.2946 12.6492 18.463 12.5515C18.6313 12.4538 18.8264 12.412 19.02 12.4322C19.2136 12.4524 19.3958 12.5335 19.5404 12.6639Z" fill="#F5D367"></path>
  <path d="M22.9561 42.7286C22.5241 43.5204 22.1181 44.3267 21.7381 45.1475L21.5614 45.5275C20.4973 47.8267 17.2281 47.8267 16.164 45.5275L15.9882 45.1475C13.691 40.1862 10.4132 35.7579 6.44001 32.0023C4.2244 29.9073 2.57394 27.2865 1.64183 24.3832C0.709715 21.4799 0.526163 18.3882 1.1082 15.395C4.65871 26.9484 12.469 36.7197 22.9561 42.7286Z" fill="#EAA973"></path>
</svg>
