<?xml version="1.0" standalone="no"?>
<!DOCTYPE svg PUBLIC "-//W3C//DTD SVG 1.1//EN" "http://www.w3.org/Graphics/SVG/1.1/DTD/svg11.dtd" >
<svg xmlns="http://www.w3.org/2000/svg" xmlns:xlink="http://www.w3.org/1999/xlink" version="1.1">
<metadata>
Created by FontForge 20200511 at Tue Sep 20 01:56:49 2016
 By convertio
Copyright
</metadata>
<defs>
<font id="YiSunShinDotumB" horiz-adv-x="840" >
  <font-face 
    font-family="YiSunShin Dotum B"
    font-weight="400"
    font-stretch="normal"
    units-per-em="1000"
    panose-1="2 2 6 3 2 1 1 2 1 1"
    ascent="800"
    descent="-200"
    x-height="450"
    cap-height="660"
    bbox="-59 -210 1090 815"
    underline-thickness="25"
    underline-position="-212"
    unicode-range="U+000D-FFE6"
  />
<missing-glyph horiz-adv-x="1000" 
d="M100 -100v800h800v-800h-800zM150 -50h700v700h-700v-700z" />
    <glyph glyph-name=".notdef" horiz-adv-x="1000" 
d="M100 -100v800h800v-800h-800zM150 -50h700v700h-700v-700z" />
    <glyph glyph-name="space" unicode=" " horiz-adv-x="250" 
 />
    <glyph glyph-name="exclam" unicode="!" horiz-adv-x="350" 
d="M283 655h-129q-7 -67 -13.5 -131.5t-13.5 -129.5q-7 -64 -13 -129t-12 -131h99zM67 -55h124q2 16 4 31.5t4 30.5t4 30.5t5 32.5h-125z" />
    <glyph glyph-name="quotedbl" unicode="&#x22;" horiz-adv-x="400" 
d="M84 480h82l20 280h-122zM234 480h82l20 280h-122z" />
    <glyph glyph-name="numbersign" unicode="#" horiz-adv-x="600" 
d="M388 470h-131l27 195h-88l-28 -195h-113v-86h101l-21 -148h-110v-86h98l-27 -195h89l7 53l11 82l4 27l4 33h132l-27 -195h89l7 53l11 82l4 27l4 33h114v86h-102q2 15 4.5 32t5.5 36q3 18 6 38t6 42h110v86h-98l27 195h-88zM223 236q2 15 4.5 32t5.5 36q3 18 6 38t6 42
h131l-21 -148h-132z" />
    <glyph glyph-name="dollar" unicode="$" horiz-adv-x="575" 
d="M260 651q-86 -12 -140.5 -59.5t-54.5 -126.5q0 -36 18.5 -65.5t47.5 -52.5q28 -24 62.5 -42t66.5 -31v-233q-47 0 -95 12.5t-79 23.5l-12 -100q40 -12 84.5 -22t86.5 -10h15v-100h70v106q87 13 143.5 60.5t56.5 138.5q0 43 -19 75t-48 57t-64.5 43.5t-68.5 33.5v199
q37 -2 76 -10.5t78 -20.5l17 101q-43 13 -88.5 19.5t-82.5 7.5v100h-70v-104zM412 145q0 -38 -25 -60.5t-57 -33.5v192q36 -20 59 -44t23 -54v0zM182 474q0 36 22.5 54.5t55.5 25.5v-164q-33 16 -55.5 36.5t-22.5 47.5v0z" />
    <glyph glyph-name="percent" unicode="%" horiz-adv-x="750" 
d="M87 -40h106l450 680h-106zM49 483q0 -55 37.5 -96t99.5 -41q61 0 99.5 41t38.5 96q0 58 -38.5 97.5t-99.5 39.5q-62 0 -99.5 -39.5t-37.5 -97.5v0zM140 483q0 21 12 37t34 16q21 0 33.5 -16t12.5 -37q0 -20 -11 -36.5t-35 -16.5t-35 16.5t-11 36.5v0zM406 117
q0 -56 37.5 -96.5t100.5 -40.5q60 0 98.5 40.5t38.5 96.5q0 57 -38 97t-99 40q-63 0 -100.5 -40t-37.5 -97v0zM497 117q0 21 12.5 37t34.5 16q21 0 33 -16t12 -37q0 -20 -11 -36.5t-34 -16.5q-25 0 -36 16.5t-11 36.5v0z" />
    <glyph glyph-name="ampersand" unicode="&#x26;" horiz-adv-x="710" 
d="M539 343q-4 -55 -13 -92t-24 -67l-4 4h1l-128 139q28 13 55 31t48 40q20 23 33 50t13 58q0 41 -15 71t-39 50q-25 19 -57.5 28.5t-68.5 9.5q-79 0 -134 -40.5t-55 -124.5q0 -45 20.5 -82.5t47.5 -69.5q-72 -30 -111.5 -76.5t-39.5 -121.5q0 -88 62 -141.5t170 -53.5
q60 0 109 18t89 54l55 -63h144q-14 13 -30.5 31.5t-34.5 37.5l-34 38t-30 35q26 42 47.5 100.5t31.5 136.5h-108zM187 155q0 39 28 69.5t62 54.5q4 -6 7.5 -9.5l7.5 -7.5q3 -4 6.5 -8t8.5 -9q15 -18 31.5 -37t32.5 -37q17 -19 33 -37.5t33 -35.5q-18 -18 -49.5 -37.5
t-69.5 -19.5q-51 0 -91 30.5t-40 83.5v0zM259 498q0 39 22.5 59.5t54.5 20.5t54 -17t22 -59q0 -19 -9.5 -36t-23.5 -32q-14 -14 -30.5 -25.5t-31.5 -18.5q-21 22 -39.5 50t-18.5 58v0z" />
    <glyph glyph-name="quotesingle" unicode="'" horiz-adv-x="278" 
d="M99 480h82l20 280h-122z" />
    <glyph glyph-name="parenleft" unicode="(" horiz-adv-x="380" 
d="M328 -150q-63 108 -103 221t-40 229t41 229t101 221h-97q-70 -107 -112.5 -215t-42.5 -235t42.5 -236.5t112.5 -213.5h98z" />
    <glyph glyph-name="parenright" unicode=")" horiz-adv-x="380" 
d="M150 -150q69 104 112 213.5t43 236.5t-43 235t-112 215h-97q60 -108 101 -221t41 -229t-40 -229t-103 -221h98z" />
    <glyph glyph-name="asterisk" unicode="*" horiz-adv-x="550" 
d="M347 339l91 60q-15 18 -36.5 43t-39.5 46l-20 23l141 28l-34 103l-33 -14l-97 -41l14 143h-111l5 -48q3 -25 5 -48.5t5 -47.5l-136 56l-34 -103l75 -15q8 -2 16.5 -4t17.5 -3q9 -2 17.5 -3.5t16.5 -2.5l-99 -112l90 -60l50 83l24 40z" />
    <glyph glyph-name="plus" unicode="+" horiz-adv-x="620" 
d="M50 240h208v-210h104v210h208v100h-208v210h-104v-210h-208v-100z" />
    <glyph glyph-name="comma" unicode="," horiz-adv-x="280" 
d="M-21 -170h81l47 96l73 154h-132z" />
    <glyph glyph-name="hyphen" unicode="-" horiz-adv-x="600" 
d="M50 240h500v100h-500v-100z" />
    <glyph glyph-name="period" unicode="." horiz-adv-x="280" 
d="M30 -60h130v130h-130v-130z" />
    <glyph glyph-name="slash" unicode="/" horiz-adv-x="350" 
d="M0 -100h100q31 99 63 198.5t63 199.5q32 100 63 200.5t61 201.5h-100z" />
    <glyph glyph-name="zero" unicode="0" horiz-adv-x="640" 
d="M38 300q0 -60 12.5 -125.5t44.5 -119.5q31 -55 86 -90t139 -35t138.5 35t86.5 90q31 54 44 119.5t13 125.5q0 59 -13 124.5t-44 119.5q-32 55 -86.5 90.5t-138.5 35.5t-139 -35.5t-86 -90.5q-32 -54 -44.5 -119.5t-12.5 -124.5v0zM156 300q0 31 6 78t24 91q18 43 50 74.5
t84 31.5q51 0 83 -31.5t50 -74.5q18 -44 24.5 -91t6.5 -78q0 -32 -6 -78.5t-23 -90.5t-49.5 -75t-85.5 -31q-54 0 -86.5 31t-49.5 75t-22.5 90.5t-5.5 78.5v0z" />
    <glyph glyph-name="one" unicode="1" horiz-adv-x="480" 
d="M165 490q4 3 8.5 6.5t9.5 7.5q4 4 9 8l10 8v-580h118v720h-103l-145 -116q-18 -15 -17.5 -32t15.5 -35l41 -52q12 18 26 35.5t28 29.5v0z" />
    <glyph glyph-name="two" unicode="2" horiz-adv-x="570" 
d="M255 670q-45 0 -91.5 -8.5t-88.5 -24.5q-19 -9 -26.5 -25t-5.5 -33l13 -66q45 29 94 45.5t100 16.5q28 0 54 -9t46 -24t32 -35t12 -42q0 -38 -23.5 -79t-57.5 -80q-34 -40 -73.5 -74.5t-70.5 -58.5q-19 -15 -37.5 -29t-37.5 -28l-38 -30l-38 -30v-116h447q18 0 30 8.5
t18 22.5t7.5 31t0.5 34h-366q51 39 102 80t101 89q27 27 54.5 57t49.5 62t36 65t14 66q0 49 -21 89t-56 68t-82 43t-98 15v0z" />
    <glyph glyph-name="three" unicode="3" horiz-adv-x="570" 
d="M54 526q45 23 92.5 36t103.5 13q26 0 52.5 -6t47.5 -18q22 -12 35.5 -31t13.5 -46t-19.5 -48t-48.5 -35q-29 -15 -61.5 -22.5t-59.5 -7.5h-92v-95h92q33 0 68.5 -7.5t64.5 -23.5t47.5 -41t18.5 -59q0 -24 -15 -44t-42 -35q-26 -15 -61.5 -23t-75.5 -8q-50 0 -96.5 14.5
t-94.5 40.5l-6 -66q-2 -17 5.5 -32.5t25.5 -22.5q39 -13 83 -21t88 -8q57 0 112 10.5t98 34.5t70 63.5t27 96.5q0 64 -38 112t-98 69q49 22 87.5 64.5t38.5 93.5q0 49 -22 86t-58 61q-37 25 -84 37t-98 12q-43 0 -88 -5.5t-88 -19.5q-20 -7 -26.5 -22t-4.5 -33z" />
    <glyph glyph-name="four" unicode="4" horiz-adv-x="620" 
d="M389 -60h118v160h43q18 0 30 8.5t18 22.5t7.5 31t0.5 34h-99v464h-158q-43 -59 -85 -118l-84 -118t-83.5 -117.5t-83.5 -116.5v-90h376v-160zM389 196h-246q31 44 62 86.5t61 84.5q31 42 61 84.5t62 86.5v-342z" />
    <glyph glyph-name="five" unicode="5" horiz-adv-x="560" 
d="M220 25q-47 0 -88.5 12t-88.5 34v-65q-1 -18 7 -35t27 -22v1q33 -10 68 -15t75 -5q58 0 112.5 17t96.5 50q42 32 67.5 78t25.5 104q0 46 -24 87t-62 71q-38 31 -87 48.5t-99 17.5q-24 0 -44 -1.5t-35 -2.5q0 19 0.5 39.5t1.5 42.5q0 21 0.5 42t1.5 41h270q18 0 30 8.5
t18 22.5t7.5 31t0.5 34h-438q-2 -48 -3 -95.5t-3 -94.5q-1 -47 -2.5 -94.5t-1.5 -95.5q34 15 74 23.5t88 8.5q35 0 69 -9.5t61 -28.5q26 -19 42.5 -46.5t16.5 -63.5q0 -32 -17.5 -57.5t-44.5 -43.5t-59.5 -28t-62.5 -10v0z" />
    <glyph glyph-name="six" unicode="6" horiz-adv-x="610" 
d="M365 575q38 0 79 -12.5t85 -32.5l6 64q1 18 -5.5 32.5t-25.5 21.5q-33 10 -70.5 16t-73.5 6q-94 0 -156 -34t-99 -89t-52 -123.5t-15 -138.5q0 -63 13 -126.5t45 -114.5t86.5 -82.5t137.5 -31.5q55 0 103 19t83 52q35 34 55.5 79.5t20.5 98.5q0 45 -19 86.5t-53 72.5
q-33 31 -79.5 49.5t-100.5 18.5q-48 0 -91 -12t-80 -39q4 43 19.5 83t40.5 70q26 30 62 48.5t84 18.5v0zM464 174q0 -26 -9 -52.5t-27 -48.5q-18 -21 -45 -34.5t-63 -13.5q-37 0 -65 14.5t-48 36.5q-19 22 -29 48t-10 50q0 59 44.5 99.5t112.5 40.5q36 0 62.5 -13.5
t43.5 -34.5t25 -45.5t8 -46.5v0z" />
    <glyph glyph-name="seven" unicode="7" horiz-adv-x="560" 
d="M532 660h-504v-95h377l-278 -625h127l278 632v88z" />
    <glyph glyph-name="eight" unicode="8" horiz-adv-x="610" 
d="M308 -70q54 0 103.5 12t87.5 38q37 25 60 63.5t23 91.5q0 66 -42 112.5t-108 75.5q69 39 97.5 85t28.5 100q0 28 -17 57t-49 52q-32 24 -77 38.5t-102 14.5q-59 0 -106 -14.5t-80 -38.5t-51 -55t-18 -64q0 -23 6 -48.5t21 -49.5t40 -45.5t63 -36.5q-66 -28 -108 -76
t-42 -111q0 -48 23.5 -85.5t62.5 -63.5q38 -26 86.5 -39t97.5 -13v0zM462 126q-2 -24 -14.5 -43t-32.5 -32q-21 -13 -46.5 -19.5t-51.5 -6.5q-28 0 -56.5 7.5t-51.5 21.5t-37 34.5t-14 46.5q0 44 33 71t69 47q3 1 7 3l8 4l7.5 5l10.5 7q9 -6 20.5 -10t23.5 -7
q23 -10 45.5 -21.5t40.5 -26.5t28.5 -34.5t10.5 -46.5v0zM178 484q0 22 12.5 39t32.5 29q19 11 42 17t43 6q19 0 42 -5t42 -15q20 -10 33 -25t13 -36q0 -31 -21.5 -61.5t-86.5 -72.5q-75 27 -113.5 57.5t-38.5 66.5v0z" />
    <glyph glyph-name="nine" unicode="9" horiz-adv-x="610" 
d="M245 25q-39 0 -80 12t-84 33l-6 -64q-2 -18 4.5 -33t26.5 -21q33 -11 70 -16.5t74 -5.5q93 0 155 33.5t99 88.5t52.5 123.5t15.5 139.5q0 63 -13.5 126t-45.5 114t-86.5 83t-136.5 32q-56 0 -104 -19.5t-83 -52.5q-35 -34 -55 -79.5t-20 -97.5q0 -46 18.5 -87.5
t52.5 -72.5q33 -31 79.5 -49t101.5 -18q48 0 90.5 12t80.5 39q-5 -44 -20.5 -84t-40.5 -70q-26 -30 -62 -48t-83 -18v0zM146 426q0 25 9 51.5t27 48.5q18 21 45 35t63 14t64 -15t48 -37q19 -22 29.5 -48t10.5 -49q0 -60 -45 -100t-112 -40q-37 0 -63.5 13t-43.5 34
t-24.5 45.5t-7.5 47.5v0z" />
    <glyph glyph-name="colon" unicode=":" horiz-adv-x="300" 
d="M215 545h-130v-130h130v130zM85 65h130v130h-130v-130z" />
    <glyph glyph-name="semicolon" unicode=";" horiz-adv-x="300" 
d="M38 -55h79q11 25 23 52t25 58q13 30 28.5 64.5t33.5 75.5h-131zM220 545h-130v-130h130v130z" />
    <glyph glyph-name="less" unicode="&#x3c;" horiz-adv-x="600" 
d="M550 575l-500 -234v-82l500 -234v99l-371 176l371 176v99z" />
    <glyph glyph-name="equal" unicode="=" horiz-adv-x="650" 
d="M80 360h490v100h-490v-100zM80 130h490v100h-490v-100z" />
    <glyph glyph-name="greater" unicode="&#x3e;" horiz-adv-x="600" 
d="M50 476l371 -176l-371 -176v-99l500 234v82l-500 234v-99z" />
    <glyph glyph-name="question" unicode="?" horiz-adv-x="520" 
d="M186 -55h125v130h-125v-130zM238 670q-34 0 -69.5 -5.5t-71.5 -18.5q-19 -8 -27 -23t-5 -33l10 -66q33 20 71 33t80 13q52 0 90.5 -23t38.5 -73q0 -36 -22.5 -68.5t-49.5 -59.5q-37 -42 -61.5 -81t-24.5 -92v-39h105v36q0 32 19 61t41 56l17 20q37 42 64 82t27 91
q0 46 -20 81.5t-53 59.5q-32 24 -74 36.5t-85 12.5v0z" />
    <glyph glyph-name="at" unicode="@" horiz-adv-x="850" 
d="M390 174q-36 0 -58 26t-22 64q0 25 9.5 52.5t27.5 50.5q17 22 41.5 37t53.5 15q30 0 51.5 -25t21.5 -58q0 -26 -9.5 -54.5t-26.5 -52.5t-39.5 -39.5t-49.5 -15.5v0zM648 494h-83q-2 -3 -6 -18t-6 -24v1l-1 -1v-1v-0.5v-0.5q-24 30 -53.5 44t-62.5 14q-51 0 -92.5 -22.5
t-69.5 -59.5q-29 -36 -44.5 -82t-15.5 -93q0 -35 11.5 -65.5t31.5 -52.5q21 -22 49 -34.5t62 -12.5q30 0 58 14.5t50 33.5q6 -25 23 -36.5t42 -11.5q28 0 70 16.5t80 51.5q39 35 66.5 88.5t27.5 127.5q0 68 -28.5 124t-75.5 96q-48 40 -110 62.5t-130 22.5
q-78 0 -146.5 -26.5t-119.5 -75.5q-51 -48 -80.5 -116.5t-29.5 -151.5q0 -88 29.5 -158.5t81.5 -119.5q51 -50 120.5 -76t149.5 -26q92 0 173.5 44.5t136.5 125.5h-90q-40 -40 -98 -64.5t-118 -24.5q-64 0 -117.5 20t-92.5 59q-39 38 -60.5 93.5t-21.5 126.5q0 61 20 114
t57 92q37 38 89 60.5t116 22.5q54 0 102 -16t84 -46t57 -74.5t21 -102.5q0 -37 -10.5 -71t-27.5 -60t-38 -41t-42 -15q-9 0 -11.5 6t-2.5 15t2.5 21t5.5 24z" />
    <glyph glyph-name="A" unicode="A" horiz-adv-x="770" 
d="M128 -60l80 189h346l83 -189h126q-36 79 -74.5 164.5t-76.5 172.5q-38 86 -76 171.5t-74 165.5q-12 25 -35 35.5t-50 10.5h-60l-310 -720h121zM511 229h-261l129 303z" />
    <glyph glyph-name="B" unicode="B" horiz-adv-x="670" 
d="M53 -60h297q55 0 107.5 9t92.5 32q41 22 65.5 60t24.5 95q0 63 -38.5 109.5t-100.5 67.5q56 23 82.5 62t26.5 101q0 49 -20.5 84t-55.5 57t-83.5 32.5t-105.5 10.5h-292v-720zM173 259h152q30 0 64 -6t63 -19q28 -14 47 -36t19 -55q0 -32 -15 -52t-39 -31t-54.5 -15
t-61.5 -4h-175v218zM173 559h187q20 0 42.5 -4.5t41.5 -14.5q19 -11 31.5 -29t12.5 -45q0 -32 -15.5 -52.5t-40.5 -32.5t-57 -16.5t-65 -4.5h-137v199z" />
    <glyph glyph-name="C" unicode="C" horiz-adv-x="630" 
d="M420 567q39 0 84.5 -16.5t73.5 -34.5l9 67q1 16 -6 31.5t-25 24.5q-35 12 -70 19t-71 7q-87 0 -157.5 -27t-120.5 -75q-50 -49 -77 -116t-27 -147q0 -83 27 -150.5t77 -114.5q50 -48 120.5 -74t157.5 -26q34 0 83.5 4.5t86.5 25.5q9 6 12 18.5t0 29.5l-9 57
q-39 -18 -81.5 -27.5t-86.5 -9.5q-63 0 -112.5 19.5t-84.5 54.5q-34 35 -52 84t-18 109q0 55 17.5 103.5t51.5 85.5q33 36 83 57t115 21v0z" />
    <glyph glyph-name="D" unicode="D" horiz-adv-x="700" 
d="M53 -60h222q88 0 160.5 22t123.5 66q52 45 80 112.5t28 159.5q0 83 -31.5 149.5t-84.5 113.5q-54 46 -125 71.5t-151 25.5h-222v-720zM173 559h112q52 0 99.5 -18t83.5 -52q36 -33 57.5 -81t21.5 -108q0 -135 -69.5 -197t-192.5 -62h-112v518z" />
    <glyph glyph-name="E" unicode="E" horiz-adv-x="610" 
d="M540 360h-367v199h335q18 0 30 9.5t19 24.5q6 15 7.5 32.5t0.5 34.5h-512v-720h460q18 0 30 9.5t19 24.5q6 15 7.5 32.5t0.5 34.5h-397v218h367v101z" />
    <glyph glyph-name="F" unicode="F" horiz-adv-x="590" 
d="M545 360h-372v199h325q18 0 30 9.5t19 24.5q6 15 7.5 32.5t0.5 34.5h-502v-720h120v319h372v101z" />
    <glyph glyph-name="G" unicode="G" horiz-adv-x="710" 
d="M616 631q-46 16 -95 25t-101 9q-83 0 -154 -27t-122 -75q-52 -48 -81.5 -115t-29.5 -148q0 -82 27.5 -149t78.5 -115t122.5 -74.5t158.5 -26.5q78 0 140 10.5t97 22.5v387h-279v-100h159v-214q-22 -6 -55.5 -7t-61.5 -1q-60 0 -109 19.5t-84 55.5q-35 35 -54.5 84
t-19.5 108q0 54 20 102.5t56 85.5q36 36 86 57.5t110 21.5q51 0 104 -16t109 -43l9 67q1 17 -5 32t-26 24v0z" />
    <glyph glyph-name="H" unicode="H" horiz-adv-x="720" 
d="M173 595q0 23 -12 37.5t-29 21.5q-18 7 -39 8t-40 -2v-720h120v320h374v-320h120v655q0 23 -12 37.5t-29 21.5q-18 7 -39 8t-40 -2v-300h-374v235z" />
    <glyph glyph-name="I" unicode="I" horiz-adv-x="240" 
d="M180 595q0 23 -12 37.5t-29 21.5q-18 7 -39 8t-40 -2v-720h120v655z" />
    <glyph glyph-name="J" unicode="J" horiz-adv-x="360" 
d="M90 30q-24 0 -39 2.5t-26 5.5l-24 10l7 -59q1 -16 9.5 -29t20.5 -20t29 -8.5t38 -1.5q60 0 98 16.5t60 43.5q22 28 30.5 63t8.5 72v470q0 23 -12 37t-29 21q-18 7 -39 8t-40 -1v-515q0 -53 -18 -84t-74 -31v0z" />
    <glyph glyph-name="K" unicode="K" horiz-adv-x="650" 
d="M173 595q0 23 -12 37.5t-29 21.5q-18 7 -39 8t-40 -2v-720h120v655zM182 318q0 -4 1 -7t3 -6l319 -365h149q-46 45 -87.5 92.5t-81.5 95.5l-82 96t-84 94l309 342h-114q-21 -2 -37 -11t-29 -22l-262 -296q-2 -3 -3 -6.5t-1 -6.5v0z" />
    <glyph glyph-name="L" unicode="L" horiz-adv-x="580" 
d="M173 595q0 23 -12 37.5t-29 21.5q-18 7 -39 8t-40 -2v-720h447q18 0 30 9.5t18 24.5t7.5 32.5t0.5 34.5h-383v554z" />
    <glyph glyph-name="M" unicode="M" horiz-adv-x="860" 
d="M436 189l-4 -11l-3 10q-26 56 -51 118t-48 119q-23 58 -42.5 107t-34.5 79q-19 32 -42.5 40.5t-53.5 8.5h-104v-720h119v578q26 -70 50.5 -129t49.5 -115q24 -57 49.5 -114t52.5 -123h112q28 61 53 117.5t49 114.5t48.5 119t51.5 130v-578h119v720h-100q-31 0 -54.5 -8.5
t-41.5 -39.5h1z" />
    <glyph glyph-name="N" unicode="N" horiz-adv-x="720" 
d="M228 612q-19 31 -44 39.5t-56 8.5h-75v-720h119v563l353 -563h142v655q0 23 -11.5 37t-29.5 21q-17 7 -38 8t-40 -1v-550l-3 4q-78 124 -158 249t-159 249v0z" />
    <glyph glyph-name="O" unicode="O" horiz-adv-x="760" 
d="M153 300q0 51 14 99.5t42 86.5q29 37 71.5 60t99.5 23q56 0 98.5 -23t71.5 -60q28 -38 42.5 -86.5t14.5 -99.5t-13.5 -99.5t-41.5 -86.5t-71 -60.5t-101 -22.5q-59 0 -102 22.5t-71 60.5t-41 86.5t-13 99.5v0zM33 300q0 -83 23 -151.5t67 -116.5q44 -49 109 -75.5
t148 -26.5q82 0 147 26.5t109 75.5q44 48 67.5 116.5t23.5 151.5q0 81 -23.5 148.5t-67.5 117.5q-45 49 -109.5 76.5t-146.5 27.5q-83 0 -147.5 -27.5t-108.5 -76.5q-45 -50 -68 -117.5t-23 -148.5v0z" />
    <glyph glyph-name="P" unicode="P" horiz-adv-x="635" 
d="M173 559h172q59 0 103 -28.5t44 -90.5q0 -32 -13.5 -55.5t-34.5 -38.5t-47.5 -22.5t-51.5 -7.5h-172v243zM53 -60h120v276h162q49 0 98 13t89 40q40 28 65 70t25 101q0 60 -23 101.5t-61 68.5q-38 26 -88.5 38t-104.5 12h-282v-720z" />
    <glyph glyph-name="Q" unicode="Q" horiz-adv-x="760" 
d="M33 300q0 -83 23 -151.5t67 -116.5q44 -49 109 -75.5t148 -26.5q57 0 106.5 13.5t89.5 38.5l59 -52h160l-140 125q35 47 53.5 109t18.5 136q0 81 -23.5 148.5t-67.5 117.5q-45 49 -109.5 76.5t-146.5 27.5q-83 0 -147.5 -27.5t-108.5 -76.5q-45 -50 -68 -117.5
t-23 -148.5v0zM310 220l180 -161q-23 -14 -50.5 -21t-59.5 -7q-59 0 -102 22.5t-71 60.5t-41 86.5t-13 99.5t14 99.5t42 86.5q29 37 71.5 60t99.5 23q56 0 98.5 -23t71.5 -60q28 -38 42.5 -86.5t14.5 -99.5q0 -45 -10 -87.5t-31 -78.5l-96 86h-160z" />
    <glyph glyph-name="R" unicode="R" horiz-adv-x="665" 
d="M53 -60h120v315h127q36 0 66 -10.5t50 -53.5l106 -251h137l-72 156l-63 139q-12 24 -25.5 38.5t-34.5 25.5q58 18 100.5 60t42.5 101q0 57 -23 95.5t-62 61.5q-40 23 -92 33t-110 10h-267v-720zM173 559h172q66 0 104 -27t38 -70q0 -23 -14 -42.5t-38 -33.5
q-23 -15 -53 -23t-62 -8h-147v204z" />
    <glyph glyph-name="S" unicode="S" horiz-adv-x="610" 
d="M75 -42q40 -10 83.5 -16.5t91.5 -6.5q70 0 130 12t104 38q43 27 68 67.5t25 97.5q0 44 -23.5 77t-59.5 59q-36 25 -79 44t-82 34q-14 5 -44 14.5t-60 23.5t-53 32t-23 40t15.5 39.5t40.5 29.5q24 12 55 18t61 6q46 0 96 -11t102 -32l19 63q3 18 -5 35t-29 22
q-41 8 -83.5 14.5t-89.5 6.5q-65 0 -120 -13.5t-96 -38.5q-40 -25 -63 -61.5t-23 -82.5q0 -45 27 -77.5t67 -56.5t86.5 -41.5t85.5 -31.5q28 -11 56 -22.5t51 -24.5q22 -14 36.5 -31t14.5 -39q0 -28 -18 -49t-46 -35t-62 -21t-66 -7q-48 0 -98.5 11t-104.5 35l-19 -65
q-4 -18 3 -34.5t29 -21.5v0z" />
    <glyph glyph-name="T" unicode="T" horiz-adv-x="670" 
d="M18 660v-101h257v-619h120v619h200q18 0 30 9.5t18 24.5t7.5 32.5t0.5 34.5h-633z" />
    <glyph glyph-name="U" unicode="U" horiz-adv-x="720" 
d="M173 595q0 23 -12 37.5t-29 21.5q-18 7 -39 8t-40 -2v-431q0 -74 22.5 -130t63.5 -93q40 -38 96.5 -57t124.5 -19q67 0 123.5 19t97.5 57q40 37 63 93t23 130v366q0 23 -12 37.5t-29 21.5q-18 7 -39 8t-40 -2v-418q0 -93 -48.5 -152t-138.5 -59q-91 0 -139 59t-48 152
v353z" />
    <glyph glyph-name="V" unicode="V" horiz-adv-x="710" 
d="M561 600q-25 -68 -49.5 -133t-48.5 -129q-24 -65 -48.5 -129.5t-48.5 -130.5q-1 -2 -1.5 -4.5t-1.5 -4.5t-2 -4.5t-1 -4.5q-2 3 -4 8.5t-2 10.5q-39 99 -67.5 174.5t-50.5 131.5q-21 55 -36 93.5t-24 63.5q-10 25 -15 39t-7 20q-3 7 -3 8.5v2.5q-16 30 -36 39t-45 9h-67
q34 -89 69.5 -179.5t70.5 -181.5t70.5 -181t70.5 -178h142l281 720h-55q-31 0 -55 -14t-36 -46v0z" />
    <glyph glyph-name="W" unicode="W" horiz-adv-x="970" 
d="M644 82l-155 517q-13 33 -37 47t-54 14h-54l82 -248q-25 -81 -51 -166.5t-48 -160.5l-7 -25l-6 22l-163 530q-16 30 -36 39t-45 9h-67q36 -93 64 -181.5t55 -177.5q27 -88 55.5 -177.5t66.5 -183.5h142l98 298l100 -298h142q34 87 63 176.5t57 179.5q27 91 56.5 182
t64.5 182h-67q-27 0 -46.5 -9t-34.5 -39l-163 -530l-6 -22z" />
    <glyph glyph-name="X" unicode="X" horiz-adv-x="680" 
d="M2 -60h135q25 34 50.5 70t50.5 72q26 36 51 71.5t51 70.5l201 -284h142q-34 46 -68 93.5t-69 95.5q-34 48 -68 95.5t-67 94.5l253 341h-85q-25 0 -46 -9.5t-35 -29.5q-10 -15 -30.5 -44t-43.5 -61q-24 -33 -46 -63.5t-34 -46.5l-151 213q-17 22 -35 31.5t-42 9.5h-94
q30 -43 61.5 -86.5t62.5 -87.5q32 -43 63.5 -86t63.5 -85z" />
    <glyph glyph-name="Y" unicode="Y" horiz-adv-x="690" 
d="M285 -60h120v311l283 409h-83q-25 0 -46 -10t-35 -30q-3 -4 -12.5 -17t-28.5 -41q-20 -29 -52 -75.5t-80 -118.5q-2 -2 -3.5 -4.5t-2.5 -5.5l-7 15l-172 246l1 -1q-15 26 -34 34t-43 8h-87q31 -48 66.5 -100.5t72.5 -105.5q36 -54 72.5 -105.5t70.5 -97.5v-311z" />
    <glyph glyph-name="Z" unicode="Z" horiz-adv-x="600" 
d="M562 564v96h-524v-101h386l-401 -522v-97h497q18 0 30 9.5t18 24.5t7.5 32.5t0.5 34.5h-421z" />
    <glyph glyph-name="bracketleft" unicode="[" horiz-adv-x="350" 
d="M100 -160h210v85h-110v760h110v85h-210v-930z" />
    <glyph glyph-name="backslash" unicode="\" horiz-adv-x="1080" 
d="M185 316l97 -346h144q19 84 39 171t40 175h78l78 -346h138l93 327l5 19h115v79h-92q8 29 16.5 58.5t16.5 59.5t16.5 59t17.5 58h-120q-8 -28 -16 -57t-15 -59q-8 -30 -15 -60t-14 -59h-135l-53 235h-151q-13 -59 -26 -117.5t-26 -117.5h-133l-60 235h-125l65 -235h-95
v-79h117zM690 316h98l-51 -203zM303 316h96l-45 -201zM523 395q6 24 11 47.5t11 47.5l21 -95h-43z" />
    <glyph glyph-name="bracketright" unicode="]" horiz-adv-x="350" 
d="M250 770h-210v-85h110v-760h-110v-85h210v930z" />
    <glyph glyph-name="asciicircum" unicode="^" horiz-adv-x="550" 
d="M58 440h108q13 26 26.5 53.5t27.5 55.5q14 27 27.5 55t27.5 55l109 -219h108l-171 320h-92z" />
    <glyph glyph-name="underscore" unicode="_" horiz-adv-x="500" 
d="M-6 -160h512v72h-512v-72z" />
    <glyph glyph-name="grave" unicode="`" horiz-adv-x="220" 
d="M120 760h-135l145 -200h85z" />
    <glyph glyph-name="a" unicode="a" horiz-adv-x="550" 
d="M396 139q0 -50 -44.5 -82.5t-105.5 -32.5q-45 0 -80.5 19t-35.5 52q0 28 19 45t48 25q28 9 59.5 11.5t56.5 2.5q23 0 45 -0.5t38 -0.5v-39zM241 366q69 1 108.5 -25.5t45.5 -75.5l-120 2q-48 0 -94 -9t-82 -29t-57.5 -53t-21.5 -81q0 -82 58.5 -123.5t157.5 -41.5
q48 0 93.5 20t74.5 44v-9q0 -30 20 -38.5t47 -8.5q8 0 19.5 0.5t24.5 2.5l-0.5 2t-0.5 5v5v3q-2 4 -3.5 9t-2.5 13q-2 8 -2.5 20t-0.5 30v221q0 105 -64.5 158t-184.5 53q-44 0 -84 -11.5t-82 -30.5h1q-19 -8 -24 -23t-3 -30l6 -67q42 29 84 48t87 20v0z" />
    <glyph glyph-name="b" unicode="b" horiz-adv-x="575" 
d="M152 -3q27 -26 68.5 -46.5t96.5 -20.5q58 0 102.5 22.5t73.5 60.5q30 37 45 86t15 101t-16 99t-47 83q-30 36 -74 57t-99 21q-50 0 -91.5 -19t-68.5 -44v231q0 22 -11 36t-27 20q-17 7 -36 8t-36 -2v-750q18 -3 36.5 -2.5t33.5 5.5t25 16t10 31v7zM443 195
q0 -28 -9.5 -58t-27.5 -55q-18 -26 -45 -42t-61 -16q-38 0 -65 15.5t-44 40.5q-18 25 -26 55t-8 60q0 32 8.5 63t26.5 55t45 38.5t63 14.5q35 0 61.5 -15t44.5 -39q18 -25 27.5 -55.5t9.5 -61.5v0z" />
    <glyph glyph-name="c" unicode="c" horiz-adv-x="490" 
d="M134 195q0 81 49 124.5t137 46.5q34 1 68.5 -12.5t61.5 -28.5l9 65q2 17 -4 29t-24 21q-27 9 -51.5 14.5t-51.5 5.5q-141 0 -222 -67.5t-81 -197.5q0 -62 21 -111t60 -83q39 -35 94 -53t124 -18q30 0 62.5 4t68.5 21q10 9 14 20.5t2 26.5l-9 55q-14 -6 -29 -11.5
t-31 -10.5q-17 -5 -34.5 -8t-34.5 -3q-101 0 -150 48t-49 123v0z" />
    <glyph glyph-name="d" unicode="d" horiz-adv-x="575" 
d="M528 628q0 22 -11 36t-27 20q-17 7 -36 8t-36 -2l1 -293q-28 25 -69.5 44t-90.5 19q-56 0 -100 -21t-74 -57q-31 -36 -46.5 -83t-15.5 -99t14.5 -101t43.5 -86q29 -38 73.5 -60.5t103.5 -22.5q54 0 96 20.5t69 46.5v-12q0 -30 21 -38.5t48 -8.5h9.5h11.5t12 0.5t13 1.5
l-0.5 2.5t-0.5 5.5v4.5v3.5q-2 4 -3.5 9t-2.5 13q-2 8 -2.5 20t-0.5 30v600zM133 195q0 31 9 61.5t27 55.5q18 24 45 39t62 15t62 -14.5t45 -38.5t27 -55t9 -63q0 -30 -8.5 -60t-26.5 -55t-45 -40.5t-64 -15.5q-35 0 -61.5 16t-44.5 42q-18 25 -27 55t-9 58v0z" />
    <glyph glyph-name="e" unicode="e" horiz-adv-x="555" 
d="M142 249q9 42 44.5 79.5t98.5 37.5q57 0 92 -35t41 -82h-276zM475 73q-41 -22 -83 -35.5t-83 -13.5q-73 0 -118 36.5t-50 99.5h389q0 63 -13.5 117.5t-42.5 95.5q-29 40 -76 63.5t-113 23.5q-58 0 -105 -19.5t-80 -54.5q-34 -34 -52 -82t-18 -104q0 -124 70.5 -197
t208.5 -73q39 0 80.5 5.5t79.5 29.5q12 8 14 19.5t2 26.5z" />
    <glyph glyph-name="f" unicode="f" horiz-adv-x="400" 
d="M368 692q-11 2 -26.5 2.5t-30.5 0.5q-54 0 -87.5 -14.5t-52.5 -41.5q-18 -27 -24.5 -65t-6.5 -85v-32h-135v-97h135v-420h110v420h95q18 0 29 9t17 23t7.5 31t0.5 34h-149v41q0 45 11.5 74t64.5 29q23 -2 36.5 -4.5t31.5 -10.5l4 59q0 14 -7.5 28t-22.5 19v0z" />
    <glyph glyph-name="g" unicode="g" horiz-adv-x="575" 
d="M270 -115q-47 0 -94 12.5t-99 34.5l-9 -63q-2 -15 2 -26.5t16 -19.5q40 -17 83.5 -25t91.5 -8q136 0 201.5 62.5t65.5 180.5v417q-19 2 -38 1.5t-34 -5.5q-16 -6 -25.5 -17t-9.5 -29v-5q-27 25 -69 45t-94 20q-59 0 -103.5 -19.5t-73.5 -52.5q-30 -34 -44.5 -79
t-14.5 -97q0 -106 62 -171.5t174 -65.5q51 0 91.5 17.5t68.5 44.5q-2 -72 -41.5 -112t-106.5 -40v0zM132 217q0 27 9 53.5t28 47.5q18 21 44.5 34t61.5 13q36 0 62.5 -12.5t44.5 -33.5q18 -20 27 -47t9 -55q0 -65 -37 -106t-106 -41t-106 42t-37 105v0z" />
    <glyph glyph-name="h" unicode="h" horiz-adv-x="570" 
d="M50 -60h110v232q0 84 36 139t106 55q57 0 89.5 -42.5t32.5 -123.5v-260h110v299q0 104 -63 162.5t-159 58.5q-45 0 -83.5 -16t-68.5 -49v233q0 22 -11 35.5t-27 20.5q-17 7 -36 8t-36 -2v-750z" />
    <glyph glyph-name="i" unicode="i" horiz-adv-x="220" 
d="M165 388q0 22 -11 35.5t-28 20.5q-16 7 -35.5 8t-35.5 -2v-510h110v448zM40 605q0 -30 20.5 -50t49.5 -20q28 0 49 20t21 50q0 28 -21 49t-49 21q-29 0 -49.5 -21t-20.5 -49v0z" />
    <glyph glyph-name="j" unicode="j" horiz-adv-x="220" 
d="M12 -110q-15 0 -32.5 3.5t-38.5 9.5l7 -50q3 -15 8 -29t17 -20v1q12 -7 23 -8.5t31 -1.5q48 0 77 14.5t44 39.5q15 24 19.5 57t4.5 69v412q0 22 -10.5 35t-26.5 20q-15 6 -34.5 7t-37.5 -1v-458q0 -53 -8 -76.5t-43 -23.5v0zM50 605q0 -30 20.5 -50t49.5 -20q28 0 49 20
t21 50q0 28 -21 49t-49 21q-29 0 -49.5 -21t-20.5 -49v0z" />
    <glyph glyph-name="k" unicode="k" horiz-adv-x="530" 
d="M154 628q0 22 -11 35.5t-27 20.5t-35 8t-36 -2v-750h109v688zM166 238q-2 -3 -2.5 -6.5t-0.5 -6.5q0 -5 0.5 -7.5t2.5 -5.5l239 -272h135q-29 31 -60.5 67.5t-62.5 73.5q-32 38 -63.5 74.5t-61.5 68.5l223 236h-115q-18 -2 -34 -11t-28 -21z" />
    <glyph glyph-name="l" unicode="l" horiz-adv-x="200" 
d="M155 628q0 22 -11 35.5t-28 20.5q-16 7 -35.5 8t-35.5 -2v-750h110v688z" />
    <glyph glyph-name="m" unicode="m" 
d="M53 -60h110v250q0 32 7 63.5t22 56.5t38 40.5t56 15.5q24 0 40.5 -12t25.5 -30q10 -18 14 -40.5t4 -43.5v-300h110v250q0 32 5.5 63.5t18.5 56.5t34.5 40.5t54.5 15.5q24 0 42 -12t29 -30q12 -18 17.5 -40.5t5.5 -43.5v-300h110v319q0 84 -49 142.5t-146 58.5
q-31 0 -73.5 -20t-72.5 -68q-26 44 -66.5 66t-79.5 22q-48 0 -84 -13t-65 -48v2q0 18 -10 29t-26 16t-35 5.5t-37 -1.5v-510z" />
    <glyph glyph-name="n" unicode="n" horiz-adv-x="570" 
d="M155 401q0 18 -10 29t-26 16t-34.5 5.5t-36.5 -1.5v-510h110v236q0 84 36.5 137t109.5 53q55 0 86.5 -42.5t31.5 -123.5v-260h110v298q0 103 -59.5 162.5t-158.5 59.5q-44 0 -86.5 -14.5t-72.5 -44.5v0z" />
    <glyph glyph-name="o" unicode="o" horiz-adv-x="580" 
d="M30 195q0 -54 18.5 -102.5t52.5 -84.5t82 -57t107 -21q58 0 105.5 21t82.5 57q34 36 53 84.5t19 102.5q0 57 -18.5 105.5t-52.5 83.5t-82 55.5t-107 20.5q-60 0 -108 -20.5t-82 -55.5t-52 -83.5t-18 -105.5v0zM140 195q0 32 10 63t29 55t47 38.5t64 14.5q35 0 63 -14.5
t47 -38.5t29.5 -55t10.5 -63q0 -31 -9 -61.5t-28 -55.5q-18 -24 -46.5 -39t-66.5 -15q-40 0 -68.5 15t-46.5 39q-18 25 -26.5 55.5t-8.5 61.5v0z" />
    <glyph glyph-name="p" unicode="p" horiz-adv-x="575" 
d="M47 -210h110v227q27 -27 68.5 -45t91.5 -18q55 0 99 18.5t74 52.5q31 33 47 78.5t16 98.5q0 51 -15 98t-45 82q-29 36 -73.5 57t-102.5 21q-52 0 -94 -18.5t-69 -44.5v3q0 18 -10 29t-26 16q-15 5 -34 5.5t-37 -1.5v-659zM443 207q0 -32 -9.5 -60.5t-27.5 -50.5
t-44.5 -34.5t-61.5 -12.5q-72 0 -107.5 46.5t-35.5 111.5q0 28 8 56.5t26 50.5q17 23 44 37t65 14q34 0 60.5 -15t45.5 -37q18 -23 27.5 -51t9.5 -55v0z" />
    <glyph glyph-name="q" unicode="q" horiz-adv-x="575" 
d="M528 450q-19 2 -38 1.5t-34 -5.5q-16 -6 -25.5 -17t-9.5 -29v-3q-27 24 -69.5 43.5t-93.5 19.5q-59 0 -103.5 -21t-73.5 -57q-30 -35 -44.5 -82t-14.5 -98q0 -53 15.5 -98.5t46.5 -78.5q30 -34 74 -52.5t100 -18.5q50 0 91.5 17t68.5 46v-227h110v660zM132 207q0 27 9 55
t28 51q18 22 44.5 37t61.5 15q37 0 64 -14t44 -37q18 -22 26.5 -50.5t8.5 -56.5q0 -65 -36 -111.5t-107 -46.5q-36 0 -62.5 12.5t-44.5 34.5t-27 50.5t-9 60.5v0z" />
    <glyph glyph-name="r" unicode="r" horiz-adv-x="420" 
d="M46 -60h110v241q0 86 47 133t113 47q17 0 42.5 -6.5t43.5 -13.5q1 12 3 24.5t5 24.5q2 13 4.5 25.5t5.5 26.5q-19 6 -52 12t-57 6q-38 0 -83 -18.5t-75 -45.5v5q0 18 -10 28.5t-26 15.5t-34.5 5.5t-36.5 -0.5v-510z" />
    <glyph glyph-name="s" unicode="s" horiz-adv-x="435" 
d="M358 446q-12 2 -25 4.5t-28 4.5t-31.5 3.5t-34.5 1.5q-44 0 -83.5 -9t-69.5 -27q-30 -19 -47 -48.5t-17 -70.5q0 -33 17.5 -56t43.5 -40t55.5 -29t54.5 -22q20 -9 39.5 -18t35.5 -18q15 -10 24.5 -20t9.5 -22q0 -17 -11.5 -28t-27.5 -17q-17 -7 -36.5 -9t-35.5 -2
q-34 0 -72 7.5t-86 26.5l-6 -63q-2 -18 5 -30.5t25 -17.5q25 -6 60.5 -11.5t88.5 -5.5q39 0 76.5 8t66.5 27q29 18 46.5 47.5t17.5 72.5q0 33 -15 58t-38 44q-24 19 -51.5 32t-52.5 23q-11 3 -31.5 11t-40.5 18q-21 10 -36 22.5t-15 25.5q0 25 30.5 36t70.5 11
q45 0 75.5 -6.5t72.5 -23.5l8 64v-1q3 18 -5.5 30.5t-26.5 16.5v0z" />
    <glyph glyph-name="t" unicode="t" horiz-adv-x="400" 
d="M311 32q-35 0 -57.5 18.5t-22.5 60.5v246h89q18 0 29.5 8.5t17.5 22.5t7.5 31t0.5 34h-144v147h-110v-147h-116v-94h116v-268q0 -81 50 -118.5t125 -37.5q15 0 30.5 1.5t28.5 5.5q17 6 24 18.5t6 27.5l-4 61q-15 -8 -30 -12.5t-40 -4.5v0z" />
    <glyph glyph-name="u" unicode="u" horiz-adv-x="570" 
d="M522 387q0 22 -11 35.5t-27 20.5q-17 7 -36 8t-36 -1v-236q0 -84 -36.5 -137.5t-109.5 -53.5q-56 0 -87 43t-31 124v197q0 22 -11 35.5t-27 20.5q-17 7 -36 8t-36 -1v-298q0 -104 59.5 -163t158.5 -59q42 0 85.5 15.5t74.5 45.5v-7q0 -29 21 -38.5t48 -9.5q6 0 21 1t31 3
q-7 16 -11 30t-4 39v378z" />
    <glyph glyph-name="v" unicode="v" horiz-adv-x="540" 
d="M274 64l-134 345q-14 26 -32.5 33.5t-42.5 7.5h-61l209 -510h118l204 510h-52q-30 0 -51.5 -13.5t-33.5 -46.5z" />
    <glyph glyph-name="w" unicode="w" horiz-adv-x="770" 
d="M405 391q-12 32 -33.5 45.5t-50.5 13.5h-53l61 -169l-68 -212l-115 338q-14 27 -32.5 35t-43.5 8h-60l190 -510h117l68 187l68 -187h117l190 510h-60q-26 0 -44.5 -8t-31.5 -35q-29 -85 -57.5 -170t-57.5 -169z" />
    <glyph glyph-name="x" unicode="x" horiz-adv-x="520" 
d="M3 -60h119q16 21 33 44.5t34 46.5t34.5 46.5t34.5 45.5l129 -183h130l-50 66t-50 67t-49.5 67.5t-48.5 66.5l185 243h-74q-22 0 -41 -8t-31 -25q-20 -29 -47.5 -67t-48.5 -64l-94 135q-14 18 -30 23.5t-37 5.5h-84q23 -31 46 -62.5t46 -62.5l46 -62t47 -61z" />
    <glyph glyph-name="y" unicode="y" horiz-adv-x="550" 
d="M221 -15q0 -4 -6 -19t-18 -32q-13 -17 -33 -30t-48 -13q-15 0 -28 4t-20 19q-1 -6 -2 -15t-2 -20q-1 -10 -2 -19.5t-1 -14.5q-2 -15 4.5 -27t27.5 -19q6 -1 16.5 -2.5t25.5 -1.5q40 3 70.5 21.5t53.5 45.5q23 28 40.5 61.5t32.5 66.5l208 460h-54q-30 0 -51 -14t-35 -45
q-15 -35 -30 -69.5t-30 -69.5q-16 -34 -31 -69t-29 -69q-18 38 -34 74t-32 71l-32 72t-32 74q-14 28 -34 36.5t-45 8.5h-61l195 -412q5 -12 10.5 -29t5.5 -24v0z" />
    <glyph glyph-name="z" unicode="z" horiz-adv-x="510" 
d="M467 355v95h-419v-95h282l-298 -321l1 -94h389q18 0 29 8.5t17 22.5t7.5 30.5t0.5 33.5h-309z" />
    <glyph glyph-name="braceleft" unicode="{" horiz-adv-x="390" 
d="M340 770h-80q-19 0 -40 -8.5t-39 -24.5q-17 -17 -28.5 -41.5t-11.5 -57.5v-198q0 -43 -30.5 -68t-60.5 -26v-82q30 -2 60.5 -27.5t30.5 -71.5v-193q0 -33 11.5 -58t28.5 -41q18 -17 39 -25t40 -8h80v82h-55q-27 0 -35.5 22t-8.5 48v189q0 57 -26.5 85.5t-50.5 38.5
q24 10 50.5 38t26.5 83v192q0 25 8.5 47.5t35.5 22.5h55v82z" />
    <glyph glyph-name="bar" unicode="|" horiz-adv-x="300" 
d="M115 -160h70v930h-70v-930z" />
    <glyph glyph-name="braceright" unicode="}" horiz-adv-x="390" 
d="M50 688h55q27 0 35.5 -22.5t8.5 -47.5v-192q0 -29 8 -50t21 -36q12 -14 26.5 -23.5t26.5 -13.5q-12 -3 -26.5 -11t-26.5 -22q-13 -15 -21 -36.5t-8 -52.5v-189q0 -26 -8.5 -48t-35.5 -22h-55v-82h80q18 0 39 8t39 25q17 16 29 41t12 58v193q0 46 30 71.5t61 27.5v82
q-31 1 -61 26t-30 68v198q0 33 -12 57.5t-29 41.5q-18 16 -39 24.5t-39 8.5h-80v-82z" />
    <glyph glyph-name="asciitilde" unicode="~" horiz-adv-x="600" 
d="M496 396l-15 -23q-15 -22 -33 -41.5t-41 -19.5q-12 0 -23 3t-21 7q-11 5 -21.5 10t-20.5 10q-20 7 -37.5 14t-32.5 12q-15 6 -29.5 9t-27.5 3q-53 0 -86.5 -30t-50.5 -66l47 -92l15 23q15 21 32.5 41t41.5 20q9 0 18.5 -2.5t19.5 -7.5q11 -4 22 -9.5t25 -11.5
q28 -14 61 -25.5t67 -11.5q53 0 86 30t51 66z" />
    <glyph glyph-name="glyph96" horiz-adv-x="0" 
 />
    <glyph glyph-name="glyph97" horiz-adv-x="0" 
 />
    <glyph glyph-name="glyph98" horiz-adv-x="0" 
 />
    <glyph glyph-name="glyph99" horiz-adv-x="0" 
 />
    <glyph glyph-name="glyph100" horiz-adv-x="0" 
 />
    <glyph glyph-name="uni3000" unicode="&#x3000;" horiz-adv-x="940" 
 />
    <glyph glyph-name="uni3000" unicode="&#x3164;" horiz-adv-x="940" 
 />
    <glyph glyph-name="uni3001" unicode="&#x3001;" horiz-adv-x="470" 
d="M82 517q16 30 32.5 51t34.5 41q25 33 56.5 61.5t66.5 53.5l-77 83q-27 -27 -52 -53.5t-44 -53.5q-38 -53 -58 -88.5t-20 -39.5z" />
    <glyph glyph-name="uni3002" unicode="&#x3002;" horiz-adv-x="470" 
d="M15 687q0 -44 30 -73.5t75 -29.5q44 0 74.5 29.5t30.5 73.5q0 43 -30.5 73t-74.5 30q-45 0 -75 -30t-30 -73v0zM70 687q0 21 14.5 36.5t35.5 15.5q20 0 35 -15.5t15 -36.5t-15 -36.5t-35 -15.5q-21 0 -35.5 15.5t-14.5 36.5v0z" />
    <glyph glyph-name="glyph104" horiz-adv-x="0" 
 />
    <glyph glyph-name="twodotenleader" unicode="&#x2025;" horiz-adv-x="900" 
d="M160 240h130v130h-130v-130zM610 240h130v130h-130v-130z" />
    <glyph glyph-name="ellipsis" unicode="&#x2026;" horiz-adv-x="930" 
d="M95 225h120v125h-120v-125zM405 225h120v125h-120v-125zM715 225h120v125h-120v-125z" />
    <glyph glyph-name="dieresis" unicode="&#xa8;" horiz-adv-x="940" 
d="M175 225h120v125h-120v-125zM645 225h120v125h-120v-125z" />
    <glyph glyph-name="uni3003" unicode="&#x3003;" horiz-adv-x="470" 
d="M169 499l-101 -248l61 -33l140 231zM309 479l-101 -248l61 -33l140 231z" />
    <glyph glyph-name="glyph109" horiz-adv-x="0" 
 />
    <glyph glyph-name="glyph110" horiz-adv-x="0" 
 />
    <glyph glyph-name="glyph111" horiz-adv-x="0" 
 />
    <glyph glyph-name="uniFF3C" unicode="&#xff3c;" horiz-adv-x="940" 
d="M115 316l97 -346h144q19 84 39 171t40 175h78l78 -346h138l93 327l5 19h115v79h-92q8 29 16.5 58.5t16.5 59.5t16.5 59t17.5 58h-120q-8 -28 -16 -57t-15 -59q-8 -30 -15 -60t-14 -59h-135l-53 235h-151q-13 -59 -26 -117.5t-26 -117.5h-133l-60 235h-125l65 -235h-95
v-79h117zM620 316h97q-12 -51 -25 -102t-25 -101zM233 316h96l-45 -201zM453 395q6 24 11 47.5t11 47.5l21 -95h-43z" />
    <glyph glyph-name="uniFF5E" unicode="&#xff5e;" horiz-adv-x="940" 
d="M666 396l-15 -23q-15 -22 -33 -41.5t-41 -19.5q-12 0 -23 3t-21 7q-11 5 -21.5 10t-20.5 10q-20 7 -37.5 14t-32.5 12q-15 6 -29.5 9t-27.5 3q-53 0 -86.5 -30t-50.5 -66l47 -92l15 23q15 21 32.5 41t41.5 20q9 0 18.5 -2.5t19.5 -7.5q11 -4 22 -9.5t25 -11.5
q28 -14 61 -25.5t67 -11.5q53 0 86 30t51 66z" />
    <glyph glyph-name="quoteleft" unicode="&#x2018;" horiz-adv-x="400" 
d="M328 470q16 43 31.5 102.5t15.5 107.5q0 28 -11.5 52t-40.5 28q-42 0 -55 -25t-13 -55q0 -45 11.5 -105t24.5 -105h37z" />
    <glyph glyph-name="quoteright" unicode="&#x2019;" horiz-adv-x="400" 
d="M98 470q16 43 31.5 102.5t15.5 107.5q0 28 -11.5 52t-40.5 28q-42 0 -55 -25t-13 -55q0 -45 11.5 -105t24.5 -105h37z" />
    <glyph glyph-name="quotedblleft" unicode="&#x201c;" horiz-adv-x="420" 
d="M354 470q18 45 32 102t14 108q0 28 -10.5 52t-37.5 28q-38 0 -50 -25t-12 -55q0 -49 11.5 -104t24.5 -106h28zM214 470q18 45 32 102t14 108q0 28 -10.5 52t-37.5 28q-38 0 -50 -25t-12 -55q0 -23 3 -50.5t8 -56.5q5 -28 11.5 -55t13.5 -48h28z" />
    <glyph glyph-name="quotedblright" unicode="&#x201d;" horiz-adv-x="420" 
d="M224 470q18 45 32 102t14 108q0 28 -10.5 52t-37.5 28q-38 0 -50 -25t-12 -55q0 -49 11.5 -104t24.5 -106h28zM84 470q18 45 32 102t14 108q0 28 -10.5 52t-37.5 28q-38 0 -50 -25t-12 -55q0 -23 3 -50.5t8 -56.5q5 -28 11.5 -55t13.5 -48h28z" />
    <glyph glyph-name="uni3014" unicode="&#x3014;" horiz-adv-x="470" 
d="M155 603v-586l260 -171v107q-21 15 -41.5 29.5t-41.5 29.5l-42 30t-41 30v475l166 120v107z" />
    <glyph glyph-name="uni3015" unicode="&#x3015;" horiz-adv-x="470" 
d="M55 774v-107q20 -15 40.5 -30t41.5 -30l42 -30l42 -30v-475l-166 -119v-107l260 171v586z" />
    <glyph glyph-name="uni3008" unicode="&#x3008;" horiz-adv-x="470" 
d="M171 310l246 416l-81 45l-266 -462q99 -171 166.5 -287.5t99.5 -172.5l81 45z" />
    <glyph glyph-name="uni3009" unicode="&#x3009;" horiz-adv-x="470" 
d="M53 -106l81 -45l266 461l-266 461l-81 -45q30 -52 60.5 -104t62.5 -104q31 -53 62 -105t61 -103z" />
    <glyph glyph-name="uni300A" unicode="&#x300a;" horiz-adv-x="470" 
d="M364 765l-196 -455l196 -455h53l-195 455l195 455h-53zM269 765l-195 -455l195 -455h54q-24 56 -49 113t-49 114q-25 57 -49.5 114t-48.5 114l195 455h-53z" />
    <glyph glyph-name="uni300B" unicode="&#x300b;" horiz-adv-x="470" 
d="M54 765l195 -455l-195 -455h53l196 455l-196 455h-53zM149 765l195 -455q-24 -57 -49 -114t-49 -114q-25 -57 -49.5 -114t-48.5 -113h54l195 455l-195 455h-53z" />
    <glyph glyph-name="uni300C" unicode="&#x300c;" horiz-adv-x="470" 
d="M180 460h85v240h165v80h-250v-320z" />
    <glyph glyph-name="uni300D" unicode="&#x300d;" horiz-adv-x="470" 
d="M280 150h-85v-240h-165v-80h250v320z" />
    <glyph glyph-name="uni300E" unicode="&#x300e;" horiz-adv-x="470" 
d="M300 445v195h135v145h-280v-340h145zM245 485h-35v244h181v-33h-146v-211z" />
    <glyph glyph-name="uni300F" unicode="&#x300f;" horiz-adv-x="470" 
d="M160 165v-195h-135v-145h280v340h-145zM215 125h35v-244h-181v33h146v211z" />
    <glyph glyph-name="uni3010" unicode="&#x3010;" horiz-adv-x="470" 
d="M420 -140q-58 39 -101 90t-71 110q-29 58 -42.5 122t-13.5 128q0 66 15.5 131.5t44.5 124.5t71.5 108.5t96.5 85.5h-320v-900h320z" />
    <glyph glyph-name="uni3011" unicode="&#x3011;" horiz-adv-x="470" 
d="M360 -140v900h-320q53 -36 95.5 -85.5t71.5 -108.5t45 -124.5t16 -131.5q0 -64 -14 -128t-43 -122q-28 -59 -71 -110t-100 -90h320z" />
    <glyph glyph-name="plusminus" unicode="&#xb1;" horiz-adv-x="900" 
d="M170 -36h560v92h-560v-92zM170 354h232v-224h96v224h232v92h-232v224h-96v-224h-232v-92z" />
    <glyph glyph-name="multiply" unicode="&#xd7;" horiz-adv-x="900" 
d="M205 480l180 -180l-180 -180l65 -65l180 180l180 -180l65 65l-180 180l180 180l-65 65l-180 -180l-180 180z" />
    <glyph glyph-name="divide" unicode="&#xf7;" horiz-adv-x="900" 
d="M375 565q0 -32 21.5 -53.5t53.5 -21.5q31 0 53 21.5t22 53.5q0 31 -22 53t-53 22q-32 0 -53.5 -22t-21.5 -53v0zM375 45q0 -32 21.5 -53.5t53.5 -21.5q31 0 53 21.5t22 53.5q0 31 -22 53t-53 22q-32 0 -53.5 -22t-21.5 -53v0zM760 351h-620v-92h620v92z" />
    <glyph glyph-name="notequal" unicode="&#x2260;" horiz-adv-x="900" 
d="M362 -64q10 28 21 58t22 61t22 61t22 59h359v86h-329q5 14 9.5 26t8.5 23q5 12 9.5 24t9.5 26h292v86h-262l67 180l-79 31q-10 -26 -20 -52.5t-20 -53.5t-19.5 -53.5t-18.5 -51.5h-364v-86h333q-6 -15 -10.5 -27t-9.5 -23q-4 -12 -8.5 -24t-8.5 -25h-296v-86h265
l-76 -208z" />
    <glyph glyph-name="lessequal" unicode="&#x2264;" horiz-adv-x="900" 
d="M789 595l-39 80q-121 -49 -207.5 -84t-156.5 -63t-131.5 -53.5t-130.5 -53.5q-10 -5 -17 -11t-5 -21q0 -15 8.5 -22t17.5 -10l622 -251l39 79q-33 12 -67.5 26t-68.5 28q-35 14 -69.5 27.5t-67.5 27.5l-243 96zM92 -10h716v85h-716v-85z" />
    <glyph glyph-name="greaterequal" unicode="&#x2265;" horiz-adv-x="900" 
d="M627 390l-516 -205l39 -79l618 249q5 3 10.5 5.5t9.5 6.5t6.5 8.5t3.5 12.5q0 6 -1.5 10.5t-3.5 8.5q-2 3 -5.5 5.5t-7.5 5.5h1l-631 257l-39 -80zM92 -10h716v85h-716v-85z" />
    <glyph glyph-name="infinity" unicode="&#x221e;" horiz-adv-x="900" 
d="M466 414q-3 -4 -5 -7.5t-4 -6.5t-3.5 -6l-2.5 -5l-4 -6q-3 3 -5.5 7t-4.5 8q-2 3 -4.5 7t-4.5 9q-24 36 -60.5 54.5t-84.5 18.5q-37 0 -70.5 -15t-59.5 -40q-25 -25 -40 -59t-15 -73q0 -37 14 -70.5t39 -58.5t59 -39.5t73 -14.5q48 0 85 16t60 49l20 31q1 -3 3 -6.5
t4 -6.5t5 -7l6 -8q24 -36 61.5 -52t83.5 -16q36 0 70 14t60 38q27 25 43 58.5t16 72.5q0 36 -15.5 70t-40.5 60q-26 26 -60.5 41.5t-72.5 15.5q-50 0 -86.5 -18.5t-58.5 -54.5v0zM712 300q0 -42 -30.5 -70.5t-72.5 -28.5q-29 0 -48.5 12.5t-33.5 34.5q-6 10 -13 24.5
t-13 27.5q3 6 6 13t7 14q3 7 6.5 13.5t6.5 13.5q12 22 33 35.5t49 13.5q41 0 72 -30.5t31 -72.5v0zM186 300q0 39 27.5 71t69.5 32q29 0 50 -13t34 -37l26 -52l-6.5 -12.5t-19.5 -40.5v1q-14 -24 -35 -36t-49 -12q-41 0 -69 28.5t-28 70.5v0z" />
    <glyph glyph-name="therefore" unicode="&#x2234;" horiz-adv-x="900" 
d="M382 539q0 -28 20 -48t48 -20q27 0 47.5 20t20.5 48q0 27 -20.5 47.5t-47.5 20.5q-28 0 -48 -20.5t-20 -47.5v0zM617 99q0 -28 20 -48t48 -20q27 0 47.5 20t20.5 48q0 27 -20.5 47.5t-47.5 20.5q-28 0 -48 -20.5t-20 -47.5v0zM147 99q0 -28 20 -48t48 -20q27 0 47.5 20
t20.5 48q0 27 -20.5 47.5t-47.5 20.5q-28 0 -48 -20.5t-20 -47.5v0z" />
    <glyph glyph-name="degree" unicode="&#xb0;" horiz-adv-x="500" 
d="M20 660q0 -45 30 -75t75 -30q44 0 74.5 30t30.5 75q0 44 -30.5 74.5t-74.5 30.5q-45 0 -75 -30.5t-30 -74.5v0zM80 660q0 18 12.5 31.5t32.5 13.5q18 0 31.5 -13.5t13.5 -31.5q0 -20 -13.5 -32.5t-31.5 -12.5q-20 0 -32.5 12.5t-12.5 32.5v0z" />
    <glyph glyph-name="minute" unicode="&#x2032;" horiz-adv-x="500" 
d="M68 500l147 260h-125l-85 -260h63z" />
    <glyph glyph-name="second" unicode="&#x2033;" horiz-adv-x="500" 
d="M68 500l147 260h-125l-85 -260h63zM218 500l147 260h-125l-85 -260h63z" />
    <glyph glyph-name="uni2103" unicode="&#x2103;" horiz-adv-x="800" 
d="M641 186q-15 -63 -60.5 -108t-105.5 -45q-48 0 -82.5 24t-56.5 62t-32 85t-10 94q0 41 9 87.5t30 85.5q22 39 56.5 65t85.5 26q62 0 98.5 -36t69.5 -96h108q-12 51 -38 94t-62 74q-37 32 -82 49.5t-94 17.5q-70 0 -124.5 -30t-92.5 -80q-37 -51 -56.5 -117.5
t-19.5 -139.5q0 -68 17.5 -133.5t53.5 -118.5q37 -52 92 -84t130 -32q50 0 96 18t83 51t62.5 80.5t34.5 106.5h-110zM85 670q0 18 13 31.5t32 13.5q18 0 31.5 -13.5t13.5 -31.5q0 -19 -13.5 -32t-31.5 -13q-19 0 -32 13t-13 32v0zM30 670q0 -42 29 -71t71 -29t71 29t29 71
t-29 71t-71 29t-71 -29t-29 -71v0z" />
    <glyph glyph-name="uni212B" unicode="&#x212b;" horiz-adv-x="700" 
d="M540 -60h113l-262 560h-77l-267 -560h113l69 143h246zM245 645q0 -44 30.5 -74.5t74.5 -30.5q43 0 74 30.5t31 74.5q0 43 -31 74t-74 31q-44 0 -74.5 -31t-30.5 -74v0zM353 347q10 -22 20.5 -44t21.5 -44q10 -23 20.5 -45.5t21.5 -44.5h-168l81 183zM300 645
q0 19 15 34.5t35 15.5q19 0 34.5 -15.5t15.5 -34.5q0 -20 -15.5 -35t-34.5 -15q-20 0 -35 15t-15 35v0z" />
    <glyph glyph-name="uniFFE0" unicode="&#xffe0;" horiz-adv-x="940" 
d="M627 180q-12 -64 -58.5 -105.5t-106.5 -41.5q-18 0 -34 2.5t-30 8.5l178 478q16 -16 28.5 -37.5t21.5 -47.5h117q-18 55 -51 103t-80 80l28 75l-80 30l-26 -70q-18 4 -36 7t-37 3q-76 0 -133 -30t-94 -80q-38 -50 -56.5 -116.5t-18.5 -138.5q0 -92 31.5 -176.5
t99.5 -134.5l-30 -84l75 -30l28 76q21 -8 46 -12t52 -4q50 0 96.5 17.5t83.5 49.5q38 33 64.5 78t38.5 100h-117zM462 568q9 0 19 -1.5t20 -3.5l-171 -466q-30 38 -42.5 92t-12.5 111q0 46 9 93.5t30 86.5q22 38 58 63t90 25v0z" />
    <glyph glyph-name="uniFFE1" unicode="&#xffe1;" horiz-adv-x="940" 
d="M270 281q2 -18 3.5 -35t1.5 -34q0 -42 -9 -84t-24 -81h-74v-97h353q42 0 79.5 4.5t66.5 11.5q35 9 57 37.5t30 72.5q2 15 2.5 34t0.5 39h-85q0 -10 -1 -31t-4 -30q-8 -16 -20 -24.5t-27 -12.5q-14 -3 -30 -3.5t-30 -0.5h-205q9 16 14.5 37t7.5 43q2 23 2.5 46.5t0.5 46.5
q0 15 -1.5 30.5t-2.5 30.5h235v78h-244q-1 10 -1 20.5v22.5q0 29 4.5 61t17.5 58q13 27 37.5 44.5t63.5 17.5q45 0 78 -33t36 -79h104q-8 98 -65.5 152.5t-146.5 56.5q-60 1 -105 -19.5t-75 -57.5q-30 -36 -44.5 -86t-14.5 -107q0 -13 0.5 -26t2.5 -25h-62v-78h73z" />
    <glyph glyph-name="uniFFE5" unicode="&#xffe5;" horiz-adv-x="940" 
d="M801 660h-131q-48 -81 -98 -163.5t-101 -160.5l-199 324h-123q24 -42 50.5 -84t53.5 -83q27 -42 54 -83t54 -80h-155v-75h200l12 -24v-21h-212v-76h212v-194h106v194h216v76h-216v19q3 6 8 13t10 13h198v75h-151z" />
    <glyph glyph-name="male" unicode="&#x2642;" horiz-adv-x="940" 
d="M630 30q0 58 -37.5 102t-92.5 55v433l174 -212l48 39l-252 301l-252 -301l48 -39l174 212v-433q-57 -11 -93.5 -55t-36.5 -102q0 -34 12 -63t34 -51t51 -34t63 -12q33 0 62 12t51 34t34.5 51t12.5 63v0zM570 30q0 -42 -29.5 -71t-70.5 -29q-42 0 -71 29t-29 71
q0 41 29 70.5t71 29.5q41 0 70.5 -29.5t29.5 -70.5v0z" />
    <glyph glyph-name="female" unicode="&#x2640;" horiz-adv-x="940" 
d="M310 550q0 -60 36.5 -104t93.5 -54v-117h-275v-60h275v-370h60v370h275v60h-275v117q55 10 92.5 54t37.5 104q0 33 -12.5 62t-34.5 51t-51 34.5t-62 12.5q-34 0 -63 -12.5t-51 -34.5t-34 -51t-12 -62v0zM370 550q0 41 29 70.5t71 29.5q41 0 70.5 -29.5t29.5 -70.5
q0 -42 -29.5 -71t-70.5 -29q-42 0 -71 29t-29 71v0z" />
    <glyph glyph-name="angle" unicode="&#x2220;" horiz-adv-x="900" 
d="M720 561l-69 56q-66 -67 -134.5 -136t-136.5 -139q-69 -70 -138 -139.5t-136 -136.5q-7 -8 -15.5 -20.5t-8.5 -21.5q0 -19 12.5 -26.5t27.5 -7.5h656v81h-543z" />
    <glyph glyph-name="perpendicular" unicode="&#x22a5;" horiz-adv-x="900" 
d="M788 -40v86h-291v574h-94v-574h-291v-86h676z" />
    <glyph glyph-name="uni2312" unicode="&#x2312;" horiz-adv-x="900" 
d="M193 365q8 48 30.5 91t56.5 75q34 33 77 52t93 19q47 0 89.5 -18.5t75.5 -49.5q34 -32 58 -75.5t35 -93.5h94q-12 64 -42.5 122.5t-76.5 103.5q-45 45 -104.5 72t-128.5 27q-66 0 -124 -25t-105 -69q-46 -44 -78.5 -103t-44.5 -128h95z" />
    <glyph glyph-name="partialdiff" unicode="&#x2202;" horiz-adv-x="500" 
d="M324 265q-6 -16 -18.5 -38.5t-29.5 -42.5q-17 -21 -37 -35t-39 -14q-12 0 -16 8t-4 23q0 22 13 39t34 30q21 12 46.5 19.5t50.5 10.5v0zM273 408q28 0 45 -21t16 -49q-21 0 -47 -2t-50 -8q-28 -8 -56.5 -22t-51.5 -33q-23 -20 -37.5 -46.5t-14.5 -59.5q0 -24 9 -46.5
t30 -37.5q21 -16 43 -22.5t46 -6.5q44 0 86 24.5t74 64.5q32 39 52 87.5t20 96.5q0 30 -10.5 60t-30.5 53q-19 24 -47 38.5t-63 14.5q-44 0 -78 -13t-58 -40q-28 -30 -35 -53t8 -35q13 -10 32.5 -4t40.5 28q15 14 35.5 23t41.5 9v0z" />
    <glyph glyph-name="gradient" unicode="&#x2207;" horiz-adv-x="900" 
d="M830 589h-760l380 -650zM673 508l-223 -395q-31 51 -60 100t-57 97q-29 49 -57 98t-58 100h455z" />
    <glyph glyph-name="equivalence" unicode="&#x2261;" horiz-adv-x="900" 
d="M92 416h716v84h-716v-84zM92 268h716v84h-716v-84zM92 120h716v84h-716v-84z" />
    <glyph glyph-name="uni2252" unicode="&#x2252;" horiz-adv-x="900" 
d="M570 55q0 -29 20.5 -49.5t49.5 -20.5q28 0 49 20.5t21 49.5q0 28 -21 49t-49 21q-29 0 -49.5 -21t-20.5 -49v0zM190 560q0 -29 20.5 -49.5t49.5 -20.5q28 0 49 20.5t21 49.5q0 28 -21 49t-49 21q-29 0 -49.5 -21t-20.5 -49v0zM92 346h716v79h-716v-79zM92 190h716v79
h-716v-79z" />
    <glyph glyph-name="section" unicode="&#xa7;" horiz-adv-x="600" 
d="M296 700q-30 0 -56.5 -11.5t-45.5 -30.5t-29 -45t-7 -56t14 -58.5t29 -49.5q1 -3 2 -5t4 -3q-6 -2 -5 -2t-2 0q-31 -11 -49.5 -42.5t-18.5 -61.5q0 -24 9 -45t27 -41q24 -27 50.5 -53t59.5 -52q21 -17 35.5 -36.5t21.5 -40.5q4 -15 4 -30.5t-10 -29.5q-13 -16 -32 -17
t-37 9l0.5 1t0.5 2q1 1 1 2t1 2q0 16 -11.5 35.5t-32.5 31.5q-23 6 -40.5 0.5t-29.5 -23.5q-12 -19 -6.5 -40.5t26.5 -43.5q23 -24 55 -37t73 -13q32 -1 59.5 11.5t48.5 33.5t33.5 49t14.5 59q0 30 -14 55t-32 49q30 15 42.5 35t15.5 43q5 51 -25 100t-88 91
q-51 34 -75 69.5t-27 71.5q-3 24 8.5 35t25.5 14t26.5 1t12.5 -5q0 -14 4.5 -29t14.5 -30q14 -21 34 -25.5t43 9.5q12 8 18.5 18t6.5 23q0 12 -6.5 25.5t-17.5 29.5q-21 26 -52 38.5t-72 12.5v0zM228 362q6 13 20.5 12.5t31.5 -9.5q16 -8 33 -21.5t29 -26.5q6 -8 12 -15.5
t11 -15.5q6 -8 9.5 -17t5.5 -19q1 -8 -5.5 -13t-21.5 -5q-12 0 -41 16t-57 49q-13 14 -20 30t-7 35v0z" />
    <glyph glyph-name="uni203B" unicode="&#x203b;" horiz-adv-x="800" 
d="M644 613q-61 -61 -123.5 -124.5t-121.5 -123.5l-247 248l-51 -58l241 -243l-243 -245l53 -53l247 245l245 -245l52 53l-243 245l241 243zM338 537q0 -27 17.5 -44.5t44.5 -17.5q25 0 44 17.5t19 44.5q0 25 -19 44t-44 19q-27 0 -44.5 -19t-17.5 -44v0zM560 315
q0 -27 17.5 -44.5t44.5 -17.5q25 0 44 17.5t19 44.5q0 25 -19 44t-44 19q-27 0 -44.5 -19t-17.5 -44v0zM235 315q0 25 -17.5 44t-44.5 19q-26 0 -44.5 -19t-18.5 -44q0 -27 18.5 -44.5t44.5 -17.5q27 0 44.5 17.5t17.5 44.5v0zM338 93q0 -26 17.5 -44.5t44.5 -18.5
q25 0 44 18.5t19 44.5q0 27 -19 44.5t-44 17.5q-27 0 -44.5 -17.5t-17.5 -44.5v0z" />
    <glyph glyph-name="uni2606" unicode="&#x2606;" horiz-adv-x="940" 
d="M380 392h-290l235 -180l-95 -294l240 180l240 -180l-95 294l235 180h-290l-90 293zM470 544l60 -194h197l-160 -122l46 -144l19 -56l-162 121l-89 -66q-10 -8 -19 -15t-18 -13l-18 -14t-18 -13l64 200q-18 13 -35.5 26t-34.5 26t-34.5 26t-33.5 27q-5 3 -11.5 8t-10.5 9
h198z" />
    <glyph glyph-name="uni2605" unicode="&#x2605;" horiz-adv-x="940" 
d="M380 392h-290l235 -180l-95 -294l240 180l240 -180l-95 294l235 180h-290l-90 293z" />
    <glyph glyph-name="circle" unicode="&#x25cb;" horiz-adv-x="940" 
d="M90 300q0 -79 29.5 -148.5t81.5 -120.5q51 -52 120.5 -81.5t148.5 -29.5q78 0 147.5 29.5t120.5 81.5q52 51 82 120.5t30 148.5q0 78 -30 147.5t-82 120.5q-51 52 -120.5 82t-147.5 30q-79 0 -148.5 -30t-120.5 -82q-52 -51 -81.5 -120.5t-29.5 -147.5v0zM140 300
q0 68 25.5 128t70.5 105t105 71t129 26q68 0 128 -26t105 -71t71 -105t26 -128q0 -69 -26 -129t-71 -105t-105 -70.5t-128 -25.5q-69 0 -129 25.5t-105 70.5t-70.5 105t-25.5 129v0z" />
    <glyph glyph-name="H18533" unicode="&#x25cf;" horiz-adv-x="940" 
d="M90 300q0 -79 29.5 -148.5t81.5 -120.5q51 -52 120.5 -81.5t148.5 -29.5q78 0 147.5 29.5t120.5 81.5q52 51 82 120.5t30 148.5q0 78 -30 147.5t-82 120.5q-51 52 -120.5 82t-147.5 30q-79 0 -148.5 -30t-120.5 -82q-52 -51 -81.5 -120.5t-29.5 -147.5v0z" />
    <glyph glyph-name="uni25CE" unicode="&#x25ce;" horiz-adv-x="940" 
d="M90 300q0 -79 29.5 -148.5t81.5 -120.5q51 -52 120.5 -81.5t148.5 -29.5q78 0 147.5 29.5t120.5 81.5q52 51 82 120.5t30 148.5q0 78 -30 147.5t-82 120.5q-51 52 -120.5 82t-147.5 30q-79 0 -148.5 -30t-120.5 -82q-52 -51 -81.5 -120.5t-29.5 -147.5v0zM140 300
q0 68 25.5 128t70.5 105t105 71t129 26q68 0 128 -26t105 -71t71 -105t26 -128q0 -69 -26 -129t-71 -105t-105 -70.5t-128 -25.5q-69 0 -129 25.5t-105 70.5t-70.5 105t-25.5 129v0zM285 300q0 -39 14.5 -72.5t39.5 -58.5t58.5 -39.5t72.5 -14.5q38 0 71.5 14.5t58.5 39.5
t40 58.5t15 72.5q0 38 -15 71.5t-40 58.5t-58.5 40t-71.5 15q-39 0 -72.5 -15t-58.5 -40t-39.5 -58.5t-14.5 -71.5v0zM335 300q0 27 10.5 51t29.5 43t43.5 30t51.5 11t51 -11t43 -30t30 -43t11 -51t-11 -51.5t-30 -43.5t-43 -29.5t-51 -10.5t-51.5 10.5t-43.5 29.5
t-29.5 43.5t-10.5 51.5v0z" />
    <glyph glyph-name="uni25C7" unicode="&#x25c7;" horiz-adv-x="940" 
d="M470 680l-380 -380l380 -380l380 380zM782 300l-312 -312l-312 312l312 312z" />
    <glyph glyph-name="uni25C6" unicode="&#x25c6;" horiz-adv-x="940" 
d="M470 680l-380 -380l380 -380l380 380z" />
    <glyph glyph-name="H22073" unicode="&#x25a1;" horiz-adv-x="940" 
d="M750 580h-560v-560h560v560zM700 70h-460v460h460v-460z" />
    <glyph glyph-name="filledbox" unicode="&#x25a0;" horiz-adv-x="940" 
d="M750 580h-560v-560h560v560z" />
    <glyph glyph-name="uni25B3" unicode="&#x25b3;" horiz-adv-x="940" 
d="M90 -10h760l-380 688zM470 570l293 -530h-586z" />
    <glyph glyph-name="triagup" unicode="&#x25b2;" horiz-adv-x="940" 
d="M90 -10h760l-380 688z" />
    <glyph glyph-name="uni25BD" unicode="&#x25bd;" horiz-adv-x="940" 
d="M470 -78l380 688h-760zM177 560h586l-293 -530z" />
    <glyph glyph-name="triagdn" unicode="&#x25bc;" horiz-adv-x="940" 
d="M470 -78l380 688h-760z" />
    <glyph glyph-name="arrowright" unicode="&#x2192;" horiz-adv-x="1000" 
d="M50 271h693l-97 -88l5 -9l313 136l-314 136l-4 -9l96 -88h-692v-78z" />
    <glyph glyph-name="arrowleft" unicode="&#x2190;" horiz-adv-x="1000" 
d="M950 349h-692l96 88l-5 9l-313 -136l314 -136l4 9l-96 88h692v78z" />
    <glyph glyph-name="arrowup" unicode="&#x2191;" horiz-adv-x="1000" 
d="M539 -145v693l88 -97l9 5l-136 313l-136 -314l9 -4l88 96v-692h78z" />
    <glyph glyph-name="arrowdown" unicode="&#x2193;" horiz-adv-x="1000" 
d="M461 755v-692l-88 96l-9 -5l136 -313l136 314l-9 4l-88 -96v692h-78z" />
    <glyph glyph-name="arrowboth" unicode="&#x2194;" horiz-adv-x="1000" 
d="M354 437l-4 9l-314 -136l314 -136l4 9l-96 88h485l-97 -88l5 -9l313 136l-314 136l-4 -9l96 -88h-484z" />
    <glyph glyph-name="uni3013" unicode="&#x3013;" horiz-adv-x="940" 
d="M810 475h-680v-88h680v88zM810 231h-680v-86h680v86z" />
    <glyph glyph-name="guillemotleft" unicode="&#xab;" horiz-adv-x="655" 
d="M399 -88l-237 419l237 412h-102l-233 -412l233 -419h102zM599 -88l-237 419l237 412h-102l-233 -412l233 -419h102z" />
    <glyph glyph-name="guillemotright" unicode="&#xbb;" horiz-adv-x="655" 
d="M366 -88l233 419l-233 412h-102l237 -412l-237 -419h102zM166 -88l233 419l-233 412h-102l237 -412l-237 -419h102z" />
    <glyph glyph-name="radical" unicode="&#x221a;" horiz-adv-x="900" 
d="M87 133q4 3 10 7l12 8t11.5 8t11.5 7l90 -165q13 -17 31.5 -15.5t21.5 27.5l97 515h445v84h-517q-9 -54 -19 -109l-20 -110t-20 -109.5t-19 -108.5l-63 117l-114 -88z" />
    <glyph glyph-name="uni223D" unicode="&#x223d;" horiz-adv-x="900" 
d="M629 486q-53 0 -91.5 -18.5t-62.5 -52.5q-15 -22 -29.5 -44.5t-28.5 -44.5q-14 -23 -28.5 -46t-29.5 -46v1q-16 -23 -38.5 -34t-50.5 -8q-42 2 -71 32.5t-27 75.5q0 41 28.5 68t67.5 27q15 0 33 -6.5t61 -29.5l46 79q-34 22 -66 36t-72 14q-39 0 -73 -14.5t-59 -39.5
q-26 -26 -41 -60t-16 -74q-2 -80 48 -136.5t136 -62.5q50 -3 90.5 14t67.5 53q15 22 30 44.5t29 45.5q15 23 29.5 46.5t30.5 47.5q15 21 35.5 31.5t48.5 8.5q41 -3 69.5 -34t27.5 -74q-1 -16 -8 -32t-18 -29q-12 -14 -27 -22t-31 -8q-18 0 -40 6.5t-67 27.5l-34 -70
q13 -16 32.5 -27t39.5 -17q21 -7 40 -10t31 -3q36 0 68 14.5t56 39.5t38.5 58t14.5 70q0 39 -14 76t-39 65q-24 28 -59 45t-77 17v0z" />
    <glyph glyph-name="proportional" unicode="&#x221d;" horiz-adv-x="900" 
d="M818 457q-30 26 -64.5 40t-71.5 14q-52 0 -95 -22.5t-70 -57.5q-4 -4 -7.5 -9t-6.5 -10q-3 -6 -6 -11.5t-6 -9.5q-4 5 -10 14.5t-14 24.5q-27 40 -68.5 60.5t-98.5 20.5q-42 0 -79.5 -17t-66.5 -45q-28 -29 -45 -67.5t-17 -81.5q0 -42 15.5 -80.5t43.5 -67.5
q27 -29 65.5 -46t83.5 -17q60 0 109.5 30.5t81.5 82.5l26 -39q25 -38 66.5 -56t98.5 -18q39 0 68.5 10t68.5 36l-42 68q-28 -15 -50 -22.5t-45 -7.5q-36 0 -62.5 14t-44.5 43h1l-38 68l9.5 16t28.5 49q18 26 46 45.5t61 19.5q12 0 24 -3t24 -8q11 -4 22.5 -9.5t23.5 -9.5z
M177 300q0 25 9.5 48t26.5 40q17 18 40 28.5t50 10.5q37 0 65 -17.5t45 -44.5q9 -16 18 -34t18 -34l-36 -64l1 1q-18 -25 -47 -43t-64 -18q-26 0 -48.5 9.5t-40.5 26.5q-17 18 -27 41t-10 50v0z" />
    <glyph glyph-name="uni2235" unicode="&#x2235;" horiz-adv-x="900" 
d="M382 91q0 -28 20 -48t48 -20q27 0 47.5 20t20.5 48q0 27 -20.5 47.5t-47.5 20.5q-28 0 -48 -20.5t-20 -47.5v0zM617 531q0 -28 20 -48t48 -20q27 0 47.5 20t20.5 48q0 27 -20.5 47.5t-47.5 20.5q-28 0 -48 -20.5t-20 -47.5v0zM147 531q0 -28 20 -48t48 -20q27 0 47.5 20
t20.5 48q0 27 -20.5 47.5t-47.5 20.5q-28 0 -48 -20.5t-20 -47.5v0z" />
    <glyph glyph-name="integral" unicode="&#x222b;" horiz-adv-x="900" 
d="M397 408q-6 -57 -10.5 -109.5t-6.5 -91.5q-3 -40 -4.5 -77t-1.5 -69q-1 -24 -7 -37.5t-18 -19.5l-3.5 2t-6.5 5q-21 14 -39 7.5t-33 -30.5q-10 -17 -9 -32.5t13 -30.5q11 -17 28.5 -22t39.5 0q61 15 93.5 88t49.5 183q4 24 6 49t3 50q2 26 3 51.5t3 51.5q2 41 3.5 78.5
t2.5 70.5q0 23 7.5 37t19.5 20l2.5 -0.5t5.5 -3.5q21 -15 37.5 -9t32.5 31q8 12 7.5 28.5t-9.5 31.5q-12 17 -30.5 23t-39.5 3q-59 -18 -93 -92.5t-46 -185.5v0z" />
    <glyph glyph-name="uni222C" unicode="&#x222c;" horiz-adv-x="900" 
d="M509 408q-7 -57 -11 -109.5t-6 -91.5q-3 -40 -4.5 -77t-1.5 -69q-1 -24 -7 -37.5t-18 -19.5l-3.5 2t-6.5 5q-21 14 -39.5 7.5t-33.5 -30.5q-9 -17 -8.5 -32.5t12.5 -30.5q12 -17 29.5 -22t39.5 0q60 15 93 88t50 183q4 24 6 49t3 50q2 26 3 51.5t3 51.5q1 20 1.5 40
t1.5 39q0 18 0.5 35.5t1.5 34.5q0 23 8 37t20 20l2 -0.5t5 -3.5q21 -15 38 -9t33 31q7 12 7 28.5t-9 31.5q-12 17 -31 23t-40 3q-58 -18 -92 -92.5t-46 -185.5v0zM306 408q-7 -57 -11.5 -109.5t-6.5 -91.5q-3 -40 -4.5 -77t-1.5 -69q-1 -24 -7 -37.5t-18 -19.5l-3 2t-6 5
q-21 14 -39.5 7.5t-33.5 -30.5q-9 -17 -8.5 -32.5t12.5 -30.5q11 -17 29 -22t40 0q60 15 92.5 88t50.5 183q4 24 6 49t3 51q1 25 2 50.5t3 51.5q2 41 3.5 78.5t2.5 70.5q0 23 7.5 37t19.5 20l2.5 -0.5t5.5 -3.5q21 -15 37.5 -9t32.5 31q8 12 7.5 28.5t-8.5 31.5
q-12 17 -31 23t-40 3q-58 -18 -92.5 -92.5t-45.5 -185.5v0z" />
    <glyph glyph-name="element" unicode="&#x2208;" horiz-adv-x="900" 
d="M793 251v85h-607q16 59 70.5 97.5t118.5 47.5h423v85h-413q-59 -1 -112 -20t-93 -55q-41 -35 -64.5 -86t-23.5 -115t22 -113.5t61 -84.5q40 -35 93.5 -54t116.5 -20h413v85h-424q-67 0 -120 41t-70 107h609z" />
    <glyph glyph-name="suchthat" unicode="&#x220b;" horiz-adv-x="900" 
d="M716 251q-18 -66 -71 -107t-119 -41h-424v-85h413q62 1 115.5 20t93.5 54q39 35 61.5 84.5t22.5 113.5t-24 115t-64 86q-41 36 -94 55t-111 20h-413v-85h423q63 -10 117.5 -48.5t71.5 -96.5h-607v-85h609z" />
    <glyph glyph-name="reflexsubset" unicode="&#x2286;" horiz-adv-x="900" 
d="M92 -10h716v86h-716v-86zM181 384q0 40 16.5 68.5t44.5 46.5t63.5 26.5t74.5 8.5h408v86h-397q-53 0 -106.5 -13t-95.5 -41q-43 -29 -70 -73.5t-27 -108.5q0 -65 24.5 -110t66.5 -73q41 -28 95 -40.5t113 -12.5h397v85h-408q-37 0 -72.5 7.5t-63.5 24.5q-29 18 -46 47
t-17 72v0z" />
    <glyph glyph-name="reflexsuperset" unicode="&#x2287;" horiz-adv-x="900" 
d="M808 76h-716v-86h716v86zM719 384q0 -43 -17.5 -72t-46.5 -47q-28 -17 -63.5 -24.5t-71.5 -7.5h-408v-85h397q58 0 112 12.5t95 40.5q42 28 67 73t25 110q0 64 -27.5 108.5t-69.5 73.5q-43 28 -96.5 41t-105.5 13h-397v-86h408q38 0 74 -8.5t63 -26.5q28 -18 45 -46.5
t17 -68.5v0z" />
    <glyph glyph-name="propersubset" unicode="&#x2282;" horiz-adv-x="900" 
d="M180 295q0 37 13.5 71t38.5 61q26 26 63 42t85 16h408v85h-401q-59 0 -112.5 -19t-94.5 -54q-40 -35 -64 -86.5t-24 -115.5t22 -115t62 -87q39 -35 93 -54t118 -19h401v85h-408q-41 0 -78 12t-64 36q-28 24 -43.5 59.5t-14.5 82.5v0z" />
    <glyph glyph-name="propersuperset" unicode="&#x2283;" horiz-adv-x="900" 
d="M720 295q0 -47 -15.5 -82.5t-43.5 -59.5q-27 -24 -64 -36t-77 -12h-408v-85h401q63 0 117 19t93 54q40 36 62.5 87t22.5 115t-24.5 115.5t-64.5 86.5q-41 35 -94.5 54t-111.5 19h-401v-85h408q48 0 84.5 -16t62.5 -42q25 -27 38.5 -61t14.5 -71v0z" />
    <glyph glyph-name="union" unicode="&#x222a;" horiz-adv-x="900" 
d="M450 27q-47 -2 -82 14.5t-58 43.5q-23 28 -35 65t-11 78v410h-88v-401q0 -63 19 -117t54 -94q36 -39 86.5 -61.5t114.5 -22.5t115 24t86 65q36 40 54.5 93.5t18.5 112.5v401h-88v-411q-1 -48 -16 -84.5t-41 -62.5q-25 -25 -58.5 -39t-70.5 -14v0z" />
    <glyph glyph-name="intersection" unicode="&#x2229;" horiz-adv-x="900" 
d="M450 573q37 -1 70.5 -14.5t58.5 -39.5q26 -25 41 -62t16 -84v-411h88v401q0 58 -18.5 111.5t-54.5 94.5q-35 40 -86 64.5t-115 24.5t-114.5 -23t-86.5 -62q-35 -40 -54 -94t-19 -116v-401h88v410q-1 40 11 77t35 65q23 27 58 43.5t82 15.5v0z" />
    <glyph glyph-name="logicaland" unicode="&#x2227;" horiz-adv-x="900" 
d="M450 506q9 -21 23.5 -51.5t31.5 -66.5q18 -37 37.5 -78.5t39.5 -82.5q19 -42 38 -81.5t35 -73.5q17 -34 29.5 -60t20.5 -40l78 44l-292 599q-8 13 -18.5 22t-22.5 9q-18 0 -28.5 -11.5t-15.5 -23.5q-7 -15 -20 -42t-30 -62t-37 -77t-42 -86q-21 -45 -43.5 -90.5
t-43.5 -88.5t-39.5 -81t-33.5 -68l78 -44z" />
    <glyph glyph-name="logicalor" unicode="&#x2228;" horiz-adv-x="900" 
d="M195 637l-78 -44q14 -30 33 -68t39 -81q21 -42 43 -87.5t44 -90.5q21 -44 41 -86t38 -78q17 -35 30 -62.5t21 -42.5q5 -12 15.5 -23.5t28.5 -11.5q12 0 22.5 8.5t18.5 22.5l292 600l-78 44q-16 -32 -50 -103t-72 -152q-39 -81 -75.5 -158.5t-57.5 -120.5z" />
    <glyph glyph-name="uniFFE2" unicode="&#xffe2;" horiz-adv-x="940" 
d="M50 735v-60h770v-280h60v340h-830z" />
    <glyph glyph-name="arrowdblright" unicode="&#x21d2;" horiz-adv-x="1000" 
d="M65 416v-67h705q3 -4 9 -9t13 -10t14.5 -10.5t13.5 -9.5q-8 -5 -14 -9.5t-11 -8.5q-6 -4 -11.5 -8.5t-12.5 -8.5h-706v-67h607l-105 -77q5 -8 10.5 -14t10.5 -12q5 -7 11 -13t12 -13l338 231q-43 29 -85.5 57.5t-84.5 57.5l-84 58t-84 59l-44 -53q10 -8 22.5 -17
t26.5 -19q13 -10 26 -19.5t26 -17.5h-603z" />
    <glyph glyph-name="arrowdblboth" unicode="&#x21d4;" horiz-adv-x="1000" 
d="M305 412l109 73l-25 26l-6.5 6.5t-6.5 7.5q-3 3 -6 7t-5 7l-334 -229q42 -30 83.5 -59t83.5 -58l84 -58l84 -58l48 53q-13 9 -26.5 18t-26.5 19q-14 9 -27.5 18.5t-26.5 18.5h382l-102 -72q4 -6 9.5 -13t11.5 -14q6 -8 12 -15t11 -12l338 232l-339 229q-6 -7 -11.5 -14
t-10.5 -14q-6 -7 -11 -14t-10 -13q12 -9 25 -18l26 -18l26 -18t27 -18h-386zM211 271l-57 38q4 2 7 4.5t9 5.5q5 4 14 10l24 16h582q6 -6 12 -10.5t12 -9.5t12.5 -9.5t13.5 -9.5l-51 -35h-578z" />
    <glyph glyph-name="universal" unicode="&#x2200;" horiz-adv-x="750" 
d="M11 660q74 -182 149 -361t151 -359h118q37 88 76.5 178.5t78.5 181.5t78 181t77 179h-127q-18 -45 -39 -95t-39 -95h-326l-76 190h-121zM369 70q-33 81 -60.5 149t-58.5 149h242z" />
    <glyph glyph-name="existential" unicode="&#x2203;" horiz-adv-x="600" 
d="M548 660h-496v-105h381v-191h-357v-105h357v-214h-386v-105h501v720z" />
    <glyph glyph-name="acute" unicode="&#xb4;" horiz-adv-x="400" 
d="M119 483q18 12 53.5 51.5t70.5 84.5q4 6 9 14l10 16q4 8 8.5 16t8.5 16q10 21 6 37.5t-22 29.5q-21 9 -39.5 5t-31.5 -22q-10 -14 -19.5 -29.5t-16.5 -32.5q-27 -60 -42.5 -107.5t-18.5 -61.5z" />
    <glyph glyph-name="glyph200" horiz-adv-x="0" 
 />
    <glyph glyph-name="caron" unicode="&#x2c7;" horiz-adv-x="600" 
d="M515 691q-2 1 -8 11.5t-13 22.5q-8 12 -14 23t-7 14q-44 -24 -87.5 -49t-85.5 -49l-172 98l-44 -70l216 -123zM516 692l-1 -1h0.5t0.5 1v0z" />
    <glyph glyph-name="breve" unicode="&#x2d8;" horiz-adv-x="600" 
d="M454 761q-26 -39 -69 -64t-85 -25q-43 0 -86 25t-68 64q-5 -3 -10.5 -7t-14.5 -10q-8 -6 -20.5 -15t-30.5 -21q43 -51 102 -84.5t128 -33.5t127 33t103 84z" />
    <glyph glyph-name="hungarumlaut" unicode="&#x2dd;" horiz-adv-x="600" 
d="M147 516q18 12 49.5 47.5t64.5 80.5q7 9 17 24.5t16 32.5q7 17 5.5 33t-16.5 27q-23 10 -39.5 8t-29.5 -12q-13 -11 -22.5 -28.5t-16.5 -37.5q-23 -51 -37 -96.5t-17 -60.5zM301 516q7 6 18.5 19t25.5 30t30 37t34 42q10 11 21 27.5t17 33.5q5 17 0.5 33t-24.5 27
q-21 8 -36.5 4.5t-27.5 -15.5t-21 -29t-16 -35q-6 -13 -10.5 -26t-10.5 -31q-5 -17 -12 -40t-17 -56z" />
    <glyph glyph-name="ring" unicode="&#x2da;" horiz-adv-x="600" 
d="M198 680q0 -41 30.5 -71.5t71.5 -30.5q40 0 71 30.5t31 71.5q0 40 -31 71t-71 31q-41 0 -71.5 -31t-30.5 -71v0zM250 680q0 22 13.5 36t36.5 14q22 0 36 -14t14 -36q0 -23 -14 -36.5t-36 -13.5q-23 0 -36.5 13.5t-13.5 36.5v0z" />
    <glyph glyph-name="dotaccent" unicode="&#x2d9;" horiz-adv-x="600" 
d="M218 680q0 -34 24 -58t58 -24q33 0 57.5 24t24.5 58q0 33 -24.5 57.5t-57.5 24.5q-34 0 -58 -24.5t-24 -57.5v0z" />
    <glyph glyph-name="cedilla" unicode="&#xb8;" horiz-adv-x="400" 
d="M150 178l-62 -60q12 -13 26.5 -27t29.5 -27q14 -14 28.5 -28t27.5 -26l-112 -105l62 -63l164 168z" />
    <glyph glyph-name="ogonek" unicode="&#x2db;" horiz-adv-x="600" 
d="M191 -10q19 -20 39 -40.5t39 -40.5q20 -20 39.5 -40.5t39.5 -39.5q7 6 14 13.5t15 15.5q7 8 14 15.5t15 14.5q-14 12 -27.5 25t-27.5 26q-14 12 -27.5 25t-26.5 26q12 12 26 25t29 27q14 13 28 27l27 27q-8 5 -15 12l-15 15l-14.5 14.5t-14.5 13.5z" />
    <glyph glyph-name="exclamdown" unicode="&#xa1;" horiz-adv-x="400" 
d="M141 -60h118l-15 540h-88zM254 680h-108v-110h108v110z" />
    <glyph glyph-name="questiondown" unicode="&#xbf;" horiz-adv-x="940" 
d="M587 168q6 -66 -22.5 -108.5t-94.5 -42.5q-21 0 -42.5 5.5t-39.5 16.5t-29 28t-11 40q0 39 21.5 70t57.5 51q44 24 69.5 61.5t25.5 93.5v107h-100v-110q0 -28 -14.5 -48t-37.5 -32q-49 -26 -84.5 -75t-35.5 -113q0 -41 18.5 -74.5t49.5 -57.5q30 -24 68.5 -37t78.5 -13
q107 0 167 61.5t58 176.5h-103zM526 680h-108v-110h108v110z" />
    <glyph glyph-name="glyph210" horiz-adv-x="0" 
 />
    <glyph glyph-name="uni222E" unicode="&#x222e;" horiz-adv-x="900" 
d="M285 295q0 -40 18.5 -74.5t49.5 -56.5q-9 -27 -19 -52t-22 -47q-10 15 -28 20.5t-38 -0.5q-17 -8 -24.5 -19.5t-7.5 -24.5q0 -24 19.5 -45.5t45.5 -25.5q31 1 56 15.5t45 36.5q19 23 34 52t27 61h4q32 0 61 12.5t51 34.5t35 51t13 62q0 42 -21.5 78t-54.5 57
q6 24 14.5 47t20.5 46q11 -17 32.5 -22t41.5 7q12 6 18.5 17.5t6.5 23.5q0 21 -19.5 43t-44.5 28q-31 4 -55 -10t-42 -38q-19 -25 -33 -56t-24 -61q-33 0 -62 -13t-51 -35t-34.5 -51t-12.5 -61v0zM507 349q9 -12 15 -25.5t6 -28.5q0 -29 -17.5 -51t-43.5 -29q3 12 6 23.5
t7 22.5q3 11 6 21.5t7 20.5zM362 295q0 27 16 48t41 30q-5 -12 -9 -24.5t-8 -24.5q-5 -13 -9 -26t-7 -26q-2 -4 -3 -7.5t-1 -6.5l-2 -6l-2 -6q-8 10 -12 22.5t-4 26.5v0z" />
    <glyph glyph-name="summation" unicode="&#x2211;" horiz-adv-x="900" 
d="M146 658v-92q58 -66 118 -133.5t118 -133.5q-27 -33 -55 -65.5t-56 -65.5q-29 -33 -56.5 -65.5t-54.5 -63.5q-12 -13 -22.5 -31t-8.5 -28q3 -14 12.5 -26t31.5 -12h545v252h-89v-168h-363l236 274q-58 67 -118 136t-119 137h354v-167h89v252h-562z" />
    <glyph glyph-name="product" unicode="&#x220f;" horiz-adv-x="900" 
d="M102 610v-87h164v-569h97v569h174v-569h97v569h164v87h-696z" />
    <glyph glyph-name="currency" unicode="&#xa4;" horiz-adv-x="900" 
d="M140 305q0 -55 17.5 -104t48.5 -87l-108 -109l51 -52l107 109q39 -32 88.5 -49.5t105.5 -17.5q54 0 103 17.5t89 48.5l107 -108l51 52l-107 107q31 39 49.5 88t18.5 105q0 54 -18.5 104t-49.5 89l107 107l-51 52l-107 -108q-39 32 -88 49.5t-104 17.5q-57 0 -105.5 -18
t-87.5 -51l-108 110l-51 -52q12 -13 34.5 -36t73.5 -73q-31 -39 -48.5 -88.5t-17.5 -102.5v0zM218 305q0 48 18 90.5t49 73.5q32 32 74 50.5t91 18.5q48 0 90.5 -18.5t73.5 -50.5q32 -31 50.5 -73.5t18.5 -90.5q0 -49 -18.5 -91t-50.5 -74q-31 -31 -73.5 -49t-90.5 -18
q-49 0 -91 18t-74 49q-31 32 -49 74t-18 91v0z" />
    <glyph glyph-name="uni2109" unicode="&#x2109;" horiz-adv-x="820" 
d="M85 670q0 18 13 31.5t32 13.5q18 0 31.5 -13.5t13.5 -31.5q0 -19 -13.5 -32t-31.5 -13q-19 0 -32 13t-13 32v0zM30 670q0 -42 29 -71t71 -29t71 29t29 71t-29 71t-71 29t-71 -29t-29 -71v0zM288 -60h109v326h360v99h-360v196h377v99h-486v-720z" />
    <glyph glyph-name="perthousand" unicode="&#x2030;" horiz-adv-x="940" 
d="M68 -50h82l442 700h-82zM38 490q0 -53 33.5 -91.5t93.5 -38.5q58 0 92.5 38.5t34.5 91.5q0 54 -34 92t-93 38q-60 0 -93.5 -38t-33.5 -92v0zM118 490q0 23 11.5 40.5t35.5 17.5t35.5 -17.5t11.5 -40.5q0 -22 -10.5 -40t-36.5 -18q-27 0 -37 18t-10 40v0zM350 110
q0 -53 33.5 -91.5t93.5 -38.5q58 0 92.5 38.5t34.5 91.5q0 54 -34 92t-93 38q-60 0 -93.5 -38t-33.5 -92v0zM430 110q0 23 11.5 40.5t35.5 17.5t35.5 -17.5t11.5 -40.5q0 -22 -10.5 -40t-36.5 -18q-27 0 -37 18t-10 40v0zM630 110q0 -53 33.5 -91.5t93.5 -38.5
q58 0 92.5 38.5t34.5 91.5q0 54 -34 92t-93 38q-60 0 -93.5 -38t-33.5 -92v0zM710 110q0 23 11.5 40.5t35.5 17.5t35.5 -17.5t11.5 -40.5q0 -22 -10.5 -40t-36.5 -18q-27 0 -37 18t-10 40v0z" />
    <glyph glyph-name="uni25C1" unicode="&#x25c1;" horiz-adv-x="940" 
d="M780 -80v760l-688 -380zM200 300l530 293v-586z" />
    <glyph glyph-name="uni25C0" unicode="&#x25c0;" horiz-adv-x="940" 
d="M92 300l688 -380v760z" />
    <glyph glyph-name="uni25B7" unicode="&#x25b7;" horiz-adv-x="940" 
d="M848 300l-688 380v-760zM210 7v586l530 -293z" />
    <glyph glyph-name="uni25B6" unicode="&#x25b6;" horiz-adv-x="940" 
d="M160 680v-760l688 380z" />
    <glyph glyph-name="uni2664" unicode="&#x2664;" horiz-adv-x="940" 
d="M245 -38q0 -3 -0.5 -4t-3.5 -18h458q-3 17 -3.5 18t-0.5 4q-54 -2 -87.5 9.5t-51.5 35.5t-24.5 61t-6.5 87q22 -21 50.5 -30.5t57.5 -9.5q29 1 56 11t47 30q18 18 26 42.5t8 53.5q0 62 -33.5 106t-87.5 91q-29 24 -58 55.5t-54 67.5q-25 35 -43 73.5t-24 76.5
q-7 -38 -24.5 -76.5t-42.5 -73.5q-25 -36 -54 -67.5t-57 -55.5q-55 -47 -88 -91t-33 -106q0 -29 7.5 -53.5t26.5 -42.5q19 -20 46 -30t56 -11q29 0 57.5 9.5t51.5 30.5q-1 -50 -7.5 -87t-25.5 -61q-18 -24 -51 -35.5t-87 -9.5v0zM628 414q19 -18 37 -36.5t32 -38.5t23 -43
t9 -51q0 -22 -9.5 -41t-27.5 -30q-15 -9 -30.5 -12.5t-30.5 -3.5q-35 0 -73.5 18.5t-70.5 49.5q0 -101 8.5 -161.5t40.5 -92.5h-131q30 30 39.5 91t9.5 162q-32 -31 -70.5 -48.5t-72.5 -17.5q-17 0 -32.5 3.5t-29.5 11.5l1 -1q-19 12 -28.5 31.5t-9.5 40.5q0 31 9 55.5
t25 45.5q15 21 35.5 39.5t42.5 38.5q44 40 83 84.5t63 98.5q23 -54 62.5 -99.5t86.5 -85.5z" />
    <glyph glyph-name="spade" unicode="&#x2660;" horiz-adv-x="940" 
d="M245 -38q0 -3 -0.5 -4t-3.5 -18h458q-3 17 -3.5 18t-0.5 4q-54 -2 -87.5 9.5t-51.5 35.5t-24.5 61t-6.5 87q22 -21 50.5 -30.5t57.5 -9.5q29 1 56 11t47 30q18 18 26 42.5t8 53.5q0 62 -33.5 106t-87.5 91q-29 24 -58 55.5t-54 67.5q-25 35 -43 73.5t-24 76.5
q-7 -38 -24.5 -76.5t-42.5 -73.5q-25 -36 -54 -67.5t-57 -55.5q-55 -47 -88 -91t-33 -106q0 -29 7.5 -53.5t26.5 -42.5q19 -20 46 -30t56 -11q29 0 57.5 9.5t51.5 30.5q-1 -50 -7.5 -87t-25.5 -61q-18 -24 -51 -35.5t-87 -9.5v0z" />
    <glyph glyph-name="uni2661" unicode="&#x2661;" horiz-adv-x="940" 
d="M470 -80q9 41 28 78.5t47 73.5q21 27 50 62.5t59 74.5t58 77.5t46 71.5q21 38 31.5 76.5t10.5 78.5q-1 31 -12 61.5t-31 53.5q-21 23 -49.5 37.5t-64.5 14.5q-60 0 -107.5 -33.5t-65.5 -96.5q-18 63 -65.5 96.5t-107.5 33.5q-37 0 -65.5 -14.5t-49.5 -37.5
q-20 -23 -31 -53.5t-11 -61.5q-1 -40 9.5 -78.5t32.5 -76.5q18 -33 45.5 -71.5t57.5 -76.5q31 -39 60 -75t50 -63q28 -35 46.5 -73t28.5 -79v0zM480 480q6 25 18.5 51.5t31.5 49.5q19 22 43 37t53 17q69 3 99 -35.5t30 -90.5q0 -33 -10.5 -68.5t-28.5 -66.5q-24 -41 -61 -90
t-73 -92q-36 -42 -65.5 -84.5t-46.5 -86.5q-18 44 -47.5 86.5t-64.5 84.5q-36 43 -73.5 92t-60.5 90q-18 31 -28.5 66.5t-10.5 68.5q0 52 30 90.5t99 35.5q29 -2 52.5 -17.5t42.5 -37.5q18 -23 30.5 -50t20.5 -51z" />
    <glyph glyph-name="heart" unicode="&#x2665;" horiz-adv-x="940" 
d="M470 -80q9 41 27.5 79t47.5 73q20 27 49 63t60 75q30 38 58 76.5t46 71.5q21 38 31.5 76.5t10.5 78.5q-1 31 -12 61.5t-31 53.5q-21 23 -49.5 37.5t-64.5 14.5q-60 0 -107.5 -33.5t-65.5 -96.5q-18 63 -65.5 96.5t-107.5 33.5q-37 0 -65.5 -14.5t-49.5 -37.5
q-20 -23 -31 -53.5t-11 -61.5q-1 -40 9.5 -78.5t32.5 -76.5q18 -33 45.5 -71.5t57.5 -76.5q31 -39 60 -75t50 -63q28 -35 46.5 -73t28.5 -79v0z" />
    <glyph glyph-name="uni2667" unicode="&#x2667;" horiz-adv-x="940" 
d="M470 700q-34 0 -62 -14t-48 -36q-20 -23 -31 -51.5t-11 -58.5q0 -13 1.5 -24t5.5 -22q3 -11 8 -23t12 -27q-42 14 -79 7.5t-65 -28.5t-44.5 -56t-16.5 -74q0 -35 12 -64.5t33 -51.5t50 -34t63 -12q39 0 71 19.5t47 49.5q0 -75 -10 -124t-28 -70q-18 -22 -49 -31t-76 -14
q-1 -3 -2 -9t-1 -12h440l-2 12t-1 9q-45 5 -76.5 14t-48.5 31q-19 21 -28.5 70t-9.5 124q15 -30 47 -49.5t71 -19.5q33 0 62 12t50 34t33.5 51.5t12.5 64.5q0 40 -17 74t-45 56t-65 28.5t-78 -7.5q6 15 11 27t8 23q4 11 6 22t2 24q0 30 -11.5 58.5t-31.5 51.5q-20 22 -48 36
t-61 14v0zM470 659q48 0 80 -36t32 -85q0 -25 -15 -54t-28 -45l30 -49q18 10 35.5 15.5t32.5 5.5q45 0 82 -32.5t37 -85.5q0 -47 -32.5 -83.5t-81.5 -36.5q-33 0 -58 20t-45 51h-58q0 -92 7 -159.5t43 -103.5h-122q35 36 42.5 103.5t7.5 159.5h-58q-21 -31 -45.5 -51
t-57.5 -20q-50 0 -82 36.5t-32 83.5q0 53 36.5 85.5t82.5 32.5q15 0 32.5 -5.5t35.5 -15.5l30 49q-14 16 -28.5 45t-14.5 54q0 49 32 85t80 36v0z" />
    <glyph glyph-name="club" unicode="&#x2663;" horiz-adv-x="940" 
d="M470 700q-34 0 -62 -14t-48 -36q-20 -23 -31 -51.5t-11 -58.5q0 -13 1.5 -24t5.5 -22q3 -11 8 -23t12 -27q-42 14 -79 7.5t-65 -28.5t-44.5 -56t-16.5 -74q0 -35 12 -64.5t33 -51.5t50 -34t63 -12q39 0 71 19.5t47 49.5q0 -75 -10 -124t-28 -70q-18 -22 -49 -31t-76 -14
q-1 -3 -2 -9t-1 -12h440l-2 12t-1 9q-45 5 -76.5 14t-48.5 31q-19 21 -28.5 70t-9.5 124q15 -30 47 -49.5t71 -19.5q33 0 62 12t50 34t33.5 51.5t12.5 64.5q0 40 -17 74t-45 56t-65 28.5t-78 -7.5q6 15 11 27t8 23q4 11 6 22t2 24q0 30 -11.5 58.5t-31.5 51.5q-20 22 -48 36
t-61 14v0z" />
    <glyph glyph-name="glyph227" horiz-adv-x="0" 
 />
    <glyph glyph-name="uni25C8" unicode="&#x25c8;" horiz-adv-x="940" 
d="M470 740l-440 -440l440 -440l440 440zM850 300l-380 -380l-380 380l380 380zM470 505l-205 -205l205 -205l205 205z" />
    <glyph glyph-name="uni25A3" unicode="&#x25a3;" horiz-adv-x="940" 
d="M850 680h-760v-760h760v760zM800 -30h-660v660h660v-660zM650 480h-360v-360h360v360z" />
    <glyph glyph-name="uni25D0" unicode="&#x25d0;" horiz-adv-x="940" 
d="M90 300q0 -79 29.5 -148.5t81.5 -120.5q51 -52 120.5 -81.5t148.5 -29.5q78 0 147.5 29.5t120.5 81.5q52 51 82 120.5t30 148.5q0 78 -30 147.5t-82 120.5q-51 52 -120.5 82t-147.5 30q-79 0 -148.5 -30t-120.5 -82q-52 -51 -81.5 -120.5t-29.5 -147.5v0zM470 630
q68 0 128 -26t105 -71t71 -105t26 -128q0 -69 -26 -129t-71 -105t-105 -70.5t-128 -25.5v660z" />
    <glyph glyph-name="uni25D1" unicode="&#x25d1;" horiz-adv-x="940" 
d="M850 300q0 78 -30 147.5t-82 120.5q-51 52 -120.5 82t-147.5 30q-79 0 -148.5 -30t-120.5 -82q-52 -51 -81.5 -120.5t-29.5 -147.5q0 -79 29.5 -148.5t81.5 -120.5q51 -52 120.5 -81.5t148.5 -29.5q78 0 147.5 29.5t120.5 81.5q52 51 82 120.5t30 148.5v0zM470 -30
q-69 0 -129 25.5t-105 70.5t-70.5 105t-25.5 129q0 68 25.5 128t70.5 105t105 71t129 26v-660z" />
    <glyph glyph-name="shade" unicode="&#x2592;" horiz-adv-x="940" 
d="M850 680h-760v-760h760v760z" />
    <glyph glyph-name="uni25A4" unicode="&#x25a4;" horiz-adv-x="940" 
d="M850 680h-760v-760h760v760zM820 575h-700v75h700v-75zM120 -50v75h700v-75h-700zM120 129h700v-74h-700v74zM120 233h700v-74h-700v74zM120 337h700v-74h-700v74zM120 545h700v-74h-700v74zM120 441h700v-74h-700v74z" />
    <glyph glyph-name="uni25A5" unicode="&#x25a5;" horiz-adv-x="940" 
d="M90 680v-760h760v760h-760zM195 650v-700h-75v700h75zM745 -50v700h75v-700h-75zM225 650h74v-700h-74v700zM329 650h74v-700h-74v700zM433 650h74v-700h-74v700zM641 650h74v-700h-74v700zM537 650h74v-700h-74v700z" />
    <glyph glyph-name="uni25A8" unicode="&#x25a8;" horiz-adv-x="940" 
d="M90 680v-760h760v760h-760zM120 76l574 574h105l-679 -679v105zM141 -50l679 679v-105l-574 -574h-105zM120 223l427 427h105l-532 -532v105zM288 -50l532 532v-105l-427 -427h-105zM436 -50l384 384v-105l-279 -279h-105zM120 370l280 280h104l-384 -384v104zM120 517
l133 133h104l-237 -237v104zM583 -50l237 237v-104l-133 -133h-104zM729 -50l91 91v-91h-91zM211 650l-91 -91v91h91z" />
    <glyph glyph-name="uni25A7" unicode="&#x25a7;" horiz-adv-x="940" 
d="M90 680v-760h760v760h-760zM120 629l679 -679h-105l-574 574v105zM246 650l574 -574v-105l-679 679h105zM120 482l532 -532h-105l-427 427v105zM393 650l427 -427v-105l-532 532h105zM120 334l384 -384h-105l-279 279v105zM540 650l280 -280v-104l-384 384h104zM120 187
l237 -237h-104l-133 133v104zM687 650l133 -133v-104l-237 237h104zM211 -50h-91v91zM820 650v-91l-91 91h91z" />
    <glyph glyph-name="uni25A6" unicode="&#x25a6;" horiz-adv-x="940" 
d="M90 680v-760h760v760h-760zM195 650v-75h-75v75h75zM820 575h-75v75h75v-75zM745 -50v75h75v-75h-75zM120 25h75v-75h-75v75zM120 337h75v-74h-75v74zM120 441h75v-74h-75v74zM433 25h74v-75h-74v75zM120 545h75v-74h-75v74zM433 650h74v-75h-74v75zM225 25h74v-75h-74
v75zM537 25h74v-75h-74v75zM537 650h74v-75h-74v75zM225 650h74v-75h-74v75zM641 25h74v-75h-74v75zM329 25h74v-75h-74v75zM641 650h74v-75h-74v75zM745 129h75v-74h-75v74zM745 233h75v-74h-75v74zM745 337h75v-74h-75v74zM745 441h75v-74h-75v74zM745 545h75v-74h-75v74z
M120 129h75v-74h-75v74zM329 650h74v-75h-74v75zM120 233h75v-74h-75v74zM433 129h74v-74h-74v74zM433 233h74v-74h-74v74zM433 337h74v-74h-74v74zM433 441h74v-74h-74v74zM433 545h74v-74h-74v74zM225 129h74v-74h-74v74zM537 129h74v-74h-74v74zM537 233h74v-74h-74v74z
M537 337h74v-74h-74v74zM537 441h74v-74h-74v74zM537 545h74v-74h-74v74zM225 233h74v-74h-74v74zM225 441h74v-74h-74v74zM225 337h74v-74h-74v74zM225 545h74v-74h-74v74zM641 337h74v-74h-74v74zM641 441h74v-74h-74v74zM641 545h74v-74h-74v74zM329 129h74v-74h-74v74z
M641 233h74v-74h-74v74zM641 129h74v-74h-74v74zM329 233h74v-74h-74v74zM329 337h74v-74h-74v74zM329 441h74v-74h-74v74zM329 545h74v-74h-74v74z" />
    <glyph glyph-name="uni25A9" unicode="&#x25a9;" horiz-adv-x="940" 
d="M90 680v-760h760v760h-760zM175 278l53 -52l-53 -53l-52 53zM270 79l52 52l53 -52l-53 -53zM270 226l53 53l52 -53l-52 -52zM323 426l52 -53l-52 -52l-53 52zM344 153l52 52l53 -52l-53 -53zM396 58l52 -53l-52 -52l-53 52zM396 499l53 -52l-53 -53l-52 53zM344 300
l52 52l53 -52l-53 -53zM417 79l53 53l52 -53l-52 -52zM470 573l52 -53l-52 -52l-53 52zM417 226l53 53l52 -53l-52 -52zM417 373l53 53l52 -53l-52 -52zM491 153l52 52l53 -52l-53 -53zM196 152l53 53l52 -53l-52 -52zM544 58l52 -53l-52 -52l-53 52zM491 300l52 52l53 -52
l-53 -53zM491 447l52 52l53 -52l-53 -53zM564 226l53 53l52 -53l-52 -52zM617 131l53 -52l-53 -53l-52 53zM564 373l53 53l52 -53l-52 -52zM197 300l52 52l53 -52l-53 -53zM638 300l52 52l53 -52l-53 -53zM691 205l52 -53l-52 -52l-53 52zM764 278l53 -52l-53 -53l-52 53z
M712 374l52 52l52 -53l-52 -52zM712 521l52 52l52 -53l-52 -52zM270 520l53 53l52 -52l-53 -53zM344 594l52 52l52 -52l-52 -52zM228 521l-53 -53l-52 52l53 53zM123 373l53 53l52 -52l-53 -53zM175 131l53 -52l-52 -52l-53 52zM491 594l52 52l53 -52l-52 -52zM565 521
l52 52l52 -53l-52 -52zM249 58l52 -53l-52 -51l-52 52zM638 447l52 52l53 -52l-52 -52zM638 594l52 52l53 -52l-52 -52zM691 58l52 -52l-53 -52l-52 51zM197 447l52 52l52 -52l-52 -52zM712 79l52 52l52 -52l-52 -52zM197 594l52 52l52 -52l-52 -52zM155 6l-35 -35v70z
M729 650h70l-35 -35zM785 6l35 35v-70zM785 594l35 35v-70zM155 594l-35 -35v70zM176 -15l35 -35h-70zM764 -15l35 -35h-70zM141 650h70l-35 -35zM322 -16l35 -34h-69zM785 447l35 35v-69zM288 650h69l-35 -35zM154 447l-34 -34v69zM785 152l35 35v-69zM154 152l-34 -34v69z
M583 650h69l-35 -35zM617 -16l35 -34h-69zM786 300l34 34v-68zM154 300l-34 -34v68zM470 -16l34 -34h-68zM436 650h68l-34 -34z" />
    <glyph glyph-name="uni2668" unicode="&#x2668;" horiz-adv-x="940" 
d="M376 690q-2 0 -3.5 -2.5t-3.5 -6.5q-2 -3 -4 -7.5t-3 -7.5q-3 -6 -4.5 -11.5t-3.5 -11.5q-1 -5 -3 -11t-4 -11q-15 -36 -26 -73.5t-11 -76.5q0 -24 2.5 -48t17.5 -51q10 -33 13.5 -63t-1.5 -60q-4 -31 -11 -54t-12 -37q-7 -21 -8 -40t2 -33q4 -16 7 -23.5t4 -7.5
q6 3 9.5 6.5t3.5 8.5q-1 9 3 23t14 33q10 15 20 36t18 43q7 23 11.5 44.5t3.5 39.5q-1 12 -2 24.5t-3 27.5t-7 34t-14 45q-7 21 -10.5 42t-3.5 40t2.5 37.5t5.5 36.5l6 36t3 36q0 21 -2.5 33t-5.5 10v0zM298 278q-19 -3 -49 -13.5t-69 -29.5q-41 -21 -62.5 -52t-21.5 -73
q0 -57 43.5 -92.5t105.5 -54.5q61 -20 126.5 -26.5t109.5 -6.5q45 0 107.5 8t119.5 29t97.5 58t40.5 96q0 36 -15 64t-45 47q-32 18 -58 29t-44 15q-4 0 -7.5 -9.5t5.5 -14.5q6 -3 22.5 -11.5t40.5 -23.5q21 -16 31.5 -35.5t10.5 -42.5q0 -38 -38.5 -62t-89.5 -38
q-51 -13 -101.5 -18.5t-75.5 -5.5q-30 -1 -82.5 4t-103.5 18q-51 14 -88.5 38t-37.5 62q0 21 14 40.5t34 35.5q21 15 43.5 25.5t40.5 14.5q8 3 9.5 8.5t1.5 9.5q-3 3 -6 5t-9 2v0zM495 738q-3 -1 -4.5 -8.5t-0.5 -21.5q0 -18 -5 -36.5t-14 -38.5q-16 -33 -29 -69.5
t-13 -71.5q0 -22 8 -48t18 -52q5 -18 9.5 -40t7.5 -48q6 -27 -0.5 -60.5t-18.5 -71.5q-8 -25 -14 -49.5t-3 -42.5q3 -9 5 -15.5t4 -11.5q1 -4 2 -6t3 -2q3 3 6 8t3 11q4 17 12.5 34t17.5 34t18.5 36t16.5 42q9 29 11.5 54.5t-0.5 47.5q-3 39 -10.5 72t-21.5 58q-7 30 -8 63
t9 62q3 10 5.5 19.5t5.5 18.5q2 9 3.5 18.5t1.5 18.5q0 5 -3.5 21t-7.5 33t-8 29.5t-6 12.5v0zM623 690q-2 0 -3.5 -2.5t-2.5 -6.5l-2 -8t-2 -7q-2 -11 -4.5 -22.5t-7.5 -22.5q-18 -37 -28 -73.5t-10 -75.5q0 -24 5 -47.5t12 -46.5q6 -24 11.5 -47t5.5 -46q0 -18 -2.5 -35
t-6.5 -33q-4 -15 -8.5 -30t-7.5 -29q-6 -21 -7 -40t2 -33q1 -8 2.5 -14l2.5 -10t1.5 -5.5t1.5 -1.5q5 3 6.5 6.5t2.5 8.5q1 21 12.5 45.5t24.5 51.5t23.5 57.5t10.5 64.5q0 24 -6.5 51t-13.5 55q-8 27 -14 54.5t-6 52.5q0 19 3 38t7 37t7.5 36t3.5 37q0 21 -3.5 31t-9.5 10
v0z" />
    <glyph glyph-name="uni260F" unicode="&#x260f;" horiz-adv-x="940" 
d="M200 0h548q6 0 9.5 -1.5t5.5 0.5q2 3 3.5 11t4.5 27q2 15 3.5 26.5t1.5 18.5l-76 221q-6 15 -17.5 27.5t-23.5 22.5q-13 10 -23.5 18.5t-13.5 17.5q-3 5 -4 13.5t-1 21.5v51q36 -9 51 -24.5t20 -41.5q7 -43 22.5 -54.5t42.5 -11.5l80 -3h6q19 0 36 5.5t17 31.5
q0 76 -28.5 114t-84.5 55q-70 19 -150 30t-155 11q-72 0 -153 -10.5t-152 -30.5q-56 -16 -84.5 -55t-28.5 -114q0 -26 16.5 -31.5t35.5 -5.5h7l80 3q28 0 42.5 11.5t22.5 54.5q4 26 21 41.5t50 24.5v-51q0 -26 -5 -34.5t-26 -26.5q-9 -8 -17 -13.5t-14 -12.5q-7 -6 -12 -14
t-9 -20l-76 -221q0 -6 1.5 -19t3.5 -26q2 -14 3.5 -24t2.5 -10q0 -2 1.5 -2.5t4.5 -0.5q2 -1 5 -0.5t6 0.5v0zM208 30l-7 45l70 205q6 17 12.5 29t14.5 18l33 25q20 15 25 32.5t5 43.5v55l13 2l11 -72q1 0 9 0.5t21 1.5q12 1 27.5 2t30.5 1q13 0 28.5 -1t28.5 -1
q13 -1 22 -1.5l9 -0.5l13 70q1 0 2.5 -0.5t3.5 -0.5h3.5h3.5v-55q-1 -26 4.5 -43.5t25.5 -32.5l33 -25q7 -6 14 -18t13 -29l70 -205l-7 -45h-532zM474 559q60 0 130 -7.5t130 -22.5q60 -17 93 -44.5t33 -93.5q0 -16 -8 -21.5t-26 -4.5l-64 2q-21 0 -31 11.5t-16 48.5
q-6 31 -33 49t-63 27t-75 11.5t-70 2.5q-36 0 -76 -3t-75 -13q-35 -9 -60 -27t-30 -47q-7 -37 -16.5 -48.5t-30.5 -11.5l-64 -2q-19 -1 -26.5 4.5t-7.5 21.5q0 66 32.5 93.5t93.5 44.5q60 15 130 22.5t130 7.5v0zM474 370q-52 0 -90 -36.5t-38 -88.5q0 -53 35.5 -92.5
t89.5 -39.5t91.5 37.5t37.5 92.5q0 25 -10 48t-27 40q-17 18 -40 28.5t-49 10.5v0zM474 342q41 0 69.5 -30t28.5 -69q0 -43 -29.5 -72.5t-71.5 -29.5t-70 32t-28 72q0 41 30.5 69t70.5 28v0zM473 443q-16 0 -34.5 -0.5t-29.5 -2.5l-9 49q6 0 27.5 2t45.5 2q21 0 43.5 -2
t29.5 -2l-9 -49q-10 2 -29.5 2.5t-34.5 0.5v0z" />
    <glyph glyph-name="uni260E" unicode="&#x260e;" horiz-adv-x="940" 
d="M200 -2h548q6 0 9.5 -1.5t5.5 0.5q2 3 3.5 11t4.5 28q2 16 3.5 27.5t1.5 18.5l-76 221q-6 15 -13 23.5t-17 17.5q-10 8 -21.5 18.5t-25.5 28.5q-3 3 -4.5 11.5t-1.5 21.5v51q26 -4 48 -23.5t23 -42.5q33 -9 57 -13t67 -4q20 0 43 1.5t35 4.5q-4 33 -9 57t-16 41
t-31.5 29.5t-54.5 22.5q-73 20 -151.5 29.5t-153.5 9.5q-47 0 -109 -5t-120 -16t-103 -28t-59 -42q-9 -16 -15.5 -40.5t-9.5 -57.5q12 -3 34.5 -4.5t43.5 -1.5q42 0 66.5 4t57.5 13q2 23 23 42.5t48 23.5v-51q0 -14 -1.5 -21.5t-4.5 -12.5q-4 -6 -10 -12l-15 -15
q-11 -11 -18.5 -16.5t-13.5 -10.5q-6 -6 -11 -13t-9 -20l-76 -221q0 -5 1.5 -18.5t3.5 -27.5t4 -24.5l2 -10.5q0 -2 1.5 -2.5t4.5 -0.5q2 -1 5 -0.5t6 0.5v0zM474 370q26 0 49 -10.5t40 -28.5q17 -17 27 -40t10 -48q0 -55 -37.5 -92.5t-91.5 -37.5t-89.5 39.5t-35.5 92.5
q0 52 38 88.5t90 36.5v0zM473 490h10q26 0 49.5 -2.5t41.5 -4.5l-13 -74h-176l-13 73q9 1 20.5 2t24.5 3q13 1 27 2t29 1v0zM753 343l80 -3q26 0 43 5.5t17 32.5q-12 -3 -34 -4.5t-42 -1.5q-42 0 -69.5 3.5t-55.5 13.5q3 -25 19.5 -35.5t41.5 -10.5v0zM195 343
q24 0 40.5 10.5t20.5 35.5q-29 -10 -57 -13.5t-68 -3.5q-21 0 -42.5 1.5t-33.5 4.5q0 -27 17.5 -32.5t42.5 -5.5z" />
    <glyph glyph-name="uni261C" unicode="&#x261c;" horiz-adv-x="940" 
d="M725 462v-43h-12.5t-7.5 1t-6 2.5l-7 3.5l-91 48q-24 12 -49.5 18.5t-52.5 6.5q-13 0 -25.5 -4t-23.5 -12l-88 2l-160 -5q-16 -1 -36.5 -2.5t-38.5 -6.5t-30 -14.5t-12 -26.5q0 -25 14 -37.5t34 -17.5q19 -6 38.5 -6.5t30.5 -0.5l104 -6q-7 -7 -11 -16t-4 -18
q0 -6 2.5 -12.5t6.5 -9.5q-15 -6 -23.5 -18t-8.5 -27q0 -7 2 -15.5t8 -14.5q-10 -6 -17 -16.5t-7 -22.5q0 -21 14 -35.5t33 -23.5q20 -9 40.5 -12.5t34.5 -3.5q17 0 34 5t27 20q26 -1 51 -1h49q23 0 50 7t58 22q16 7 31 9.5t28 2.5h21v-46h129v326h-129zM725 207h-20t-21 -1
q-10 -2 -21.5 -4.5t-22.5 -8.5q-37 -19 -76 -25.5t-77 -6.5q-12 0 -23 0.5t-21 1.5v15q18 3 25 17.5t7 30.5q26 5 35.5 17t16.5 36l3.5 -0.5t9.5 -0.5q6 -1 13.5 -1h17.5q6 0 21 1t33 3q17 3 33 7.5t23 11.5v6l-7 8l-7 -2q-16 -6 -37.5 -10t-39.5 -4q-13 0 -24.5 0.5
t-21.5 2.5q-9 1 -15 2l-6 1q-7 9 -18 20t-19 17l42 47l-11 13l-44 -37q-12 -11 -29.5 -21t-34.5 -10q-12 0 -25.5 6.5t-13.5 19.5q0 4 2.5 9.5t6.5 10.5l8.5 8.5l8.5 8.5l48 49q14 14 27 21.5t34 7.5t44.5 -9t48.5 -21q24 -12 48 -25t45 -22q8 -3 11.5 -3.5t22.5 0.5v-187z
M357 386h-56l-133 5q-14 1 -35.5 7.5t-21.5 29.5q0 11 9.5 17.5t28.5 8.5l55 4h225zM791 163h-39v272h39v-272zM407 313q10 0 18 1.5t15 4.5q6 2 11 4t8 2q14 0 28 -15t14 -27q0 -16 -10.5 -23.5t-24.5 -7.5q-7 0 -19.5 2.5t-28.5 9.5l-45 18q-13 5 -33 17.5t-20 30.5
q0 8 4 13t10 9q14 -18 31.5 -28.5t41.5 -10.5v0zM448 225v-5q0 -10 -7 -16t-18 -6q-20 0 -42.5 4.5t-41.5 12.5t-31.5 19.5t-12.5 26.5q0 9 6 16t16 7q6 0 18 -6t27 -13q16 -8 33.5 -16t34.5 -12q1 -1 4 -1.5t6 -1.5q3 -2 5.5 -4t2.5 -5v0zM403 177q6 -1 11.5 -4t5.5 -11
q0 -16 -15 -21t-29 -5q-8 0 -24 3.5t-32 10.5q-16 6 -27.5 16.5t-11.5 24.5q0 9 3 16.5t9 7.5l1 -0.5t2 -0.5q15 -12 41 -21.5t66 -15.5v0z" />
    <glyph glyph-name="uni261E" unicode="&#x261e;" horiz-adv-x="940" 
d="M230 482h-129v-326h129v46h21q13 0 27 -2.5t31 -9.5q30 -15 57.5 -22t51.5 -7h48.5t51.5 1q9 -15 26.5 -20t33.5 -5q14 0 35 4t41 13q19 9 33 23.5t14 34.5q0 12 -7.5 22.5t-16.5 16.5q6 6 7.5 14.5t1.5 15.5q0 15 -8.5 27t-22.5 18q3 3 6 9.5t3 12.5q0 9 -4.5 18
t-10.5 16l104 6q9 0 28.5 0.5t39.5 6.5q19 5 34 18t15 37q0 17 -12.5 26.5t-30.5 14.5t-38.5 6.5t-35.5 2.5l-160 5l-88 -2q-10 8 -22.5 12t-26.5 4q-29 0 -54 -7.5t-49 -18.5t-46 -24t-44 -23q-5 -3 -8.5 -4t-6.5 -2t-7 -1h-11v43zM230 227v187q27 0 54.5 12.5t54.5 27.5
q28 15 55.5 27.5t55.5 12.5q21 -1 33.5 -7.5t27.5 -21.5l48 -49q3 -4 7.5 -8.5l8.5 -8.5q4 -5 7 -10.5t3 -9.5q0 -13 -14 -19.5t-25 -6.5q-9 0 -17.5 3t-16.5 7q-8 5 -15.5 10.5t-14.5 10.5l-44 37l-11 -13l42 -47q-9 -6 -20 -17t-17 -20q-1 0 -7 -1t-15 -2q-10 -2 -22 -2.5
t-24 -0.5q-18 0 -39 4t-37 10l-7 2l-7 -8v-6q5 -6 20 -10.5t32 -7.5t33.5 -4t25.5 -1h16.5t13.5 1q6 0 9 0.5t4 0.5q8 -24 16.5 -36t35.5 -17q0 -16 7 -30.5t25 -17.5v-15q-11 -1 -22 -1.5t-22 -0.5q-38 0 -77.5 6.5t-75.5 25.5q-12 6 -23.5 8.5t-21.5 4.5q-11 1 -21 1h-19
v0zM598 406l-72 74h225l55 -6q18 -3 28 -9t10 -17q0 -23 -22 -29.5t-35 -7.5l-133 -5h-56zM164 183v272h39v-272h-39zM548 333q23 0 41.5 10.5t31.5 28.5q6 -4 10 -9t4 -13q0 -18 -20.5 -30.5t-32.5 -17.5l-46 -18q-18 -7 -29.5 -9.5t-17.5 -2.5q-13 0 -24.5 7.5t-11.5 23.5
q0 12 15 27t28 15q3 0 7.5 -2t11.5 -4q7 -3 15 -4.5t18 -1.5v0zM506 245q0 3 13 8.5t31 12.5t36 15t29 15q2 1 5 2t6 3l6 2t6 1q9 0 15 -7t6 -16q0 -18 -16 -30t-37 -19q-21 -8 -42.5 -11t-31.5 -3q-14 0 -20 7.5t-6 19.5v0zM551 197q41 6 66.5 15.5t41.5 21.5l1 0.5t2 0.5
q4 0 8 -6.5t4 -14.5q0 -14 -11.5 -25t-26.5 -18q-16 -8 -32 -11.5t-25 -3.5q-13 0 -28.5 5t-15.5 21q0 8 5 11t11 4v0z" />
    <glyph glyph-name="paragraph" unicode="&#xb6;" horiz-adv-x="800" 
d="M345 710q-39 0 -74 -16t-61 -43q-27 -27 -42.5 -63t-15.5 -75q0 -84 52 -139t138 -63v-431h72v759h72v-759h72v830h-213z" />
    <glyph glyph-name="dagger" unicode="&#x2020;" horiz-adv-x="800" 
d="M429 549q0 19 3.5 38t7.5 39q3 19 6 39t2 41q-3 25 -15 38.5t-33 13.5q-34 0 -43 -28t-9 -57q0 -16 2 -31t5 -30q3 -16 7 -31l8 -30q-15 4 -34 7.5t-39 6.5q-21 3 -40 4t-33 0q-20 -3 -32 -15.5t-12 -31.5q0 -22 11 -35t33 -16q18 -3 36 -1.5t37 4.5q18 4 36.5 8t37.5 8
q-2 -18 -7.5 -35.5t-12.5 -28.5q-11 -14 -14 -23t-2 -16q1 -8 5.5 -16.5t10.5 -20.5q6 -17 9.5 -41t5.5 -49q2 -26 3 -50t1 -40q0 -32 -1.5 -64t-1.5 -65q0 -32 1.5 -65t6.5 -67q1 -24 8 -39t17 -15q9 0 16 14t9 40q3 31 4.5 62.5t1.5 63.5q0 33 -0.5 66t-0.5 69q0 66 7 109
t16 72q4 14 8.5 21t5.5 13t-3 14.5t-15 26.5q-9 10 -12.5 28t-3.5 37q16 -3 32 -7t32 -7t33 -5t37 -1q21 3 37 16t16 35q0 20 -16.5 32t-37.5 15q-18 1 -34.5 -0.5t-33.5 -5.5q-17 -3 -34 -7t-35 -7v0z" />
    <glyph glyph-name="daggerdbl" unicode="&#x2021;" horiz-adv-x="800" 
d="M371 428q-18 2 -35.5 5.5t-34.5 6.5q-18 3 -36 4.5t-36 1.5q-21 -3 -32.5 -14.5t-11.5 -31.5q0 -19 12 -32t32 -18q17 -5 34.5 -3.5t35.5 6.5q17 4 35 8.5t37 6.5q-3 -14 -9 -33t-17 -37q-12 -19 -12.5 -26t5.5 -17l11 -26q12 -29 17.5 -67.5t5.5 -91.5v-59t1 -45
q0 -19 0.5 -32.5t1.5 -22.5q1 -24 8 -40t17 -16q9 0 16 13.5t9 41.5l2 160q0 54 7 94t18 71q2 6 4 11.5t3 6.5q3 6 5 11t2 11q-1 6 -5 13.5t-12 19.5q-9 10 -12.5 26t-3.5 34q17 0 33.5 -4.5t33.5 -9.5q17 -4 34.5 -6.5t36.5 2.5t31.5 18.5t12.5 31.5q0 20 -11.5 31.5
t-32.5 14.5q-18 2 -35 0.5t-34 -4.5t-34.5 -7t-34.5 -7v72q9 1 22 -2.5t28 -7.5q14 -4 29 -7.5t29 -3.5q6 0 14.5 0.5t15.5 2.5q21 3 32.5 15t11.5 32q0 18 -11.5 31t-32.5 16q-19 3 -36.5 1.5t-34.5 -5.5t-35 -8t-36 -7q0 19 3.5 37.5t7.5 36.5l6 38t2 40q-3 24 -14 36.5
t-34 12.5q-22 0 -35 -12.5t-15 -36.5q-2 -19 -0.5 -37.5t4.5 -37.5t7.5 -38t8.5 -38q-18 2 -34.5 6t-33.5 7q-18 3 -36 5t-37 0q-20 -3 -32 -15.5t-12 -31.5q0 -20 11 -32t33 -15q18 -3 35.5 -1t34.5 5q17 4 34.5 8t37.5 5v-71z" />
    <glyph glyph-name="arrowupdn" unicode="&#x2195;" horiz-adv-x="1000" 
d="M373 159l-9 -4l136 -314l136 314l-9 4l-88 -96v485l88 -97l9 5l-136 313l-136 -314l9 -4l88 96v-484z" />
    <glyph glyph-name="uni2197" unicode="&#x2197;" horiz-adv-x="1000" 
d="M148 -96l638 641l-7 -131l9 -2l127 318l-318 -126l2 -9l130 5l-637 -640z" />
    <glyph glyph-name="uni2199" unicode="&#x2199;" horiz-adv-x="1000" 
d="M852 721l-638 -641l7 131l-9 2l-127 -318l318 126l-2 9l-130 -5l637 640z" />
    <glyph glyph-name="uni2196" unicode="&#x2196;" horiz-adv-x="1000" 
d="M908 -40l-637 640l130 -5l2 9l-318 126l127 -318l9 2l-7 131l638 -641z" />
    <glyph glyph-name="uni2198" unicode="&#x2198;" horiz-adv-x="1000" 
d="M92 665l637 -640l-130 5l-2 -9l318 -126l-127 318l-9 -2l7 -131l-638 641z" />
    <glyph glyph-name="uni266D" unicode="&#x266d;" horiz-adv-x="940" 
d="M325 700v-734q61 -2 122.5 18t111.5 61q49 40 80.5 100.5t31.5 140.5q0 46 -19.5 86.5t-64.5 61.5q-53 21 -103.5 -2.5t-82.5 -68.5l-2 337h-74zM595 261q-3 -41 -18 -82t-40 -75q-26 -34 -60.5 -57t-76.5 -27v251q0 23 14.5 44.5t35.5 36.5t46.5 20.5t48.5 -2.5
q23 -11 38 -38t12 -71v0z" />
    <glyph glyph-name="uni2669" unicode="&#x2669;" horiz-adv-x="940" 
d="M488 700h-38v-594q-27 3 -52.5 -5.5t-53.5 -32.5q-27 -24 -44 -61t1 -67q31 -24 67.5 -12.5t61.5 33.5q27 25 42.5 52.5t15.5 51.5v635z" />
    <glyph glyph-name="musicalnote" unicode="&#x266a;" horiz-adv-x="940" 
d="M448 538q45 -9 79.5 -31t60.5 -53q22 -29 34 -67.5t12 -79.5q0 -40 -14 -78t-42 -64q-13 -12 -23 -21t-16 -15q-6 -7 -8.5 -10.5t-0.5 -4.5q3 -3 18.5 5t37.5 26q44 35 73 91t29 115q0 79 -47 145t-116 110q-30 18 -62 45.5t-53 55.5v-601q-27 3 -52.5 -5.5t-53.5 -32.5
q-27 -24 -44 -61t1 -67q31 -24 67.5 -12.5t61.5 33.5q27 25 42.5 52.5t15.5 51.5v473z" />
    <glyph glyph-name="uni266C" unicode="&#x266c;" horiz-adv-x="940" 
d="M735 700q-163 -38 -273 -62.5t-167 -36.5v-485q-27 3 -52.5 -5.5t-53.5 -32.5q-27 -24 -44 -61t1 -67q31 -24 67.5 -12.5t61.5 33.5q27 25 42.5 52.5t15.5 51.5v301l365 81v-241q-27 3 -53 -5.5t-54 -32.5q-27 -24 -44 -61t1 -67q31 -24 67.5 -12.5t61.5 33.5
q27 25 42.5 52.5t15.5 51.5v525zM333 517l365 82v-49l-365 -80v47z" />
    <glyph glyph-name="uni327F" unicode="&#x327f;" horiz-adv-x="1000" 
d="M373 225q23 19 42.5 37.5t44.5 45.5l228 -273h77q-30 39 -62 79l-64 80q-33 40 -65.5 79t-63.5 77l220 238h-85l-272 -280v280h-68v-553h68v190zM950 352q-16 85 -56.5 158t-100.5 126q-59 54 -134.5 84.5t-160.5 30.5q-102 0 -184.5 -39t-141.5 -104q-58 -65 -90 -150.5
t-32 -178.5h202v41h-154q5 81 38.5 151.5t87.5 122.5t124 82t150 30q78 0 145.5 -29t119.5 -78q53 -48 89 -112.5t51 -134.5h47zM749 320v-38h154q-10 -84 -43 -155t-86 -124q-52 -52 -122 -81.5t-153 -29.5q-78 0 -145 28t-118 76q-52 47 -87 110.5t-49 134.5h-49
q13 -85 53.5 -157t100.5 -125q60 -52 135.5 -81.5t158.5 -29.5q99 0 183 38.5t144 103.5t93 150.5t32 179.5h-202z" />
    <glyph glyph-name="uni321C" unicode="&#x321c;" horiz-adv-x="1020" 
d="M270 598v-78h286q-32 -37 -71.5 -64.5t-83.5 -49.5q-43 -22 -89 -39t-90 -33l22 -30l0.5 -1t1.5 -2q2 -4 4.5 -7.5t5.5 -6.5q3 -4 7.5 -6t10.5 -2q2 -1 5 -0.5l9 1.5q5 1 13.5 3.5t22.5 6.5q12 4 32.5 11.5t46.5 17.5q25 11 54.5 24.5t59.5 30.5q68 -39 121.5 -58.5
t71.5 -24.5q3 -1 5.5 -2t5.5 -2t7 -1.5t9 -0.5q6 0 10 2l8 4q3 2 6 5t6 7l1 1.5l3 4.5q3 4 8 12t15 22q-47 12 -97.5 35.5t-95.5 52.5q27 22 48.5 49t36.5 58q6 14 6.5 37l0.5 23h-423zM40 300q0 -127 32 -236t90 -184h72q-49 84 -77.5 192.5t-28.5 227.5q0 118 28.5 226.5
t77.5 193.5h-72q-58 -75 -90 -184.5t-32 -235.5v0zM980 300q0 126 -32.5 235.5t-89.5 184.5h-72q48 -85 77 -193.5t29 -226.5q0 -119 -29 -227.5t-77 -192.5h72q57 75 89.5 184t32.5 236v0zM558 -50v205h228q30 0 39 25t6 52h-643v-77h273v-205h97z" />
    <glyph glyph-name="uni2116" unicode="&#x2116;" horiz-adv-x="1020" 
d="M45 -60h96v522l223 -522h111v720h-96v-507l-220 507h-114v-720zM510 198q0 -56 14 -104.5t39 -85.5q26 -36 61.5 -57t79.5 -21q43 0 79 21t61 57q26 37 40 85.5t14 104.5q0 58 -14 107t-39 85q-26 35 -61.5 55.5t-79.5 20.5t-80 -20.5t-61 -55.5q-26 -36 -39.5 -85
t-13.5 -107v0zM607 198q0 32 6.5 62.5t18.5 54.5q13 23 31 37.5t41 14.5t41 -14.5t30 -37.5q13 -24 19.5 -54.5t6.5 -62.5q0 -31 -6 -61.5t-18 -54.5t-30 -38.5t-43 -14.5q-26 0 -44.5 14.5t-30.5 38.5t-17 54.5t-5 61.5v0zM874 -14q0 -27 17 -46t41 -19q23 0 40.5 19
t17.5 46t-17.5 46.5t-40.5 19.5q-24 0 -41 -19.5t-17 -46.5v0z" />
    <glyph glyph-name="uni33C7" unicode="&#x33c7;" horiz-adv-x="1100" 
d="M442 159q-3 -25 -14 -49.5t-29 -43.5t-41.5 -31t-51.5 -10q-40 1 -68 30.5t-45 70.5q-18 41 -26 86.5t-8 79.5q0 30 6.5 77.5t23.5 93.5q18 46 47 79t74 33q53 0 86.5 -32.5t46.5 -86.5h122q-15 47 -35.5 86.5t-50.5 67.5t-71 43.5t-98 15.5q-72 0 -122 -36.5t-82 -92.5
q-31 -55 -45.5 -121.5t-14.5 -126.5q0 -62 12.5 -126t43.5 -116q30 -53 80 -86t124 -33q103 0 170 59.5t88 168.5h-122zM769 436q-51 0 -89 -22t-63 -57q-26 -35 -38.5 -79.5t-12.5 -89.5q0 -43 12 -87t37 -80q24 -36 62.5 -58.5t91.5 -22.5q50 0 88.5 21t64.5 56
q27 34 40.5 79t13.5 92q0 43 -13 87.5t-38 79.5q-26 36 -65 58.5t-91 22.5v0zM769 349q26 0 44.5 -17t30.5 -41q12 -25 17.5 -53t5.5 -50t-5 -49.5t-17 -51.5q-11 -25 -30 -41.5t-46 -16.5t-45.5 16t-28.5 41q-11 24 -15.5 51.5t-4.5 50.5q0 20 4.5 48t15.5 53
q10 25 28.5 42.5t45.5 17.5v0zM944 -6q0 -27 17.5 -45t44.5 -18q25 0 43 18t18 45t-18 45t-43 18q-27 0 -44.5 -18t-17.5 -45v0z" />
    <glyph glyph-name="trademark" unicode="&#x2122;" horiz-adv-x="940" 
d="M351 370h74v222l76 -222h70q7 24 17.5 55t20.5 62q11 32 21 61.5t18 51.5v-230h72v350h-100l-7 -20q-3 -9 -8.5 -24t-14.5 -41t-22 -63.5t-31 -90.5l-84 239h-102v-350zM130 370h75v283h115v67h-305v-67h115v-283z" />
    <glyph glyph-name="uni33C2" unicode="&#x33c2;" horiz-adv-x="1100" 
d="M218 445q-50 2 -83 -23t-53 -64q-21 -38 -30.5 -83.5t-11.5 -84.5q-4 -33 -0.5 -77t18.5 -84q14 -40 42.5 -68.5t75.5 -28.5q39 -1 61.5 11.5t40.5 38.5q10 -22 27 -38.5t30 -22.5l45 41q7 -16 21.5 -25.5t32.5 -9.5q26 0 43.5 18.5t17.5 45.5t-17.5 45t-43.5 18
q-24 0 -41 -16t-19 -40q-14 9 -18.5 26.5t-2.5 39.5l20 361l-87 3q0 -1 -0.5 -3t-0.5 -4q-1 -3 -1 -5v-2q-12 15 -26 22t-40 9v0zM950 266q0 28 -6 59t-19 56q-14 26 -37.5 42.5t-59.5 16.5q-40 0 -62.5 -17t-34.5 -41q-9 24 -27.5 40.5t-55.5 16.5q-17 0 -30.5 -6.5
t-23.5 -17.5v11h-89v-489h100v304v32t4 37q3 18 10.5 31t21.5 13q21 0 29 -28t8 -85v-304h100v304q0 53 9 83.5t30 30.5t26.5 -29t6.5 -85v-304h100v329zM252 191q-3 -15 -4 -43t-6 -55q-6 -27 -19 -47t-39 -19q-17 0 -24.5 20t-9.5 46t-1.5 50.5t1.5 34.5q1 19 2.5 50.5
t8.5 61.5q6 30 19 52t37 22q16 0 24 -21t11 -50q3 -28 2 -57t-2 -45v0zM964 -9q0 -27 17 -45.5t44 -18.5q25 0 42.5 18.5t17.5 45.5t-17.5 45t-42.5 18q-27 0 -44 -18t-17 -45v0z" />
    <glyph glyph-name="uni33D8" unicode="&#x33d8;" horiz-adv-x="1100" 
d="M422 196q0 41 -9.5 84.5t-30.5 79.5t-55.5 58.5t-84.5 22.5q-30 -1 -56 -13t-45 -31v26h-101v-614h101v176q18 -19 43.5 -29.5t52.5 -10.5q51 -1 86 24t57 64q22 38 32 82t10 81v0zM955 266q0 28 -6 59t-19 56q-14 26 -37.5 42.5t-59.5 16.5q-40 0 -62.5 -17t-34.5 -41
q-9 24 -27.5 40.5t-55.5 16.5q-17 0 -30.5 -6.5t-23.5 -17.5v11h-89v-489h100v304v32t4 37q3 18 10.5 31t21.5 13q21 0 29 -28t8 -85v-304h100v304q0 53 9 83.5t30 30.5t26.5 -29t6.5 -85v-304h100v329zM147 195q0 78 24.5 120.5t59.5 42.5q41 0 62.5 -43t21.5 -121
t-22.5 -120t-61.5 -42q-25 0 -41.5 18.5t-25.5 44.5q-10 26 -13.5 54t-3.5 46v0zM369 -11q0 -27 17.5 -45t43.5 -18t44 18t18 45t-18 45t-44 18t-43.5 -18t-17.5 -45v0zM969 -10q0 -27 17 -45.5t44 -18.5q25 0 42.5 18.5t17.5 45.5t-17.5 45t-42.5 18q-27 0 -44 -18t-17 -45
v0zM734 378q2 3 4 -2t2 -22z" />
    <glyph glyph-name="uni2121" unicode="&#x2121;" horiz-adv-x="1060" 
d="M223 -59h105v609h191v110h-486v-110h190v-609zM770 95q-10 -10 -25.5 -21.5t-33.5 -20.5q-19 -10 -40 -16.5t-42 -6.5q-49 0 -83 38t-39 95h305q0 64 -11.5 120t-35.5 96q-24 41 -62 64.5t-92 23.5q-47 0 -86 -20t-66 -55q-28 -35 -43 -83t-15 -105q0 -126 58.5 -199.5
t169.5 -73.5q45 0 75 9t54 21l6 2t16 6zM509 256q4 19 13.5 38.5t22.5 36.5q12 16 29 26.5t37 10.5q38 0 64 -34t32 -78h-198zM856 -59h103v748h-103v-748z" />
    <glyph glyph-name="uniFF01" unicode="&#xff01;" horiz-adv-x="940" 
d="M573 655h-129q-7 -67 -13.5 -131.5t-13.5 -129.5q-7 -64 -13 -129t-12 -131h99zM357 -55h124q2 16 4 31.5t4 30.5t4 30.5t5 32.5h-125z" />
    <glyph glyph-name="uniFF02" unicode="&#xff02;" horiz-adv-x="940" 
d="M354 480h82l20 280h-122zM504 480h82l20 280h-122z" />
    <glyph glyph-name="uniFF03" unicode="&#xff03;" horiz-adv-x="940" 
d="M558 470h-131l27 195h-88l-28 -195h-113v-86h101l-21 -148h-110v-86h98l-27 -195h89l7 53l11 82l4 27l4 33h132l-27 -195h89l7 53l11 82l4 27l4 33h114v86h-102q2 15 4.5 32t5.5 36q3 18 6 38t6 42h110v86h-98l27 195h-88zM393 236q2 15 4.5 32t5.5 36q3 18 6 38t6 42
h131l-21 -148h-132z" />
    <glyph glyph-name="uniFF04" unicode="&#xff04;" horiz-adv-x="940" 
d="M435 651q-86 -12 -140.5 -59.5t-54.5 -126.5q0 -36 18.5 -65.5t47.5 -52.5q28 -24 62.5 -42t66.5 -31v-233q-47 0 -95 12.5t-79 23.5l-12 -100q40 -12 84.5 -22t86.5 -10h15v-100h70v106q87 13 143.5 60.5t56.5 138.5q0 43 -19 75t-48 57t-64.5 43.5t-68.5 33.5v199
q37 -2 76 -10.5t78 -20.5l17 101q-43 13 -88.5 19.5t-82.5 7.5v100h-70v-104zM587 145q0 -38 -25 -60.5t-57 -33.5v192q36 -20 59 -44t23 -54v0zM357 474q0 36 22.5 54.5t55.5 25.5v-164q-33 16 -55.5 36.5t-22.5 47.5v0z" />
    <glyph glyph-name="uniFF05" unicode="&#xff05;" horiz-adv-x="940" 
d="M192 -40h106l450 680h-106zM154 483q0 -55 37.5 -96t99.5 -41q61 0 99.5 41t38.5 96q0 58 -38.5 97.5t-99.5 39.5q-62 0 -99.5 -39.5t-37.5 -97.5v0zM245 483q0 21 12 37t34 16q21 0 33.5 -16t12.5 -37q0 -20 -11 -36.5t-35 -16.5t-35 16.5t-11 36.5v0zM511 117
q0 -56 37.5 -96.5t100.5 -40.5q60 0 98.5 40.5t38.5 96.5q0 57 -38 97t-99 40q-63 0 -100.5 -40t-37.5 -97v0zM602 117q0 21 12.5 37t34.5 16q21 0 33 -16t12 -37q0 -20 -11 -36.5t-34 -16.5q-25 0 -36 16.5t-11 36.5v0z" />
    <glyph glyph-name="uniFF06" unicode="&#xff06;" horiz-adv-x="940" 
d="M643 343q-4 -55 -13 -92t-24 -67l-4 4h1l-128 139q28 13 55 31t48 40q20 23 33 50t13 58q0 41 -15 71t-39 50q-25 19 -57.5 28.5t-68.5 9.5q-79 0 -134 -40.5t-55 -124.5q0 -45 20.5 -82.5t47.5 -69.5q-72 -30 -111.5 -76.5t-39.5 -121.5q0 -88 62 -141.5t170 -53.5
q60 0 109 18t89 54l55 -63h144q-14 13 -30.5 31.5t-34.5 37.5l-34 38t-30 35q26 42 47.5 100.5t31.5 136.5h-108zM291 155q0 39 28 69.5t62 54.5q4 -6 7.5 -9.5l7.5 -7.5q3 -4 6.5 -8t8.5 -9q15 -18 31.5 -37t32.5 -37q17 -19 33 -37.5t33 -35.5q-18 -18 -49.5 -37.5
t-69.5 -19.5q-51 0 -91 30.5t-40 83.5v0zM363 498q0 39 22.5 59.5t54.5 20.5t54 -17t22 -59q0 -19 -9.5 -36t-23.5 -32q-14 -14 -30.5 -25.5t-31.5 -18.5q-21 22 -39.5 50t-18.5 58v0z" />
    <glyph glyph-name="uniFF07" unicode="&#xff07;" horiz-adv-x="940" 
d="M429 480h82l20 280h-122z" />
    <glyph glyph-name="uniFF08" unicode="&#xff08;" horiz-adv-x="940" 
d="M593 -150q-63 108 -103 221t-40 229t41 229t101 221h-97q-70 -107 -112.5 -215t-42.5 -235t42.5 -236.5t112.5 -213.5h98z" />
    <glyph glyph-name="uniFF09" unicode="&#xff09;" horiz-adv-x="940" 
d="M445 -150q69 104 112 213.5t43 236.5t-43 235t-112 215h-97q60 -108 101 -221t41 -229t-40 -229t-103 -221h98z" />
    <glyph glyph-name="uniFF0A" unicode="&#xff0a;" horiz-adv-x="940" 
d="M542 339l91 60q-15 18 -36.5 43t-39.5 46l-20 23l141 28l-34 103l-33 -14l-97 -41l14 143h-111l5 -48q3 -25 5 -48.5t5 -47.5l-136 56l-34 -103l75 -15q8 -2 16.5 -4t17.5 -3q9 -2 17.5 -3.5t16.5 -2.5l-99 -112l90 -60l50 83l24 40z" />
    <glyph glyph-name="uniFF0B" unicode="&#xff0b;" horiz-adv-x="940" 
d="M210 240h208v-210h104v210h208v100h-208v210h-104v-210h-208v-100z" />
    <glyph glyph-name="uniFF0C" unicode="&#xff0c;" horiz-adv-x="940" 
d="M369 -170h81l47 96l73 154h-132z" />
    <glyph glyph-name="uniFF0D" unicode="&#xff0d;" horiz-adv-x="940" 
d="M220 240h500v100h-500v-100z" />
    <glyph glyph-name="uniFF0E" unicode="&#xff0e;" horiz-adv-x="940" 
d="M405 -60h130v130h-130v-130z" />
    <glyph glyph-name="uniFF0F" unicode="&#xff0f;" horiz-adv-x="940" 
d="M290 -100h100q31 99 63 198.5t63 199.5q32 100 63 200.5t61 201.5h-100z" />
    <glyph glyph-name="uniFF10" unicode="&#xff10;" horiz-adv-x="940" 
d="M188 300q0 -60 12.5 -125.5t44.5 -119.5q31 -55 86 -90t139 -35t138.5 35t86.5 90q31 54 44 119.5t13 125.5q0 59 -13 124.5t-44 119.5q-32 55 -86.5 90.5t-138.5 35.5t-139 -35.5t-86 -90.5q-32 -54 -44.5 -119.5t-12.5 -124.5v0zM306 300q0 31 6 78t24 91
q18 43 50 74.5t84 31.5q51 0 83 -31.5t50 -74.5q18 -44 24.5 -91t6.5 -78q0 -32 -6 -78.5t-23 -90.5t-49.5 -75t-85.5 -31q-54 0 -86.5 31t-49.5 75t-22.5 90.5t-5.5 78.5v0z" />
    <glyph glyph-name="uniFF11" unicode="&#xff11;" horiz-adv-x="940" 
d="M435 490q4 3 8.5 6.5t9.5 7.5q4 4 9 8l10 8v-580h118v720h-103l-145 -116q-18 -15 -17.5 -32t15.5 -35l41 -52q12 18 26 35.5t28 29.5v0z" />
    <glyph glyph-name="uniFF12" unicode="&#xff12;" horiz-adv-x="940" 
d="M455 670q-45 0 -91.5 -8.5t-88.5 -24.5q-19 -9 -26.5 -25t-5.5 -33l13 -66q45 29 94 45.5t100 16.5q28 0 54 -9t46 -24t32 -35t12 -42q0 -38 -23.5 -79t-57.5 -80q-34 -40 -73.5 -74.5t-70.5 -58.5q-19 -15 -37.5 -29t-37.5 -28l-38 -30l-38 -30v-116h447q18 0 30 8.5
t18 22.5t7.5 31t0.5 34h-366q51 39 102 80t101 89q27 27 54.5 57t49.5 62t36 65t14 66q0 49 -21 89t-56 68t-82 43t-98 15v0z" />
    <glyph glyph-name="uniFF13" unicode="&#xff13;" horiz-adv-x="940" 
d="M249 526q45 23 92.5 36t103.5 13q26 0 52.5 -6t47.5 -18q22 -12 35.5 -31t13.5 -46t-19.5 -48t-48.5 -35q-29 -15 -61.5 -22.5t-59.5 -7.5h-92v-95h92q33 0 68.5 -7.5t64.5 -23.5t47.5 -41t18.5 -59q0 -24 -15 -44t-42 -35q-26 -15 -61.5 -23t-75.5 -8q-50 0 -96.5 14.5
t-94.5 40.5l-6 -66q-2 -17 5.5 -32.5t25.5 -22.5q39 -13 83 -21t88 -8q57 0 112 10.5t98 34.5t70 63.5t27 96.5q0 64 -38 112t-98 69q49 22 87.5 64.5t38.5 93.5q0 49 -22 86t-58 61q-37 25 -84 37t-98 12q-43 0 -88 -5.5t-88 -19.5q-20 -7 -26.5 -22t-4.5 -33z" />
    <glyph glyph-name="uniFF14" unicode="&#xff14;" horiz-adv-x="940" 
d="M549 -60h118v160h43q18 0 30 8.5t18 22.5t7.5 31t0.5 34h-99v464h-158q-43 -59 -85 -118l-84 -118t-83.5 -117.5t-83.5 -116.5v-90h376v-160zM549 196h-246q31 44 62 86.5t61 84.5q31 42 61 84.5t62 86.5v-342z" />
    <glyph glyph-name="uniFF15" unicode="&#xff15;" horiz-adv-x="940" 
d="M410 25q-47 0 -88.5 12t-88.5 34v-65q-1 -18 7 -35t27 -22v1q33 -10 68 -15t75 -5q58 0 112.5 17t96.5 50q42 32 67.5 78t25.5 104q0 46 -24 87t-62 71q-38 31 -87 48.5t-99 17.5q-24 0 -44 -1.5t-35 -2.5q0 19 0.5 39.5t1.5 42.5q0 21 0.5 42t1.5 41h270q18 0 30 8.5
t18 22.5t7.5 31t0.5 34h-438q-2 -48 -3 -95.5t-3 -94.5q-1 -47 -2.5 -94.5t-1.5 -95.5q34 15 74 23.5t88 8.5q35 0 69 -9.5t61 -28.5q26 -19 42.5 -46.5t16.5 -63.5q0 -32 -17.5 -57.5t-44.5 -43.5t-59.5 -28t-62.5 -10v0z" />
    <glyph glyph-name="uniFF16" unicode="&#xff16;" horiz-adv-x="940" 
d="M525 575q38 0 79 -12.5t85 -32.5l6 64q1 18 -5.5 32.5t-25.5 21.5q-33 10 -70.5 16t-73.5 6q-94 0 -156 -34t-99 -89t-52 -123.5t-15 -138.5q0 -63 13 -126.5t45 -114.5t86.5 -82.5t137.5 -31.5q55 0 103 19t83 52q35 34 55.5 79.5t20.5 98.5q0 45 -19 86.5t-53 72.5
q-33 31 -79.5 49.5t-100.5 18.5q-48 0 -91 -12t-80 -39q4 43 19.5 83t40.5 70q26 30 62 48.5t84 18.5v0zM624 174q0 -26 -9 -52.5t-27 -48.5q-18 -21 -45 -34.5t-63 -13.5q-37 0 -65 14.5t-48 36.5q-19 22 -29 48t-10 50q0 59 44.5 99.5t112.5 40.5q36 0 62.5 -13.5
t43.5 -34.5t25 -45.5t8 -46.5v0z" />
    <glyph glyph-name="uniFF17" unicode="&#xff17;" horiz-adv-x="940" 
d="M722 660h-504v-95h377l-278 -625h127l278 632v88z" />
    <glyph glyph-name="uniFF18" unicode="&#xff18;" horiz-adv-x="940" 
d="M468 -70q54 0 103.5 12t87.5 38q37 25 60 63.5t23 91.5q0 66 -42 112.5t-108 75.5q69 39 97.5 85t28.5 100q0 28 -17 57t-49 52q-32 24 -77 38.5t-102 14.5q-59 0 -106 -14.5t-80 -38.5t-51 -55t-18 -64q0 -23 6 -48.5t21 -49.5t40 -45.5t63 -36.5q-66 -28 -108 -76
t-42 -111q0 -48 23.5 -85.5t62.5 -63.5q38 -26 86.5 -39t97.5 -13v0zM622 126q-2 -24 -14.5 -43t-32.5 -32q-21 -13 -46.5 -19.5t-51.5 -6.5q-28 0 -56.5 7.5t-51.5 21.5t-37 34.5t-14 46.5q0 44 33 71t69 47q3 1 7 3l8 4l7.5 5l10.5 7q9 -6 20.5 -10t23.5 -7
q23 -10 45.5 -21.5t40.5 -26.5t28.5 -34.5t10.5 -46.5v0zM338 484q0 22 12.5 39t32.5 29q19 11 42 17t43 6q19 0 42 -5t42 -15q20 -10 33 -25t13 -36q0 -31 -21.5 -61.5t-86.5 -72.5q-75 27 -113.5 57.5t-38.5 66.5v0z" />
    <glyph glyph-name="uniFF19" unicode="&#xff19;" horiz-adv-x="940" 
d="M415 25q-39 0 -80 12t-84 33l-6 -64q-2 -18 4.5 -33t26.5 -21q33 -11 70 -16.5t74 -5.5q93 0 155 33.5t99 88.5t52.5 123.5t15.5 139.5q0 63 -13.5 126t-45.5 114t-86.5 83t-136.5 32q-56 0 -104 -19.5t-83 -52.5q-35 -34 -55 -79.5t-20 -97.5q0 -46 18.5 -87.5
t52.5 -72.5q33 -31 79.5 -49t101.5 -18q48 0 90.5 12t80.5 39q-5 -44 -20.5 -84t-40.5 -70q-26 -30 -62 -48t-83 -18v0zM316 426q0 25 9 51.5t27 48.5q18 21 45 35t63 14t64 -15t48 -37q19 -22 29.5 -48t10.5 -49q0 -60 -45 -100t-112 -40q-37 0 -63.5 13t-43.5 34
t-24.5 45.5t-7.5 47.5v0z" />
    <glyph glyph-name="uniFF1A" unicode="&#xff1a;" horiz-adv-x="940" 
d="M535 545h-130v-130h130v130zM405 65h130v130h-130v-130z" />
    <glyph glyph-name="uniFF1B" unicode="&#xff1b;" horiz-adv-x="940" 
d="M368 -55h79q11 25 23 52t25 58q13 30 28.5 64.5t33.5 75.5h-131zM550 545h-130v-130h130v130z" />
    <glyph glyph-name="uniFF1C" unicode="&#xff1c;" horiz-adv-x="940" 
d="M720 575l-500 -234v-82l500 -234v99l-371 176l371 176v99z" />
    <glyph glyph-name="uniFF1D" unicode="&#xff1d;" horiz-adv-x="940" 
d="M225 360h490v100h-490v-100zM225 130h490v100h-490v-100z" />
    <glyph glyph-name="uniFF1E" unicode="&#xff1e;" horiz-adv-x="940" 
d="M220 476l371 -176l-371 -176v-99l500 234v82l-500 234v-99z" />
    <glyph glyph-name="uniFF1F" unicode="&#xff1f;" horiz-adv-x="940" 
d="M386 -55h125v130h-125v-130zM438 670q-34 0 -69.5 -5.5t-71.5 -18.5q-19 -8 -27 -23t-5 -33l10 -66q33 20 71 33t80 13q52 0 90.5 -23t38.5 -73q0 -36 -22.5 -68.5t-49.5 -59.5q-37 -42 -61.5 -81t-24.5 -92v-39h105v36q0 32 19 61t41 56l17 20q37 42 64 82t27 91
q0 46 -20 81.5t-53 59.5q-32 24 -74 36.5t-85 12.5v0z" />
    <glyph glyph-name="uniFF20" unicode="&#xff20;" horiz-adv-x="940" 
d="M430 174q-36 0 -58 26t-22 64q0 25 9.5 52.5t27.5 50.5q17 22 41.5 37t53.5 15q30 0 51.5 -25t21.5 -58q0 -26 -9.5 -54.5t-26.5 -52.5t-39.5 -39.5t-49.5 -15.5v0zM688 494h-83q-2 -3 -6 -18t-6 -24v1l-1 -1v-1v-0.5v-0.5q-24 30 -53.5 44t-62.5 14q-51 0 -92.5 -22.5
t-69.5 -59.5q-29 -36 -44.5 -82t-15.5 -93q0 -35 11.5 -65.5t31.5 -52.5q21 -22 49 -34.5t62 -12.5q30 0 58 14.5t50 33.5q6 -25 23 -36.5t42 -11.5q28 0 70 16.5t80 51.5q39 35 66.5 88.5t27.5 127.5q0 68 -28.5 124t-75.5 96q-48 40 -110 62.5t-130 22.5
q-78 0 -146.5 -26.5t-119.5 -75.5q-51 -48 -80.5 -116.5t-29.5 -151.5q0 -88 29.5 -158.5t81.5 -119.5q51 -50 120.5 -76t149.5 -26q92 0 173.5 44.5t136.5 125.5h-90q-40 -40 -98 -64.5t-118 -24.5q-64 0 -117.5 20t-92.5 59q-39 38 -60.5 93.5t-21.5 126.5q0 61 20 114
t57 92q37 38 89 60.5t116 22.5q54 0 102 -16t84 -46t57 -74.5t21 -102.5q0 -37 -10.5 -71t-27.5 -60t-38 -41t-42 -15q-9 0 -11.5 6t-2.5 15t2.5 21t5.5 24z" />
    <glyph glyph-name="uniFF21" unicode="&#xff21;" horiz-adv-x="940" 
d="M218 -60l80 189h346l83 -189h126q-36 79 -74.5 164.5t-76.5 172.5q-38 86 -76 171.5t-74 165.5q-12 25 -35 35.5t-50 10.5h-60l-310 -720h121zM601 229h-261l129 303z" />
    <glyph glyph-name="uniFF22" unicode="&#xff22;" horiz-adv-x="940" 
d="M188 -60h297q55 0 107.5 9t92.5 32q41 22 65.5 60t24.5 95q0 63 -38.5 109.5t-100.5 67.5q56 23 82.5 62t26.5 101q0 49 -20.5 84t-55.5 57t-83.5 32.5t-105.5 10.5h-292v-720zM308 259h152q30 0 64 -6t63 -19q28 -14 47 -36t19 -55q0 -32 -15 -52t-39 -31t-54.5 -15
t-61.5 -4h-175v218zM308 559h187q20 0 42.5 -4.5t41.5 -14.5q19 -11 31.5 -29t12.5 -45q0 -32 -15.5 -52.5t-40.5 -32.5t-57 -16.5t-65 -4.5h-137v199z" />
    <glyph glyph-name="uniFF23" unicode="&#xff23;" horiz-adv-x="940" 
d="M570 567q39 0 84.5 -16.5t73.5 -34.5l9 67q1 16 -6 31.5t-25 24.5q-35 12 -70 19t-71 7q-87 0 -157.5 -27t-120.5 -75q-50 -49 -77 -116t-27 -147q0 -83 27 -150.5t77 -114.5q50 -48 120.5 -74t157.5 -26q34 0 83.5 4.5t86.5 25.5q9 6 12 18.5t0 29.5l-9 57
q-39 -18 -81.5 -27.5t-86.5 -9.5q-63 0 -112.5 19.5t-84.5 54.5q-34 35 -52 84t-18 109q0 55 17.5 103.5t51.5 85.5q33 36 83 57t115 21v0z" />
    <glyph glyph-name="uniFF24" unicode="&#xff24;" horiz-adv-x="940" 
d="M168 -60h222q88 0 160.5 22t123.5 66q52 45 80 112.5t28 159.5q0 83 -31.5 149.5t-84.5 113.5q-54 46 -125 71.5t-151 25.5h-222v-720zM288 559h112q52 0 99.5 -18t83.5 -52q36 -33 57.5 -81t21.5 -108q0 -135 -69.5 -197t-192.5 -62h-112v518z" />
    <glyph glyph-name="uniFF25" unicode="&#xff25;" horiz-adv-x="940" 
d="M705 360h-367v199h335q18 0 30 9.5t19 24.5q6 15 7.5 32.5t0.5 34.5h-512v-720h460q18 0 30 9.5t19 24.5q6 15 7.5 32.5t0.5 34.5h-397v218h367v101z" />
    <glyph glyph-name="uniFF26" unicode="&#xff26;" horiz-adv-x="940" 
d="M720 360h-372v199h325q18 0 30 9.5t19 24.5q6 15 7.5 32.5t0.5 34.5h-502v-720h120v319h372v101z" />
    <glyph glyph-name="uniFF27" unicode="&#xff27;" horiz-adv-x="940" 
d="M741 631q-46 16 -95 25t-101 9q-83 0 -154 -27t-122 -75q-52 -48 -81.5 -115t-29.5 -148q0 -82 27.5 -149t78.5 -115t122.5 -74.5t158.5 -26.5q78 0 140 10.5t97 22.5v387h-279v-100h159v-214q-22 -6 -55.5 -7t-61.5 -1q-60 0 -109 19.5t-84 55.5q-35 35 -54.5 84
t-19.5 108q0 54 20 102.5t56 85.5q36 36 86 57.5t110 21.5q51 0 104 -16t109 -43l9 67q1 17 -5 32t-26 24v0z" />
    <glyph glyph-name="uniFF28" unicode="&#xff28;" horiz-adv-x="940" 
d="M283 595q0 23 -12 37.5t-29 21.5q-18 7 -39 8t-40 -2v-720h120v320h374v-320h120v655q0 23 -12 37.5t-29 21.5q-18 7 -39 8t-40 -2v-300h-374v235z" />
    <glyph glyph-name="uniFF29" unicode="&#xff29;" horiz-adv-x="940" 
d="M530 595q0 23 -12 37.5t-29 21.5q-18 7 -39 8t-40 -2v-720h120v655z" />
    <glyph glyph-name="uniFF2A" unicode="&#xff2a;" horiz-adv-x="940" 
d="M388 30q-24 0 -39 2.5t-26 5.5l-24 10l7 -59q1 -16 9.5 -29t20.5 -20t29 -8.5t38 -1.5q60 0 98 16.5t60 43.5q22 28 30.5 63t8.5 72v470q0 23 -12 37t-29 21q-18 7 -39 8t-40 -1v-515q0 -53 -18 -84t-74 -31v0z" />
    <glyph glyph-name="uniFF2B" unicode="&#xff2b;" horiz-adv-x="940" 
d="M328 595q0 23 -12 37.5t-29 21.5q-18 7 -39 8t-40 -2v-720h120v655zM337 318q0 -4 1 -7t3 -6l319 -365h149q-46 45 -87.5 92.5t-81.5 95.5l-82 96t-84 94l309 342h-114q-21 -2 -37 -11t-29 -22l-262 -296q-2 -3 -3 -6.5t-1 -6.5v0z" />
    <glyph glyph-name="uniFF2C" unicode="&#xff2c;" horiz-adv-x="940" 
d="M368 595q0 23 -12 37.5t-29 21.5q-18 7 -39 8t-40 -2v-720h447q18 0 30 9.5t18 24.5t7.5 32.5t0.5 34.5h-383v554z" />
    <glyph glyph-name="uniFF2D" unicode="&#xff2d;" horiz-adv-x="940" 
d="M476 189l-4 -11l-3 10q-26 56 -51 118t-48 119q-23 58 -42.5 107t-34.5 79q-19 32 -42.5 40.5t-53.5 8.5h-104v-720h119v578q26 -70 50.5 -129t49.5 -115q24 -57 49.5 -114t52.5 -123h112q28 61 53 117.5t49 114.5t48.5 119t51.5 130v-578h119v720h-100q-31 0 -54.5 -8.5
t-41.5 -39.5h1z" />
    <glyph glyph-name="uniFF2E" unicode="&#xff2e;" horiz-adv-x="940" 
d="M338 612q-19 31 -44 39.5t-56 8.5h-75v-720h119v563l353 -563h142v655q0 23 -11.5 37t-29.5 21q-17 7 -38 8t-40 -1v-550l-3 4q-78 124 -158 249t-159 249v0z" />
    <glyph glyph-name="uniFF2F" unicode="&#xff2f;" horiz-adv-x="940" 
d="M243 300q0 51 14 99.5t42 86.5q29 37 71.5 60t99.5 23q56 0 98.5 -23t71.5 -60q28 -38 42.5 -86.5t14.5 -99.5t-13.5 -99.5t-41.5 -86.5t-71 -60.5t-101 -22.5q-59 0 -102 22.5t-71 60.5t-41 86.5t-13 99.5v0zM123 300q0 -83 23 -151.5t67 -116.5q44 -49 109 -75.5
t148 -26.5q82 0 147 26.5t109 75.5q44 48 67.5 116.5t23.5 151.5q0 81 -23.5 148.5t-67.5 117.5q-45 49 -109.5 76.5t-146.5 27.5q-83 0 -147.5 -27.5t-108.5 -76.5q-45 -50 -68 -117.5t-23 -148.5v0z" />
    <glyph glyph-name="uniFF30" unicode="&#xff30;" horiz-adv-x="940" 
d="M328 559h172q59 0 103 -28.5t44 -90.5q0 -32 -13.5 -55.5t-34.5 -38.5t-47.5 -22.5t-51.5 -7.5h-172v243zM208 -60h120v276h162q49 0 98 13t89 40q40 28 65 70t25 101q0 60 -23 101.5t-61 68.5q-38 26 -88.5 38t-104.5 12h-282v-720z" />
    <glyph glyph-name="uniFF31" unicode="&#xff31;" horiz-adv-x="940" 
d="M118 300q0 -83 23 -151.5t67 -116.5q44 -49 109 -75.5t148 -26.5q57 0 106.5 13.5t89.5 38.5l59 -52h160l-140 125q35 47 53.5 109t18.5 136q0 81 -23.5 148.5t-67.5 117.5q-45 49 -109.5 76.5t-146.5 27.5q-83 0 -147.5 -27.5t-108.5 -76.5q-45 -50 -68 -117.5
t-23 -148.5v0zM395 220l180 -161q-23 -14 -50.5 -21t-59.5 -7q-59 0 -102 22.5t-71 60.5t-41 86.5t-13 99.5t14 99.5t42 86.5q29 37 71.5 60t99.5 23q56 0 98.5 -23t71.5 -60q28 -38 42.5 -86.5t14.5 -99.5q0 -45 -10 -87.5t-31 -78.5l-96 86h-160z" />
    <glyph glyph-name="uniFF32" unicode="&#xff32;" horiz-adv-x="940" 
d="M188 -60h120v315h127q36 0 66 -10.5t50 -53.5l106 -251h137l-72 156l-63 139q-12 24 -25.5 38.5t-34.5 25.5q58 18 100.5 60t42.5 101q0 57 -23 95.5t-62 61.5q-40 23 -92 33t-110 10h-267v-720zM308 559h172q66 0 104 -27t38 -70q0 -23 -14 -42.5t-38 -33.5
q-23 -15 -53 -23t-62 -8h-147v204z" />
    <glyph glyph-name="uniFF33" unicode="&#xff33;" horiz-adv-x="940" 
d="M245 -42q40 -10 83.5 -16.5t91.5 -6.5q70 0 130 12t104 38q43 27 68 67.5t25 97.5q0 44 -23.5 77t-59.5 59q-36 25 -79 44t-82 34q-14 5 -44 14.5t-60 23.5t-53 32t-23 40t15.5 39.5t40.5 29.5q24 12 55 18t61 6q46 0 96 -11t102 -32l19 63q3 18 -5 35t-29 22
q-41 8 -83.5 14.5t-89.5 6.5q-65 0 -120 -13.5t-96 -38.5q-40 -25 -63 -61.5t-23 -82.5q0 -45 27 -77.5t67 -56.5t86.5 -41.5t85.5 -31.5q28 -11 56 -22.5t51 -24.5q22 -14 36.5 -31t14.5 -39q0 -28 -18 -49t-46 -35t-62 -21t-66 -7q-48 0 -98.5 11t-104.5 35l-19 -65
q-4 -18 3 -34.5t29 -21.5v0z" />
    <glyph glyph-name="uniFF34" unicode="&#xff34;" horiz-adv-x="940" 
d="M153 660v-101h257v-619h120v619h200q18 0 30 9.5t18 24.5t7.5 32.5t0.5 34.5h-633z" />
    <glyph glyph-name="uniFF35" unicode="&#xff35;" horiz-adv-x="940" 
d="M283 595q0 23 -12 37.5t-29 21.5q-18 7 -39 8t-40 -2v-431q0 -74 22.5 -130t63.5 -93q40 -38 96.5 -57t124.5 -19q67 0 123.5 19t97.5 57q40 37 63 93t23 130v366q0 23 -12 37.5t-29 21.5q-18 7 -39 8t-40 -2v-418q0 -93 -48.5 -152t-138.5 -59q-91 0 -139 59t-48 152
v353z" />
    <glyph glyph-name="uniFF36" unicode="&#xff36;" horiz-adv-x="940" 
d="M676 600q-25 -68 -49.5 -133t-48.5 -129q-24 -65 -48.5 -129.5t-48.5 -130.5q-1 -2 -1.5 -4.5t-1.5 -4.5t-2 -4.5t-1 -4.5q-2 3 -4 8.5t-2 10.5q-39 99 -67.5 174.5t-50.5 131.5q-21 55 -36 93.5t-24 63.5q-10 25 -15 39t-7 20q-3 7 -3 8.5v2.5q-16 30 -36 39t-45 9h-67
q34 -89 69.5 -179.5t70.5 -181.5t70.5 -181t70.5 -178h142l281 720h-55q-31 0 -55 -14t-36 -46v0z" />
    <glyph glyph-name="uniFF37" unicode="&#xff37;" horiz-adv-x="940" 
d="M629 82l-155 517q-13 33 -37 47t-54 14h-54l82 -248q-25 -81 -51 -166.5t-48 -160.5l-7 -25l-6 22l-163 530q-16 30 -36 39t-45 9h-67q36 -93 64 -181.5t55 -177.5q27 -88 55.5 -177.5t66.5 -183.5h142l98 298l100 -298h142q34 87 63 176.5t57 179.5q27 91 56.5 182
t64.5 182h-67q-27 0 -46.5 -9t-34.5 -39l-163 -530l-6 -22z" />
    <glyph glyph-name="uniFF38" unicode="&#xff38;" horiz-adv-x="940" 
d="M132 -60h135q25 34 50.5 70t50.5 72q26 36 51 71.5t51 70.5l201 -284h142q-34 46 -68 93.5t-69 95.5q-34 48 -68 95.5t-67 94.5l253 341h-85q-25 0 -46 -9.5t-35 -29.5q-10 -15 -30.5 -44t-43.5 -61q-24 -33 -46 -63.5t-34 -46.5l-151 213q-17 22 -35 31.5t-42 9.5h-94
q30 -43 61.5 -86.5t62.5 -87.5q32 -43 63.5 -86t63.5 -85z" />
    <glyph glyph-name="uniFF39" unicode="&#xff39;" horiz-adv-x="940" 
d="M410 -60h120v311l283 409h-83q-25 0 -46 -10t-35 -30q-3 -4 -12.5 -17t-28.5 -41q-20 -29 -52 -75.5t-80 -118.5q-2 -2 -3.5 -4.5t-2.5 -5.5l-7 15l-172 246l1 -1q-15 26 -34 34t-43 8h-87q31 -48 66.5 -100.5t72.5 -105.5q36 -54 72.5 -105.5t70.5 -97.5v-311z" />
    <glyph glyph-name="uniFF3A" unicode="&#xff3a;" horiz-adv-x="940" 
d="M732 564v96h-524v-101h386l-401 -522v-97h497q18 0 30 9.5t18 24.5t7.5 32.5t0.5 34.5h-421z" />
    <glyph glyph-name="uniFF3B" unicode="&#xff3b;" horiz-adv-x="940" 
d="M370 -160h210v85h-110v760h110v85h-210v-930z" />
    <glyph glyph-name="uniFFE6" unicode="&#xffe6;" horiz-adv-x="940" 
d="M121 296l91 -326h144l75 326h87l73 -326h138l92 326h121v79h-98q9 31 18 63.5t18 64.5t18.5 64t18.5 63h-120q-9 -30 -17.5 -62t-16.5 -65q-8 -32 -16 -64.5t-15 -63.5h-125l-58 255h-151q-8 -32 -15 -64t-13 -64l-14 -64t-14 -63h-124l-65 255h-125l71 -255h-101v-79
h123zM625 296h88q-6 -23 -11.5 -46t-11.5 -46t-11.5 -46t-11.5 -45zM238 296h86l-40 -181zM475 490l25 -115h-51z" />
    <glyph glyph-name="uniFF3D" unicode="&#xff3d;" horiz-adv-x="940" 
d="M570 770h-210v-85h110v-760h-110v-85h210v930z" />
    <glyph glyph-name="uniFF3E" unicode="&#xff3e;" horiz-adv-x="940" 
d="M253 440h108q13 26 26.5 53.5t27.5 55.5q14 27 27.5 55t27.5 55l109 -219h108l-171 320h-92z" />
    <glyph glyph-name="uniFF3F" unicode="&#xff3f;" horiz-adv-x="940" 
d="M200 -160h540v72h-540v-72z" />
    <glyph glyph-name="uniFF40" unicode="&#xff40;" horiz-adv-x="940" 
d="M485 760h-135l145 -200h85z" />
    <glyph glyph-name="uniFF41" unicode="&#xff41;" horiz-adv-x="940" 
d="M596 139q0 -50 -44.5 -82.5t-105.5 -32.5q-45 0 -80.5 19t-35.5 52q0 28 19 45t48 25q28 9 59.5 11.5t56.5 2.5q23 0 45 -0.5t38 -0.5v-39zM441 366q69 1 108.5 -25.5t45.5 -75.5l-120 2q-48 0 -94 -9t-82 -29t-57.5 -53t-21.5 -81q0 -82 58.5 -123.5t157.5 -41.5
q48 0 93.5 20t74.5 44v-9q0 -30 20 -38.5t47 -8.5q8 0 19.5 0.5t24.5 2.5l-0.5 2t-0.5 5v5v3q-2 4 -3.5 9t-2.5 13q-2 8 -2.5 20t-0.5 30v221q0 105 -64.5 158t-184.5 53q-44 0 -84 -11.5t-82 -30.5h1q-19 -8 -24 -23t-3 -30l6 -67q42 29 84 48t87 20v0z" />
    <glyph glyph-name="uniFF42" unicode="&#xff42;" horiz-adv-x="940" 
d="M335 -3q27 -26 68.5 -46.5t96.5 -20.5q58 0 102.5 22.5t73.5 60.5q30 37 45 86t15 101t-16 99t-47 83q-30 36 -74 57t-99 21q-50 0 -91.5 -19t-68.5 -44v231q0 22 -11 36t-27 20q-17 7 -36 8t-36 -2v-750q18 -3 36.5 -2.5t33.5 5.5t25 16t10 31v7zM626 195
q0 -28 -9.5 -58t-27.5 -55q-18 -26 -45 -42t-61 -16q-38 0 -65 15.5t-44 40.5q-18 25 -26 55t-8 60q0 32 8.5 63t26.5 55t45 38.5t63 14.5q35 0 61.5 -15t44.5 -39q18 -25 27.5 -55.5t9.5 -61.5v0z" />
    <glyph glyph-name="uniFF43" unicode="&#xff43;" horiz-adv-x="940" 
d="M349 195q0 81 49 124.5t137 46.5q34 1 68.5 -12.5t61.5 -28.5l9 65q2 17 -4 29t-24 21q-27 9 -51.5 14.5t-51.5 5.5q-141 0 -222 -67.5t-81 -197.5q0 -62 21 -111t60 -83q39 -35 94 -53t124 -18q30 0 62.5 4t68.5 21q10 9 14 20.5t2 26.5l-9 55q-14 -6 -29 -11.5
t-31 -10.5q-17 -5 -34.5 -8t-34.5 -3q-101 0 -150 48t-49 123v0z" />
    <glyph glyph-name="uniFF44" unicode="&#xff44;" horiz-adv-x="940" 
d="M705 628q0 22 -11 36t-27 20q-17 7 -36 8t-36 -2l1 -293q-28 25 -69.5 44t-90.5 19q-56 0 -100 -21t-74 -57q-31 -36 -46.5 -83t-15.5 -99t14.5 -101t43.5 -86q29 -38 73.5 -60.5t103.5 -22.5q54 0 96 20.5t69 46.5v-12q0 -30 21 -38.5t48 -8.5h9.5h11.5t12 0.5t13 1.5
l-0.5 2.5t-0.5 5.5v4.5v3.5q-2 4 -3.5 9t-2.5 13q-2 8 -2.5 20t-0.5 30v600zM310 195q0 31 9 61.5t27 55.5q18 24 45 39t62 15t62 -14.5t45 -38.5t27 -55t9 -63q0 -30 -8.5 -60t-26.5 -55t-45 -40.5t-64 -15.5q-35 0 -61.5 16t-44.5 42q-18 25 -27 55t-9 58v0z" />
    <glyph glyph-name="uniFF45" unicode="&#xff45;" horiz-adv-x="940" 
d="M332 249q9 42 44.5 79.5t98.5 37.5q57 0 92 -35t41 -82h-276zM665 73q-41 -22 -83 -35.5t-83 -13.5q-73 0 -118 36.5t-50 99.5h389q0 63 -13.5 117.5t-42.5 95.5q-29 40 -76 63.5t-113 23.5q-58 0 -105 -19.5t-80 -54.5q-34 -34 -52 -82t-18 -104q0 -124 70.5 -197
t208.5 -73q39 0 80.5 5.5t79.5 29.5q12 8 14 19.5t2 26.5z" />
    <glyph glyph-name="uniFF46" unicode="&#xff46;" horiz-adv-x="940" 
d="M633 692q-11 2 -26.5 2.5t-30.5 0.5q-54 0 -87.5 -14.5t-52.5 -41.5q-18 -27 -24.5 -65t-6.5 -85v-32h-135v-97h135v-420h110v420h95q18 0 29 9t17 23t7.5 31t0.5 34h-149v41q0 45 11.5 74t64.5 29q23 -2 36.5 -4.5t31.5 -10.5l4 59q0 14 -7.5 28t-22.5 19v0z" />
    <glyph glyph-name="uniFF47" unicode="&#xff47;" horiz-adv-x="940" 
d="M452 -115q-47 0 -94 12.5t-99 34.5l-9 -63q-2 -15 2 -26.5t16 -19.5q40 -17 83.5 -25t91.5 -8q136 0 201.5 62.5t65.5 180.5v417q-19 2 -38 1.5t-34 -5.5q-16 -6 -25.5 -17t-9.5 -29v-5q-27 25 -69 45t-94 20q-59 0 -103.5 -19.5t-73.5 -52.5q-30 -34 -44.5 -79
t-14.5 -97q0 -106 62 -171.5t174 -65.5q51 0 91.5 17.5t68.5 44.5q-2 -72 -41.5 -112t-106.5 -40v0zM314 217q0 27 9 53.5t28 47.5q18 21 44.5 34t61.5 13q36 0 62.5 -12.5t44.5 -33.5q18 -20 27 -47t9 -55q0 -65 -37 -106t-106 -41t-106 42t-37 105v0z" />
    <glyph glyph-name="uniFF48" unicode="&#xff48;" horiz-adv-x="940" 
d="M235 -60h110v232q0 84 36 139t106 55q57 0 87.5 -42.5t30.5 -123.5v-260h110v299q0 104 -61 162.5t-157 58.5q-45 0 -83.5 -16t-68.5 -49v233q0 22 -11 35.5t-27 20.5q-17 7 -36 8t-36 -2v-750z" />
    <glyph glyph-name="uniFF49" unicode="&#xff49;" horiz-adv-x="940" 
d="M525 388q0 22 -11 35.5t-28 20.5q-16 7 -35.5 8t-35.5 -2v-510h110v448zM400 605q0 -30 20.5 -50t49.5 -20q28 0 49 20t21 50q0 28 -21 49t-49 21q-29 0 -49.5 -21t-20.5 -49v0z" />
    <glyph glyph-name="uniFF4A" unicode="&#xff4a;" horiz-adv-x="940" 
d="M417 -110q-15 0 -33 3.5t-38 9.5l7 -50q2 -15 7.5 -29t17.5 -20v1q12 -7 23 -8.5t31 -1.5q48 0 77 14.5t44 39.5q15 24 19.5 57t4.5 69v412q0 22 -10.5 35t-26.5 20q-15 6 -34.5 7t-37.5 -1v-458q0 -53 -8 -76.5t-43 -23.5v0zM455 605q0 -30 20.5 -50t49.5 -20
q28 0 49 20t21 50q0 28 -21 49t-49 21q-29 0 -49.5 -21t-20.5 -49v0z" />
    <glyph glyph-name="uniFF4B" unicode="&#xff4b;" horiz-adv-x="940" 
d="M374 628q0 22 -11 35.5t-27 20.5t-35 8t-36 -2v-750h109v688zM386 238q-2 -3 -2.5 -6.5t-0.5 -6.5q0 -5 0.5 -7.5t2.5 -5.5l239 -272h135q-29 31 -60.5 67.5t-62.5 73.5q-32 38 -63.5 74.5t-61.5 68.5l223 236h-115q-18 -2 -34 -11t-28 -21z" />
    <glyph glyph-name="uniFF4C" unicode="&#xff4c;" horiz-adv-x="940" 
d="M525 628q0 22 -11 35.5t-28 20.5q-16 7 -35.5 8t-35.5 -2v-750h110v688z" />
    <glyph glyph-name="uniFF4D" unicode="&#xff4d;" horiz-adv-x="940" 
d="M98 -60h110v250q0 32 7 63.5t22 56.5t38 40.5t56 15.5q24 0 40.5 -12t25.5 -30q10 -18 14 -40.5t4 -43.5v-300h110v250q0 32 5.5 63.5t18.5 56.5t34.5 40.5t54.5 15.5q24 0 42 -12t29 -30q12 -18 17.5 -40.5t5.5 -43.5v-300h110v319q0 84 -49 142.5t-146 58.5
q-31 0 -73.5 -20t-72.5 -68q-26 44 -66.5 66t-79.5 22q-48 0 -84 -13t-65 -48v2q0 18 -10 29t-26 16t-35 5.5t-37 -1.5v-510z" />
    <glyph glyph-name="uniFF4E" unicode="&#xff4e;" horiz-adv-x="940" 
d="M340 401q0 18 -10 29t-26 16t-34.5 5.5t-36.5 -1.5v-510h110v236q0 84 36.5 137t109.5 53q55 0 86.5 -42.5t31.5 -123.5v-260h110v298q0 103 -59.5 162.5t-158.5 59.5q-44 0 -86.5 -14.5t-72.5 -44.5v0z" />
    <glyph glyph-name="uniFF4F" unicode="&#xff4f;" horiz-adv-x="940" 
d="M210 195q0 -54 18.5 -102.5t52.5 -84.5t82 -57t107 -21q58 0 105.5 21t82.5 57q34 36 53 84.5t19 102.5q0 57 -18.5 105.5t-52.5 83.5t-82 55.5t-107 20.5q-60 0 -108 -20.5t-82 -55.5t-52 -83.5t-18 -105.5v0zM320 195q0 32 10 63t29 55t47 38.5t64 14.5q35 0 63 -14.5
t47 -38.5t29.5 -55t10.5 -63q0 -31 -9 -61.5t-28 -55.5q-18 -24 -46.5 -39t-66.5 -15q-40 0 -68.5 15t-46.5 39q-18 25 -26.5 55.5t-8.5 61.5v0z" />
    <glyph glyph-name="uniFF50" unicode="&#xff50;" horiz-adv-x="940" 
d="M237 -210h110v227q27 -27 68.5 -45t91.5 -18q55 0 99 18.5t74 52.5q31 33 47 78.5t16 98.5q0 51 -15 98t-45 82q-29 36 -73.5 57t-102.5 21q-52 0 -94 -18.5t-69 -44.5v3q0 18 -10 29t-26 16q-15 5 -34 5.5t-37 -1.5v-659zM633 207q0 -32 -9.5 -60.5t-27.5 -50.5
t-44.5 -34.5t-61.5 -12.5q-72 0 -107.5 46.5t-35.5 111.5q0 28 8 56.5t26 50.5q17 23 44 37t65 14q34 0 60.5 -15t45.5 -37q18 -23 27.5 -51t9.5 -55v0z" />
    <glyph glyph-name="uniFF51" unicode="&#xff51;" horiz-adv-x="940" 
d="M708 450q-19 2 -38 1.5t-34 -5.5q-16 -6 -25.5 -17t-9.5 -29v-3q-27 24 -69.5 43.5t-93.5 19.5q-59 0 -103.5 -21t-73.5 -57q-30 -35 -44.5 -82t-14.5 -98q0 -53 15.5 -98.5t46.5 -78.5q30 -34 74 -52.5t100 -18.5q50 0 91.5 17t68.5 46v-227h110v660zM312 207q0 27 9 55
t28 51q18 22 44.5 37t61.5 15q37 0 64 -14t44 -37q18 -22 26.5 -50.5t8.5 -56.5q0 -65 -36 -111.5t-107 -46.5q-36 0 -62.5 12.5t-44.5 34.5t-27 50.5t-9 60.5v0z" />
    <glyph glyph-name="uniFF52" unicode="&#xff52;" horiz-adv-x="940" 
d="M306 -60h110v241q0 86 47 133t113 47q17 0 42.5 -6.5t43.5 -13.5q1 12 3 24.5t5 24.5q2 13 4.5 25.5t5.5 26.5q-19 6 -52 12t-57 6q-38 0 -83 -18.5t-75 -45.5v5q0 18 -10 28.5t-26 15.5t-34.5 5.5t-36.5 -0.5v-510z" />
    <glyph glyph-name="uniFF53" unicode="&#xff53;" horiz-adv-x="940" 
d="M608 446q-12 2 -25 4.5t-28 4.5t-31.5 3.5t-34.5 1.5q-44 0 -83.5 -9t-69.5 -27q-30 -19 -47 -48.5t-17 -70.5q0 -33 17.5 -56t43.5 -40t55.5 -29t54.5 -22q20 -9 39.5 -18t35.5 -18q15 -10 24.5 -20t9.5 -22q0 -17 -11.5 -28t-27.5 -17q-17 -7 -36.5 -9t-35.5 -2
q-34 0 -72 7.5t-86 26.5l-6 -63q-2 -18 5 -30.5t25 -17.5q25 -6 60.5 -11.5t88.5 -5.5q39 0 76.5 8t66.5 27q29 18 46.5 47.5t17.5 72.5q0 33 -15 58t-38 44q-24 19 -51.5 32t-52.5 23q-11 3 -31.5 11t-40.5 18q-21 10 -36 22.5t-15 25.5q0 25 30.5 36t70.5 11
q45 0 75.5 -6.5t72.5 -23.5l8 64v-1q3 18 -5.5 30.5t-26.5 16.5v0z" />
    <glyph glyph-name="uniFF54" unicode="&#xff54;" horiz-adv-x="940" 
d="M586 32q-35 0 -57.5 18.5t-22.5 60.5v246h89q18 0 29.5 8.5t17.5 22.5t7.5 31t0.5 34h-144v147h-110v-147h-116v-94h116v-268q0 -81 50 -118.5t125 -37.5q15 0 30.5 1.5t28.5 5.5q17 6 24 18.5t6 27.5l-4 61q-15 -8 -30 -12.5t-40 -4.5v0z" />
    <glyph glyph-name="uniFF55" unicode="&#xff55;" horiz-adv-x="940" 
d="M712 387q0 22 -11 35.5t-27 20.5q-17 7 -36 8t-36 -1v-236q0 -84 -36.5 -137.5t-109.5 -53.5q-56 0 -87 43t-31 124v197q0 22 -11 35.5t-27 20.5q-17 7 -36 8t-36 -1v-298q0 -104 59.5 -163t158.5 -59q42 0 85.5 15.5t74.5 45.5v-7q0 -29 21 -38.5t48 -9.5q6 0 21 1t31 3
q-7 16 -11 30t-4 39v378z" />
    <glyph glyph-name="uniFF56" unicode="&#xff56;" horiz-adv-x="940" 
d="M474 64l-134 345q-14 26 -32.5 33.5t-42.5 7.5h-61l209 -510h118l204 510h-52q-30 0 -51.5 -13.5t-33.5 -46.5z" />
    <glyph glyph-name="uniFF57" unicode="&#xff57;" horiz-adv-x="940" 
d="M495 391q-12 32 -33.5 45.5t-50.5 13.5h-53l61 -169l-68 -212l-115 338q-14 27 -32.5 35t-43.5 8h-60l190 -510h117l68 187l68 -187h117l190 510h-60q-26 0 -44.5 -8t-31.5 -35q-29 -85 -57.5 -170t-57.5 -169z" />
    <glyph glyph-name="uniFF58" unicode="&#xff58;" horiz-adv-x="940" 
d="M213 -60h119q16 21 33 44.5t34 46.5t34.5 46.5t34.5 45.5l129 -183h130l-50 66t-50 67t-49.5 67.5t-48.5 66.5l185 243h-74q-22 0 -41 -8t-31 -25q-20 -29 -47.5 -67t-48.5 -64l-94 135q-14 18 -30 23.5t-37 5.5h-84q23 -31 46 -62.5t46 -62.5l46 -62t47 -61z" />
    <glyph glyph-name="uniFF59" unicode="&#xff59;" horiz-adv-x="940" 
d="M416 -15q0 -4 -6 -19t-18 -32q-13 -17 -33 -30t-48 -13q-15 0 -28 4t-20 19q-1 -6 -2 -15t-2 -20q-1 -10 -2 -19.5t-1 -14.5q-2 -15 4.5 -27t27.5 -19q6 -1 16.5 -2.5t25.5 -1.5q40 3 70.5 21.5t53.5 45.5q23 28 40.5 61.5t32.5 66.5l208 460h-54q-30 0 -51 -14t-35 -45
q-15 -35 -30 -69.5t-30 -69.5q-16 -34 -31 -69t-29 -69q-18 38 -34 74t-32 71l-32 72t-32 74q-14 28 -34 36.5t-45 8.5h-61l195 -412q5 -12 10.5 -29t5.5 -24v0z" />
    <glyph glyph-name="uniFF5A" unicode="&#xff5a;" horiz-adv-x="940" 
d="M687 355v95h-419v-95h282l-298 -321l1 -94h389q18 0 29 8.5t17 22.5t7.5 30.5t0.5 33.5h-309z" />
    <glyph glyph-name="uniFF5B" unicode="&#xff5b;" horiz-adv-x="940" 
d="M615 770h-80q-19 0 -40 -8.5t-39 -24.5q-17 -17 -28.5 -41.5t-11.5 -57.5v-198q0 -43 -30.5 -68t-60.5 -26v-82q30 -2 60.5 -27.5t30.5 -71.5v-193q0 -33 11.5 -58t28.5 -41q18 -17 39 -25t40 -8h80v82h-55q-27 0 -35.5 22t-8.5 48v189q0 57 -26.5 85.5t-50.5 38.5
q24 10 50.5 38t26.5 83v192q0 25 8.5 47.5t35.5 22.5h55v82z" />
    <glyph glyph-name="uniFF5C" unicode="&#xff5c;" horiz-adv-x="940" 
d="M435 -160h70v930h-70v-930z" />
    <glyph glyph-name="uniFF5D" unicode="&#xff5d;" horiz-adv-x="940" 
d="M325 688h55q27 0 35.5 -22.5t8.5 -47.5v-192q0 -29 8 -50t21 -36q12 -14 26.5 -23.5t26.5 -13.5q-12 -3 -26.5 -11t-26.5 -22q-13 -15 -21 -36.5t-8 -52.5v-189q0 -26 -8.5 -48t-35.5 -22h-55v-82h80q18 0 39 8t39 25q17 16 29 41t12 58v193q0 46 30 71.5t61 27.5v82
q-31 1 -61 26t-30 68v198q0 33 -12 57.5t-29 41.5q-18 16 -39 24.5t-39 8.5h-80v-82z" />
    <glyph glyph-name="uniFFE3" unicode="&#xffe3;" horiz-adv-x="940" 
d="M200 675h540v75h-540v-75z" />
    <glyph glyph-name="uni3131" unicode="&#x3131;" horiz-adv-x="940" 
d="M802 610h-674v-95h555v-135q-1 -24 -2.5 -64.5t-5.5 -86.5t-11 -93.5t-19 -85.5h116q8 22 15.5 58.5t13.5 79.5q5 44 8.5 91t3.5 91v240z" />
    <glyph glyph-name="uni3132" unicode="&#x3132;" horiz-adv-x="940" 
d="M832 610h-354v-95h235v-105q-1 -24 -2.5 -65.5t-5.5 -89.5t-11 -97t-19 -88h116q8 22 15.5 60t13.5 83q5 45 8.5 94t3.5 93v210zM442 610h-344v-95h225v-105q0 -24 -6 -63.5t-17 -85.5t-26 -93.5t-34 -87.5h117q18 27 33.5 71.5t26.5 91.5q11 46 18 89t7 68v210z" />
    <glyph glyph-name="uni3133" unicode="&#x3133;" horiz-adv-x="940" 
d="M707 550q0 21 -12 34.5t-31 20.5q-18 7 -40 9t-41 0v-110q0 -68 -20.5 -132.5t-47.5 -116.5q-26 -52 -52.5 -87t-38.5 -42l34 -37q6 -8 14.5 -13.5t22.5 -5.5q6 0 15 2t20 13q22 22 52.5 62t58.5 94q33 -47 70 -90t63 -64q6 -6 13 -6.5t16 -0.5q12 2 19 7.5t14 14.5
l29 39q-13 12 -33 35t-44 55q-23 31 -48 68.5t-47 78.5q6 27 10 56.5t4 59.5v56zM432 610h-334v-95h215v-115q-1 -24 -2.5 -64.5t-5.5 -86.5t-11 -93.5t-19 -85.5h116q8 22 15.5 58.5t13.5 79.5q5 44 8.5 91t3.5 91v220z" />
    <glyph glyph-name="uni3134" unicode="&#x3134;" horiz-adv-x="940" 
d="M247 545q0 1 -0.5 5.5t-1.5 11.5q-2 6 -5 13.5t-9 15.5q-14 15 -40 19t-63 -2v-518h632q20 0 31 9t16 23q5 15 5 31.5t-1 31.5h-564v360z" />
    <glyph glyph-name="uni3135" unicode="&#x3135;" horiz-adv-x="940" 
d="M468 610v-95h165q-15 -68 -38.5 -127t-50.5 -106q-28 -48 -56.5 -83.5t-52.5 -56.5l30 -39q5 -6 13 -13.5t20 -9.5q9 -3 18 -1.5t22 14.5q25 24 54 60.5t57 81.5q33 -47 65.5 -84t53.5 -52q8 -5 13.5 -6t13.5 -1q12 2 19 7.5t14 14.5l6 8l26 41q-24 16 -66 67t-84 121
q18 44 32 89t20 88q3 25 4.5 53.5l1.5 28.5h-300zM237 545q0 1 -0.5 5.5t-1.5 11.5q-2 6 -5 13.5t-9 15.5q-14 15 -40 19t-63 -2v-518h252q20 0 31 9t16 23q5 15 5 31.5t-1 31.5h-184v360z" />
    <glyph glyph-name="uni3136" unicode="&#x3136;" horiz-adv-x="940" 
d="M480 455q-22 -30 -34.5 -68t-12.5 -79q0 -46 14.5 -87t40.5 -73q26 -31 61 -49.5t76 -18.5q40 0 75 18.5t61 49.5q26 32 41 73t15 87q0 41 -13 79t-34 68h20q3 0 15.5 2.5t23.5 15.5q10 12 13 31t-1 46h-146q17 22 30 46t20 39l-112 49q-18 -48 -36.5 -80.5t-33.5 -53.5
h-155v-95h72zM237 545q0 1 -0.5 5.5t-1.5 11.5q-2 6 -5 13.5t-9 15.5q-14 15 -40 19t-63 -2v-518h262q20 0 31 9t16 23q5 15 5 31.5t-1 31.5h-194v360zM625 174q-36 0 -54.5 41.5t-18.5 94.5t18.5 94.5t54.5 41.5q35 0 54 -41.5t19 -94.5t-19 -94.5t-54 -41.5v0z" />
    <glyph glyph-name="uni3137" unicode="&#x3137;" horiz-adv-x="940" 
d="M802 610h-674v-520h632q20 0 31 9t16 23q5 15 5 31.5t-1 31.5h-564v330h555v95z" />
    <glyph glyph-name="uni3138" unicode="&#x3138;" horiz-adv-x="940" 
d="M463 90h312q19 0 31 9t18 23q6 15 7 31.5t0 31.5h-249v330h240v95h-359v-520zM108 90h272q19 0 31.5 9t19.5 23q7 15 9 31.5t1 31.5h-214v330h190v95h-309v-520z" />
    <glyph glyph-name="uni3139" unicode="&#x3139;" horiz-adv-x="940" 
d="M767 80q15 -1 26 9.5t18 25.5t9 31.5t0 28.5h-573v135h560v310h-679v-95h560v-120h-560v-325h639z" />
    <glyph glyph-name="uni313A" unicode="&#x313a;" horiz-adv-x="940" 
d="M417 90q15 -1 26 9.5t18 25.5t9 31.5t0 28.5h-243v125h225v300h-344v-95h225v-110h-225v-315h309zM832 90v520h-344v-95h225v-425h119z" />
    <glyph glyph-name="uni313B" unicode="&#x313b;" horiz-adv-x="940" 
d="M397 90q15 -1 26 9.5t18 25.5t9 31.5t0 28.5h-223v125h215v300h-334v-95h215v-110h-215v-315h289zM488 90h344v520h-344v-520zM713 185h-106v330h106v-330z" />
    <glyph glyph-name="uni313C" unicode="&#x313c;" horiz-adv-x="940" 
d="M387 90q15 -1 26 9.5t18 25.5t9 31.5t0 28.5h-213v125h205v300h-324v-95h205v-110h-205v-315h279zM832 555q-2 24 -13 38t-28 21q-17 6 -38 6.5t-40 -1.5v-184h-116v111q0 24 -11.5 37.5t-29.5 20.5q-17 6 -38 6.5t-40 -1.5v-519h354v465zM713 185h-116v155h116v-155z
" />
    <glyph glyph-name="uni313D" unicode="&#x313d;" horiz-adv-x="940" 
d="M387 90q15 -1 26 9.5t18 25.5t9 31.5t0 28.5h-213v125h205v300h-324v-95h205v-110h-205v-315h279zM717 550q0 21 -12 34.5t-31 20.5q-18 7 -40 9t-41 0v-110q0 -68 -18 -130.5t-42 -113.5q-24 -50 -48 -83.5t-36 -40.5l27 -31l7 -6q6 -8 14.5 -13.5t22.5 -5.5
q6 0 16.5 3.5t19.5 12.5q20 25 47 64t51 88q30 -49 62.5 -94.5t57.5 -66.5q6 -6 13 -6.5t16 -0.5q12 2 19 7.5t14 14.5l9 11l20 28q-13 12 -32 37t-41 58q-21 34 -44 73t-43 80q6 25 9 51.5t3 53.5v56z" />
    <glyph glyph-name="uni313E" unicode="&#x313e;" horiz-adv-x="940" 
d="M397 90q15 -1 26 9.5t18 25.5t9 31.5t0 28.5h-223v125h215v300h-334v-95h215v-110h-215v-315h289zM822 610h-334v-520h292q20 0 31 9t16 23q5 15 5 31.5t-1 31.5h-224v125h205v95h-205v110h215v95z" />
    <glyph glyph-name="uni313F" unicode="&#x313f;" horiz-adv-x="940" 
d="M800 515h44v95h-368v-95h45v-330h-55v-95h334q18 0 30 8.5t18 22.5t7.5 30.5t0.5 33.5h-71q8 22 11.5 46.5t3.5 48.5v235zM387 90q15 -1 26 9.5t18 25.5t9 31.5t0 28.5h-213v125h210v300h-329v-95h210v-110h-210v-315h279zM639 185v330h43v-225q0 -24 -3.5 -51t-11.5 -54
h-28z" />
    <glyph glyph-name="uni3140" unicode="&#x3140;" horiz-adv-x="940" 
d="M514 455q-20 -30 -30.5 -68t-10.5 -79q0 -46 13 -87t37 -73q23 -31 55.5 -49.5t71.5 -18.5q38 0 70.5 18.5t55.5 49.5q24 32 37.5 73t13.5 87q0 41 -11 79t-31 68h10q3 0 15.5 2.5t23.5 15.5q10 12 13 31t-1 46h-126q17 22 30 46t20 39l-112 49q-18 -48 -36.5 -80.5
t-33.5 -53.5h-135v-95h61zM387 90q15 -1 26 9.5t18 25.5t9 31.5t0 28.5h-213v125h195v300h-314v-95h195v-110h-195v-315h279zM650 174q-28 0 -43 41.5t-15 94.5t15 94.5t43 41.5q27 0 42.5 -41.5t15.5 -94.5t-15.5 -94.5t-42.5 -41.5v0z" />
    <glyph glyph-name="uni3141" unicode="&#x3141;" horiz-adv-x="940" 
d="M128 90h684v520h-684v-520zM693 185h-446v330h446v-330z" />
    <glyph glyph-name="uni3142" unicode="&#x3142;" horiz-adv-x="940" 
d="M812 555q-2 24 -13 38t-28 21q-17 6 -38 6.5t-40 -1.5v-184h-446v111q0 24 -11.5 37.5t-29.5 20.5q-17 6 -38 6.5t-40 -1.5v-519h684v465zM693 185h-446v155h446v-155z" />
    <glyph glyph-name="uni3143" unicode="&#x3143;" horiz-adv-x="940" 
d="M822 555q-2 24 -13 38t-28 21q-17 6 -38 6.5t-40 -1.5v-184h-176v111q0 24 -11.5 37.5t-29.5 20.5q-17 6 -38 6.5t-40 -1.5v-174h-171v111q0 24 -11.5 37.5t-29.5 20.5q-17 6 -38 6.5t-40 -1.5v-519h704v465zM703 185h-176v155h176v-155zM237 340h171v-155h-171v155z" />
    <glyph glyph-name="uni3144" unicode="&#x3144;" horiz-adv-x="940" 
d="M717 550q0 21 -12 34.5t-31 20.5q-18 7 -40 9t-41 0v-110q0 -66 -17 -127.5t-40 -111.5q-24 -49 -47.5 -83t-36.5 -44v417q-2 24 -13 38t-28 21q-17 6 -38 6.5t-40 -1.5v-184h-106v111q0 24 -11.5 37.5t-29.5 20.5q-17 6 -38 6.5t-40 -1.5v-519h344v42l31 -33
q6 -8 14.5 -13.5t22.5 -5.5q6 0 16.5 3.5t19.5 12.5q21 26 47.5 64t50.5 87q30 -49 62.5 -94t57.5 -66q6 -6 13 -6.5t16 -0.5q12 2 19 7.5t14 14.5l29 39q-13 12 -32 37t-40 58q-22 33 -44.5 72t-42.5 80q5 25 8 51.5t3 54.5v56zM333 185h-106v155h106v-155z" />
    <glyph glyph-name="uni3145" unicode="&#x3145;" horiz-adv-x="940" 
d="M542 557q0 22 -13.5 35.5t-33.5 20.5q-19 7 -42 7.5t-41 -1.5v-93q-10 -70 -52.5 -133t-95.5 -113t-104 -85t-76 -48l37 -46h-1q3 -5 6.5 -8.5t7.5 -6.5t9.5 -4.5t13.5 -1.5h5.5t4.5 1q1 1 3 1.5t5 2.5l12 6q16 7 46 25t67 46q36 27 74.5 62.5t72.5 77.5q40 -37 86 -71
t89 -62t77.5 -46.5t52.5 -22.5q3 -1 7 -3t8 -3q4 -2 8 -3t8 -1q8 0 17 5.5t19 14.5q9 9 18.5 21t20.5 25q-39 17 -86 45.5t-93 63.5q-47 34 -89.5 72t-73.5 74q10 24 17 50t9 53v43z" />
    <glyph glyph-name="uni3146" unicode="&#x3146;" horiz-adv-x="940" 
d="M407 550q0 21 -12.5 34.5t-30.5 20.5t-40 8.5t-41 0.5v-98q0 -63 -25.5 -123t-59.5 -110t-69.5 -86t-54.5 -51l27 -31q8 -10 19.5 -17.5t27.5 -7.5q4 0 7.5 -0.5t7.5 0.5t8 3.5t9 8.5q23 17 63 56t79 95q15 -18 32 -37.5t35 -37.5q-19 -21 -34 -34.5t-21 -16.5l23 -29
l11 -11q6 -8 14.5 -13.5t22.5 -5.5q6 0 15 2.5t19 11.5q25 21 68 66t82 107q21 -26 45 -52t48 -49t45.5 -41t38.5 -27q6 -4 12 -5t15 -1q12 2 19 7.5t14 14.5l9 11l21 30q-14 10 -38.5 33.5t-53.5 55.5t-59.5 70t-55.5 79q8 27 13 55t5 58v56q0 21 -12 34.5t-31 20.5
q-18 7 -40 9t-41 0v-110q0 -63 -25.5 -124t-58.5 -112q-20 23 -39 49t-36 54q10 30 16.5 61t6.5 64v54z" />
    <glyph glyph-name="uni3147" unicode="&#x3147;" horiz-adv-x="940" 
d="M148 350q0 -59 24 -110.5t67 -88.5q43 -38 102 -59.5t129 -21.5q69 0 128 21.5t102 59.5q43 37 67.5 88.5t24.5 110.5q0 58 -24.5 109.5t-67.5 88.5q-43 38 -102 60t-128 22q-70 0 -129 -22t-102 -60q-43 -37 -67 -88.5t-24 -109.5v0zM267 350q0 39 15 72.5t42 58.5
t64.5 39.5t81.5 14.5q43 0 80 -14.5t65 -39.5q27 -25 42.5 -58.5t15.5 -72.5t-15.5 -73t-42.5 -59q-28 -25 -65 -39t-80 -14q-44 0 -81.5 14t-64.5 39t-42 59t-15 73v0z" />
    <glyph glyph-name="uni3148" unicode="&#x3148;" horiz-adv-x="940" 
d="M148 610v-95h402q-30 -60 -85.5 -115t-121.5 -102t-136 -84.5t-129 -61.5l32 -45q5 -9 13 -18t20 -9q5 -1 12.5 0t12.5 4q25 10 60 27.5t76 40.5q40 24 84 52.5t87 61.5q39 -28 82 -56t82 -51q39 -24 69 -40t42 -20l4 -1q6 -3 10 -4.5t7 -2.5t5.5 -1h6.5q13 0 21.5 6
t17.5 15l34 46q-25 12 -59.5 32.5t-73.5 45.5t-79 54t-74 59q43 41 78 86t55 92q3 7 4.5 20.5t3.5 26.5q1 12 1.5 22l0.5 10z" />
    <glyph glyph-name="uni3149" unicode="&#x3149;" horiz-adv-x="940" 
d="M488 610v-95h135q-20 -73 -59.5 -140t-81.5 -121q-22 22 -45.5 50.5t-44.5 59.5q21 39 36.5 81t23.5 84q1 11 2 25t2 26q0 13 1 21.5l1 8.5h-300v-95h166q-11 -52 -39.5 -106.5t-62.5 -102.5q-34 -49 -67.5 -88t-54.5 -58l30 -35q6 -6 16 -15t20 -10q9 -1 20 2.5t20 12.5
q24 24 56.5 61t65.5 84q19 -24 40.5 -46t41.5 -40q-13 -13 -24.5 -24t-20.5 -18l30 -39q5 -6 13 -13.5t20 -9.5q9 -3 18.5 -1t21.5 14q29 27 68.5 71t79.5 98q19 -24 41 -48t42 -44t37.5 -36t28.5 -24q9 -5 15 -6.5t15 -1.5q12 2 19 7.5t14 14.5l6 8l26 40q-6 4 -25 22
t-43 45q-25 26 -53.5 59t-53.5 69q24 43 42 86.5t25 84.5q2 25 4 53.5l2 28.5h-270z" />
    <glyph glyph-name="uni314A" unicode="&#x314a;" horiz-adv-x="940" 
d="M514 560q23 24 42.5 51t28.5 44l-117 49q-21 -46 -47.5 -83t-48.5 -61h-234v-95h419q-48 -59 -113 -108.5t-132 -88.5q-68 -40 -130 -69.5t-104 -46.5l32 -45q9 -15 23.5 -24t34.5 1q27 10 63.5 26t78.5 37t87 46t89 54q37 -26 75.5 -49.5t73.5 -42.5q34 -20 63 -35.5
t47 -23.5q20 -11 41.5 -6t36.5 22q1 1 7 9t26 36q-57 26 -130.5 69.5t-139.5 95.5q39 33 70.5 70.5t52.5 78.5q4 9 7.5 24.5t4.5 29.5q2 14 3 24.5l1 10.5h-211z" />
    <glyph glyph-name="uni314B" unicode="&#x314b;" horiz-adv-x="940" 
d="M133 275h546q-3 -57 -11 -121t-23 -114h116q8 22 15.5 58.5t13.5 79.5q5 44 8.5 91t3.5 91v250h-674v-95h555v-145h-550v-95z" />
    <glyph glyph-name="uni314C" unicode="&#x314c;" horiz-adv-x="940" 
d="M802 615h-674v-530h632q20 0 31 9t16 23q5 15 5 31.5t-1 31.5h-564v130h545v95h-545v115h555v95z" />
    <glyph glyph-name="uni314D" unicode="&#x314d;" horiz-adv-x="940" 
d="M703 515h129v95h-724v-95h130v-330h-140v-95h687q18 0 30 8.5t18 22.5t7.5 30.5t0.5 33.5h-153q8 22 11.5 46.5t3.5 48.5v235zM357 185v330h227v-225q0 -24 -3.5 -51t-11.5 -54h-212z" />
    <glyph glyph-name="uni314E" unicode="&#x314e;" horiz-adv-x="940" 
d="M188 298q0 -48 22 -89.5t60 -72.5t89.5 -48.5t110.5 -17.5q58 0 109.5 17.5t89.5 48.5t60.5 72.5t22.5 89.5q0 47 -22.5 89t-60.5 73h106q8 0 19.5 4.5t19.5 13.5q10 12 13 31t-1 46h-291q24 25 45 53.5t30 46.5l-117 49q-21 -48 -49.5 -86.5t-50.5 -62.5h-280v-95h158
q-39 -31 -61 -73t-22 -89v0zM307 301q0 28 12.5 53t34.5 44q22 18 52 29t64 11q33 0 63 -11t52 -29q22 -19 35 -44t13 -53q0 -29 -13 -54t-35 -44q-22 -18 -52 -28.5t-63 -10.5q-34 0 -64 10.5t-52 28.5q-22 19 -34.5 44t-12.5 54v0z" />
    <glyph glyph-name="uni314F" unicode="&#x314f;" horiz-adv-x="940" 
d="M620 274q3 0 16 2.5t24 15.5q10 12 13 31.5t-2 46.5h-144v275q0 22 -12 35.5t-29 20.5q-18 8 -39 9.5t-39 -0.5v-820h119v384h93z" />
    <glyph glyph-name="uni3150" unicode="&#x3150;" horiz-adv-x="940" 
d="M632 645q0 23 -11 37t-28 21t-37.5 8t-39.5 -2v-339h-92v265q0 23 -11 37t-28 21t-37.5 8t-39.5 -2v-789h116v364h92v-384h116v755z" />
    <glyph glyph-name="uni3151" unicode="&#x3151;" horiz-adv-x="940" 
d="M620 399q3 0 16 2.5t24 15.5q10 12 13 31.5t-2 46.5h-144v150q0 22 -12 35.5t-29 20.5q-18 7 -39 8.5t-39 -0.5v-819h119v259h93q3 0 16 2.5t24 15.5q10 12 13 31.5t-2 46.5h-144v154h93z" />
    <glyph glyph-name="uni3152" unicode="&#x3152;" horiz-adv-x="940" 
d="M632 645q0 23 -11 37t-28 21t-37.5 8t-39.5 -2v-214h-92v140q0 23 -11 37t-28 21t-37.5 8t-39.5 -2v-789h116v240h92v-260h116v755zM424 400h92v-155h-92v155z" />
    <glyph glyph-name="uni3153" unicode="&#x3153;" horiz-adv-x="940" 
d="M527 645q0 22 -12 35.5t-29 20.5q-18 7 -39 8.5t-39 -0.5v-339h-170v-95h170v-385h119v755z" />
    <glyph glyph-name="uni3154" unicode="&#x3154;" horiz-adv-x="940" 
d="M434 635q0 23 -11 37t-28 21t-37.5 8t-39.5 -2v-329h-170v-96h170v-364h116v725zM632 645q0 23 -11 37t-28 21t-37.5 8t-39.5 -2v-819h116v755z" />
    <glyph glyph-name="uni3155" unicode="&#x3155;" horiz-adv-x="940" 
d="M527 645q0 22 -12 35.5t-29 20.5q-18 7 -39 8.5t-39 -0.5v-214h-170v-95h170v-155h-170v-95h170v-260h119v755z" />
    <glyph glyph-name="uni3156" unicode="&#x3156;" horiz-adv-x="940" 
d="M434 635q0 23 -11 37t-28 21t-37.5 8t-39.5 -2v-204h-170v-95h170v-155h-170v-95h170v-240h116v725zM632 645q0 23 -11 37t-28 21t-37.5 8t-39.5 -2v-819h116v755z" />
    <glyph glyph-name="uni3157" unicode="&#x3157;" horiz-adv-x="940" 
d="M530 445q0 22 -12 35.5t-29 20.5q-18 7 -39 8.5t-39 -0.5v-294h-381v-95h824q18 0 30 8.5t18 22.5t7.5 30.5t0.5 33.5h-380v230z" />
    <glyph glyph-name="uni3158" unicode="&#x3158;" horiz-adv-x="940" 
d="M879 284q3 0 16 2.5t24 15.5q10 12 13 31.5t-2 46.5h-133v265q0 22 -12 35.5t-29 20.5q-18 7 -39 8.5t-39 -0.5v-819h119v394h82zM395 375q0 22 -12 35.5t-29 20.5q-18 7 -39 8.5t-39 -0.5v-294h-256v-95h579q18 0 30 8.5t18 22.5t7.5 30.5t0.5 33.5h-260v230z" />
    <glyph glyph-name="uni3159" unicode="&#x3159;" horiz-adv-x="940" 
d="M862 645q0 23 -11 37t-28 21t-37.5 8t-39.5 -2v-339h-72v265q0 23 -11 37t-28 21t-37.5 8t-39.5 -2v-789h116v364h72v-384h116v755zM345 375q0 22 -12 35.5t-29 20.5q-18 7 -39 8.5t-39 -0.5v-294h-206v-95h459q18 0 30 8.5t18 22.5t7.5 30.5t0.5 33.5h-190v230z" />
    <glyph glyph-name="uni315A" unicode="&#x315a;" horiz-adv-x="940" 
d="M827 645q0 22 -12 35.5t-29 20.5q-18 7 -39 8.5t-39 -0.5v-819h119v755zM414 375q0 22 -12 35.5t-29 20.5q-18 7 -39 8.5t-39 -0.5v-294h-265v-95h594q18 0 30 8.5t18 22.5t7.5 30.5t0.5 33.5h-266v230z" />
    <glyph glyph-name="uni315B" unicode="&#x315b;" horiz-adv-x="940" 
d="M370 445q0 22 -12 35.5t-29 20.5q-18 7 -39 8.5t-39 -0.5v-294h-221v-95h824q18 0 30 8.5t18 22.5t7.5 30.5t0.5 33.5h-220v230q0 22 -12 35.5t-29 20.5q-18 7 -39 8.5t-39 -0.5v-294h-201v230z" />
    <glyph glyph-name="uni315C" unicode="&#x315c;" horiz-adv-x="940" 
d="M529 25v315h325q18 0 30 8.5t18 22.5t7.5 30.5t0.5 33.5h-880v-95h380v-315h119z" />
    <glyph glyph-name="uni315D" unicode="&#x315d;" horiz-adv-x="940" 
d="M847 645q0 22 -12 35.5t-29 20.5q-18 7 -39 8.5t-39 -0.5v-529h-170v-95h170v-195h119v755zM404 -80v320h226q18 0 30 8.5t18 22.5t7.5 30.5t0.5 33.5h-666v-95h265v-320h119z" />
    <glyph glyph-name="uni315E" unicode="&#x315e;" horiz-adv-x="940" 
d="M684 635q0 23 -11 37t-28 21t-37.5 8t-39.5 -2v-509h-150v-96h150v-184h116v725zM862 645q0 23 -11 37t-28 21t-37.5 8t-39.5 -2v-819h116v755zM344 -80v320h136q18 0 30 8.5t18 22.5t7.5 30.5t0.5 33.5h-516v-95h205v-320h119z" />
    <glyph glyph-name="uni315F" unicode="&#x315f;" horiz-adv-x="940" 
d="M404 -80v320h226q18 0 30 8.5t18 22.5t7.5 30.5t0.5 33.5h-666v-95h265v-320h119zM847 645q0 22 -12 35.5t-29 20.5q-18 7 -39 8.5t-39 -0.5v-819h119v755z" />
    <glyph glyph-name="uni3160" unicode="&#x3160;" horiz-adv-x="940" 
d="M697 25v315h157q18 0 30 8.5t18 22.5t7.5 30.5t0.5 33.5h-880v-95h213v-305h119v305h216v-315h119z" />
    <glyph glyph-name="uni3161" unicode="&#x3161;" horiz-adv-x="940" 
d="M30 235v-95h824q18 0 30 8.5t18 22.5t7.5 30.5t0.5 33.5h-880z" />
    <glyph glyph-name="uni3162" unicode="&#x3162;" horiz-adv-x="940" 
d="M827 645q0 22 -12 35.5t-29 20.5q-18 7 -39 8.5t-39 -0.5v-819h119v755zM30 145v-95h594q18 0 30 8.5t18 22.5t7.5 30.5t0.5 33.5h-650z" />
    <glyph glyph-name="uni3163" unicode="&#x3163;" horiz-adv-x="940" 
d="M527 645q0 22 -12 35.5t-29 20.5q-18 7 -39 8.5t-39 -0.5v-819h119v755z" />
    <glyph glyph-name="uni3165" unicode="&#x3165;" horiz-adv-x="940" 
d="M227 545q0 1 -0.5 5.5t-1.5 11.5q-2 6 -5 13.5t-9 15.5q-14 15 -40 19t-63 -2v-518h272q19 0 31.5 9t19.5 23q7 15 9 31.5t1 31.5h-214v360zM587 545q0 1 -0.5 5.5t-1.5 11.5q-2 6 -5 13.5t-9 15.5q-14 15 -40 19t-63 -2v-518h302q19 0 31.5 9t19.5 23q7 15 9 31.5
t1 31.5h-244v360z" />
    <glyph glyph-name="uni3166" unicode="&#x3166;" horiz-adv-x="940" 
d="M473 90h302q19 0 31 9t18 23q6 15 7 31.5t0 31.5h-239v330h230v95h-349v-520zM227 545q0 1 -0.5 5.5t-1.5 11.5q-2 6 -5 13.5t-9 15.5q-14 15 -40 19t-63 -2v-518h272q19 0 31.5 9t19.5 23q7 15 9 31.5t1 31.5h-214v360z" />
    <glyph glyph-name="uni3167" unicode="&#x3167;" horiz-adv-x="940" 
d="M717 550q0 21 -12 34.5t-31 20.5q-18 7 -40 9t-41 0v-110q0 -67 -20.5 -130t-47.5 -113q-26 -51 -52.5 -84.5t-38.5 -40.5l27 -31l7 -6q6 -8 14.5 -13.5t22.5 -5.5q6 0 15 2t20 13q21 21 51 58.5t57 88.5q33 -45 67.5 -85t58.5 -60q6 -6 13 -6.5t16 -0.5q12 2 19 7.5
t14 14.5l9 11l20 28q-12 11 -31 32.5t-42 50.5q-22 29 -46 64t-46 73q8 28 12.5 59t4.5 64v56zM227 545q0 1 -0.5 5.5t-1.5 11.5q-2 6 -5 13.5t-9 15.5q-14 15 -40 19t-63 -2v-518h262q19 0 31.5 9t19.5 23q7 15 9 31.5t1 31.5h-204v360z" />
    <glyph glyph-name="uni3168" unicode="&#x3168;" horiz-adv-x="940" 
d="M227 545q0 1 -0.5 5.5t-1.5 11.5q-2 6 -5 13.5t-9 15.5q-14 15 -40 19t-63 -2v-518h261q19 0 31.5 9t19.5 23q7 15 9 31.5t1 31.5h-203v360zM655 663l-211 -573h422zM655 385l70 -200h-140z" />
    <glyph glyph-name="uni3169" unicode="&#x3169;" horiz-adv-x="940" 
d="M282 90q15 -1 25.5 9.5t17.5 25.5q6 15 8 31.5t0 28.5h-153v125h135v300h-240v-95h135v-110h-135v-315h207zM783 550q0 21 -11.5 34.5t-28.5 20.5t-37 9t-38 0v-101q0 -44 -10 -104.5t-23 -118.5q-14 -58 -29.5 -101.5t-27.5 -51.5l32 -37q3 -4 6.5 -7.5t7.5 -6.5
q5 -3 10 -4.5t11 -1.5q9 0 18.5 2t16.5 16q12 26 24.5 59t24.5 70q13 -37 27.5 -70.5t32.5 -66.5q4 -8 10.5 -9t14.5 -1q15 2 22 8t13 15l24 38q-31 63 -55 131t-44 136q4 26 6.5 50.5t2.5 45.5v46zM570 90v520h-230v-95h125v-425h105z" />
    <glyph glyph-name="uni316A" unicode="&#x316a;" horiz-adv-x="940" 
d="M397 90q15 -1 26 9.5t18 25.5t9 31.5t0 28.5h-223v125h215v300h-334v-95h215v-110h-215v-315h289zM488 90h287q19 0 31 9t18 23q6 15 7 31.5t0 31.5h-224v330h215v95h-334v-520z" />
    <glyph glyph-name="uni316B" unicode="&#x316b;" horiz-adv-x="940" 
d="M605 131l27 -31q3 -4 6.5 -7.5t7.5 -6.5q5 -3 10 -4.5t11 -1.5q9 0 18.5 2t16.5 16q12 26 24.5 59t24.5 70q13 -37 27.5 -70.5t32.5 -66.5q4 -8 10.5 -9t14.5 -1q15 2 22 8t13 15l24 38q-31 63 -55 131t-44 136q4 26 6.5 50.5t2.5 45.5v46q0 21 -11.5 34.5t-28.5 20.5
t-37 9t-38 0v-101q0 -42 -9 -99.5t-22 -113.5q-13 -55 -27.5 -99.5t-26.5 -59.5v414q-3 48 -34.5 58.5t-70.5 5.5v-184h-60v111q0 24 -9.5 37.5t-24.5 20.5q-15 6 -33.5 6.5t-37.5 -1.5v-519h270v41zM264 90q15 -1 25.5 9.5t17.5 25.5q6 15 8 31.5t0 28.5h-155v125h135v300
h-240v-95h135v-110h-135v-315h209zM500 185h-60v155h60v-155z" />
    <glyph glyph-name="uni316C" unicode="&#x316c;" horiz-adv-x="940" 
d="M382 90q15 -1 26 9.5t18 25.5t9 31.5t0 28.5h-208v125h205v300h-324v-95h205v-110h-205v-315h274zM655 663l-211 -573h422zM655 385l70 -200h-140z" />
    <glyph glyph-name="uni316D" unicode="&#x316d;" horiz-adv-x="940" 
d="M488 260q0 -39 13 -72t37 -57q23 -24 54.5 -37.5t67.5 -13.5t67 13.5t55 37.5q23 24 36.5 57t13.5 72q0 38 -13.5 71t-36.5 57q-24 24 -55 38t-67 14t-67.5 -14t-54.5 -38q-24 -24 -37 -57t-13 -71v0zM600 260q0 34 18 60t42 26t42 -26t18 -60q0 -35 -18 -60.5t-42 -25.5
t-42 25.5t-18 60.5v0zM382 90q15 -1 26 9.5t18 25.5t9 31.5t0 28.5h-208v125h205v300h-324v-95h205v-110h-205v-315h274zM488 515h297q18 0 30 8.5t18 22.5t7.5 30.5t0.5 33.5h-353v-95z" />
    <glyph glyph-name="uni316E" unicode="&#x316e;" horiz-adv-x="940" 
d="M108 90h339v520h-339v-520zM328 185h-101v330h101v-330zM832 555q-2 24 -13 38t-28 21q-17 6 -38 6.5t-40 -1.5v-184h-101v111q0 24 -11.5 37.5t-29.5 20.5q-17 6 -38 6.5t-40 -1.5v-519h339v465zM713 185h-101v155h101v-155z" />
    <glyph glyph-name="uni316F" unicode="&#x316f;" horiz-adv-x="940" 
d="M108 90h339v520h-339v-520zM722 550q0 21 -12 34.5t-31 20.5q-18 7 -40 9t-41 0v-110q0 -67 -16.5 -130t-38.5 -113q-22 -51 -44.5 -84.5t-34.5 -40.5l27 -31l7 -6q6 -8 14.5 -13.5t22.5 -5.5q6 0 16 2t20 14q21 24 45.5 60t47.5 83q27 -47 56.5 -89.5t53.5 -62.5
q6 -6 13 -6.5t16 -0.5q12 2 19 7.5t14 14.5l9 11l20 28q-13 12 -31 36.5t-39 57.5t-42.5 71.5t-41.5 78.5q5 25 8 52.5t3 56.5v56zM328 185h-101v330h101v-330z" />
    <glyph glyph-name="uni3170" unicode="&#x3170;" horiz-adv-x="940" 
d="M108 90h339v520h-339v-520zM328 185h-101v330h101v-330zM665 664l-206 -574h412zM665 380q9 -27 17.5 -51.5t17.5 -47.5q8 -23 16.5 -47t17.5 -49h-138z" />
    <glyph glyph-name="uni3171" unicode="&#x3171;" horiz-adv-x="940" 
d="M470 -125q53 0 99 18t80 47q34 30 53.5 67.5t19.5 77.5q0 39 -19.5 76.5t-53.5 67.5q-34 29 -80 47.5t-99 18.5q-54 0 -100 -18.5t-80 -47.5q-34 -30 -53 -67.5t-19 -76.5q0 -40 19 -77.5t53 -67.5q34 -29 80 -47t100 -18v0zM470 200q24 0 48 -8t43 -22
q19 -15 30.5 -36.5t11.5 -48.5q0 -29 -11.5 -50.5t-30.5 -35.5q-19 -15 -43 -22t-48 -7q-26 0 -49.5 7t-42.5 22q-19 14 -30 35.5t-11 50.5q0 27 11 48.5t30 36.5q19 14 42.5 22t49.5 8v0zM188 345h564v375h-564v-375zM633 440h-326v185h326v-185z" />
    <glyph glyph-name="uni3172" unicode="&#x3172;" horiz-adv-x="940" 
d="M467 555q-2 24 -13 38t-28 21q-17 6 -38 6.5t-40 -1.5v-184h-121v111q0 24 -11.5 37.5t-29.5 20.5q-17 6 -38 6.5t-40 -1.5v-519h359v465zM348 185h-121v155h121v-155zM832 90v520h-324v-95h205v-425h119z" />
    <glyph glyph-name="uni3173" unicode="&#x3173;" horiz-adv-x="940" 
d="M467 555q-2 24 -13 38t-28 21q-17 6 -38 6.5t-40 -1.5v-184h-121v111q0 24 -11.5 37.5t-29.5 20.5q-17 6 -38 6.5t-40 -1.5v-519h359v465zM348 185h-121v155h121v-155zM832 610h-314v-520h272q20 0 31 9t16 23q5 15 5 31.5t-1 31.5h-204v330h195v95z" />
    <glyph glyph-name="uni3174" unicode="&#x3174;" horiz-adv-x="940" 
d="M365 129l37 -34q2 -3 4.5 -5.5t5.5 -4.5t7 -3.5t10 -1.5q9 0 17.5 2t15.5 16q14 29 28.5 65.5t28.5 77.5q17 -42 35 -78.5t37 -72.5q4 -8 10.5 -9t14.5 -1q15 2 22 8t13 15l24 38q-32 65 -59 133t-51 139q4 25 7 47.5t3 43.5v46q0 21 -11.5 34.5t-28.5 20.5t-37 9t-38 0
v-101q0 -42 -10.5 -98.5t-24.5 -111.5q-15 -55 -31.5 -99.5t-28.5 -60.5v412q-3 48 -34.5 58.5t-70.5 5.5v-184h-60v111q0 24 -9.5 37.5t-24.5 20.5q-15 6 -33.5 6.5t-37.5 -1.5v-519h270v39zM845 90v520h-230v-95h125v-425h105zM260 185h-60v155h60v-155z" />
    <glyph glyph-name="uni3175" unicode="&#x3175;" horiz-adv-x="940" 
d="M355 129l25 -29q3 -4 6.5 -7.5t7.5 -6.5q5 -3 10 -4.5t11 -1.5q9 0 18.5 2t16.5 16q12 26 24.5 59t24.5 70q13 -37 27.5 -70.5t32.5 -66.5q4 -8 10.5 -9t14.5 -1q15 2 22 8t13 15l24 38q-31 63 -55 131t-44 136q4 26 6.5 50.5t2.5 45.5v46q0 21 -11.5 34.5t-28.5 20.5
t-37 9t-38 0v-101q0 -41 -8.5 -97t-21.5 -111q-12 -55 -26.5 -99.5t-26.5 -61.5v411q-3 48 -34.5 58.5t-70.5 5.5v-184h-60v111q0 24 -9.5 37.5t-24.5 20.5q-15 6 -33.5 6.5t-37.5 -1.5v-519h270v39zM855 610h-210v-520h170q19 0 30 9t15 23q5 15 5 31.5t-1 31.5h-114v330
h105v95zM250 185h-60v155h60v-155z" />
    <glyph glyph-name="uni3176" unicode="&#x3176;" horiz-adv-x="940" 
d="M447 555q-2 24 -13 38t-28 21q-17 6 -38 6.5t-40 -1.5v-184h-101v111q0 24 -11.5 37.5t-29.5 20.5q-17 6 -38 6.5t-40 -1.5v-519h339v465zM488 610v-95h165q-15 -63 -36.5 -121.5t-47.5 -107.5q-25 -49 -52 -86.5t-52 -57.5l30 -39q5 -6 13 -13.5t20 -9.5q9 -3 18.5 -1
t21.5 14q23 22 47 56t48 76q29 -44 57.5 -77.5t47.5 -48.5q8 -5 13.5 -6t13.5 -1q12 2 19 7.5t14 14.5l6 8l26 41q-24 15 -61 64.5t-76 116.5q21 48 36 95t23 88q1 12 2 26.5t2 27.5q0 12 1 20.5l1 8.5h-300zM328 185h-101v155h101v-155z" />
    <glyph glyph-name="uni3177" unicode="&#x3177;" horiz-adv-x="940" 
d="M462 555q-2 24 -13 38t-28 21q-17 6 -38 6.5t-40 -1.5v-184h-116v111q0 24 -11.5 37.5t-29.5 20.5q-17 6 -38 6.5t-40 -1.5v-519h354v465zM343 185h-116v155h116v-155zM832 610h-324v-520h282q20 0 31 9t16 23q5 15 5 31.5t-1 31.5h-214v125h195v95h-195v110h205v95z" />
    <glyph glyph-name="uni3178" unicode="&#x3178;" horiz-adv-x="940" 
d="M470 -125q53 0 99 18t80 47q34 30 53.5 67.5t19.5 77.5q0 39 -19.5 76.5t-53.5 67.5q-34 29 -80 47.5t-99 18.5q-54 0 -100 -18.5t-80 -47.5q-34 -30 -53 -67.5t-19 -76.5q0 -40 19 -77.5t53 -67.5q34 -29 80 -47t100 -18v0zM470 200q24 0 48 -8t43 -22
q19 -15 30.5 -36.5t11.5 -48.5q0 -29 -11.5 -50.5t-30.5 -35.5q-19 -15 -43 -22t-48 -7q-26 0 -49.5 7t-42.5 22q-19 14 -30 35.5t-11 50.5q0 27 11 48.5t30 36.5q19 14 42.5 22t49.5 8v0zM752 670q-2 24 -13 38t-28 21q-17 6 -38 6.5t-40 -1.5v-114h-326v41
q0 24 -11.5 37.5t-29.5 20.5q-17 6 -38 6.5t-40 -1.5v-389h564v335zM633 430h-326v95h326v-95z" />
    <glyph glyph-name="uni3179" unicode="&#x3179;" horiz-adv-x="940" 
d="M762 670q-2 24 -13 38t-28 21q-17 6 -37.5 6.5t-39.5 -1.5v-114h-115v41q0 24 -11.5 37.5t-28.5 20.5q-18 6 -38.5 6.5t-39.5 -1.5v-104h-115v41q0 24 -11.5 37.5t-28.5 20.5q-18 6 -38.5 6.5t-39.5 -1.5v-389h584v335zM470 -125q53 0 99 18t80 47q34 30 53.5 67.5
t19.5 77.5q0 39 -19.5 76.5t-53.5 67.5q-34 29 -80 47.5t-99 18.5q-54 0 -100 -18.5t-80 -47.5q-34 -30 -53 -67.5t-19 -76.5q0 -40 19 -77.5t53 -67.5q34 -29 80 -47t100 -18v0zM470 200q24 0 48 -8t43 -22q19 -15 30.5 -36.5t11.5 -48.5q0 -29 -11.5 -50.5t-30.5 -35.5
q-19 -15 -43 -22t-48 -7q-26 0 -49.5 7t-42.5 22q-19 14 -30 35.5t-11 50.5q0 27 11 48.5t30 36.5q19 14 42.5 22t49.5 8v0zM296 525h115v-95h-115v95zM644 430h-115v95h115v-95z" />
    <glyph glyph-name="uni317A" unicode="&#x317a;" horiz-adv-x="940" 
d="M397 550q0 21 -12 34.5t-31 20.5q-18 7 -40 9t-41 0v-110q0 -67 -22 -131.5t-51 -116.5q-28 -52 -56 -87t-40 -42l34 -38q6 -8 14.5 -13.5t22.5 -5.5q6 0 15 2t20 13q22 22 55.5 64t63.5 98q34 -48 71.5 -93.5t63.5 -66.5q6 -6 13 -6.5t16 -0.5q12 2 19 7.5t14 14.5
l29 39q-13 12 -33.5 36t-44.5 56q-23 32 -48 70t-47 79q6 27 10.5 54.5t4.5 57.5v56zM832 80v530h-344v-95h225v-435h119z" />
    <glyph glyph-name="uni317B" unicode="&#x317b;" horiz-adv-x="940" 
d="M352 550q0 21 -12 34.5t-31 20.5q-18 7 -40 9t-41 0v-110q0 -68 -18 -130.5t-42 -113.5q-24 -50 -48 -83.5t-36 -40.5l34 -37q6 -8 14.5 -13.5t22.5 -5.5q6 0 16.5 3.5t19.5 12.5q21 26 47.5 64t50.5 87q30 -49 62.5 -94t57.5 -66q6 -6 13 -6.5t16 -0.5q12 2 19 7.5
t14 14.5l29 39q-13 12 -32 37t-40 58q-22 33 -44.5 72t-42.5 80q5 25 8 51.5t3 54.5v56zM632 545q0 1 -0.5 5.5t-1.5 11.5q-2 6 -5 13.5t-9 15.5q-14 15 -40 19t-63 -2v-518h257q19 0 31.5 9t19.5 23q7 15 9 31.5t1 31.5h-199v360z" />
    <glyph glyph-name="uni317C" unicode="&#x317c;" horiz-adv-x="940" 
d="M513 90h262q19 0 31 9t18 23q6 15 7 31.5t0 31.5h-199v330h190v95h-309v-520zM352 550q0 21 -12 34.5t-31 20.5q-18 7 -40 9t-41 0v-110q0 -68 -18 -130.5t-42 -113.5q-24 -50 -48 -83.5t-36 -40.5l34 -37q6 -8 14.5 -13.5t22.5 -5.5q6 0 16.5 3.5t19.5 12.5
q21 26 47.5 64t50.5 87q30 -49 62.5 -94t57.5 -66q6 -6 13 -6.5t16 -0.5q12 2 19 7.5t14 14.5l29 39q-13 12 -32 37t-40 58q-22 33 -44.5 72t-42.5 80q5 25 8 51.5t3 54.5v56z" />
    <glyph glyph-name="uni317D" unicode="&#x317d;" horiz-adv-x="940" 
d="M832 555q-2 24 -13 38t-28 21q-17 6 -38 6.5t-40 -1.5v-184h-96v111q0 24 -11.5 37.5t-29.5 20.5q-17 6 -38 6.5t-40 -1.5v-519h334v465zM347 550q0 21 -12 34.5t-31 20.5q-18 7 -40 9t-41 0v-110q0 -68 -17.5 -130.5t-40.5 -113.5q-23 -50 -46 -83.5t-35 -40.5l34 -37
q6 -8 14.5 -13.5t22.5 -5.5q6 0 16.5 3.5t19.5 12.5q20 25 45.5 62t49.5 85q28 -47 58.5 -91t54.5 -65q6 -6 13 -6.5t16 -0.5q12 2 19 7.5t14 14.5l29 39q-13 12 -31.5 37t-38.5 58q-21 33 -43 71.5t-41 79.5q5 25 8 51.5t3 55.5v56zM713 185h-96v155h96v-155z" />
    <glyph glyph-name="uni317E" unicode="&#x317e;" horiz-adv-x="940" 
d="M488 610v-95h165q-14 -59 -34 -114t-43 -103q-24 -47 -49 -84t-49 -60q-27 31 -66.5 96t-75.5 137q5 25 8 51.5t3 55.5v56q0 21 -12 34.5t-31 20.5q-18 7 -40 9t-41 0v-110q0 -68 -17.5 -130.5t-40.5 -113.5q-23 -50 -46 -83.5t-35 -40.5l34 -37q6 -8 14.5 -13.5
t22.5 -5.5q6 0 16.5 3.5t19.5 12.5q20 25 45.5 62t49.5 85q28 -47 58.5 -91t54.5 -65q6 -6 13 -6.5t16 -0.5q12 2 19 7.5t14 14.5l17 23l17 -22q5 -6 13 -13.5t20 -9.5q9 -3 18.5 -1t21.5 14q23 22 47.5 56t48.5 74q29 -42 57 -75.5t47 -48.5q8 -5 13.5 -6t13.5 -1
q12 2 19 7.5t14 14.5l1.5 2t4.5 7t9 14t17 26q-24 15 -60.5 63.5t-74.5 115.5q21 48 36 95.5t21 89.5q1 12 2.5 26.5t1.5 27.5q1 12 1.5 20.5l0.5 8.5h-300z" />
    <glyph glyph-name="uni317F" unicode="&#x317f;" horiz-adv-x="940" 
d="M470 656l-288 -586h576zM470 425q16 -36 31.5 -68t30.5 -63t30.5 -63t32.5 -66h-250z" />
    <glyph glyph-name="uni3180" unicode="&#x3180;" horiz-adv-x="940" 
d="M93 350q0 -62 13.5 -111.5t37.5 -85.5q24 -35 57.5 -54t73.5 -19q39 0 72.5 19t57.5 54q24 36 38 85.5t14 111.5q0 61 -14 110.5t-38 85.5q-24 35 -57.5 54.5t-72.5 19.5q-40 0 -73.5 -19.5t-57.5 -54.5q-24 -36 -37.5 -85.5t-13.5 -110.5v0zM210 350q0 85 20.5 130
t44.5 45q22 0 43.5 -45t21.5 -130q0 -86 -21.5 -130.5t-43.5 -44.5q-24 0 -44.5 44.5t-20.5 130.5v0zM493 350q0 -62 13.5 -111.5t37.5 -85.5q24 -35 57.5 -54t73.5 -19q39 0 72.5 19t57.5 54q24 36 38 85.5t14 111.5q0 61 -14 110.5t-38 85.5q-24 35 -57.5 54.5t-72.5 19.5
q-40 0 -73.5 -19.5t-57.5 -54.5q-24 -36 -37.5 -85.5t-13.5 -110.5v0zM610 350q0 85 20.5 130t44.5 45q22 0 43.5 -45t21.5 -130q0 -86 -21.5 -130.5t-43.5 -44.5q-24 0 -44.5 44.5t-20.5 130.5v0z" />
    <glyph glyph-name="uni3181" unicode="&#x3181;" horiz-adv-x="940" 
d="M188 210q0 -58 22 -105.5t60 -82.5q38 -34 89.5 -53t110.5 -19q58 0 109.5 19t89.5 53q38 35 60.5 82.5t22.5 105.5q0 49 -17 92t-47 76t-70.5 55t-87.5 31v131q0 22 -12 35.5t-29 20.5q-18 7 -39 8.5t-39 -0.5v-195q-48 -9 -89 -31t-71 -55t-46.5 -76t-16.5 -92v0z
M307 210q0 35 13 65t35 52t52 35t63 13t62.5 -13t51.5 -35t35.5 -52t13.5 -65q0 -39 -13.5 -70t-35.5 -52t-51.5 -32t-62.5 -11t-63 11t-52 32t-35 52t-13 70v0z" />
    <glyph glyph-name="uni3182" unicode="&#x3182;" horiz-adv-x="940" 
d="M98 295q0 -50 13.5 -92.5t38.5 -72.5q25 -31 59 -48t76 -17q41 0 75.5 17t58.5 48q25 30 39 72.5t14 92.5q0 80 -35.5 139.5t-92.5 80.5v50q0 22 -12 35.5t-29 20.5q-18 7 -39 8.5t-39 -0.5v-115q-58 -21 -92.5 -80t-34.5 -139v0zM722 550q0 21 -12 34.5t-31 20.5
q-18 7 -40 9t-41 0v-110q0 -67 -16.5 -130t-38.5 -113q-22 -51 -44.5 -84.5t-34.5 -40.5l34 -37q6 -8 14.5 -13.5t22.5 -5.5q6 0 16 2t20 14q21 24 45.5 60t47.5 83q27 -47 56.5 -89.5t53.5 -62.5q6 -6 13 -6.5t16 -0.5q12 2 19 7.5t14 14.5l29 39q-13 12 -31 36.5t-39 57.5
t-42.5 71.5t-41.5 78.5q5 25 8 52.5t3 56.5v56zM212 295q0 60 24.5 97.5t48.5 37.5q23 0 48 -37.5t25 -97.5q0 -61 -25 -98.5t-48 -37.5q-24 0 -48.5 37.5t-24.5 98.5v0z" />
    <glyph glyph-name="uni3183" unicode="&#x3183;" horiz-adv-x="940" 
d="M93 295q0 -50 13.5 -92.5t38.5 -72.5q25 -31 59 -48t76 -17q41 0 75.5 17t58.5 48q25 30 39 72.5t14 92.5q0 80 -35.5 139.5t-92.5 80.5v55q0 22 -12 35.5t-29 20.5q-18 7 -39 8.5t-39 -0.5v-120q-58 -21 -92.5 -80t-34.5 -139v0zM655 664l-206 -574h412zM207 295
q0 60 24.5 97.5t48.5 37.5q23 0 48 -37.5t25 -97.5q0 -61 -25 -98.5t-48 -37.5q-24 0 -48.5 37.5t-24.5 98.5v0zM655 380q9 -27 17.5 -51.5t17.5 -47.5q8 -23 16.5 -47t17.5 -49h-138z" />
    <glyph glyph-name="uni3184" unicode="&#x3184;" horiz-adv-x="940" 
d="M667 625h85v95h-564v-95h95v-190h-105v-95h527q18 0 30 8.5t18 22.5t7.5 30.5t0.5 33.5h-107q6 17 9.5 35t3.5 40v115zM470 -125q53 0 99 18t80 47q34 30 53.5 67.5t19.5 77.5q0 39 -19.5 76.5t-53.5 67.5q-34 29 -80 47.5t-99 18.5q-54 0 -100 -18.5t-80 -47.5
q-34 -30 -53 -67.5t-19 -76.5q0 -40 19 -77.5t53 -67.5q34 -29 80 -47t100 -18v0zM470 200q24 0 48 -8t43 -22q19 -15 30.5 -36.5t11.5 -48.5q0 -29 -11.5 -50.5t-30.5 -35.5q-19 -15 -43 -22t-48 -7q-26 0 -49.5 7t-42.5 22q-19 14 -30 35.5t-11 50.5q0 27 11 48.5t30 36.5
q19 14 42.5 22t49.5 8v0zM402 435v190h146v-105q0 -23 -3.5 -43.5t-10.5 -41.5h-132z" />
    <glyph glyph-name="uni3185" unicode="&#x3185;" horiz-adv-x="940" 
d="M488 250q0 -39 13 -72t37 -57q23 -24 54.5 -37.5t67.5 -13.5t67 13.5t55 37.5q23 24 36.5 57t13.5 72q0 38 -13.5 71t-36.5 57q-24 24 -55 38t-67 14t-67.5 -14t-54.5 -38q-24 -24 -37 -57t-13 -71v0zM595 250q0 37 19.5 64.5t45.5 27.5q25 0 45 -27.5t20 -64.5
q0 -38 -20 -65t-45 -27q-26 0 -45.5 27t-19.5 65v0zM488 515h297q18 0 30 8.5t18 22.5t7.5 30.5t0.5 33.5h-353v-95zM108 515h297q18 0 30 8.5t18 22.5t7.5 30.5t0.5 33.5h-353v-95zM108 250q0 -39 13 -72t37 -57q23 -24 54.5 -37.5t67.5 -13.5t67 13.5t55 37.5
q23 24 36.5 57t13.5 72q0 38 -13.5 71t-36.5 57q-24 24 -55 38t-67 14t-67.5 -14t-54.5 -38q-24 -24 -37 -57t-13 -71v0zM215 250q0 37 19.5 64.5t45.5 27.5q25 0 45 -27.5t20 -64.5q0 -38 -20 -65t-45 -27q-26 0 -45.5 27t-19.5 65v0z" />
    <glyph glyph-name="uni3186" unicode="&#x3186;" horiz-adv-x="940" 
d="M208 180q0 -46 21.5 -88t58.5 -73q36 -32 83.5 -50.5t98.5 -18.5q50 0 97.5 18.5t83.5 50.5q37 31 59 73t22 88q0 45 -22 87t-59 73q-36 32 -83.5 51t-97.5 19q-51 0 -98.5 -19t-83.5 -51q-37 -31 -58.5 -73t-21.5 -87v0zM327 180q0 27 11.5 51.5t30.5 43.5q20 18 46 29
t55 11q28 0 54 -11t46 -29q19 -19 31 -43.5t12 -51.5q0 -28 -12 -52.5t-31 -43.5q-20 -18 -46 -28.5t-54 -10.5q-29 0 -55 10.5t-46 28.5q-19 19 -30.5 43.5t-11.5 52.5v0zM705 515q18 0 30 8.5t18 22.5t7.5 30.5t0.5 33.5h-573v-95h517z" />
    <glyph glyph-name="uni3187" unicode="&#x3187;" horiz-adv-x="940" 
d="M520 375q0 22 -12 35.5t-29 20.5q-18 7 -39 8.5t-39 -0.5v-294h-101v230q0 22 -12 35.5t-29 20.5q-18 7 -39 8.5t-39 -0.5v-294h-161v-95h585q18 0 30 8.5t18 22.5t7.5 30.5t0.5 33.5h-141v230zM890 399q3 0 16 2.5t24 15.5q10 12 13 31.5t-2 46.5h-134v150
q0 22 -12 35.5t-29 20.5q-18 7 -39 8.5t-39 -0.5v-819h119v259h83q3 0 16 2.5t24 15.5q10 12 13 31.5t-2 46.5h-134v154h83z" />
    <glyph glyph-name="uni3188" unicode="&#x3188;" horiz-adv-x="940" 
d="M862 645q0 23 -11 37t-28 21t-37.5 8t-39.5 -2v-214h-72v140q0 23 -11 37t-28 21t-37.5 8t-39.5 -2v-789h116v240h72v-260h116v755zM454 375q0 22 -12 35.5t-29 20.5q-18 7 -39 8.5t-39 -0.5v-294h-71v230q0 22 -12 35.5t-29 20.5q-18 7 -39 8.5t-39 -0.5v-294h-125v-95
h459q18 0 30 8.5t18 22.5t7.5 30.5t0.5 33.5h-81v230zM674 400h72v-155h-72v155z" />
    <glyph glyph-name="uni3189" unicode="&#x3189;" horiz-adv-x="940" 
d="M540 375q0 22 -12 35.5t-29 20.5q-18 7 -39 8.5t-39 -0.5v-294h-101v230q0 22 -12 35.5t-29 20.5q-18 7 -39 8.5t-39 -0.5v-294h-171v-95h614q18 0 30 8.5t18 22.5t7.5 30.5t0.5 33.5h-160v230zM847 645q0 22 -12 35.5t-29 20.5q-18 7 -39 8.5t-39 -0.5v-819h119v755z
" />
    <glyph glyph-name="uni318A" unicode="&#x318a;" horiz-adv-x="940" 
d="M512 -90v330h113q18 0 30 8.5t18 22.5t7.5 30.5t0.5 33.5h-661v-95h150v-330h119v330h104v-330h119zM847 645q0 22 -12 35.5t-29 20.5q-18 7 -39 8.5t-39 -0.5v-499h-150v-95h150v-35h-150v-95h150v-95h119v755z" />
    <glyph glyph-name="uni318B" unicode="&#x318b;" horiz-adv-x="940" 
d="M417 -90v330h58q18 0 30 8.5t18 22.5t7.5 30.5t0.5 33.5h-511v-95h88v-330h119v330h71v-330h119zM687 635q0 23 -11 37t-28 21t-37.5 8t-39.5 -2v-489h-123v-95h123v-35h-123v-95h123v-75h116v725zM862 645q0 23 -11 37t-28 21t-37.5 8t-39.5 -2v-819h116v755z" />
    <glyph glyph-name="uni318C" unicode="&#x318c;" horiz-adv-x="940" 
d="M522 -90v330h103q18 0 30 8.5t18 22.5t7.5 30.5t0.5 33.5h-661v-95h150v-330h119v330h114v-330h119zM847 645q0 22 -12 35.5t-29 20.5q-18 7 -39 8.5t-39 -0.5v-819h119v755z" />
    <glyph glyph-name="uni318D" unicode="&#x318d;" horiz-adv-x="940" 
d="M390 320q0 -32 24 -56t56 -24q31 0 55.5 24t24.5 56q0 31 -24.5 55.5t-55.5 24.5q-32 0 -56 -24.5t-24 -55.5v0z" />
    <glyph glyph-name="uni318E" unicode="&#x318e;" horiz-adv-x="940" 
d="M632 645q0 22 -12 35.5t-29 20.5q-18 7 -39 8.5t-39 -0.5v-819h119v755zM285 320q0 -32 24 -56t56 -24q31 0 55.5 24t24.5 56q0 31 -24.5 55.5t-55.5 24.5q-32 0 -56 -24.5t-24 -55.5v0z" />
    <glyph glyph-name="uni2170" unicode="&#x2170;" horiz-adv-x="940" 
d="M393 608q0 -32 20.5 -52.5t51.5 -20.5t51.5 20.5t20.5 52.5q0 30 -20.5 51t-51.5 21t-51.5 -21t-20.5 -51v0zM379 450v-59q14 0 26 -1.5t12 -4.5v-379q0 -3 -12 -5t-26 -2v-59h182v59q-15 0 -26.5 2t-11.5 5v444h-144z" />
    <glyph glyph-name="uni2171" unicode="&#x2171;" horiz-adv-x="940" 
d="M302 608q0 -32 20.5 -52.5t51.5 -20.5q30 0 51 20.5t21 52.5q0 30 -21 51t-51 21q-31 0 -51.5 -21t-20.5 -51v0zM287 450v-59q15 0 27 -1.5t12 -4.5v-379q0 -3 -12 -5t-27 -2v-59h183v59q-15 0 -26.5 2t-11.5 5v444h-145zM494 608q0 -32 20.5 -52.5t51.5 -20.5t52 20.5
t21 52.5q0 30 -21 51t-52 21t-51.5 -21t-20.5 -51v0zM480 450v-59q14 0 26 -1.5t12 -4.5v-379q0 -3 -12 -5t-26 -2v-59h183v59q-15 0 -27 2t-12 5v444h-144z" />
    <glyph glyph-name="uni2172" unicode="&#x2172;" horiz-adv-x="940" 
d="M210 450v-59q15 0 27 -1.5t12 -4.5v-379q0 -3 -12 -5t-27 -2v-59h530v59q-15 0 -27 2t-12 5v444h-144v-59q14 0 26 -1.5t12 -4.5v-379q0 -3 -9.5 -5t-21.5 -2q-15 0 -25.5 2t-10.5 5v444h-144v-59q14 0 26 -1.5t12 -4.5v-379q0 -3 -11 -5t-25 -2q-13 0 -22 2t-9 5v444
h-145zM571 608q0 -32 20.5 -52.5t51.5 -20.5t51.5 20.5t20.5 52.5q0 30 -20.5 51t-51.5 21t-51.5 -21t-20.5 -51v0zM398 608q0 -32 20.5 -52.5t51.5 -20.5t51.5 20.5t20.5 52.5q0 30 -20.5 51t-51.5 21t-51.5 -21t-20.5 -51v0zM225 608q0 -32 20.5 -52.5t51.5 -20.5
q30 0 51 20.5t21 52.5q0 30 -21 51t-51 21q-31 0 -51.5 -21t-20.5 -51v0z" />
    <glyph glyph-name="uni2173" unicode="&#x2173;" horiz-adv-x="940" 
d="M177 608q0 -32 20 -52.5t52 -20.5q30 0 51 20.5t21 52.5q0 30 -21 51t-51 21q-32 0 -52 -21t-20 -51v0zM162 450v-59q14 0 26.5 -1.5t12.5 -4.5v-379q0 -3 -12.5 -5t-26.5 -2v-59h183v59q-15 0 -27 2t-12 5v444h-144zM463 390l7.5 0.5t16.5 0.5v59h-171v-59q9 0 22 -1.5
t18 -7.5l148 -442h86q18 53 36 109t37 113q19 56 37.5 112t37.5 110v-2q3 6 17 7.5t23 1.5v59h-171v-59q8 0 15 -0.5t9 -1.5l-84 -271z" />
    <glyph glyph-name="uni2174" unicode="&#x2174;" horiz-adv-x="940" 
d="M361 389l6.5 0.5t15.5 0.5v60h-173v-59q9 0 23 -2t19 -8l-1 1l177 -442h84q22 53 44 108.5t45 112.5l44 112t44 110v-1q4 6 17 7.5t24 1.5v59h-173v-60q6 0 13 -0.5t9 -0.5q-14 -34 -28 -70.5t-27 -73.5q-14 -37 -27 -74t-26 -71z" />
    <glyph glyph-name="uni2175" unicode="&#x2175;" horiz-adv-x="940" 
d="M300 390l7.5 0.5t16.5 0.5v59h-171v-59q8 0 21 -1.5t19 -7.5l147 -442h87q18 53 36 109t37 113q19 56 37.5 112t37.5 110v-2q3 6 16.5 7.5t22.5 1.5q15 0 27 -1.5t12 -4.5v-379q0 -3 -12 -5t-27 -2v-59h183v59q-15 0 -26.5 2t-11.5 5v444h-316v-59q9 0 15.5 -0.5
t8.5 -1.5q-11 -33 -21.5 -67t-21.5 -69l-20 -68t-20 -67zM629 608q0 -32 20.5 -52.5t51.5 -20.5q30 0 51 20.5t21 52.5q0 30 -21 51t-51 21q-31 0 -51.5 -21t-20.5 -51v0z" />
    <glyph glyph-name="uni2176" unicode="&#x2176;" horiz-adv-x="940" 
d="M652 450v-59q13 0 24.5 -1.5t11.5 -4.5v-379q0 -3 -8 -5t-19 -2q-12 0 -18 2t-6 5v444h-292v-59q7 0 13 -1t9 -1l-67 -255l-68 255q1 0 7.5 1t15.5 1v59h-165v-59q10 0 20.5 -1t16.5 -6l130 -444h85q6 24 16 56.5t26 83.5q15 51 37 124.5t52 180.5q3 4 14.5 5t21.5 1
q10 -1 18 -2.5t8 -3.5v-379q0 -3 -11.5 -5t-25.5 -2v-59h329v59q-14 0 -25.5 2t-11.5 5v444h-138zM665 608q0 -32 20.5 -52.5t48.5 -20.5q30 0 50 20.5t20 52.5q0 30 -20 51t-50 21q-28 0 -48.5 -21t-20.5 -51v0zM512 608q0 -32 20.5 -52.5t48.5 -20.5q30 0 49.5 20.5
t19.5 52.5q0 30 -19.5 51t-49.5 21q-28 0 -48.5 -21t-20.5 -51v0z" />
    <glyph glyph-name="uni2177" unicode="&#x2177;" horiz-adv-x="940" 
d="M556 454v-59q12 0 22.5 -2t10.5 -5v-379q0 -3 -5.5 -4.5t-14.5 -1.5q-13 0 -20.5 1.5t-7.5 4.5v445h-275v-60h8.5t7.5 -1t3.5 -3.5t-0.5 -7.5q-3 -9 -8.5 -38t-12.5 -64t-13 -68.5t-9 -49.5l-46 231q1 0 7.5 0.5t15.5 0.5v60h-159v-59q7 0 19 -2t18 -7l103 -442h84
q2 8 6.5 28.5t11.5 48.5q7 29 15 63.5t17 70.5q8 36 16.5 71.5t15.5 66.5t13 55t9 38q2 4 9.5 6t16.5 3q11 -1 20 -3t9 -4v-379q0 -3 -12 -4.5t-24 -1.5v-59h464v59q-14 0 -24.5 1.5t-10.5 4.5v445h-133v-59q13 0 23.5 -2t10.5 -5v-379q0 -3 -6 -4.5t-15 -1.5
q-13 0 -20.5 1.5t-7.5 4.5v445h-132zM715 576q0 -31 19.5 -51.5t47.5 -20.5q29 0 48 20.5t19 51.5q0 30 -19 51t-48 21q-28 0 -47.5 -21t-19.5 -51v0zM567 576q0 -31 19.5 -51.5t48.5 -20.5q28 0 47 20.5t19 51.5q0 30 -19 51t-47 21q-29 0 -48.5 -21t-19.5 -51v0zM420 576
q0 -31 20 -51.5t47 -20.5q29 0 48 20.5t19 51.5q0 30 -19 51t-48 21q-27 0 -47 -21t-20 -51v0z" />
    <glyph glyph-name="uni2178" unicode="&#x2178;" horiz-adv-x="940" 
d="M624 215q12 19 24 40l24 42t24.5 42t25.5 41q7 6 24 10.5t33 4.5v59h-185v-59q9 0 14.5 -1t7.5 -2l-49 -84q-6 9 -11.5 19.5t-11.5 21.5t-12 21.5t-12 21.5q1 1 5 2t16 1v59h-185v-59q15 0 32 -5t25 -11q23 -42 48 -83.5t50 -80.5q-28 -48 -57.5 -98t-58.5 -98
q-8 -6 -23.5 -11t-29.5 -5t-24.5 2t-10.5 5v444h-140v-59q13 0 25 -1.5t12 -4.5v-379q0 -3 -12 -5t-25 -2v-59h356v59q-11 0 -15.5 1t-5.5 3q8 13 16 27.5t16 29.5q9 14 17 29t16 29l31 -53q4 -8 8.5 -15.5t8.5 -15.5q5 -9 9.5 -16.5t9.5 -14.5q-2 -3 -6 -3.5t-16 -0.5v-59
h185v59q-17 0 -34.5 4.5t-23.5 11.5zM181 596q0 -32 20.5 -52.5t49.5 -20.5q27 0 48 20.5t21 52.5q0 30 -21 51t-48 21q-29 0 -49.5 -21t-20.5 -51v0z" />
    <glyph glyph-name="uni2179" unicode="&#x2179;" horiz-adv-x="940" 
d="M529 208q14 19 29 40t31 42l30 42l30 42q5 6 23.5 11.5t37.5 5.5v59h-192v-59q10 0 14.5 -1.5l7.5 -2.5q-9 -11 -17 -22t-15 -22q-8 -12 -15.5 -23t-15.5 -23l-7 -10q-9 11 -18 24l-18 26t-17.5 26t-16.5 25q1 1 5.5 2t16.5 1v59h-192v-59q17 0 35 -5.5t27 -11.5
q13 -20 28 -41.5t30 -42.5q15 -22 29.5 -42.5t29.5 -39.5l-34 -48t-35 -49q-17 -24 -34.5 -48.5t-33.5 -46.5q-6 -7 -26 -12t-36 -5v-59h193v59q-11 0 -16 1t-6 3q11 14 22 30l22 32l22 32t23 31q11 -16 22 -31.5t22 -31.5t22.5 -31.5t23.5 -30.5q-1 -2 -6 -3t-17 -1v-59
h193v59q-17 0 -35.5 5t-26.5 12z" />
    <glyph glyph-name="uni2160" unicode="&#x2160;" horiz-adv-x="940" 
d="M525 591q0 2 14 4t29 2v63h-196v-63q14 0 28.5 -2t14.5 -4v-582q0 -3 -14.5 -4.5t-28.5 -1.5v-63h196v63q-15 0 -29 1.5t-14 4.5v582z" />
    <glyph glyph-name="uni2161" unicode="&#x2161;" horiz-adv-x="940" 
d="M425 592q0 2 12 3.5t27 1.5v63h-189v-63q14 0 27 -1.5t13 -3.5v-584q0 -3 -13 -4t-27 -1v-63h189v63q-15 0 -27 1t-12 4v584zM625 592q0 2 12.5 3.5t27.5 1.5v63h-189v-63q14 0 26.5 -1.5t12.5 -3.5v-584q0 -3 -12.5 -4t-26.5 -1v-63h189v63q-15 0 -27.5 1t-12.5 4v584z
" />
    <glyph glyph-name="uni2162" unicode="&#x2162;" horiz-adv-x="940" 
d="M701 592q0 2 12 3.5t27 1.5v63h-540v-63q14 0 26.5 -1.5t12.5 -3.5v-584q0 -3 -12.5 -4t-26.5 -1v-63h540v63q-15 0 -27 1t-12 4v584zM349 592q0 2 9 3t22 2q14 0 24.5 -1.5t10.5 -3.5v-584q0 -3 -10.5 -4t-24.5 -1q-13 0 -22 1t-9 4v584zM525 592q0 2 10 3.5t25 1.5
q12 -1 21.5 -2t9.5 -3v-584q0 -3 -9.5 -4t-21.5 -1q-15 0 -25 1t-10 4v584z" />
    <glyph glyph-name="uni2163" unicode="&#x2163;" horiz-adv-x="940" 
d="M264 592q0 1 4.5 2t13.5 2q8 -1 16.5 -3.5t13.5 -5.5l196 -647h89q24 73 49.5 156t50.5 168t49.5 168t48.5 158q4 5 16.5 6t23.5 1v63h-176v-64h7.5h6.5h5h3q-16 -51 -32.5 -110t-32.5 -119q-16 -61 -31.5 -120.5t-30.5 -111.5l-130 462q1 -1 7 -1h15v64h-331v-63
q14 0 26.5 -1.5t12.5 -3.5v-584q0 -3 -12.5 -4t-26.5 -1v-63h188v63q-15 0 -27 1t-12 4v584z" />
    <glyph glyph-name="uni2164" unicode="&#x2164;" horiz-adv-x="940" 
d="M327 660h-178v-63q9 0 23 -2t19 -8l-1 3l236 -650h88q28 73 57.5 156.5t59.5 168.5q29 84 59 167t60 156l-1 -1q3 6 17.5 8t24.5 2v63h-178v-64q4 0 7.5 -0.5t6.5 -0.5h5t3 1q-22 -54 -43 -115t-41 -124t-40.5 -125.5t-39.5 -117.5l-167 482q0 -1 2 -1h5t7 0.5t9 0.5v64z
" />
    <glyph glyph-name="uni2165" unicode="&#x2165;" horiz-adv-x="940" 
d="M681 8q0 -3 -12 -4t-27 -1v-63h188v63q-15 0 -27 1t-12 4v584q0 2 12 3.5t27 1.5v63h-331v-64h13.5t8.5 1l-130 -462q-15 49 -31 108.5t-32 121.5t-32.5 121.5t-31.5 109.5h22v64h-176v-63q9 0 21.5 -2.5t18.5 -6.5q23 -74 47.5 -157t49.5 -167q25 -85 50.5 -168
t50.5 -156h89q24 79 48.5 160.5t49.5 163.5q24 81 48.5 162.5t49.5 161.5q3 3 10 5t16 3q9 -1 15.5 -2t6.5 -2v-584z" />
    <glyph glyph-name="uni2166" unicode="&#x2166;" horiz-adv-x="940" 
d="M311 154q-14 48 -26.5 105t-24.5 116q-12 58 -24.5 115.5t-25.5 105.5q0 2 1.5 2.5t4.5 -0.5q2 -1 5.5 -1.5t7.5 -0.5v64h-169v-63q9 0 20.5 -1t17.5 -6l168 -650h89q21 72 42 155.5t42 169.5t42.5 169.5t43.5 157.5q1 1 4.5 2t7.5 2q6 -1 9.5 -2.5l3.5 -1.5v-584
q0 -3 -12 -4t-25 -1v-63h337v63q-14 0 -25.5 1t-11.5 4v584q0 2 11.5 3.5t25.5 1.5v63h-457v-64h7.5h5.5h5h3zM706 8q0 -3 -6.5 -4t-15.5 -1q-12 0 -20 1t-8 4v584q0 2 8 3t20 2q9 -1 15.5 -2.5t6.5 -2.5v-584z" />
    <glyph glyph-name="uni2167" unicode="&#x2167;" horiz-adv-x="940" 
d="M252 198q-9 43 -17.5 93.5t-16.5 102.5q-9 52 -17.5 103.5t-16.5 98.5q0 2 1.5 2.5t4.5 -0.5q2 -1 5.5 -1.5t7.5 -0.5v64h-163v-63q8 0 19.5 -2t17.5 -6l132 -649h89q16 73 32.5 156.5t33.5 169.5q17 85 33.5 168.5t33.5 157.5q0 1 2.5 2t5.5 2q5 -1 9 -2.5l4 -1.5v-584
q0 -3 -11.5 -4t-23.5 -1v-63h453v63q-14 0 -24.5 1t-10.5 4v584q0 2 10.5 3.5t24.5 1.5v63h-566v-64h13.5t6.5 1zM592 8q0 -3 -5.5 -4t-15.5 -1q-9 0 -12.5 1t-3.5 4v584q0 1 5 2.5t14 2.5q9 -1 13.5 -2.5t4.5 -2.5v-584zM695 592q0 1 5 2.5t14 2.5q9 -1 13 -2.5t4 -2.5
v-584q0 -3 -5.5 -4t-14.5 -1t-12.5 1t-3.5 4v584z" />
    <glyph glyph-name="uni2168" unicode="&#x2168;" horiz-adv-x="940" 
d="M467 595l5.5 1t17.5 1v63h-370v-63q13 0 26 -1.5t13 -3.5v-584q0 -3 -13 -4t-26 -1v-63h341v63q-10 0 -15 0.5t-7 1.5l28 54l28 54l28 54t28 55q14 -26 27 -53.5t26 -54.5q13 -28 26.5 -55.5t30.5 -53.5q-2 -1 -8.5 -1.5t-13.5 -0.5v-63h189v63q-18 0 -35.5 4t-23.5 13
v-1q-20 33 -40.5 72t-40.5 78q-20 40 -40 79t-39 74l134 259q8 6 25.5 11t32.5 5v63h-189v-63q11 0 16 -0.5t6 -1.5l-83 -169zM266 592q0 1 9.5 2.5t22.5 2.5q16 0 35 -6t25 -12l-1 2q17 -30 33.5 -62.5t32.5 -65.5q16 -34 33 -67t35 -63l-163 -305l1 1q-5 -8 -18 -11.5
t-26 -4.5q-9 0 -14 1.5t-5 3.5v584z" />
    <glyph glyph-name="uni2169" unicode="&#x2169;" horiz-adv-x="940" 
d="M362 596q1 0 6 0.5t17 0.5v63h-197v-63q17 0 35.5 -5.5t26.5 -11.5q19 -30 39 -63.5t40 -67.5q19 -34 39 -67.5t40 -62.5q-24 -39 -48 -76t-47 -74q-23 -38 -46.5 -75t-46.5 -75v1q-5 -7 -24 -12t-37 -5v-63h197v63h-14.5t-7.5 1q16 28 33 56t35 56q17 28 34 55.5
t34 56.5q18 -30 34.5 -58t33.5 -55q16 -27 33 -54.5t35 -56.5q-2 -1 -6 -1h-16v-63h197v63q-18 0 -35.5 5t-26.5 11l-188 301l160 261v-1q4 6 23 11.5t38 5.5v63h-197v-63q10 0 15 -1t8 -1q-14 -24 -27.5 -46.5t-26.5 -44.5q-14 -23 -27.5 -45.5t-26.5 -45.5z" />
    <glyph glyph-name="Alpha" unicode="&#x391;" horiz-adv-x="740" 
d="M429 643q-111 -198 -176 -315.5t-99 -180.5t-46 -84t-17 -26q-5 -6 -9.5 -11.5t-9.5 -9.5q-4 -4 -10 -6.5t-14 -2.5q-8 -1 -20.5 -1h-25.5l-14 -66h250q0 3 1.5 7t3.5 12q3 7 6 18.5t8 28.5h-56q-16 0 -19.5 6t3.5 17q9 17 18.5 33t19.5 33q9 16 18.5 33t18.5 37h242
l25 -137l-1 1q3 -12 -1.5 -17t-16.5 -5q-8 -1 -20.5 -1h-25.5q-2 -16 -4 -33t-4 -33h258q1 9 2.5 16.5t2.5 15.5q2 7 3 15t2 19h-28.5t-20.5 1q-14 0 -21.5 4t-9.5 22q-30 146 -60 303t-57 304q-6 10 -19.5 16.5t-31.5 6.5q-15 0 -26.5 -5.5t-18.5 -14.5v0zM487 235h-189
q16 30 33 61.5t35 64.5l36 64t36 65z" />
    <glyph glyph-name="Beta" unicode="&#x392;" horiz-adv-x="750" 
d="M302 -60q49 0 105.5 7t107.5 28q51 22 88.5 60.5t49.5 101.5q1 8 2 19t1 20q0 51 -35.5 84t-80.5 54q54 21 88.5 64t46.5 96q8 42 -9 82.5t-46 64.5q-29 23 -73.5 31t-86.5 8h-329q-3 -17 -6 -33.5t-4 -33.5q13 0 30 -1t26 -1q15 0 25 -5.5t8 -25.5q-6 -32 -13 -68.5
t-18 -93.5t-26.5 -142.5t-39.5 -215.5q-3 -18 -10 -24t-23 -7q-10 -2 -25 -2h-33q-3 -10 -6 -18l-6 -16l-6 -16t-6 -17h304zM326 556q2 14 4.5 21.5t7.5 10.5q4 4 13 4.5t24 0.5q54 0 93 -4.5t58 -22.5q16 -10 25 -27t9 -41q0 -7 -1 -14.5t-2 -13.5q-6 -41 -40 -70.5
t-70 -42.5q-22 -9 -58.5 -11.5t-71.5 -2.5h-32zM273 275h88q21 0 51.5 -2.5t57.5 -11.5q28 -9 47 -26.5t17 -48.5q-1 -5 -2 -10.5t-1 -10.5q-1 -5 -1.5 -10.5t-0.5 -10.5q-6 -30 -23 -53t-41 -39q-24 -17 -52.5 -27t-56.5 -14q-19 -3 -41.5 -3.5t-47.5 -0.5q-24 0 -33 3
t-4 24z" />
    <glyph glyph-name="Gamma" unicode="&#x393;" horiz-adv-x="740" 
d="M120 64v1q-7 -33 -14.5 -41.5t-39.5 -14.5q-9 -2 -22.5 -2h-30.5l-12 -67h311l9 67h-33.5t-24.5 2q-12 0 -18 3.5t-8 10.5q-2 6 -1 14.5t3 20.5l89 502q3 23 11.5 28t36.5 5q84 0 136 -6.5t69 -18.5q12 -9 18.5 -39t6.5 -83q0 -4 -0.5 -8t-0.5 -10v-13v-19h73
q7 49 14.5 105.5t15.5 116.5q0 18 -11 30t-23 12h-545l-19 -67q14 0 31.5 -1t28.5 -1q15 0 25.5 -7t12.5 -25z" />
    <glyph glyph-name="uni0394" unicode="&#x394;" horiz-adv-x="660" 
d="M486 31v1q3 -15 -9 -18t-27 -3h-298q-8 -1 -10.5 0.5t-2.5 4.5t1.5 7t3.5 10l250 444zM482 632q-3 16 -16.5 24t-28.5 8t-31 -7.5t-25 -20.5q-41 -74 -82.5 -149t-82.5 -151q-42 -75 -84 -149.5t-83 -146.5q-9 -16 -14.5 -31.5t-5.5 -25.5q0 -21 16.5 -32t55.5 -11h462
q29 0 39.5 17t10.5 38q0 10 -1.5 20.5t-2.5 19.5z" />
    <glyph glyph-name="Epsilon" unicode="&#x395;" horiz-adv-x="750" 
d="M590 202q-24 -72 -44.5 -115.5t-40.5 -53.5q-24 -12 -83 -18t-158 -6q-26 0 -30.5 5t-1.5 23v-1l40 236q45 0 74 -3.5t39 -8.5q6 -4 9 -20.5t3 -43.5q0 -8 -1 -20.5t-1 -22.5h65q6 39 12.5 76.5t13.5 75.5q7 37 14 75t14 78h-63q-15 -43 -28 -70.5t-25 -33.5
q-10 -6 -38 -10t-73 -4v1l17 107q1 12 3 24t4 25q2 12 4 24.5t4 24.5v-1q6 34 17 41t39 7q86 0 140 -6.5t73 -15.5l-1 1q12 -12 19.5 -40t7.5 -73q0 -11 -1 -31t-1 -32h65q2 13 6 45.5t8 68.5q4 35 8 66t6 42q3 23 -5 32.5t-29 9.5h-547l-10 -67h71q9 0 14 -11.5t5 -21.5
l-93 -521q-3 -17 -11.5 -22t-23.5 -6q-11 -1 -27.5 -1.5t-34.5 -0.5q-5 -18 -8 -33.5t-6 -33.5h565q15 0 25 7.5t12 24.5l53 228h-65z" />
    <glyph glyph-name="Zeta" unicode="&#x396;" horiz-adv-x="730" 
d="M524 593q-25 -30 -54.5 -65t-82.5 -98q-53 -64 -139 -166.5t-224 -267.5h1q-8 -9 -11.5 -17.5t-3.5 -14.5q0 -11 7.5 -17.5t25.5 -6.5h503q21 0 30.5 8t12.5 26q2 5 8.5 35.5t14.5 66.5t15.5 68t10.5 41h-71q-9 -23 -19 -48.5t-21 -48.5t-22.5 -40.5t-22.5 -23.5
q-15 -9 -58.5 -13t-118.5 -4h-128q25 30 57 68t87 103t141.5 166.5t221.5 259.5q7 9 12 17.5t5 14.5q0 11 -8.5 17.5t-23.5 6.5h-475q-19 0 -29 -7t-13 -28l-43 -215h69q21 69 41 109.5t38 52.5q16 10 61 15.5t116 5.5h90z" />
    <glyph glyph-name="Eta" unicode="&#x397;" horiz-adv-x="860" 
d="M324 531l5.5 22t7.5 18q4 8 12 13t23 7q9 0 21.5 1t28.5 1q1 8 2.5 16.5t3.5 16.5t3.5 16.5t3.5 17.5h-303q-2 -9 -4.5 -17.5t-4.5 -16.5q-3 -8 -5.5 -16.5t-4.5 -16.5q11 0 21 -0.5t19 -0.5q8 -1 15.5 -1h13.5q12 -1 18 -3.5t8 -8.5q1 -6 -0.5 -16t-4.5 -25
q-6 -30 -11 -59.5t-9 -58.5q-5 -30 -10 -59.5t-10 -58.5q-11 -60 -21.5 -119t-19.5 -118q-2 -9 -4 -18.5t-6 -17.5t-10.5 -13.5t-17.5 -6.5q-11 -2 -25.5 -2h-32.5q-5 -18 -8 -33.5t-6 -33.5h298q0 10 0.5 18t0.5 16q1 7 2 14.5t3 18.5h-31t-22 1q-14 1 -20 3t-7 7t1 14.5
t5 24.5v-1q2 10 7 39.5t10 63.5q6 35 11 67t8 49h291q-3 -18 -7.5 -45.5t-10.5 -58.5q-6 -32 -12 -63.5t-11 -55.5q-6 -24 -12.5 -32t-33.5 -11q-10 -1 -21.5 -1.5t-25.5 -0.5l-9 -67h291q2 15 4 31.5t4 33.5l-30 4.5t-18 2.5q-17 0 -23 7t-1 37q9 59 18 119.5t18 120.5
q10 60 20.5 119.5t24.5 118.5q3 13 5 22.5t7 16.5q4 7 12.5 11t23.5 6q9 1 21 2t27 1q0 8 2.5 20t11.5 47h-293q-3 -17 -6 -33.5t-4 -33.5q7 0 14.5 -0.5t13.5 -0.5q6 -1 11.5 -1h10.5q25 0 27.5 -10.5t-3.5 -40.5l-36 -190h-288q4 24 8 46t8 45q5 22 9 44.5t8 46.5v-1z" />
    <glyph glyph-name="Theta" unicode="&#x398;" horiz-adv-x="760" 
d="M440 670q-74 0 -139.5 -31t-116.5 -82q-52 -52 -87 -119.5t-49 -140.5q-3 -16 -4.5 -31.5t-1.5 -30.5q0 -57 17 -112t52 -98q34 -43 85.5 -69t120.5 -26q80 0 152.5 37t127.5 99q55 61 87.5 139.5t32.5 160.5q0 58 -20 112.5t-56 97.5q-36 42 -87 68t-114 26v0zM423 596
q46 0 78 -20.5t51 -53.5t27.5 -73.5t8.5 -80.5q0 -16 -1.5 -33.5t-3.5 -32.5q-9 -50 -28 -102.5t-51 -96.5q-31 -43 -75.5 -71t-101.5 -28q-47 0 -78 19t-50 51q-18 31 -26 70.5t-8 79.5q0 17 1.5 36t4.5 37q9 46 29 99t51 97t73.5 73.5t98.5 29.5v0zM496 390
q-6 -31 -11.5 -38.5t-16.5 -7.5h-164q-4 0 -6.5 2.5t-2.5 16.5v11t2 23h-63l-39 -184h64q14 32 21.5 43t14.5 11h163q4 0 6 -11t2 -43h62l37 177h-69z" />
    <glyph glyph-name="Iota" unicode="&#x399;" horiz-adv-x="470" 
d="M335 532v-1q2 11 4 21t6 18t11 13.5t21 7.5q9 1 22.5 1.5t31.5 0.5q0 8 2.5 20t11.5 47h-301l-9 -67q20 0 35 -1t26 -1q12 -2 17 -5.5t6 -10.5t-1 -16t-4 -21q-12 -60 -23 -120t-21 -119q-11 -60 -21 -119.5t-20 -117.5q-3 -16 -5.5 -26t-7.5 -16q-4 -6 -13 -9t-24 -3
q-5 0 -10 -0.5t-11 -0.5h-11.5h-12.5q-2 -9 -3.5 -17.5t-2.5 -16.5q-2 -8 -3 -16.5t-1 -16.5h293l9 67h-27.5t-21.5 1q-15 0 -22 2t-9 7q-1 5 1 14.5t5 24.5z" />
    <glyph glyph-name="Kappa" unicode="&#x39a;" horiz-adv-x="830" 
d="M374 274l142 -235q6 -15 2 -20.5t-19 -7.5q-10 -2 -25 -2h-36l-8 -67h301q2 15 4 32t4 35q-28 0 -44.5 0.5t-24.5 2.5q-9 2 -12.5 5.5t-5.5 8.5q-24 37 -48.5 76.5t-49.5 79.5t-49.5 80t-48.5 79l236 218q15 13 32.5 21t39.5 11q9 0 22 1t25 1q2 15 4 32.5t4 34.5h-291
l-8 -67h61q15 0 19.5 -2t1.5 -5l-10 -10l-318 -294l45 251q3 23 12.5 39t38.5 19q7 1 19 1.5t26 0.5l8 67h-288l-9 -67q15 0 26.5 -1t18.5 -1q16 -1 25 -11t6 -30l-85 -487q-3 -21 -12 -35.5t-33 -16.5q-10 -2 -24.5 -2h-27.5l-10 -67h289q0 3 1.5 7.5t3.5 12.5q1 7 4 18.5
t7 28.5h-12t-12 1q-7 0 -14 0.5t-16 0.5q-25 0 -29 7t1 29v-1l22 116z" />
    <glyph glyph-name="Lambda" unicode="&#x39b;" horiz-adv-x="740" 
d="M526 30q3 -12 -1.5 -17t-16.5 -6q-8 -1 -21.5 -1h-24.5l-8 -66h258l10 66h-27t-20 1q-15 0 -22.5 4t-10.5 22q-29 146 -59.5 303t-57.5 304q-6 10 -19.5 16.5t-31.5 6.5q-15 0 -27.5 -7.5t-22.5 -18.5q-38 -72 -79.5 -146.5t-83.5 -149.5t-84.5 -150t-81.5 -147
q-12 -22 -29 -29.5t-41 -8.5h-23l-14 -66h250l17 66h-61q-13 0 -14 5t5 17q36 68 66.5 122.5t60.5 106.5q29 52 59.5 107t68.5 123z" />
    <glyph glyph-name="Mu" unicode="&#x39c;" horiz-adv-x="880" 
d="M356 -36q3 -18 10 -28t19 -10q8 0 17 8.5t18 26.5q12 28 27 60.5t40 85.5q26 54 65 137t101 213l-61 -408q-3 -15 -10 -27t-26 -14q-7 -1 -20.5 -1h-25.5l-9 -67h269l9 67h-28t-22 1q-19 2 -22 16t3 33l73 497q1 19 8.5 27t27.5 10q6 0 18 0.5t24 0.5q0 8 2.5 20t11.5 48
h-173q-27 0 -36 -10.5t-14 -22.5q-27 -61 -55.5 -121.5t-57.5 -120.5l-58 -120t-56 -121q-2 8 -6.5 31t-10.5 56t-13.5 73t-15.5 81q-8 42 -15.5 81.5t-13.5 72.5q-6 32 -10 54.5t-4 30.5q-1 13 -9 24.5t-27 11.5h-192q0 -4 -0.5 -9t-0.5 -13v-19.5v-26.5q1 0 3.5 -0.5
t5.5 -0.5h4.5h4.5q14 -1 22.5 -1.5t12.5 -3.5t4.5 -10t-0.5 -20l-76 -513q-3 -14 -9 -24t-23 -11q-6 -1 -16.5 -1h-21.5q-2 -9 -3.5 -17t-2.5 -17q-2 -8 -3 -16t-1 -17h243l9 67h-5.5h-8.5t-11.5 0.5t-14.5 0.5q-18 1 -20.5 9t-0.5 38v-1l60 410z" />
    <glyph glyph-name="Nu" unicode="&#x39d;" horiz-adv-x="820" 
d="M130 660l-10 -68q18 0 30 -0.5t20 -2.5q7 -2 10.5 -7t3.5 -14q0 -6 -1 -13t-2 -15q-6 -34 -16.5 -98t-22.5 -135q-12 -72 -24 -139.5t-19 -108.5q-6 -30 -22 -41.5t-61 -11.5l-14 -66h241l10 66h-26q-26 0 -35 8.5t-5 39.5q4 37 11 77t17 93q9 53 22 122.5t31 165.5
l270 -568q4 -8 14 -11.5t22 -3.5t22.5 8t15.5 20q25 140 52 288t54 288q3 19 7 30.5t12 17.5t22.5 8t38.5 3q0 7 1.5 15.5t3.5 17.5q1 9 2.5 18t2.5 17h-237l-10 -68h20q27 0 39 -7t6 -46l-70 -388l-228 484q-5 8 -13 16.5t-20 8.5h-165z" />
    <glyph glyph-name="Xi" unicode="&#x39e;" horiz-adv-x="760" 
d="M586 -60q24 0 32.5 7.5t12.5 22.5q6 28 12.5 56t13.5 56q6 27 13 55t14 57h-68q-21 -69 -41 -107t-35 -46q-19 -9 -44 -14t-58 -5h-181q-35 0 -59 4.5t-38 13.5q-10 6 -14 29.5t-4 65.5v24.5t3 34.5h-72l-29 -215q3 -22 11.5 -30.5t27.5 -8.5h503zM232 660q-12 0 -19 -2
t-12 -5q-4 -4 -6.5 -10.5t-5.5 -16.5q-7 -28 -14 -55.5t-14 -55.5q-7 -27 -13.5 -54.5t-12.5 -54.5h70q19 66 38 104.5t35 48.5h-1q20 9 44.5 14t57.5 5h129q30 0 52 -5.5t37 -14.5q11 -7 17.5 -40t6.5 -116h64q4 26 8 53.5t8 54.5q3 28 7 55.5t9 54.5q-2 24 -12.5 32
t-24.5 8h-448zM558 203q1 3 2.5 9t6.5 25q4 18 12.5 54t23.5 100h-72q-3 -7 -4.5 -15.5t-4.5 -15.5q-3 -8 -8 -14t-13 -7h-204q-7 0 -8.5 9t0.5 42h-64q-16 -72 -28 -122.5t-15 -60.5h75q11 35 16.5 44.5t13.5 9.5h198q4 0 6 -3.5t3 -9.5v-18v-27h64z" />
    <glyph glyph-name="Omicron" unicode="&#x39f;" horiz-adv-x="760" 
d="M440 670q-74 0 -139.5 -31t-116.5 -82q-52 -52 -87 -119.5t-49 -140.5q-3 -16 -4.5 -31.5t-1.5 -30.5q0 -57 17 -112t52 -98q34 -43 85.5 -69t120.5 -26q80 0 152.5 37t127.5 99q55 61 87.5 139.5t32.5 160.5q0 58 -20 112.5t-56 97.5q-36 42 -87 68t-114 26v0zM423 596
q46 0 78 -20.5t51 -53.5t27.5 -73.5t8.5 -80.5q0 -16 -1.5 -33.5t-3.5 -32.5q-9 -50 -28 -102.5t-51 -96.5q-31 -43 -75.5 -71t-101.5 -28q-47 0 -78 19t-50 51q-18 31 -26 70.5t-8 79.5q0 17 1.5 36t4.5 37q9 46 29 99t51 97t73.5 73.5t98.5 29.5v0z" />
    <glyph glyph-name="Pi" unicode="&#x3a0;" horiz-adv-x="860" 
d="M137 660l-19 -67h41q28 0 40 -5t12 -23q0 -5 -1 -12.5t-2 -14.5l-81 -476v1q-9 -36 -27 -45.5t-69 -10.5l-14 -67h298l6 67h-29q-30 0 -41 6t-4 45v-1l82 477v-1q7 33 20.5 47t43.5 14h173q29 -1 39.5 -13.5t4.5 -39.5l-83 -478q-10 -37 -28.5 -46t-68.5 -10l-9 -67h292
l8 67h-26q-30 0 -42 6t-5 45l82 474q4 18 9 29.5t15 17.5q10 7 27 10t45 4l14 67h-703z" />
    <glyph glyph-name="Rho" unicode="&#x3a1;" horiz-adv-x="710" 
d="M445 593q58 0 90.5 -29t32.5 -78q0 -6 -1 -15.5t-2 -18.5q-18 -76 -75.5 -107.5t-138.5 -31.5h-62l42 246q3 23 10.5 28.5t32.5 5.5h71zM142 660l-10 -67h47q18 1 26 -3t6 -27q-9 -56 -20 -119.5t-22 -128.5q-11 -66 -23 -130.5t-22 -122.5v1q-10 -34 -26 -44.5
t-58 -11.5h-15l-9 -67h294l10 67q-48 -1 -64.5 8t-12.5 42l34 188h139q42 0 86.5 12.5t82.5 38.5q37 25 65 62.5t38 86.5q1 6 1.5 11t1.5 11q1 5 1.5 10.5t0.5 12.5q0 44 -20.5 75.5t-53.5 52.5q-32 21 -71.5 31t-77.5 11h-328z" />
    <glyph glyph-name="Sigma" unicode="&#x3a3;" horiz-adv-x="720" 
d="M553 -60q16 0 26.5 9t14.5 24q4 17 8 35.5t9 42.5t11.5 54t16.5 70q2 15 -7 26.5t-21 11.5q-10 0 -20 -6.5t-15 -21.5q-22 -66 -45.5 -104.5t-53.5 -49.5q-33 -12 -114 -18t-205 -6l231 262q12 15 17 31t-6 34h1q-4 8 -24.5 46.5t-42.5 82.5q-23 43 -41 79.5t-17 40.5
q-4 6 3.5 8t25.5 2h10q111 0 175.5 -6.5t83.5 -17.5q17 -11 24.5 -49.5t7.5 -104.5q0 -21 8.5 -29.5t19.5 -8.5q10 0 20.5 9t14.5 26q3 18 5.5 37t4.5 39q3 20 5 39.5t5 39.5l6 51q2 21 -6 31.5t-29 10.5h-480q-25 0 -36 -8.5t-11 -24.5q0 -5 3 -16t7 -19q3 -8 20.5 -42.5
t39.5 -80.5q23 -46 46.5 -94t39.5 -81l-247 -280q-9 -12 -14.5 -23.5t-5.5 -21.5q0 -12 9.5 -20t35.5 -9h486z" />
    <glyph glyph-name="Tau" unicode="&#x3a4;" horiz-adv-x="690" 
d="M117 660q-14 0 -25.5 -6.5t-15.5 -27.5l-48 -230h61q24 72 43.5 116.5t35.5 57.5q14 13 38.5 20t60.5 7q18 0 24 -6.5t6 -15.5q-18 -97 -31 -170.5t-23 -128.5q-10 -54 -16.5 -91.5t-10.5 -61.5q-5 -25 -7.5 -38t-3.5 -20q-1 -6 -1 -7v-1q-3 -20 -12 -34t-30 -14
q-9 -1 -22 -1.5t-28 -0.5l-14 -67h295l10 67q-18 0 -31 0.5t-22 1.5q-20 0 -24.5 9.5t-1.5 30.5l93 521q3 18 11.5 22.5t31.5 4.5q36 0 59 -6.5t35 -19.5q10 -11 14 -32t4 -45q0 -25 -2 -51t-3 -47h65q3 28 6.5 55.5t7.5 55.5l8 56t7 57q-3 24 -12.5 32t-23.5 8h-508z" />
    <glyph glyph-name="Upsilon" unicode="&#x3a5;" horiz-adv-x="570" 
d="M286 320q5 31 19.5 69t37.5 74q22 36 51 66.5t63 47.5q-6 -12 -3.5 -25t10.5 -24t20 -18.5t25 -7.5q42 0 62.5 25t20.5 56q0 30 -21 55.5t-61 25.5q-38 0 -71 -13.5t-62 -35.5t-53.5 -51t-43.5 -60q-17 78 -75.5 115t-143.5 33l-22 -59q69 0 102.5 -26t33.5 -89
q0 -32 -4.5 -70.5t-12.5 -82.5l-43 -261q-3 -19 -5.5 -30t-8.5 -17q-7 -6 -21.5 -8t-40.5 -2l-14 -67h267q2 15 4 32.5t4 34.5q-31 0 -46.5 2t-16.5 12z" />
    <glyph glyph-name="Phi" unicode="&#x3a6;" horiz-adv-x="725" 
d="M257 14q-15 -6 -31.5 -6.5t-47.5 -0.5l-8 -67h265l9 67q-34 0 -54 0.5t-26 2.5q-1 1 -1.5 4t0.5 6q51 7 105 29.5t100 57.5t80 83t46 107v1v2l0.5 1t0.5 2q1 7 2 15.5t1 16.5q0 46 -19.5 85.5t-52.5 70.5t-75.5 52.5t-88.5 33.5l8 9q5 2 24.5 4.5t55.5 2.5q2 15 4 32.5
t4 34.5h-266l-9 -67q36 0 54 -4t24 -10q-51 -10 -103.5 -33.5t-98.5 -59.5q-45 -36 -79.5 -82.5t-47.5 -100.5q-3 -12 -4 -25t-1 -22q0 -48 18.5 -86.5t50.5 -68.5t75 -50.5t92 -30.5q-2 -3 -4 -4.5l-2 -1.5v0zM444 515q62 -12 93 -60.5t31 -108.5q0 -11 -1.5 -22.5
t-3.5 -23.5q-12 -78 -62 -137t-129 -80zM284 81q-62 18 -95 68t-33 110q0 7 0.5 17t2.5 19v-1q7 37 24 72t42 64t58 50t72 31z" />
    <glyph glyph-name="Chi" unicode="&#x3a7;" horiz-adv-x="755" 
d="M147 68q-26 -32 -55 -45.5t-77 -15.5l-9 -67h259q2 15 4 33t4 34h-67q-6 0 -8 1t-1 4t4.5 7.5t8.5 10.5l-1 -2q1 1 3 3.5t7 9.5v-1q8 10 17.5 23t23.5 34q15 20 36.5 51t55.5 78l92 -195q4 -9 2 -15t-19 -7q-11 -2 -26 -2h-33l-9 -67h299l9 67q-25 0 -41.5 0.5t-28.5 5.5
q-13 6 -22.5 17.5t-19.5 33.5q-28 57 -58 122.5t-59 131.5q1 1 4.5 5.5t20.5 26.5q18 22 55 68.5t105 132.5q12 13 22.5 21t22.5 12t28.5 5.5t42.5 3.5l8 67h-246l-8 -66q18 -3 29.5 -3h20.5q7 0 9.5 -3t0.5 -7q-17 -23 -35 -47t-37 -48q-18 -24 -36.5 -48t-35.5 -47
l-86 184q-7 12 7 15t70 3q2 15 4 32.5t4 34.5h-293l-8 -67q14 0 26.5 -0.5t21.5 -1.5q20 -2 29 -9t19 -28q6 -12 24 -50t38 -81q21 -42 38 -78t21 -43z" />
    <glyph glyph-name="Psi" unicode="&#x3a8;" horiz-adv-x="800" 
d="M444 532q3 18 9 33t9 18q3 5 24 7.5t58 2.5q1 8 2.5 16.5t2.5 16.5q2 8 3 16.5t2 17.5h-289l-10 -67q35 0 55.5 -2t25.5 -8q0 -1 -1.5 -12t-6.5 -32q-2 -9 -9.5 -50.5t-16.5 -94.5q-9 -52 -18 -104.5t-13 -81.5q-37 6 -65 30.5t-28 68.5q0 28 7 56t16 56q8 27 15.5 55.5
t7.5 59.5q0 50 -27.5 88t-87.5 38q-31 0 -52.5 -12.5t-30.5 -30.5q-10 -13 -10 -28t7 -28q7 -12 20 -20.5t30 -8.5q11 0 21.5 7.5t17.5 19.5q5 10 12 19.5t12 14.5q3 -2 5.5 -6t2.5 -8q0 -16 -9 -41.5t-24 -57.5q-18 -39 -29.5 -80.5t-11.5 -71.5q0 -18 6 -44t15 -45
q25 -42 73 -62.5t99 -28.5l-18 -84q-9 -36 -28.5 -45.5t-68.5 -9.5l-9 -69h294q1 8 1.5 16.5t1.5 17.5q1 8 1.5 17t2.5 18h-34q-25 -1 -36 7t-8 41q3 24 7 46.5t10 44.5q53 6 109.5 22t95.5 59q33 34 47 85t14 114q0 14 -2 37t-1 48q0 24 5 45.5t18 32.5q0 -2 2 -4.5t4 -4.5
t3.5 -4.5t1.5 -4.5q0 -13 13.5 -25.5t27.5 -12.5q30 0 47.5 22.5t8.5 59.5q-6 18 -26 30t-51 12q-43 0 -73.5 -24.5t-51.5 -63.5q-15 -27 -24 -70t-12 -95q-3 -48 -11.5 -85t-26.5 -57q-18 -21 -46.5 -32t-59.5 -18z" />
    <glyph glyph-name="uni03A9" unicode="&#x3a9;" horiz-adv-x="750" 
d="M443 69q43 14 86.5 43.5t80.5 68.5q36 39 64.5 86t42.5 96q3 14 4.5 28.5t1.5 29.5q0 56 -24 102.5t-63 79.5q-40 33 -90.5 51t-103.5 18q-64 0 -125 -22.5t-112 -62.5q-51 -41 -87.5 -97t-51.5 -124q-3 -13 -4 -27.5t-1 -26.5q0 -85 50 -149.5t131 -91.5l-1 -1
q-1 -2 -2 -4.5t-2 -7.5t-3 -13.5t-5 -21.5q-36 0 -62.5 4.5t-42.5 13.5q-9 9 -15 31t-4 58h-55l-20 -148q-4 -19 4 -30.5t33 -11.5h237q3 21 8 45.5t10 46.5q4 21 9 47t9 49q-77 7 -118 60t-41 126q0 9 0.5 23t3.5 27q8 42 28.5 85.5t51.5 78.5t70 57.5t85 22.5q37 0 68 -15
t53 -40q22 -26 34.5 -60.5t12.5 -73.5q0 -9 -1 -23t-3 -26q-9 -42 -27 -83t-45 -74q-28 -34 -65.5 -57t-84.5 -28l-18 -92l-17 -96h243q21 0 30 11t15 29q3 16 7.5 35.5t8.5 38.5q5 20 9.5 39t9.5 37h-55q-16 -46 -32 -65t-32 -27q-18 -7 -43 -11t-55 -4z" />
    <glyph glyph-name="alpha" unicode="&#x3b1;" horiz-adv-x="630" 
d="M362 428q-44 20 -86 15t-80 -26q-38 -22 -70 -56t-54 -72q-19 -41 -31 -86.5t-11 -90.5q2 -45 20.5 -86t62.5 -72q65 -37 136.5 -20.5t125.5 69.5q15 -25 38 -40t52 -17q35 -2 63 4t36 22q14 33 -0.5 45.5t-50.5 9.5q-13 1 -25.5 9.5t-15.5 20.5v-1q-5 27 5.5 64.5
t27.5 76.5t37 75t35 60h-1q18 31 9.5 57.5t-44.5 44.5q-15 3 -27.5 -3t-18.5 -17q-10 -21 -21.5 -45.5t-23.5 -47.5q-11 35 -31.5 62t-56.5 45v0zM328 363q25 -11 33.5 -38t7.5 -60q-2 -32 -9.5 -64t-13.5 -51q-9 -23 -24.5 -51.5t-35.5 -49.5q-21 -22 -46.5 -31.5
t-55.5 6.5q-24 12 -32.5 35.5t-7.5 50.5q1 26 8 53t15 48q9 24 24.5 54.5t36.5 54.5q21 25 46.5 38.5t54.5 4.5h-1z" />
    <glyph glyph-name="beta" unicode="&#x3b2;" horiz-adv-x="570" 
d="M140 -72q0 11 3.5 41t9.5 55q29 -42 63 -63t99 -18q51 0 88.5 19.5t58.5 52.5q19 29 29 69t9 81q-2 36 -22.5 70.5t-58.5 72.5q50 21 82.5 58t32.5 99q0 46 -20.5 81.5t-53.5 60.5t-74.5 38t-83.5 15q-60 0 -103.5 -39t-64.5 -108q-18 -67 -33 -144t-27 -149
q-5 -41 -13.5 -83.5t-15.5 -86.5q-8 -44 -13.5 -88t-5.5 -87q0 -21 14.5 -36t44.5 -17q27 -2 39 24t16 81v1zM344 282q14 -18 28 -44t14 -46q0 -22 -4.5 -50t-13.5 -58q-7 -23 -26 -36.5t-48 -15.5q-17 -2 -36 2.5t-36 13.5t-30.5 23t-18.5 32q-3 13 -0.5 52t13.5 102
q9 55 21.5 117t25.5 111q13 48 48 78t68 23h-1q30 -12 48.5 -42t19.5 -72q0 -32 -18 -67t-52 -41q-4 1 -10 3t-13 4q-8 3 -17.5 5.5t-20.5 5.5q-27 4 -44.5 -5t-19.5 -33q0 -18 20.5 -34t47.5 -24q12 -3 27 -4t28 0v0z" />
    <glyph glyph-name="gamma" unicode="&#x3b3;" horiz-adv-x="590" 
d="M163 376q23 -11 37 -35t22 -53q8 -30 11 -60.5t5 -53.5q0 -13 1 -25.5t2 -24.5q0 -12 1.5 -23.5t4.5 -21.5q-11 -18 -26 -45t-28 -56q-14 -28 -23 -54t-9 -40q0 -31 18 -48t49 -17q18 0 31 7.5t23 19.5q14 24 23 49t16 51t14 52.5t18 53.5q15 36 36.5 73t47.5 74
q25 37 52.5 74.5t54.5 74.5q11 15 17.5 30t6.5 28q0 26 -18.5 40.5t-42.5 14.5q-23 0 -40.5 -13t-29.5 -36q-15 -27 -29.5 -53t-29.5 -52t-30 -52.5t-30 -53.5q0 42 -7 88t-25 84q-17 39 -45 64.5t-70 27.5q-28 1 -54 -9t-46 -29q-20 -18 -32 -43t-12 -53q0 -13 3.5 -22.5
t12.5 -12.5q15 -11 30 5t31 50q8 14 24.5 23t34.5 2v0z" />
    <glyph glyph-name="delta" unicode="&#x3b4;" horiz-adv-x="560" 
d="M282 374q30 0 50.5 -15t34.5 -38q13 -23 19 -51.5t6 -56.5q0 -27 -6.5 -64.5t-21.5 -72.5q-14 -34 -38 -58t-59 -24q-30 0 -52.5 14.5t-37.5 37.5q-15 24 -22 53t-7 59q0 26 8 63t24 71q17 34 42 58t60 24v0zM410 395q-15 11 -44 35.5t-56 53.5t-44 59t-8 52q3 6 15 9.5
t23 3.5q19 -5 39.5 -22t39.5 -38q19 -22 35 -46t27 -43q15 -30 43 -42t54 11q21 20 14 45.5t-23 52.5q-20 27 -45.5 56.5t-55.5 54.5q-31 24 -66.5 40.5t-73.5 16.5q-26 0 -48.5 -14.5t-38.5 -39.5q-13 -20 -16 -42.5t0 -43.5q11 -32 28.5 -60t39.5 -55q-45 -6 -85.5 -29
t-71.5 -57q-31 -35 -48.5 -78.5t-17.5 -90.5q0 -58 18 -105.5t52 -81.5q34 -35 82.5 -53.5t108.5 -18.5q50 0 92.5 22.5t73.5 59.5q31 36 48.5 83t17.5 96q0 57 -27.5 112t-81.5 97v0z" />
    <glyph glyph-name="epsilon" unicode="&#x3b5;" horiz-adv-x="520" 
d="M362 368q3 -3 5 -10t2 -11q3 -21 15 -41.5t51 -17.5q16 3 29.5 21.5t8.5 39.5q-12 34 -34.5 56t-51.5 36q-29 13 -61.5 18.5t-63.5 5.5q-111 0 -161.5 -40.5t-50.5 -100.5q0 -39 19.5 -67.5t55.5 -46.5q-47 -21 -68.5 -53.5t-21.5 -71.5q0 -79 62 -118t186 -39
q70 0 128 34.5t79 93.5q3 24 -5 42.5t-38 29.5q-30 6 -48.5 -15t-18.5 -53q0 -33 -28.5 -48.5t-61.5 -15.5q-66 0 -99.5 25t-33.5 68q0 24 11 40t29 26q17 9 39.5 13t45.5 4q45 0 67.5 9t22.5 30q0 14 -10.5 21.5t-25.5 10.5t-32 2.5t-30 -1.5q-17 0 -35 4.5t-33 13.5
q-15 10 -24.5 24t-9.5 34q0 34 25.5 55.5t64.5 21.5q29 0 54 -6t46 -23v0z" />
    <glyph glyph-name="zeta" unicode="&#x3b6;" horiz-adv-x="520" 
d="M244 680q0 14 -11.5 29.5t-29.5 15.5q-23 0 -45.5 -16.5t-40.5 -39.5q-18 -24 -29.5 -50.5t-9.5 -46.5q3 -40 20.5 -65.5t53.5 -43.5q-44 -59 -78 -127t-34 -149q8 -85 49.5 -137.5t132.5 -65.5q9 -1 25.5 -3.5t33.5 -6.5q16 -5 28 -13t13 -18q0 -15 -11 -20.5t-32 -2.5
h1q-30 5 -54.5 8.5t-41.5 4.5q-41 0 -58 -14.5t-16 -36.5q0 -16 12 -27t30 -18q19 -7 41.5 -10t43.5 -3q36 0 69.5 6t66.5 25q34 19 51 53.5t11 76.5q-14 47 -61.5 77.5t-108.5 27.5q-58 -3 -101.5 24t-43.5 96q0 26 10 59.5t25 66.5q16 33 34.5 62.5t36.5 48.5
q58 9 92 19.5t61 26.5q11 6 28.5 17.5t34.5 26.5q16 14 28.5 31t12.5 34q0 23 -21 38t-45 15q-39 0 -76.5 -23.5t-66.5 -46.5q-33 -27 -57 -41t-36 -10q-10 5 -16.5 13t-6.5 16q0 23 20.5 42.5t38.5 31.5h-1q9 8 18.5 18t9.5 25v0z" />
    <glyph glyph-name="eta" unicode="&#x3b7;" horiz-adv-x="570" 
d="M72 383q15 2 24 -7.5t13 -24.5q5 -16 6 -34t1 -31q0 -42 -13 -85.5t-30 -79.5q-16 -30 -24.5 -58.5t-8.5 -43.5q0 -22 9.5 -36t32.5 -22q33 -9 58 22t37 89q3 20 7.5 40.5t9.5 41.5t10 43.5t10 46.5q6 21 19.5 47t31.5 48q19 23 40.5 38t43.5 15q27 0 48 -21t21 -52
q0 -26 -4 -57.5t-11 -63.5q-6 -33 -14.5 -65t-16.5 -60q-8 -26 -18 -52t-19 -51q-10 -26 -20 -49t-17 -42q-9 -26 -2.5 -45.5t34.5 -31.5q21 -11 46 2.5t36 34.5q14 30 24.5 62t20.5 65q11 40 23.5 81t23.5 83q10 41 18 84t11 89q1 36 -13 66.5t-39 51.5q-25 22 -57.5 34.5
t-66.5 12.5q-36 0 -78.5 -25.5t-70.5 -55.5q-18 30 -40.5 50t-58.5 23q-13 0 -29 -2.5t-31 -8.5q-14 -7 -24 -18.5t-10 -27.5q0 -12 14 -18.5t43 -1.5v0z" />
    <glyph glyph-name="theta" unicode="&#x3b8;" horiz-adv-x="520" 
d="M485 347q0 42 -10.5 97t-33.5 103q-24 49 -62 83t-93 34q-51 0 -93 -30t-73 -76t-51.5 -100.5t-28.5 -103.5q-3 -20 -4 -44.5t-1 -49.5q0 -42 10.5 -98.5t34.5 -106.5q23 -50 61.5 -85t94.5 -35q48 0 88 30t70 76q31 45 51 98t30 99q4 24 7 53.5t3 55.5v0zM359 276
q-6 -33 -18.5 -82t-31.5 -93q-18 -45 -43 -74t-55 -20q-32 8 -46 40t-18 73t-2 83.5t4 72.5h210zM303 596q30 -9 45 -39.5t20 -68.5q5 -39 3 -79t-3 -67h-211q7 33 20.5 79.5t32.5 87.5q18 41 42 67.5t51 19.5v0z" />
    <glyph glyph-name="iota" unicode="&#x3b9;" horiz-adv-x="310" 
d="M191 457q-43 9 -62.5 -7.5t-22.5 -30.5q-7 -25 -12.5 -49.5t-10.5 -49.5q-4 -26 -9 -51.5t-10 -52.5q-9 -49 -14.5 -83.5t-7.5 -50.5q-2 -50 23 -91.5t75 -50.5q30 -6 61.5 1.5t59.5 27.5q24 20 33.5 41t1.5 40t-25.5 16.5t-34.5 -20.5q-8 -9 -24 -12.5t-35 -1.5
q-17 1 -25.5 8t-6.5 19q2 23 7.5 46t12.5 46q6 23 14 46l16 46q11 33 22 74t15 79q1 21 -10 38.5t-30 22.5h-1z" />
    <glyph glyph-name="kappa" unicode="&#x3ba;" horiz-adv-x="540" 
d="M166 445q-21 2 -34 -8.5t-18 -35.5q-3 -13 -5.5 -25t-4.5 -24q-2 -13 -4 -25l-4 -24q-6 -32 -12.5 -64.5t-13.5 -66.5q-8 -35 -16 -70.5t-18 -72.5q-3 -9 -4 -18t-1 -15q0 -18 6.5 -31t21.5 -17q22 -6 50.5 -3t37.5 32v-1q6 27 12 58t11 63q1 16 3.5 33t6.5 35h34
q5 0 9 -1t7 -3q4 -1 7 -2.5t6 -2.5q-3 -15 -3 -31t4 -31q0 -21 4 -44t10 -44q9 -36 37 -51t62 -15q38 0 70 26.5t51 66.5q5 9 7.5 18t2.5 17q0 11 -5.5 20.5t-14.5 15.5q-18 9 -33.5 -3.5t-28.5 -39.5q-5 -9 -14.5 -17.5t-14.5 -7.5q-23 3 -30.5 28t-10.5 67q-3 23 -15 39
t-28 31q19 12 31.5 28.5t21.5 36.5l8 18l8 18q5 9 11 17.5t15 15.5v-1q4 3 10 2t10 -5q7 -10 19 -14t25 -4q23 0 41 11t20 42q1 31 -22.5 52t-49.5 27q-47 8 -81 -21t-59 -83q-18 -42 -34 -64.5t-42 -22.5h-24q6 16 12 37l12 42q5 20 9 38t5 29q1 22 -17.5 31.5t-55.5 13.5
v0z" />
    <glyph glyph-name="lambda" unicode="&#x3bb;" horiz-adv-x="520" 
d="M161 686q-27 -15 -36.5 -31t-9.5 -28q0 -14 10.5 -27.5t26.5 -24.5q15 -12 33.5 -22t33.5 -17q15 -12 22.5 -26.5t11.5 -31.5q3 -16 4 -33.5t4 -33.5q-17 -24 -33 -50.5t-33 -53.5q-16 -27 -32.5 -54t-32.5 -53q-13 -20 -32 -48.5t-36 -59.5q-18 -32 -30.5 -63.5
t-12.5 -56.5q0 -21 8.5 -33.5t26.5 -18.5q35 -9 60 21.5t38 104.5q12 64 45 128t73 122v-15.5t1 -11.5q0 -6 1 -12.5t2 -15.5q4 -51 17 -101.5t25 -80.5q7 -18 17.5 -41.5t24.5 -45.5t31.5 -37t37.5 -15q43 0 53.5 32t-10.5 66q-51 76 -86 175t-44 201q-3 19 -3.5 38.5
t-0.5 40.5q-1 20 -2.5 40.5t-4.5 41.5q-8 28 -27.5 55t-50.5 48q-22 13 -48.5 24.5t-41.5 3.5v0z" />
    <glyph glyph-name="uni03BC" unicode="&#x3bc;" horiz-adv-x="560" 
d="M134 386q-11 -27 -18 -58.5t-13 -64.5q-5 -34 -11 -68.5t-13 -67.5q-6 -24 -12.5 -52.5t-14.5 -56.5q-7 -29 -14.5 -54.5t-14.5 -42.5q-9 -19 -13.5 -39t-1.5 -37q4 -18 17.5 -30t40.5 -15q15 -3 37.5 16t25.5 74q1 21 4 45.5t7 43.5q26 -25 50 -36t55 -11q33 0 61 17
t52 45q9 -19 26 -35.5t39 -20.5q53 -9 80.5 19t35.5 62q2 18 -1 28t-12 10q-4 0 -11.5 -3.5t-16.5 -10.5q-7 -8 -15 -11t-15 -3q-9 0 -19 5.5t-17 14.5q-3 7 -0.5 23.5t8.5 36.5q6 19 13 38.5t13 34.5q7 18 15.5 42.5t16.5 50.5q7 26 13 51t8 43q0 24 -7.5 38.5t-22.5 21.5
q-8 1 -14.5 2t-11.5 1q-21 0 -38.5 -13t-26.5 -32q-12 -39 -21 -81t-13 -75q-4 -23 -6.5 -41.5t-5.5 -35.5q-3 -16 -6.5 -31t-7.5 -29q-8 -24 -33 -49t-65 -27q-24 -2 -44 10.5t-35 30.5q4 43 19 89.5t35 89.5q16 33 31 69.5t18 75.5q0 30 -17.5 45t-43.5 15
q-24 0 -41 -14.5t-28 -42.5v0z" />
    <glyph glyph-name="nu" unicode="&#x3bd;" horiz-adv-x="470" 
d="M88 445q-24 -9 -33 -23.5t-4 -35.5q4 -21 9.5 -41t10.5 -41q5 -20 8.5 -41.5t3.5 -43.5q0 -45 -5 -100t-25 -97q-6 -12 -8 -22.5t-2 -17.5q0 -18 9 -29.5t31 -11.5q15 0 45 7t64 22q50 22 94.5 55t77.5 76t51.5 95t17.5 112q-2 60 -10.5 94.5t-22.5 42.5q-21 5 -35 -23
t-12 -75q-1 -44 -18.5 -85t-46.5 -77q-29 -37 -66.5 -67t-76.5 -52q9 26 18.5 57t16.5 62q8 31 12 58.5t3 46.5q-3 33 -12.5 62t-22.5 53q-15 25 -35 36t-38 4h1z" />
    <glyph glyph-name="xi" unicode="&#x3be;" horiz-adv-x="519" 
d="M460 320q3 24 -13.5 43.5t-42.5 25.5q-21 4 -41.5 5.5t-43.5 1.5t-48.5 -0.5t-54.5 -0.5q-18 -1 -27.5 7.5t-12.5 30.5q-1 34 30 47.5t65 15.5q18 1 35.5 -2t35.5 -7t37.5 -7.5t41.5 -3.5q27 0 44.5 15.5t21.5 39.5q2 15 -11 33.5t-36 27.5q-42 10 -89 10.5t-91 -5.5
q3 11 13.5 16t29.5 5q47 -1 71.5 11t24.5 36q-3 27 -18 40.5t-42 13.5q-29 0 -59.5 -11.5t-55.5 -32.5q-24 -20 -38 -49t-8 -63q-33 -25 -55.5 -56t-22.5 -79q0 -24 10 -43.5t27 -38.5q-47 -35 -77.5 -84.5t-30.5 -113.5q0 -50 29 -97t80 -71q24 -12 51.5 -17.5t51.5 -7.5
q11 -2 19.5 -7.5t8.5 -11.5q0 -11 -11 -15.5t-31 -4.5q-39 0 -57.5 -17t-15.5 -39q1 -16 14.5 -27.5t37.5 -11.5q31 0 60 11t51 31q23 20 36 48.5t12 64.5q-4 54 -42 82t-104 26q-45 -3 -72.5 14t-30.5 52q-3 31 24 72.5t69 73.5q39 0 80.5 -8t83.5 -18q37 -9 59 4.5
t28 45.5v0z" />
    <glyph glyph-name="omicron" unicode="&#x3bf;" horiz-adv-x="530" 
d="M329 436q-14 3 -27 5t-25 2q-49 0 -91.5 -24t-75.5 -62t-54 -86.5t-25 -96.5q1 -38 13 -75.5t34 -69.5q22 -33 52 -58t68 -38q13 -5 26.5 -6.5t27.5 -1.5q50 0 95 23.5t79 61.5q33 38 53 87t20 99q0 37 -12 75.5t-34 71.5q-23 32 -54 57t-70 36v0zM309 368
q44 -14 58.5 -53t14.5 -82q0 -31 -8.5 -75t-26.5 -82q-18 -39 -47.5 -62.5t-71.5 -14.5q-20 4 -34.5 18.5t-23.5 34.5t-13.5 43t-4.5 44q0 32 9 76.5t29 82.5q19 38 48.5 60t70.5 10v0z" />
    <glyph glyph-name="pi" unicode="&#x3c0;" horiz-adv-x="560" 
d="M49 294q13 -11 28 -8.5t18 19.5q1 7 13.5 13t26.5 10q15 3 27 3t12 -3q-5 -26 -9.5 -54t-12.5 -56q-7 -28 -19.5 -54t-33.5 -46q-13 -13 -27 -31.5t-25 -36.5q-7 -14 -12 -32.5t-3 -34.5q1 -17 11.5 -28.5t34.5 -11.5q21 0 37.5 11.5t29.5 29.5t22 39.5t16 42.5
q10 32 18 65t16 67q7 33 13.5 67.5t14.5 70.5q19 -3 39 -3t40 3q-5 -36 -12.5 -71t-15.5 -70q-7 -35 -12.5 -71t-5.5 -72q0 -42 13 -73t43 -38q14 -4 33 -2t37 9q18 8 31.5 21t17.5 31q4 24 -2.5 35t-19.5 11q-8 0 -17 -3t-18 -9q-9 -4 -15 1t-10 14q-4 8 -6 19t-2 20
q0 60 10.5 122.5t25.5 123.5q8 1 17 0.5t18 -2.5q9 -1 18.5 -2.5t20.5 -1.5q39 0 55.5 11.5t19.5 44.5q3 39 -12 58.5t-44 12.5q-27 -8 -66 -11.5t-80 -3.5q-22 0 -44 0.5t-45 2.5q-23 1 -47.5 2t-50.5 1q-32 0 -56.5 -16t-42.5 -46q-20 -33 -22.5 -56.5t11.5 -33.5v0z" />
    <glyph glyph-name="rho" unicode="&#x3c1;" horiz-adv-x="580" 
d="M329 394q25 0 43.5 -13.5t30.5 -34.5q11 -21 17 -46.5t6 -48.5q0 -27 -8 -64t-24 -70q-16 -34 -40.5 -57t-57.5 -23q-38 0 -59.5 22.5t-30.5 55.5t-8.5 69.5t6.5 64.5v-1q6 20 17.5 45.5t27.5 47.5t36 37.5t44 15.5v0zM319 -37q49 0 90.5 23t71.5 61t47 86.5t17 99.5
q0 46 -17.5 87.5t-47.5 73.5q-30 31 -71 50t-89 19q-45 0 -82.5 -17t-66.5 -46q-30 -29 -51.5 -67.5t-34.5 -81.5q-26 -87 -42.5 -180.5t-25.5 -195.5q0 -34 14 -56.5t43 -27.5q21 -3 36 13.5t18 45.5q2 26 2.5 52.5t0.5 52.5q0 27 1 54t5 55q26 -47 72 -74t110 -27v0z" />
    <glyph glyph-name="sigma" unicode="&#x3c3;" horiz-adv-x="500" 
d="M457 393q1 16 -9.5 27t-26.5 20q-18 5 -48.5 9t-74.5 4q-53 0 -101.5 -23.5t-85.5 -63.5t-59 -91.5t-22 -108.5q0 -44 16 -86t44 -74q29 -33 68 -53t85 -20q57 0 113 36.5t86 92.5q19 37 22.5 81.5t-7.5 87.5q-11 42 -36.5 79t-64.5 61q4 -1 8 -1.5t8 -1.5t8.5 -2t9.5 -2
q1 0 2.5 -0.5t3.5 -0.5q1 -1 3 -1h5q24 -3 38 4.5t15 26.5v0zM227 10q-40 0 -59.5 23t-25.5 57q-6 33 -1 69t14 62q15 45 48.5 75.5t67.5 30.5q38 0 57 -23t25 -55q5 -33 0 -69t-14 -62q-8 -17 -19.5 -36t-26.5 -35q-14 -16 -31 -26.5t-35 -10.5v0z" />
    <glyph glyph-name="tau" unicode="&#x3c4;" horiz-adv-x="510" 
d="M292 332q4 4 21 4t38 -1t41.5 -2.5t30.5 -1.5q13 0 26 0.5t23 5.5q9 5 15.5 16.5t6.5 32.5q0 45 -16.5 62t-45.5 8q-15 -6 -37.5 -10t-51.5 -4h-65.5t-50.5 1t-38.5 1.5t-27.5 1.5q-38 0 -76.5 -13.5t-50.5 -37.5q-9 -15 -13 -29.5t-4 -26.5q-1 -17 6 -30.5t18 -19.5
q10 -6 22 -3.5t22 19.5q6 12 19.5 18t30.5 8q16 3 34 2.5t34 0.5q-9 -52 -21.5 -104.5t-28.5 -108.5q-7 -23 -12 -46t-5 -50q0 -48 25.5 -76.5t87.5 -28.5q14 0 34 5t41 17h-1q21 9 34 28.5t13 35.5q0 17 -13.5 25.5t-41.5 -5.5h1q-8 -3 -18.5 -5t-23.5 -2q-38 0 -44.5 27
t4.5 57q7 28 13 56t13 57q6 28 13.5 57t18.5 59v0z" />
    <glyph glyph-name="upsilon" unicode="&#x3c5;" horiz-adv-x="540" 
d="M135 445q-36 0 -53 -24.5t-17 -60.5q1 -34 -4.5 -75t-11.5 -76q-8 -46 -12.5 -82t1.5 -67t26 -58t62 -54q19 -9 44 -16t46 -7q40 0 76 15t68 40q31 25 56 58t43 69q20 42 37.5 92.5t17.5 101.5q0 49 -25.5 84.5t-65.5 38.5q-21 0 -33 -13t-12 -35q0 -11 2 -21t5 -21
q2 -10 4.5 -21t2.5 -22q0 -27 -11 -77.5t-29 -93.5v1q-12 -23 -31.5 -48t-43.5 -43t-52 -24t-57 8h1q-24 12 -33 32.5t-8 43.5q1 24 8.5 48t15.5 45q19 39 30.5 89t13.5 100q0 37 -13.5 55t-47.5 18v0z" />
    <glyph glyph-name="phi" unicode="&#x3c6;" horiz-adv-x="540" 
d="M237 291q-8 -29 -14.5 -58t-12.5 -58l-12 -60t-13 -61q-38 36 -43.5 88t8.5 101q18 64 56 107t85 44q-16 -18 -31 -45.5t-23 -57.5v0zM276 455q-50 -1 -96 -21.5t-81 -54.5q-35 -35 -55.5 -81t-20.5 -97q0 -33 10.5 -65.5t29.5 -61.5t45.5 -52.5t58.5 -37.5
q-5 -16 -12 -31.5t-13 -31.5q-6 -15 -10.5 -31.5t-4.5 -33.5q0 -15 9 -28.5t34 -21.5q7 -3 19 -0.5t22 11.5q12 9 22 45.5t22 98.5q34 -4 69.5 6.5t66.5 27.5q55 36 90.5 98t35.5 127q0 54 -33.5 107t-80.5 83q-11 6 -26 12t-21 6q-12 0 -22 -3.5t-19 -9.5q0 1 1 3t1 5
q0 8 -10.5 18t-30.5 14v0zM330 325q6 21 15.5 33.5t15.5 7.5q25 -22 33 -53.5t8 -65.5q0 -32 -8 -67.5t-25 -66.5t-43.5 -53.5t-63.5 -27.5q15 70 25.5 118.5t18.5 81.5t13.5 54.5t10.5 38.5v0z" />
    <glyph glyph-name="chi" unicode="&#x3c7;" horiz-adv-x="480" 
d="M37 23q-13 -15 -15 -36.5t15 -36.5q18 -20 38 -17t39 24q21 24 43.5 52.5t48.5 62.5q8 -29 22 -58.5t33 -51.5q20 -23 46 -34.5t59 -2.5q16 4 31.5 19.5t27.5 39.5q12 25 14 46t-10 32q-15 12 -28 5t-25 -27q-5 -6 -14 -8.5t-20 2.5h2q-17 10 -27.5 27t-17.5 37
q-7 19 -11.5 39.5t-9.5 39.5q11 17 27 35t34 38q19 19 40.5 39.5t44.5 43.5q8 8 17 18.5t14 22.5t4 24.5t-11 23.5q-18 18 -39 22.5t-45 -14.5q-14 -12 -27 -31.5t-26 -41.5t-26 -44.5t-26 -39.5q-5 26 -12 58t-20 60q-14 27 -35 46t-54 19q-18 0 -39.5 -15t-37.5 -35
q-16 -21 -22 -44t8 -39q9 -11 19.5 -7t21.5 13q10 8 19.5 17.5t15.5 9.5q16 -18 24.5 -41t12.5 -48t6.5 -51t8.5 -48z" />
    <glyph glyph-name="psi" unicode="&#x3c8;" horiz-adv-x="550" 
d="M185 38q-23 12 -32.5 31t-10.5 42q-1 22 4 46.5t12 47.5q5 18 10 48t5 61q0 42 -16 79.5t-55 49.5q-26 6 -39 -1.5t-13 -20.5q0 -11 7 -22t17 -19q9 -7 13.5 -16.5t4.5 -19.5q0 -12 -3 -23.5t-6 -22.5q-4 -11 -9 -23t-9 -25q-6 -16 -11.5 -31.5t-10.5 -31.5t-8 -33
t-3 -35q0 -60 38.5 -91.5t96.5 -51.5q-4 -15 -9 -29l-10 -28q-6 -14 -11.5 -28.5t-9.5 -28.5q-4 -25 10.5 -40t38.5 -23q24 -4 38 16t21 49t10 58.5t6 44.5q42 6 85 21t77 42q35 27 57 66.5t22 93.5q0 12 -1.5 24.5t-3.5 25.5q-2 14 -3 29t-1 33t2 35t14 29q8 7 16.5 14.5
t16.5 14.5q7 7 12 14t5 13q0 9 -12 14.5t-33 6.5q-38 -11 -63 -38t-39 -62q-15 -34 -21 -70.5t-5 -64.5q1 -69 -32 -115t-86 -61q6 26 12 56.5t13 61.5t14.5 60.5t16.5 54.5q9 27 19 61t10 55t-11 36t-28 23q-24 6 -41.5 -6.5t-26.5 -40.5q-5 -91 -17.5 -177.5t-33.5 -177.5
v0z" />
    <glyph glyph-name="omega" unicode="&#x3c9;" horiz-adv-x="600" 
d="M270 411q-3 13 -10.5 19t-17.5 6q-9 0 -24.5 -6.5t-35.5 -18.5q-69 -42 -110.5 -114t-44.5 -164q-1 -33 5.5 -66t22.5 -60t41 -43.5t63 -16.5q29 0 56 16.5t50 37.5h1q15 -29 41 -49t57 -20q48 0 86.5 25.5t64.5 64.5q27 40 41.5 87t14.5 91q0 33 -9 68.5t-24 68.5
q-26 51 -49.5 78t-38.5 14q-8 -9 -5.5 -37.5t11.5 -57.5q22 -72 8 -152.5t-57 -144.5q-16 -24 -32 -32.5t-28 -0.5q-18 11 -24.5 28.5t-0.5 35.5q7 25 16.5 50.5t20.5 50.5q10 25 19.5 51t15.5 53q5 30 -6 54t-31 33q-25 7 -52.5 -27.5t-38.5 -94.5q-3 -14 -5 -29t-3 -32
q-2 -18 -4 -37t-4 -39q-3 -30 -21.5 -48.5t-43.5 -24.5q-15 -4 -24.5 4t-14.5 22q-6 14 -7.5 32t-1.5 35q0 24 3 56.5t11 64.5q9 31 24 59t39 44q27 17 43 35t13 31v0z" />
    <glyph glyph-name="SF100000" unicode="&#x2500;" horiz-adv-x="940" 
d="M940 280v40h-940v-40h940z" />
    <glyph glyph-name="SF110000" unicode="&#x2502;" horiz-adv-x="940" 
d="M450 -200h40v1000h-40v-1000z" />
    <glyph glyph-name="SF010000" unicode="&#x250c;" horiz-adv-x="940" 
d="M450 -200h40v480h450v40h-490v-520z" />
    <glyph glyph-name="SF030000" unicode="&#x2510;" horiz-adv-x="940" 
d="M450 -200h40v520h-490v-40h450v-480z" />
    <glyph glyph-name="SF040000" unicode="&#x2518;" horiz-adv-x="940" 
d="M490 280v520h-40v-480h-450v-40h490z" />
    <glyph glyph-name="SF020000" unicode="&#x2514;" horiz-adv-x="940" 
d="M940 280v40h-450v480h-40v-520h490z" />
    <glyph glyph-name="SF080000" unicode="&#x251c;" horiz-adv-x="940" 
d="M450 -200h40v480h450v40h-450v480h-40v-1000z" />
    <glyph glyph-name="SF060000" unicode="&#x252c;" horiz-adv-x="940" 
d="M450 -200h40v480h450v40h-940v-40h450v-480z" />
    <glyph glyph-name="SF090000" unicode="&#x2524;" horiz-adv-x="940" 
d="M450 -200h40v1000h-40v-480h-450v-40h450v-480z" />
    <glyph glyph-name="SF070000" unicode="&#x2534;" horiz-adv-x="940" 
d="M940 280v40h-450v480h-40v-480h-450v-40h940z" />
    <glyph glyph-name="SF050000" unicode="&#x253c;" horiz-adv-x="940" 
d="M450 -200h40v480h450v40h-450v480h-40v-480h-450v-40h450v-480z" />
    <glyph glyph-name="uni2501" unicode="&#x2501;" horiz-adv-x="940" 
d="M0 340v-80h940v80h-940z" />
    </font>
</defs>
</svg>
