<?xml version="1.0" standalone="no"?>
<!DOCTYPE svg PUBLIC "-//W3C//DTD SVG 1.1//EN" "http://www.w3.org/Graphics/SVG/1.1/DTD/svg11.dtd" >
<svg xmlns="http://www.w3.org/2000/svg" xmlns:xlink="http://www.w3.org/1999/xlink" version="1.1">
<metadata>
Created by FontForge 20200511 at Tue Sep 20 01:56:25 2016
 By convertio
Copyright
</metadata>
<defs>
<font id="YiSunShinDotumM" horiz-adv-x="840" >
  <font-face 
    font-family="YiSunShin Dotum M"
    font-weight="400"
    font-stretch="normal"
    units-per-em="1000"
    panose-1="2 2 6 3 2 1 1 2 1 1"
    ascent="800"
    descent="-200"
    x-height="450"
    cap-height="660"
    bbox="-50 -220 1079 814"
    underline-thickness="25"
    underline-position="-212"
    unicode-range="U+000D-FFE6"
  />
<missing-glyph horiz-adv-x="1000" 
d="M100 -100v800h800v-800h-800zM150 -50h700v700h-700v-700z" />
    <glyph glyph-name=".notdef" horiz-adv-x="1000" 
d="M100 -100v800h800v-800h-800zM150 -50h700v700h-700v-700z" />
    <glyph glyph-name="space" unicode=" " horiz-adv-x="250" 
 />
    <glyph glyph-name="exclam" unicode="!" horiz-adv-x="350" 
d="M269 655l-78 -515h-76q6 65 12 129t13 128q6 64 12.5 128t12.5 130h104zM81 -55l13 105h100q-2 -14 -3.5 -27.5t-3.5 -25.5q-1 -13 -3 -26t-3 -26h-100z" />
    <glyph glyph-name="quotedbl" unicode="&#x22;" horiz-adv-x="400" 
d="M93 490l-18 260h100l-18 -260h-64zM243 490l-18 260h100l-18 -260h-64z" />
    <glyph glyph-name="numbersign" unicode="#" horiz-adv-x="600" 
d="M397 460l28 195h67l-27 -195h100v-66h-109q-8 -51 -14 -92.5t-10 -75.5h103v-66h-112l-10 -69l-17 -126h-68l27 195h-152l-10 -69l-17 -126h-68l27 195h-100v66h110l23 168h-103v66h112l28 195h67l-27 -195h152zM212 226h153l23 168h-152q-8 -51 -14 -92.5t-10 -75.5z
" />
    <glyph glyph-name="dollar" unicode="$" horiz-adv-x="556" 
d="M252 651v104h66v-100q36 -1 78.5 -7t80.5 -17l-13 -80q-36 11 -71.5 18.5t-74.5 9.5v-231q31 -15 65 -33.5t61 -42.5q28 -24 46 -55.5t18 -71.5q0 -89 -53.5 -135t-136.5 -59v-106h-66v100h-17q-40 0 -81 9.5t-77 20.5l9 79q27 -10 72.5 -22t93.5 -12v266
q-31 13 -63.5 30.5t-59.5 40.5q-27 22 -44.5 50t-17.5 63q0 77 52 123t133 58zM414 140q0 37 -27 65t-69 51v-227q37 12 66.5 38.5t29.5 72.5zM160 480q0 -34 27 -58.5t65 -42.5v197q-39 -8 -65.5 -30.5t-26.5 -65.5z" />
    <glyph glyph-name="percent" unicode="%" horiz-adv-x="750" 
d="M100 -40l450 680h80l-450 -680h-80zM50 490q0 54 35.5 92t94.5 38q58 0 94 -38t36 -92q0 -53 -36.5 -91.5t-93.5 -38.5q-59 0 -94.5 38.5t-35.5 91.5zM121 490q0 -24 14 -44.5t45 -20.5q30 0 44 20.5t14 44.5q0 25 -15.5 45t-42.5 20q-28 0 -43.5 -20t-15.5 -45zM420 110
q0 54 35.5 92t94.5 38q58 0 94 -38t36 -92q0 -53 -36.5 -91.5t-93.5 -38.5q-59 0 -94.5 38.5t-35.5 91.5zM491 110q0 -24 14 -44.5t45 -20.5q30 0 44 20.5t14 44.5q0 25 -15.5 45t-42.5 20q-28 0 -43.5 -20t-15.5 -45z" />
    <glyph glyph-name="ampersand" unicode="&#x26;" horiz-adv-x="690" 
d="M540 332h84q-8 -74 -31 -133t-50 -101q26 -31 57.5 -67t59.5 -66h-111l-60 70q-39 -39 -88.5 -59.5t-110.5 -20.5q-103 0 -161.5 52t-58.5 138q0 75 43 122t116 77q-29 35 -52.5 74.5t-23.5 87.5q0 81 51.5 120t125.5 39q33 0 63.5 -9t53.5 -28t37 -47.5t14 -68.5
q0 -32 -14 -59t-36 -50q-22 -22 -50.5 -40t-56.5 -30l153 -173q21 33 31.5 73.5t14.5 98.5zM165 150q0 -30 11.5 -54t31.5 -41t46 -26t54 -9q50 0 83.5 25t51.5 46q-22 24 -44 49.5t-44 51.5q-22 25 -43.5 51t-42.5 51q-41 -29 -72.5 -61t-31.5 -83zM237 504q0 -36 21.5 -68
t45.5 -57q16 7 35.5 19.5t35.5 29.5q17 17 28 37t11 43q0 51 -25.5 71t-62.5 20t-63 -24t-26 -71z" />
    <glyph glyph-name="quotesingle" unicode="'" horiz-adv-x="278" 
d="M108 490l-18 260h100l-18 -260h-64z" />
    <glyph glyph-name="parenleft" unicode="(" horiz-adv-x="380" 
d="M310 -140h-75q-68 101 -109 207.5t-41 232.5t41 231.5t109 208.5h75q-57 -102 -96 -212.5t-39 -227.5q0 -118 37.5 -228t97.5 -212z" />
    <glyph glyph-name="parenright" unicode=")" horiz-adv-x="380" 
d="M145 -140h-75q59 102 97 212t38 228q0 117 -39 227.5t-96 212.5h75q67 -103 108.5 -208.5t41.5 -231.5t-41.5 -232.5t-108.5 -207.5z" />
    <glyph glyph-name="asterisk" unicode="*" horiz-adv-x="550" 
d="M351 353l-76 129q-10 -17 -19.5 -33t-19.5 -32q-10 -17 -19.5 -33t-18.5 -31l-72 48l103 116l-149 30l27 82l141 -58q-2 18 -4 37t-4 37l-4 38t-3 37h89l-15 -149q16 6 33 13.5t35 14.5q17 8 34 15t34 15l27 -82l-147 -30q12 -14 24.5 -28.5t25.5 -29.5t25.5 -29.5
t24.5 -28.5z" />
    <glyph glyph-name="plus" unicode="+" horiz-adv-x="620" 
d="M60 250v80h208v210h84v-210h208v-80h-208v-210h-84v210h-208z" />
    <glyph glyph-name="comma" unicode="," horiz-adv-x="280" 
d="M-7 -160l63 230h109q-15 -30 -28.5 -59t-27.5 -57t-27.5 -56.5t-27.5 -57.5h-61z" />
    <glyph glyph-name="hyphen" unicode="-" horiz-adv-x="600" 
d="M60 250v80h480v-80h-480z" />
    <glyph glyph-name="period" unicode="." horiz-adv-x="280" 
d="M40 -50v110h110v-110h-110z" />
    <glyph glyph-name="slash" unicode="/" horiz-adv-x="350" 
d="M10 -90l246 780h84q-30 -98 -61 -195.5t-62 -194.5q-32 -98 -62.5 -195.5t-60.5 -194.5h-84z" />
    <glyph glyph-name="zero" unicode="0" horiz-adv-x="620" 
d="M40 300q0 59 12 124.5t42 119.5q31 55 83 90.5t133 35.5q80 0 132 -35.5t83 -90.5q30 -54 42.5 -119.5t12.5 -124.5q0 -60 -12.5 -125.5t-42.5 -119.5q-31 -55 -83 -90t-132 -35q-81 0 -133 35t-83 90q-30 54 -42 119.5t-12 125.5zM134 300q0 -34 5.5 -84t24.5 -97
t53.5 -80.5t92.5 -33.5q57 0 91.5 33.5t53.5 80.5t25 97t6 84q0 33 -7 83.5t-26 97.5t-53.5 80.5t-89.5 33.5q-56 0 -90.5 -33.5t-53.5 -80.5t-25.5 -97.5t-6.5 -83.5z" />
    <glyph glyph-name="one" unicode="1" horiz-adv-x="480" 
d="M157 505q-15 -13 -26.5 -27.5t-20.5 -27.5l-30 40q-12 15 -12.5 28.5t12.5 24.5q27 22 47 39t37 31q16 13 29.5 24.5t27.5 22.5h87v-720h-94v613q-7 -6 -14.5 -12t-14.5 -12t-14.5 -12t-13.5 -12z" />
    <glyph glyph-name="two" unicode="2" horiz-adv-x="550" 
d="M245 670q49 0 93.5 -15t78.5 -42q33 -27 53 -66t20 -87q0 -33 -13.5 -66t-35.5 -65q-21 -32 -48 -62t-53 -57q-54 -54 -113.5 -102.5t-116.5 -92.5h390q3 -26 -6 -50.5t-39 -24.5h-435v102q19 16 37.5 31t37.5 30q18 14 36 28.5t35 28.5q31 26 71 63t75 78q36 41 60 84.5
t24 84.5q0 25 -13 47.5t-35 40.5q-22 17 -50 27.5t-58 10.5q-52 0 -99 -15t-86 -41l-10 51q-2 15 3 27.5t21 18.5q42 17 86.5 25t89.5 8z" />
    <glyph glyph-name="three" unicode="3" horiz-adv-x="550" 
d="M164 591q-32 -4 -60 -15.5t-49 -21.5l-5 48q-2 14 3 25.5t20 17.5q42 14 86 19.5t86 5.5q48 0 93.5 -12t79.5 -35q35 -24 56 -59.5t21 -83.5q0 -30 -14 -56.5t-36 -48.5t-50.5 -37.5t-56.5 -22.5q72 -12 119.5 -63t47.5 -122q0 -56 -26 -94t-67 -62q-42 -24 -95 -34
t-107 -10q-44 0 -86.5 6t-80.5 20q-15 5 -20 17t-3 27l5 50q18 -10 44.5 -22t55.5 -16q18 -3 38.5 -5.5t41.5 -2.5q43 0 80.5 9t65.5 26t44 40t16 51q0 39 -20 66.5t-50 45.5q-31 18 -68.5 26.5t-72.5 8.5h-80v74h80q28 0 63 8.5t66 25.5q30 16 51 40t21 55t-14.5 53
t-37.5 36q-24 14 -52.5 20.5t-56.5 6.5q-19 0 -38.5 -1.5t-37.5 -3.5z" />
    <glyph glyph-name="four" unicode="4" horiz-adv-x="600" 
d="M391 -60v165h-376v77q41 59 82 119t83 120q41 60 82 119.5t83 119.5h140v-480h100q3 -26 -6 -50.5t-39 -24.5h-55v-165h-94zM391 180v405l-281 -405h281z" />
    <glyph glyph-name="five" unicode="5" horiz-adv-x="540" 
d="M140 9q11 -3 20.5 -4t17.5 -1q9 -1 16.5 -0.5t15.5 0.5q32 0 67 11t63 32q29 20 47.5 49t18.5 64q0 40 -17.5 71t-45.5 52q-28 20 -64.5 31t-73.5 11q-48 0 -85 -7.5t-65 -19.5l10 362h415q3 -26 -6 -50.5t-39 -24.5h-281q-1 -23 -1.5 -48.5t-1.5 -51.5t-1.5 -51.5
t-1.5 -47.5q16 4 39 6.5t53 2.5q48 0 94.5 -17.5t83.5 -47.5t59.5 -70t22.5 -85q0 -57 -24.5 -102.5t-64.5 -77.5q-40 -31 -92.5 -48t-108.5 -17q-40 0 -74 5t-66 15q-15 3 -21 16.5t-4 28.5v50q16 -9 42 -20t53 -16z" />
    <glyph glyph-name="six" unicode="6" horiz-adv-x="590" 
d="M466 170q0 25 -9 52.5t-27 50.5q-19 23 -47.5 38t-67.5 15q-37 0 -68 -12t-53 -33q-23 -21 -35.5 -49.5t-12.5 -61.5q0 -26 10.5 -55.5t31.5 -53.5q21 -25 51.5 -41t70.5 -16q39 0 68 15t49 39q19 24 29 53.5t10 58.5zM355 596q-54 0 -94 -22.5t-68 -59.5
q-27 -38 -42 -85.5t-16 -98.5q38 34 85 51t100 17q52 0 96 -18t76 -49t50 -71t18 -85q0 -53 -19.5 -97.5t-53.5 -77.5q-33 -33 -79 -51.5t-98 -18.5q-80 0 -132 31.5t-83 82.5q-30 51 -42.5 114.5t-12.5 126.5q0 70 14.5 138.5t49.5 123.5q36 55 95.5 89t150.5 34
q36 0 72 -6t68 -16q15 -6 19.5 -17.5t3.5 -25.5l-5 -48q-37 18 -75.5 28.5t-77.5 10.5z" />
    <glyph glyph-name="seven" unicode="7" horiz-adv-x="540" 
d="M510 660v-76l-274 -644h-101l278 646h-383v74h480z" />
    <glyph glyph-name="eight" unicode="8" horiz-adv-x="590" 
d="M298 -70q-47 0 -93 13t-83 38q-37 24 -59.5 60.5t-22.5 83.5q0 66 49.5 117t120.5 78q-44 14 -73 35.5t-46 46.5t-24 52t-7 51q0 31 17 61t49 53q31 23 76 37t101 14q54 0 97 -14t73 -37q30 -22 46.5 -49.5t16.5 -54.5q0 -57 -32 -104t-110 -88q71 -27 118.5 -75.5
t47.5 -117.5q0 -51 -22 -89t-58 -62q-36 -25 -83.5 -37t-98.5 -12zM464 120q0 31 -11.5 53.5t-29.5 39.5q-19 16 -43 28t-48 23q-8 3 -15 5.5t-13 5.5q-6 2 -11.5 4.5t-9.5 5.5l-39 -23q-20 -11 -39 -23.5t-35 -28.5q-15 -16 -24.5 -35.5t-9.5 -44.5q0 -30 15 -53t40 -40
q25 -16 55.5 -24.5t60.5 -8.5q28 0 56 7.5t50 22.5t35.5 36.5t15.5 49.5zM156 490q0 -41 42 -76t124 -65q70 46 94 80.5t24 70.5q0 24 -14.5 42t-35.5 30t-46 18t-46 6q-22 0 -47 -7t-46 -20q-21 -14 -35 -33.5t-14 -45.5z" />
    <glyph glyph-name="nine" unicode="9" horiz-adv-x="590" 
d="M124 430q0 -26 8.5 -53.5t26.5 -50.5q19 -23 47.5 -37.5t68.5 -14.5q36 0 67 12t53 33q23 21 36 49.5t13 61.5q0 25 -11 54.5t-32 53.5q-21 25 -51.5 41.5t-69.5 16.5t-68.5 -15.5t-48.5 -39.5q-20 -24 -29.5 -53.5t-9.5 -57.5zM235 4q53 0 93 22t68 60q27 37 42 85
t17 99q-39 -35 -86 -51.5t-99 -16.5q-53 0 -97 17.5t-76 48.5t-49.5 71.5t-17.5 85.5q0 52 19 96.5t53 77.5q33 33 79 52t99 19q79 0 131 -32t83 -83q30 -51 43 -114t13 -126q0 -71 -15 -139.5t-50 -123.5q-36 -55 -95.5 -88.5t-149.5 -33.5q-36 0 -72.5 5.5t-67.5 16.5
q-15 5 -20 16.5t-3 26.5l5 48q36 -18 74.5 -28.5t78.5 -10.5z" />
    <glyph glyph-name="colon" unicode=":" horiz-adv-x="280" 
d="M195 535v-110h-110v110h110zM85 75v110h110v-110h-110z" />
    <glyph glyph-name="semicolon" unicode=";" horiz-adv-x="280" 
d="M36 -45l53 230h108l-101 -230h-60zM195 535v-110h-110v110h110z" />
    <glyph glyph-name="less" unicode="&#x3c;" horiz-adv-x="600" 
d="M550 560v-78l-405 -182q49 -23 100 -46l102 -46t101.5 -46t101.5 -44v-78q-64 28 -126 56l-124 56q-63 28 -125 56t-125 57v70q62 27 124.5 55.5t125.5 56.5q62 28 124.5 56.5t125.5 56.5z" />
    <glyph glyph-name="equal" unicode="=" horiz-adv-x="620" 
d="M65 370v80h490v-80h-490zM65 140v80h490v-80h-490z" />
    <glyph glyph-name="greater" unicode="&#x3e;" horiz-adv-x="600" 
d="M50 482v78q62 -28 124.5 -56.5t125.5 -56.5q62 -28 124.5 -56.5t125.5 -55.5v-70q-64 -29 -126 -57l-124 -56q-63 -28 -125 -56t-125 -56v78q50 21 100.5 44t101.5 46l102 46t101 46z" />
    <glyph glyph-name="question" unicode="?" horiz-adv-x="520" 
d="M195 -55v110h106v-110h-106zM237 670q43 0 84 -12t73 -35t51.5 -57.5t19.5 -79.5q0 -28 -9 -52t-24 -46q-15 -23 -34.5 -46t-41.5 -48q-24 -28 -44.5 -60t-20.5 -69v-25h-84v28q0 53 24.5 91t62.5 81q13 15 26.5 30.5t24.5 32.5t18 36t7 41q0 57 -43.5 84.5t-101.5 27.5
q-45 0 -81 -11.5t-66 -29.5l-8 51q-3 15 2.5 27t22.5 18q36 14 71 18.5t71 4.5z" />
    <glyph glyph-name="at" unicode="@" horiz-adv-x="810" 
d="M620 473l-66 -253q-3 -12 -5.5 -24t-2.5 -21q0 -12 3.5 -19t15.5 -7q22 0 44 15.5t39 41.5q18 26 29 61t11 73q0 58 -21.5 103.5t-57.5 76.5t-85 47t-104 16q-65 0 -117.5 -22.5t-90.5 -62.5q-37 -39 -57.5 -92.5t-20.5 -115.5q0 -72 22 -128t61 -95q40 -39 94 -59.5
t119 -20.5q61 0 119.5 24.5t98.5 64.5h77q-51 -76 -130 -117.5t-169 -41.5q-78 0 -146.5 25.5t-118.5 74.5q-51 48 -80 117t-29 156q0 82 29 149t79 114q51 48 118 74t143 26q66 0 127 -22t108 -61q46 -39 74 -94t28 -121q0 -72 -27 -124.5t-64 -86.5q-38 -35 -78.5 -51
t-68.5 -16q-25 0 -41.5 12.5t-19.5 40.5q-21 -21 -50.5 -37t-60.5 -16q-32 0 -59.5 12t-46.5 34q-20 21 -31 50t-11 63q0 46 15 91t43 81q28 35 68 57t90 22q34 0 63.5 -15.5t53.5 -50.5l8 29q0 2 1 4.5t2 5.5q0 3 1 6.5t3 6.5h72zM370 155q28 0 51.5 15.5t41.5 40.5
q17 24 27 53.5t10 56.5q0 36 -23 61.5t-55 25.5q-30 0 -55 -15t-43 -39q-18 -23 -28 -51t-10 -54q0 -40 22.5 -67t61.5 -27z" />
    <glyph glyph-name="A" unicode="A" horiz-adv-x="750" 
d="M110 -60h-95l300 720h52q24 0 44 -8.5t30 -31.5l294 -680h-100l-82 195h-363zM519 215l-141 335l-9 25l-9 -25l-137 -335h296z" />
    <glyph glyph-name="B" unicode="B" horiz-adv-x="650" 
d="M55 -60v720h280q54 0 100.5 -10t79.5 -32q34 -21 53.5 -55t19.5 -81q0 -69 -33.5 -109.5t-104.5 -62.5q75 -12 121.5 -60.5t46.5 -119.5q0 -56 -23.5 -92.5t-62.5 -58.5t-89 -30.5t-103 -8.5h-285zM151 270v-250h187q34 0 66.5 4.5t58.5 17.5q25 13 41 36t16 60t-20 62.5
t-50 40.5q-31 15 -67 22t-68 7h-164zM151 580v-230h149q36 0 70 5t61 19q26 14 42.5 37.5t16.5 60.5q0 32 -13.5 53t-34.5 33t-45.5 17t-46.5 5h-199z" />
    <glyph glyph-name="C" unicode="C" horiz-adv-x="610" 
d="M410 588q-68 0 -120 -22.5t-87 -61.5q-36 -39 -54 -91.5t-18 -112.5q0 -64 18.5 -117t54.5 -91t88 -59t118 -21q13 0 29.5 1.5t33.5 4.5q16 3 29.5 6t21.5 6q7 2 13.5 4t12.5 4q5 2 9.5 3.5t8.5 3.5l7 -45q3 -14 0 -23.5t-11 -15.5q-31 -18 -78.5 -22t-80.5 -4
q-84 0 -152.5 26t-116.5 74q-49 47 -75 114.5t-26 150.5q0 80 26 147t75 116q48 48 116.5 75t152.5 27q36 0 69.5 -6.5t67.5 -19.5q15 -6 19.5 -18.5t3.5 -27.5l-7 -51q-29 15 -67.5 30.5t-80.5 15.5z" />
    <glyph glyph-name="D" unicode="D" horiz-adv-x="680" 
d="M55 -60v720h210q77 0 146 -25t121 -72q52 -46 82.5 -113t30.5 -150q0 -92 -27.5 -159.5t-76.5 -112.5q-50 -44 -120 -66t-156 -22h-210zM151 580v-560h124q129 0 201.5 67.5t72.5 212.5q0 65 -22.5 117t-60.5 88t-87.5 55.5t-103.5 19.5h-124z" />
    <glyph glyph-name="E" unicode="E" horiz-adv-x="590" 
d="M520 350v-80h-369v-250h399q3 -26 -6 -53t-39 -27h-450v720h490q3 -26 -6 -53t-39 -27h-349v-230h369z" />
    <glyph glyph-name="F" unicode="F" horiz-adv-x="570" 
d="M525 350v-80h-374v-330h-96v720h480q3 -26 -6 -53t-39 -27h-339v-230h374z" />
    <glyph glyph-name="G" unicode="G" horiz-adv-x="690" 
d="M602 631q15 -6 19.5 -18.5t3.5 -27.5l-7 -51q-49 25 -99 39.5t-104 14.5q-63 0 -115 -23t-90 -62q-37 -39 -58 -91.5t-21 -111.5q0 -63 20 -116t57 -91q37 -39 88.5 -60t113.5 -21q31 0 68.5 1.5t60.5 10.5v241h-159v80h255v-380q-30 -10 -88.5 -20t-136.5 -10
q-85 0 -154 26.5t-118 74.5q-50 48 -76.5 115t-26.5 149q0 81 28.5 148t78.5 115t119 75t149 27q51 0 99 -9t93 -25z" />
    <glyph glyph-name="H" unicode="H" horiz-adv-x="700" 
d="M151 605v-255h398v310q15 2 32 1t31 -7t23.5 -18t9.5 -31v-665h-96v330h-398v-330h-96v720q15 2 32 1t31 -7t23.5 -18t9.5 -31z" />
    <glyph glyph-name="I" unicode="I" horiz-adv-x="240" 
d="M168 605v-665h-96v720q15 2 32 1t31 -7t23.5 -18t9.5 -31z" />
    <glyph glyph-name="J" unicode="J" horiz-adv-x="340" 
d="M80 10q63 0 83.5 35t20.5 95v520q15 2 32 1t31 -7t23.5 -18t9.5 -31v-485q0 -36 -8 -70t-29 -61q-20 -27 -56 -43t-92 -16q-20 0 -35.5 1t-25.5 8q-11 6 -17 16.5t-7 24.5l-5 40q6 -2 12.5 -3.5t15.5 -3.5q9 -1 20 -2t27 -1z" />
    <glyph glyph-name="K" unicode="K" horiz-adv-x="620" 
d="M151 605v-665h-96v720q15 2 32 1t31 -7t23.5 -18t9.5 -31zM164 320q0 1 0.5 2.5t1.5 3.5l281 304q12 12 26 20t32 10h85l-318 -340q43 -45 85.5 -93.5t85.5 -96.5q43 -49 85.5 -97.5t86.5 -92.5h-115l-334 373q-1 1 -1.5 2.5t-0.5 4.5z" />
    <glyph glyph-name="L" unicode="L" horiz-adv-x="560" 
d="M151 605v-585h384q3 -26 -6 -53t-39 -27h-435v720q15 2 32 1t31 -7t23.5 -18t9.5 -31z" />
    <glyph glyph-name="M" unicode="M" 
d="M600 593q2 6 5 12t7 12q15 28 36.5 35.5t48.5 7.5h88v-720h-95v595l1 45q-10 -19 -15 -29.5t-8 -18.5q-27 -72 -51 -134t-48 -121q-24 -58 -48.5 -116t-52.5 -121h-96q-27 67 -51.5 125.5t-48.5 115.5q-25 58 -49.5 118.5t-50.5 132.5l-23 48l1 -49v-591h-95v720h92
q27 0 48 -7.5t37 -35.5q1 -3 5 -12.5t21 -51.5q17 -41 51.5 -128t98.5 -245l4 -12l4 -12q1 -6 2.5 -11.5t3.5 -9.5q3 11 7 23.5t8 21.5q26 66 50 126.5t44 112.5q21 53 38 97t31 77z" />
    <glyph glyph-name="N" unicode="N" horiz-adv-x="700" 
d="M208 617l317 -515l27 -47q-1 7 -1.5 9t-0.5 4v9v23v560q15 2 31.5 1t30.5 -7t23.5 -18t9.5 -31v-665h-124l-349 578l-24 47q1 -15 1.5 -25.5t0.5 -22.5v-577h-95v720h63q28 0 50.5 -7.5t39.5 -35.5z" />
    <glyph glyph-name="O" unicode="O" horiz-adv-x="740" 
d="M131 300q0 -55 14 -107.5t43 -92.5q29 -41 74.5 -65.5t107.5 -24.5q61 0 106.5 24.5t74.5 65.5q29 40 43.5 92.5t14.5 107.5t-15 107.5t-45 92.5q-30 41 -75 65.5t-104 24.5q-60 0 -105 -24.5t-75 -65.5q-30 -40 -44.5 -92.5t-14.5 -107.5zM35 300q0 81 22.5 148.5
t65.5 117.5q42 49 104.5 76.5t142.5 27.5q79 0 141.5 -27.5t105.5 -76.5q42 -50 65 -117.5t23 -148.5q0 -83 -22.5 -151.5t-65.5 -116.5q-43 -49 -105.5 -75.5t-141.5 -26.5q-80 0 -142.5 26.5t-105.5 75.5q-43 48 -65 116.5t-22 151.5z" />
    <glyph glyph-name="P" unicode="P" horiz-adv-x="615" 
d="M151 580v-275h184q28 0 56 8.5t51 25.5t37.5 43.5t14.5 62.5q0 35 -13 60.5t-35 41.5q-22 17 -51 25t-60 8h-184zM55 -60v720h270q52 0 100 -12t85 -37q36 -26 58 -67t22 -99q0 -57 -24 -98.5t-62 -68.5t-85.5 -40t-93.5 -13h-174v-285h-96z" />
    <glyph glyph-name="Q" unicode="Q" horiz-adv-x="740" 
d="M35 300q0 81 22.5 148.5t65.5 117.5q42 49 104.5 76.5t142.5 27.5q79 0 141.5 -27.5t105.5 -76.5q42 -50 65 -117.5t23 -148.5q0 -78 -20 -142t-57 -112l127 -116h-125l-63 58q-39 -28 -88.5 -43t-108.5 -15q-80 0 -142.5 26.5t-105.5 75.5q-43 48 -65 116.5t-22 151.5z
M330 205h125l103 -95q25 39 38 88.5t13 101.5q0 55 -15 107.5t-45 92.5q-30 41 -75 65.5t-104 24.5q-60 0 -105 -24.5t-75 -65.5q-30 -40 -44.5 -92.5t-14.5 -107.5t14 -107.5t43 -92.5q29 -41 74.5 -65.5t107.5 -24.5q39 0 71 10t59 29z" />
    <glyph glyph-name="R" unicode="R" horiz-adv-x="645" 
d="M55 -60v720h255q55 0 105 -9.5t88 -31.5q37 -23 59.5 -60.5t22.5 -93.5q0 -32 -13.5 -59t-36.5 -48t-53.5 -35.5t-63.5 -20.5q29 -12 49.5 -28t35.5 -46l127 -288h-110l-103 252q-22 51 -54.5 62t-72.5 11h-139v-325h-96zM151 580v-235h159q34 0 66.5 9t57.5 26
q24 16 39.5 38.5t15.5 49.5q0 50 -41 81t-113 31h-184z" />
    <glyph glyph-name="S" unicode="S" horiz-adv-x="590" 
d="M68 -41q-16 3 -21 16t-2 28l15 52q49 -22 97.5 -32.5t97.5 -10.5q34 0 70 8t66 24q29 16 48.5 40t19.5 56q0 25 -15 45t-39 35q-24 16 -53.5 28t-58.5 24l-22 8q-37 14 -78.5 31t-76.5 41q-35 23 -58 53t-23 70q0 45 22 80.5t61 59.5t92 37t115 13q45 0 87.5 -7t83.5 -15
q15 -4 21 -17t3 -27l-15 -51q-47 20 -94.5 30t-95.5 10q-33 0 -65.5 -7t-59.5 -21q-26 -13 -42.5 -33.5t-16.5 -46.5q0 -21 14.5 -37.5t38.5 -30.5q23 -14 51.5 -25.5t55.5 -21.5q3 -2 6.5 -3.5t7.5 -2.5t7.5 -2t6.5 -2q38 -15 79.5 -33.5t76.5 -43.5q34 -25 57 -58t23 -75
q0 -56 -24 -95.5t-66 -65.5q-42 -25 -99.5 -37t-125.5 -12q-46 0 -89 6.5t-83 17.5z" />
    <glyph glyph-name="T" unicode="T" horiz-adv-x="650" 
d="M20 660h610q3 -26 -6 -53t-39 -27h-212v-640h-96v640h-257v80z" />
    <glyph glyph-name="U" unicode="U" horiz-adv-x="700" 
d="M151 605v-365q0 -102 51 -166t148 -64q96 0 147.5 64t51.5 166v420q15 2 32 1t31 -7t23.5 -18t9.5 -31v-378q0 -74 -22 -129.5t-61 -92.5q-39 -38 -93.5 -56.5t-118.5 -18.5q-65 0 -119.5 18.5t-93.5 56.5q-39 37 -60.5 92.5t-21.5 129.5v433q15 2 32 1t31 -7t23.5 -18
t9.5 -31z" />
    <glyph glyph-name="V" unicode="V" horiz-adv-x="690" 
d="M562 606q10 29 31.5 41.5t48.5 12.5h38l-272 -720h-126l-272 720h50q22 0 39 -7.5t30 -32.5v-2.5t3 -8.5q2 -6 7.5 -20.5t15.5 -41.5q9 -26 24 -67t37 -100t52 -139t69 -185l13 -41l13 40q25 70 49.5 138t49.5 137q25 68 49.5 136.5t50.5 139.5z" />
    <glyph glyph-name="W" unicode="W" horiz-adv-x="950" 
d="M468 606l159 -551l13 -40l13 41l168 564q12 25 29 32.5t40 7.5h50q-34 -89 -62 -179.5t-54 -180.5q-27 -91 -55 -181.5t-61 -178.5h-126l-108 333l-106 -333h-126q-34 88 -62 178.5t-54 181.5q-27 90 -55 180.5t-61 179.5h50q22 0 39 -7.5t30 -32.5l168 -564l13 -41
l13 40l105 361l-78 244h38q27 0 48 -12.5t32 -41.5z" />
    <glyph glyph-name="X" unicode="X" horiz-adv-x="661" 
d="M15 -60l263 375q-31 42 -61.5 85.5t-60.5 86.5t-60.5 86.5t-60.5 86.5h71q21 0 36.5 -8t30.5 -29l160 -233q7 8 29.5 39.5t49.5 69.5q26 38 50.5 73.5t35.5 52.5q12 18 30.5 26.5t40.5 8.5h61l-244 -340l264 -380h-112l-208 302q-26 -37 -52.5 -75t-52.5 -76
q-27 -39 -53.5 -77t-51.5 -74h-105z" />
    <glyph glyph-name="Y" unicode="Y" horiz-adv-x="670" 
d="M287 -60v313q-67 97 -138 202t-134 205h65q21 0 37 -7t29 -30l175 -260l15 -28q1 3 3 6.5t4 7.5q2 3 4 7t4 7q61 93 95 145t51 77q16 25 20.5 31t6.5 9q12 18 30.5 26.5t40.5 8.5h60l-272 -407v-313h-96z" />
    <glyph glyph-name="Z" unicode="Z" horiz-adv-x="580" 
d="M145 50l-27 -30h437q3 -26 -6 -53t-39 -27h-485v84q48 62 96 128t97 133t97.5 133t96.5 129l28 33h-400v80h500v-84q-47 -61 -97 -128t-101 -135q-51 -69 -101 -136t-96 -127z" />
    <glyph glyph-name="bracketleft" unicode="[" horiz-adv-x="350" 
d="M110 -150v910h190v-65h-110v-780h110v-65h-190z" />
    <glyph glyph-name="backslash" unicode="\" horiz-adv-x="1080" 
d="M192 340h-112v58h96l-62 232h99l57 -232h158l50 232h131l51 -232h159q13 58 27.5 116t30.5 116h94l-64 -232h93v-58h-109l-102 -370h-118l-81 370h-92l-82 -370h-124zM673 340l61 -278h4q9 34 17.5 68.5t17.5 69.5l16 70t17 70h-133zM284 340l69 -278h4l59 278h-132z
M545 550l-34 -152h67z" />
    <glyph glyph-name="bracketright" unicode="]" horiz-adv-x="350" 
d="M240 760v-910h-190v65h110v780h-110v65h190z" />
    <glyph glyph-name="asciicircum" unicode="^" horiz-adv-x="550" 
d="M75 450l160 300h80l160 -300h-85l-115 230l-115 -230h-85z" />
    <glyph glyph-name="underscore" unicode="_" horiz-adv-x="500" 
d="M-1 -150v52h502v-52h-502z" />
    <glyph glyph-name="grave" unicode="`" horiz-adv-x="220" 
d="M115 750l85 -180h-65l-130 180h110z" />
    <glyph glyph-name="a" unicode="a" horiz-adv-x="550" 
d="M415 136v52q-15 0 -44 1t-56 1t-62.5 -3t-67.5 -13t-53.5 -30t-21.5 -54q0 -20 11.5 -36t30.5 -27q18 -12 42.5 -17.5t50.5 -5.5q34 0 65 9.5t54 27.5q24 18 37.5 42t13.5 53zM240 386q-49 -1 -91 -18t-79 -43l-5 50q-3 13 1 24.5t19 17.5q43 19 84.5 31t85.5 12
q120 0 185 -52t65 -157v-231q0 -22 0.5 -35t2.5 -21q1 -8 3 -13.5t4 -10.5q-15 -2 -31.5 -2.5t-29.5 2.5q-14 3 -22.5 11t-8.5 24v40q-10 -14 -29.5 -29t-45.5 -27q-25 -13 -54.5 -21t-58.5 -8q-99 0 -157 40t-58 120q0 47 21.5 79.5t57.5 51.5q36 20 82 28.5t94 8.5l140 -2
q-2 64 -47 97.5t-128 32.5z" />
    <glyph glyph-name="b" unicode="b" horiz-adv-x="575" 
d="M135 20v-40q0 -31 -27.5 -37.5t-57.5 -2.5v750q14 2 29.5 1t29.5 -7q13 -6 22 -18t9 -31v-263q25 36 70 62t108 26q54 0 97 -21.5t73 -56.5q30 -36 46 -83t16 -99t-15 -100.5t-44 -86.5t-72.5 -60.5t-100.5 -22.5q-66 0 -113.5 30t-69.5 60zM460 195q0 34 -10.5 68.5
t-30.5 61.5t-50 44t-69 17q-40 0 -70 -16.5t-50 -43.5t-30 -61t-10 -70q0 -33 9 -66.5t29 -61.5q19 -28 49.5 -45.5t72.5 -17.5q39 0 68.5 18t50.5 47q20 28 30.5 61.5t10.5 64.5z" />
    <glyph glyph-name="c" unicode="c" horiz-adv-x="490" 
d="M120 195q0 -84 54.5 -137.5t165.5 -53.5q38 0 69.5 10t55.5 20l7 -43q2 -13 -1 -22t-11 -15q-34 -16 -66.5 -20t-63.5 -4q-138 0 -219 71t-81 194q0 130 81 197.5t224 67.5q27 0 51.5 -5.5t51.5 -14.5q15 -6 19 -16t3 -24l-8 -50q-23 13 -56 25t-70 11q-98 -3 -152 -52
t-54 -139z" />
    <glyph glyph-name="d" unicode="d" horiz-adv-x="575" 
d="M525 635v-615q0 -22 0.5 -35t2.5 -21q1 -8 3 -13.5t4 -10.5q-15 -2 -32 -2.5t-31 2.5t-23 11t-9 24v45q-23 -30 -70 -60t-113 -30q-58 0 -101.5 22.5t-72.5 60.5t-43.5 86.5t-14.5 100.5t15.5 99t45.5 83q30 35 73 56.5t98 21.5q63 0 107.5 -26t70.5 -62v318q14 2 29.5 1
t29.5 -7q13 -6 22 -18t9 -31zM115 195q0 -31 10 -64.5t31 -61.5q20 -29 50 -47t69 -18q41 0 71.5 17.5t49.5 45.5q20 28 29.5 61.5t9.5 66.5q0 36 -10.5 70t-30.5 61t-50 43.5t-69 16.5q-40 0 -70 -17t-50 -44t-30 -61.5t-10 -68.5z" />
    <glyph glyph-name="e" unicode="e" horiz-adv-x="555" 
d="M122 240h315q-1 28 -12 54t-31 47q-19 20 -47 32.5t-62 12.5q-38 0 -67.5 -13.5t-49.5 -34.5t-31.5 -47t-14.5 -51zM475 48l7 -46q1 -13 0 -22.5t-10 -15.5q-38 -24 -80 -29t-82 -5q-138 0 -209 73t-71 197q0 56 18 104t52 82q33 35 80 54.5t105 19.5q66 0 112.5 -22.5
t75.5 -61.5q30 -39 43.5 -92t13.5 -114h-408q1 -75 52.5 -120.5t135.5 -45.5q45 0 86.5 12t78.5 32z" />
    <glyph glyph-name="f" unicode="f" horiz-adv-x="390" 
d="M366 691q13 -4 18 -13.5t4 -21.5l-3 -44q-10 4 -22 5.5t-38 3.5q-32 0 -50 -8.5t-27 -24.5q-9 -15 -11 -36.5t-2 -46.5v-55h155q3 -26 -6 -51t-39 -25h-110v-434h-90v434h-140v76h140v45q0 46 6 83t24 63t50.5 40t84.5 14q15 0 29.5 -0.5t26.5 -3.5z" />
    <glyph glyph-name="g" unicode="g" horiz-adv-x="575" 
d="M115 220q0 -70 41 -117t119 -47q77 0 118.5 46t41.5 118q0 32 -10 62t-30 53t-50 37t-70 14q-39 0 -69 -15t-50 -38q-20 -24 -30.5 -53.5t-10.5 -59.5zM270 -136q76 0 120.5 46.5t44.5 129.5l-1 26q-26 -36 -71 -60t-106 -24q-110 0 -171 64t-61 169q0 51 14.5 95.5
t43.5 77.5t72.5 52.5t101.5 19.5q64 0 111.5 -29t70.5 -59l-1 38q0 30 28.5 36.5t58.5 3.5v-420q0 -117 -65 -178.5t-200 -61.5q-48 0 -92 7.5t-83 24.5q-9 6 -12 14.5t0 21.5l7 50q48 -21 94 -32.5t96 -11.5z" />
    <glyph glyph-name="h" unicode="h" horiz-adv-x="570" 
d="M50 -60v750q14 2 29.5 1t29.5 -7q13 -6 22 -18t9 -31v-265q29 45 75.5 67.5t99.5 22.5q96 0 155.5 -58t59.5 -160v-302h-90v262q0 90 -34.5 137t-100.5 47q-79 0 -122 -60.5t-43 -153.5v-232h-90z" />
    <glyph glyph-name="i" unicode="i" horiz-adv-x="220" 
d="M155 395v-455h-90v510q14 2 29.5 1t29.5 -7q13 -6 22 -18t9 -31zM50 610q0 24 17.5 42t42.5 18q24 0 42 -18t18 -42q0 -25 -18 -42.5t-42 -17.5q-25 0 -42.5 17.5t-17.5 42.5z" />
    <glyph glyph-name="j" unicode="j" horiz-adv-x="220" 
d="M10 -130q45 0 55 29.5t10 90.5v458q15 2 30.5 1t29.5 -7q13 -6 21.5 -17.5t8.5 -29.5v-425q0 -36 -4.5 -67.5t-19.5 -55.5q-14 -24 -42 -38t-74 -14q-19 0 -29 1.5t-21 7.5q-9 5 -13.5 16.5t-6.5 24.5l-5 35q15 -5 30 -7.5t30 -2.5zM60 610q0 24 17.5 42t42.5 18
q24 0 42 -18t18 -42q0 -25 -18 -42.5t-42 -17.5q-25 0 -42.5 17.5t-17.5 42.5z" />
    <glyph glyph-name="k" unicode="k" horiz-adv-x="520" 
d="M140 635v-695h-90v750q14 2 29.5 1t29.5 -7q13 -6 22 -18t9 -31zM157 226l195 194q12 12 26 20t32 10h90l-235 -230q66 -69 132.5 -140t132.5 -140h-115l-258 273q-1 1 -1.5 2.5t-0.5 4.5q0 1 0.5 2.5t1.5 3.5z" />
    <glyph glyph-name="l" unicode="l" horiz-adv-x="200" 
d="M146 635v-695h-91v750q14 2 30 1t29 -7q14 -6 23 -18t9 -31z" />
    <glyph glyph-name="m" unicode="m" 
d="M50 -60v510q30 3 58.5 -3.5t28.5 -36.5l-1 -40q30 49 71 69.5t98 20.5q43 0 86 -25t65 -81q14 29 33.5 49.5t40.5 32.5q21 13 42 18.5t38 5.5q95 0 142.5 -57.5t47.5 -140.5v-322h-90v302q0 24 -6.5 49.5t-19.5 46.5q-14 21 -34.5 34.5t-49.5 13.5q-37 0 -62 -17.5
t-40 -44.5q-15 -28 -21.5 -63t-6.5 -71v-250h-90v302q0 24 -5 49.5t-16 46.5q-12 21 -31 34.5t-48 13.5q-37 0 -63.5 -17.5t-43.5 -44.5q-17 -28 -25 -63t-8 -71v-250h-90z" />
    <glyph glyph-name="n" unicode="n" horiz-adv-x="570" 
d="M137 410l-1 -34q27 40 77.5 62t101.5 22q98 0 156.5 -59t58.5 -161v-300h-90v260q0 90 -36 138t-99 48q-83 0 -124 -59t-41 -152v-235h-90v510q30 3 58.5 -3.5t28.5 -36.5z" />
    <glyph glyph-name="o" unicode="o" horiz-adv-x="580" 
d="M30 195q0 57 18 105.5t52 83.5t82 55.5t108 20.5q59 0 107 -20.5t82 -55.5t52.5 -83.5t18.5 -105.5q0 -54 -19 -102.5t-53 -84.5q-35 -36 -82.5 -57t-105.5 -21q-59 0 -107 21t-82 57t-52.5 84.5t-18.5 102.5zM120 195q0 -35 9.5 -69t30.5 -61q20 -28 52.5 -44.5
t77.5 -16.5q43 0 75 16.5t53 44.5q21 27 31.5 61t10.5 69q0 36 -11.5 70.5t-33.5 60.5q-22 27 -53.5 43.5t-71.5 16.5q-41 0 -72.5 -16.5t-53.5 -43.5q-22 -26 -33 -60.5t-11 -70.5z" />
    <glyph glyph-name="p" unicode="p" horiz-adv-x="575" 
d="M50 -210v660q30 3 58.5 -3.5t28.5 -36.5l-2 -38q22 32 70 60t113 28q57 0 100.5 -21t72.5 -56t44 -81t15 -97q0 -53 -16 -97.5t-46 -77.5t-73 -51.5t-97 -18.5q-62 0 -109 25.5t-69 61.5v-257h-90zM460 210q0 30 -11 61t-31 57q-20 25 -50 41.5t-68 16.5
q-42 0 -72.5 -15.5t-49.5 -40.5q-20 -25 -29 -56.5t-9 -63.5q0 -36 10 -68t30 -56t50 -38t70 -14q39 0 69 14t50 39q20 24 30.5 56t10.5 67z" />
    <glyph glyph-name="q" unicode="q" horiz-adv-x="575" 
d="M525 450v-660h-90v257q-24 -37 -70.5 -62t-107.5 -25q-55 0 -98 18.5t-73 51.5t-45.5 77.5t-15.5 97.5q0 51 14.5 97t43.5 81t72.5 56t101.5 21q64 0 112 -28.5t71 -59.5l-2 38q0 30 28.5 36.5t58.5 3.5zM115 210q0 -35 10 -67t30 -56q20 -25 50 -39t70 -14q39 0 69 14
t50 38t30.5 56t10.5 68q0 32 -9.5 63.5t-29.5 56.5q-19 25 -49.5 40.5t-71.5 15.5q-39 0 -69 -16.5t-50 -41.5q-20 -26 -30.5 -57t-10.5 -61z" />
    <glyph glyph-name="r" unicode="r" horiz-adv-x="420" 
d="M50 -60v510q30 3 58.5 -3.5t28.5 -36.5l-1 -40q12 19 32.5 35.5t44.5 28.5q25 12 51.5 19t50.5 7t54 -5t46 -10l-15 -80q-14 6 -37.5 10.5t-42.5 4.5q-37 0 -69.5 -13.5t-57.5 -38.5q-25 -26 -39 -63t-14 -85v-240h-90z" />
    <glyph glyph-name="s" unicode="s" horiz-adv-x="435" 
d="M362 446q14 -3 20 -13t4 -23l-6 -50q-37 15 -67 20.5t-78 5.5q-47 0 -82.5 -14.5t-35.5 -46.5q0 -16 11 -28.5t28 -22.5t38 -18.5t42 -15.5q27 -11 57.5 -24.5t56.5 -31.5q26 -19 43 -44.5t17 -59.5q0 -41 -17.5 -69.5t-46.5 -46.5q-28 -18 -65 -26t-76 -8
q-53 0 -89.5 5.5t-62.5 12.5q-15 3 -20 13t-3 24l5 50q44 -17 81 -24t74 -7q19 0 41 3t42 11q19 8 32 21.5t13 35.5q0 15 -10.5 27.5t-27.5 23.5t-39 21l-44 20q-26 10 -56.5 23t-55.5 30q-26 17 -43 39t-17 51q0 40 17 68.5t47 46.5q29 18 68 26.5t83 8.5q18 0 35 -1.5
t32 -3.5t29 -4.5t26 -4.5z" />
    <glyph glyph-name="t" unicode="t" horiz-adv-x="390" 
d="M310 11q15 0 25 1t17 2q7 2 11 4t9 4l3 -45q1 -13 -4 -22t-18 -13q-14 -4 -29 -5.5t-29 -1.5q-72 0 -121 36t-49 114v289h-120v74h120v152h90v-152h150q3 -26 -6 -51t-39 -25h-105v-267q0 -50 27 -72t68 -22z" />
    <glyph glyph-name="u" unicode="u" horiz-adv-x="570" 
d="M520 395v-394q0 -15 1 -25t2 -16q1 -7 3 -11.5t4 -8.5q-15 -2 -32 -2.5t-31 2.5t-23 11t-9 24v40q-28 -41 -79 -63t-101 -22q-99 0 -157 58.5t-58 161.5v300q14 2 29.5 1t29.5 -7q13 -6 22 -18t9 -31v-205q0 -91 35.5 -138.5t99.5 -47.5q82 0 123.5 59t41.5 152v235
q14 2 29.5 1t29.5 -7q13 -6 22 -18t9 -31z" />
    <glyph glyph-name="v" unicode="v" horiz-adv-x="540" 
d="M275 25l140 371q10 29 30 41.5t47 12.5h38l-204 -510h-107l-209 510h46q22 0 39 -7.5t30 -32.5z" />
    <glyph glyph-name="w" unicode="w" horiz-adv-x="770" 
d="M395 396l120 -371l130 385q12 25 29 32.5t40 7.5h46l-189 -510h-107l-79 218l-79 -218h-107l-189 510h46q22 0 39 -7.5t30 -32.5l130 -385l84 261l-59 164h38q27 0 46.5 -12.5t30.5 -41.5z" />
    <glyph glyph-name="x" unicode="x" horiz-adv-x="520" 
d="M15 -60l199 262q-23 30 -46 61l-46 62q-24 31 -47 62.5t-45 62.5h64q18 0 33 -5.5t27 -20.5l108 -154q10 13 24 31.5t29 39.5q16 20 30.5 41t26.5 38q11 15 28 22.5t38 7.5h52l-184 -242q24 -33 49 -67t50 -67q25 -34 50 -67.5t50 -66.5h-106l-141 200l-148 -200h-95z
" />
    <glyph glyph-name="y" unicode="y" horiz-adv-x="540" 
d="M226 -20q0 9 -6 28t-12 32l-193 410h45q22 0 40 -7t30 -33l145 -326l135 312q12 28 31.5 41t46.5 13h37l-207 -460q-15 -33 -32.5 -66.5t-40.5 -61.5q-22 -28 -51.5 -46t-68.5 -21q-13 0 -24.5 1.5t-20.5 3.5q-14 4 -18 13t-2 22l5 45q2 -2 4 -3t5 -3q4 -1 11 -2t20 -1
q33 0 56 15.5t37 34.5q14 20 21 37.5t7 21.5z" />
    <glyph glyph-name="z" unicode="z" horiz-adv-x="510" 
d="M465 367l-330 -351h340q3 -26 -6 -51t-39 -25h-395v83l-1 -1l326 352h-310v76h415v-83z" />
    <glyph glyph-name="braceleft" unicode="{" horiz-adv-x="370" 
d="M320 760v-62h-45q-33 0 -43.5 -25.5t-10.5 -54.5v-192q0 -30 -9.5 -51t-23.5 -34q-13 -14 -28 -21.5t-25 -10.5v-9q10 -2 25 -9t28 -20q14 -14 23.5 -36t9.5 -54v-189q0 -30 10.5 -55t43.5 -25h45v-62h-70q-18 0 -37 7.5t-35 22.5t-26.5 38t-10.5 54v193q0 51 -30.5 79
t-60.5 30v62q30 1 60.5 28.5t30.5 75.5v198q0 30 10.5 53t26.5 38t35 23t37 8h70z" />
    <glyph glyph-name="bar" unicode="|" horiz-adv-x="300" 
d="M120 -150v910h60v-910h-60z" />
    <glyph glyph-name="braceright" unicode="}" horiz-adv-x="370" 
d="M50 698v62h70q17 0 36 -8t35 -23t27 -38t11 -53v-198q0 -48 30 -75.5t61 -28.5v-62q-31 -2 -61 -30t-30 -79v-193q0 -31 -11 -54t-27 -38t-35 -22.5t-36 -7.5h-70v62h45q33 0 43.5 25t10.5 55v189q0 32 9.5 54t22.5 36q14 13 28.5 20t25.5 9v9q-11 3 -25.5 10.5
t-28.5 21.5q-13 13 -22.5 34t-9.5 51v192q0 29 -10.5 54.5t-43.5 25.5h-45z" />
    <glyph glyph-name="asciitilde" unicode="~" horiz-adv-x="600" 
d="M495 376l37 -72q-16 -32 -46.5 -59t-79.5 -27q-27 0 -54.5 9t-56.5 22l-25 11q-11 4 -21.5 9t-20.5 8q-10 4 -19 6.5t-16 2.5q-15 0 -27.5 -7t-22.5 -18q-11 -10 -20 -23.5t-18 -25.5l-37 72q15 32 46 59t80 27q26 0 53.5 -9.5t57.5 -21.5l25 -11q10 -5 20.5 -10t20.5 -8
q10 -4 19 -6t17 -2q15 0 27 6.5t23 17.5q10 10 19.5 23.5t18.5 26.5z" />
    <glyph glyph-name="glyph96" horiz-adv-x="0" 
 />
    <glyph glyph-name="glyph97" horiz-adv-x="0" 
 />
    <glyph glyph-name="glyph98" horiz-adv-x="0" 
 />
    <glyph glyph-name="glyph99" horiz-adv-x="0" 
 />
    <glyph glyph-name="glyph100" horiz-adv-x="0" 
 />
    <glyph glyph-name="uni3000" unicode="&#x3000;" horiz-adv-x="940" 
 />
    <glyph glyph-name="uni3000" unicode="&#x3164;" horiz-adv-x="940" 
 />
    <glyph glyph-name="uni3001" unicode="&#x3001;" horiz-adv-x="470" 
d="M80 530l-50 45q0 3 17 33.5t58 86.5q18 26 40.5 49.5t49.5 50.5l65 -70q-21 -14 -50 -39.5t-45 -45.5q-12 -14 -23.5 -27t-22.5 -26t-21 -27t-18 -30z" />
    <glyph glyph-name="uni3002" unicode="&#x3002;" horiz-adv-x="470" 
d="M20 690q0 42 29 71t71 29t71 -29t29 -71t-29 -71t-71 -29t-71 29t-29 71zM65 690q0 -23 16 -39t39 -16q22 0 38.5 16t16.5 39q0 22 -16.5 38.5t-38.5 16.5q-23 0 -39 -16.5t-16 -38.5z" />
    <glyph glyph-name="glyph104" horiz-adv-x="0" 
 />
    <glyph glyph-name="twodotenleader" unicode="&#x2025;" horiz-adv-x="900" 
d="M168 248v114h114v-114h-114zM618 248v114h114v-114h-114z" />
    <glyph glyph-name="ellipsis" unicode="&#x2026;" horiz-adv-x="930" 
d="M105 235v105h100v-105h-100zM415 235v105h100v-105h-100zM725 235v105h100v-105h-100z" />
    <glyph glyph-name="dieresis" unicode="&#xa8;" horiz-adv-x="940" 
d="M185 235v105h100v-105h-100zM655 235v105h100v-105h-100z" />
    <glyph glyph-name="uni3003" unicode="&#x3003;" horiz-adv-x="470" 
d="M175 485l80 -40l-130 -215l-45 25zM315 465l80 -40l-130 -215l-45 25z" />
    <glyph glyph-name="glyph109" horiz-adv-x="0" 
 />
    <glyph glyph-name="glyph110" horiz-adv-x="0" 
 />
    <glyph glyph-name="glyph111" horiz-adv-x="0" 
 />
    <glyph glyph-name="uniFF3C" unicode="&#xff3c;" horiz-adv-x="940" 
d="M122 340h-112v58h96l-62 232h99l57 -232h158l50 232h131l51 -232h159q13 58 27.5 116t30.5 116h94l-64 -232h93v-58h-109l-102 -370h-118l-81 370h-92l-82 -370h-124zM603 340l61 -278h4q9 34 17.5 68.5t17.5 69.5l16 70t17 70h-133zM214 340l69 -278h4l59 278h-132z
M475 550l-34 -152h67z" />
    <glyph glyph-name="uniFF5E" unicode="&#xff5e;" horiz-adv-x="940" 
d="M665 376l37 -72q-16 -32 -46.5 -59t-79.5 -27q-27 0 -54.5 9t-56.5 22l-25 11q-11 4 -21.5 9t-20.5 8q-10 4 -19 6.5t-16 2.5q-15 0 -27.5 -7t-22.5 -18q-11 -10 -20 -23.5t-18 -25.5l-37 72q15 32 46 59t80 27q26 0 53.5 -9.5t57.5 -21.5l25 -11q10 -5 20.5 -10t20.5 -8
q10 -4 19 -6t17 -2q15 0 27 6.5t23 17.5q10 10 19.5 23.5t18.5 26.5z" />
    <glyph glyph-name="quoteleft" unicode="&#x2018;" horiz-adv-x="400" 
d="M321 480h-22q-12 42 -23 99t-11 101q0 27 11 48.5t46 21.5q24 -3 33.5 -24t9.5 -46q0 -48 -14.5 -104t-29.5 -96z" />
    <glyph glyph-name="quoteright" unicode="&#x2019;" horiz-adv-x="400" 
d="M91 480h-22q-12 42 -23 99t-11 101q0 27 11 48.5t46 21.5q24 -3 33.5 -24t9.5 -46q0 -48 -14.5 -104t-29.5 -96z" />
    <glyph glyph-name="quotedblleft" unicode="&#x201c;" horiz-adv-x="400" 
d="M327 480h-13q-12 48 -23 100t-11 100q0 27 10 48.5t41 21.5q21 -3 30 -24t9 -46q0 -50 -13.5 -104t-29.5 -96zM207 480h-13q-13 41 -23.5 98.5t-10.5 101.5q0 27 10 48.5t41 21.5q21 -3 30 -24t9 -46q0 -50 -13.5 -104t-29.5 -96z" />
    <glyph glyph-name="quotedblright" unicode="&#x201d;" horiz-adv-x="400" 
d="M197 480h-13q-12 48 -23 100t-11 100q0 27 10 48.5t41 21.5q21 -3 30 -24t9 -46q0 -50 -13.5 -104t-29.5 -96zM77 480h-13q-13 41 -23.5 98.5t-10.5 101.5q0 27 10 48.5t41 21.5q21 -3 30 -24t9 -46q0 -50 -13.5 -104t-29.5 -96z" />
    <glyph glyph-name="uni3014" unicode="&#x3014;" horiz-adv-x="470" 
d="M160 600l250 165v-95l-166 -120v-480l166 -120v-95l-250 165v580z" />
    <glyph glyph-name="uni3015" unicode="&#x3015;" horiz-adv-x="470" 
d="M60 765l250 -165v-580l-250 -165v95l166 120v480l-166 120v95z" />
    <glyph glyph-name="uni3008" unicode="&#x3008;" horiz-adv-x="470" 
d="M165 310l245 -415l-72 -40q-32 56 -98 170l-165 285l263 455l72 -40z" />
    <glyph glyph-name="uni3009" unicode="&#x3009;" horiz-adv-x="470" 
d="M60 -105l245 415l-245 415l72 40l263 -455l-263 -455z" />
    <glyph glyph-name="uni300A" unicode="&#x300a;" horiz-adv-x="480" 
d="M270 760h45l-195 -450l195 -450h-45l-195 450zM360 760h45l-195 -450l195 -450h-45l-195 450z" />
    <glyph glyph-name="uni300B" unicode="&#x300b;" horiz-adv-x="480" 
d="M165 760h45l195 -450l-195 -450h-45l195 450zM75 760h45l195 -450l-195 -450h-45l195 450z" />
    <glyph glyph-name="uni300C" unicode="&#x300c;" horiz-adv-x="470" 
d="M180 460v320h250v-80h-165v-240h-85z" />
    <glyph glyph-name="uni300D" unicode="&#x300d;" horiz-adv-x="470" 
d="M280 150v-320h-250v80h165v240h85z" />
    <glyph glyph-name="uni300E" unicode="&#x300e;" horiz-adv-x="470" 
d="M285 450h-125v330h270v-124h-145v-206zM240 480v222h156v32h-191v-254h35z" />
    <glyph glyph-name="uni300F" unicode="&#x300f;" horiz-adv-x="470" 
d="M175 160h125v-330h-270v124h145v206zM220 130v-222h-156v-32h191v254h-35z" />
    <glyph glyph-name="uni3010" unicode="&#x3010;" horiz-adv-x="470" 
d="M420 -140h-320v900h320q-54 -36 -96.5 -85.5t-71.5 -108.5t-44.5 -124.5t-15.5 -131.5q0 -64 13.5 -128t42.5 -122q28 -59 71 -110t101 -90z" />
    <glyph glyph-name="uni3011" unicode="&#x3011;" horiz-adv-x="470" 
d="M360 -140h-320q57 39 100 90t71 110q29 58 43 122t14 128q0 66 -16 131.5t-45 124.5t-71.5 108.5t-95.5 85.5h320v-900z" />
    <glyph glyph-name="plusminus" unicode="&#xb1;" horiz-adv-x="900" 
d="M170 -26v72h560v-72h-560zM170 364v72h242v234h76v-234h242v-72h-242v-234h-76v234h-242z" />
    <glyph glyph-name="multiply" unicode="&#xd7;" horiz-adv-x="900" 
d="M212 487l51 51l187 -187l187 187l51 -51l-187 -187l187 -187l-51 -51l-187 187l-187 -187l-51 51l187 187z" />
    <glyph glyph-name="divide" unicode="&#xf7;" horiz-adv-x="900" 
d="M385 565q0 27 19 46t46 19t46 -19t19 -46t-19 -46t-46 -19t-46 19t-19 46zM385 45q0 27 19 46t46 19t46 -19t19 -46t-19 -46t-46 -19t-46 19t-19 46zM760 341v-72h-620v72h620z" />
    <glyph glyph-name="notequal" unicode="&#x2260;" horiz-adv-x="900" 
d="M353 -61l-65 25l80 218h-276v68h301l44 122h-345v68h370l79 214l65 -24l-70 -190h272v-68h-297l-44 -122h341v-68h-366z" />
    <glyph glyph-name="lessequal" unicode="&#x2264;" horiz-adv-x="900" 
d="M786 606l-544 -216l544 -216l-32 -64l-629 254q-4 1 -8 3t-7 5q-4 3 -6 7t-2 11q-1 10 4.5 15t14.5 9l1.5 0.5t8.5 3.5q8 3 24 9.5t46 18.5q29 12 75 30.5t113 45.5q66 27 156 63.5t209 84.5zM92 -8v68h716v-68h-716z" />
    <glyph glyph-name="greaterequal" unicode="&#x2265;" horiz-adv-x="900" 
d="M658 390l-544 216l32 64l630 -254q4 -4 8 -6t7 -5q4 -3 5.5 -6.5t1.5 -9.5q-1 -6 -3.5 -10.5t-5.5 -7.5q-4 -3 -8 -5t-8 -3l-627 -253l-32 64zM92 -8v68h716v-68h-716z" />
    <glyph glyph-name="infinity" unicode="&#x221e;" horiz-adv-x="900" 
d="M476 413q21 35 56.5 52.5t84.5 17.5q37 0 71 -15.5t59 -40.5t40 -58t15 -69q0 -38 -16 -71t-41 -57q-26 -24 -59.5 -37.5t-68.5 -13.5q-46 0 -82.5 15.5t-59.5 50.5l-27 42l-29 -45q-22 -33 -58 -48t-84 -15q-38 0 -71 14t-58 39q-24 25 -38 57.5t-14 68.5
q0 37 14.5 70.5t39.5 58.5t58 39.5t69 14.5q48 0 83.5 -17.5t58.5 -52.5q4 -8 7.5 -14t7.5 -12t7.5 -11.5t6.5 -9.5q3 6 6.5 11.5t7.5 11.5q3 6 6.5 12t7.5 12zM731 300q0 48 -35.5 82t-81.5 34q-33 0 -56.5 -14.5t-36.5 -41.5l-29 -60q6 -16 13.5 -30.5t15.5 -28.5
q15 -26 37.5 -39.5t55.5 -13.5q48 0 82.5 32t34.5 80zM167 300q0 -48 32.5 -80t77.5 -32q33 0 57 13.5t39 40.5q14 29 21.5 43.5l7.5 14.5l-29 60q-15 27 -39 41.5t-57 14.5q-48 0 -79 -36t-31 -80z" />
    <glyph glyph-name="therefore" unicode="&#x2234;" horiz-adv-x="900" 
d="M389 539q0 24 18 42.5t43 18.5q24 0 42.5 -18.5t18.5 -42.5q0 -25 -18.5 -43t-42.5 -18q-25 0 -43 18t-18 43zM624 99q0 24 18 42.5t43 18.5q24 0 42.5 -18.5t18.5 -42.5q0 -25 -18.5 -43t-42.5 -18q-25 0 -43 18t-18 43zM154 99q0 24 18 42.5t43 18.5q24 0 42.5 -18.5
t18.5 -42.5q0 -25 -18.5 -43t-42.5 -18q-25 0 -43 18t-18 43z" />
    <glyph glyph-name="degree" unicode="&#xb0;" horiz-adv-x="500" 
d="M20 660q0 44 30 74.5t75 30.5q44 0 74.5 -30.5t30.5 -74.5q0 -45 -30.5 -75t-74.5 -30q-45 0 -75 30t-30 75zM65 660q0 -25 17.5 -42.5t42.5 -17.5q24 0 42 17.5t18 42.5q0 24 -18 42t-42 18q-25 0 -42.5 -18t-17.5 -42z" />
    <glyph glyph-name="minute" unicode="&#x2032;" horiz-adv-x="500" 
d="M62 510h-47l80 240h105z" />
    <glyph glyph-name="second" unicode="&#x2033;" horiz-adv-x="500" 
d="M62 510h-47l80 240h105zM192 510h-47l80 240h105z" />
    <glyph glyph-name="uni2103" unicode="&#x2103;" horiz-adv-x="800" 
d="M627 170h89q-8 -55 -33 -99.5t-61 -75.5q-36 -32 -82 -48.5t-95 -16.5q-74 0 -128.5 32t-90.5 84q-36 53 -53.5 118.5t-17.5 133.5q0 73 19 140t57 117q37 50 91 80t123 30q49 0 93.5 -16.5t79.5 -45.5q36 -29 61 -69t36 -88h-88q-34 62 -73.5 99.5t-108.5 37.5
q-56 0 -94 -28t-61 -70q-24 -42 -34 -92t-10 -95q0 -50 11.5 -101t35.5 -92q24 -42 61.5 -67.5t90.5 -25.5q33 0 63 12.5t53 33.5q24 22 41 50.5t25 61.5zM0 670q0 42 29 71t71 29t71 -29t29 -71t-29 -71t-71 -29t-71 29t-29 71zM45 670q0 -23 16 -39t39 -16q22 0 38.5 16
t16.5 39q0 22 -16.5 38.5t-38.5 16.5q-23 0 -39 -16.5t-16 -38.5z" />
    <glyph glyph-name="uni212B" unicode="&#x212b;" horiz-adv-x="700" 
d="M556 -60l-68 149h-274q-10 -18 -20 -38.5t-19 -40.5q-9 -21 -17.5 -39t-15.5 -31h-89l267 560h65l262 -560h-91zM350 387l-103 -232h214q-13 25 -25 50.5t-24 51.5t-24 51.5t-24 49.5q-3 5 -4.5 8l-2.5 5q-2 3 -3.5 6.5t-3.5 9.5zM245 645q0 43 30.5 74t74.5 31
q43 0 74 -31t31 -74q0 -44 -31 -74.5t-74 -30.5q-44 0 -74.5 30.5t-30.5 74.5zM300 645q0 -20 15 -35t35 -15q19 0 34.5 15t15.5 35q0 19 -15.5 34.5t-34.5 15.5q-20 0 -35 -15.5t-15 -34.5z" />
    <glyph glyph-name="uniFFE0" unicode="&#xffe0;" horiz-adv-x="940" 
d="M644 163l96 1q-11 -52 -37 -94t-63 -72t-82.5 -46.5t-95.5 -16.5q-28 0 -53 4t-47 13l-27 -73l-75 30l30 82q-66 50 -97 134.5t-31 174.5q0 72 18.5 138.5t56.5 116.5q37 50 93.5 80t131.5 30q19 0 37 -3l36 -6l25 68l80 -30l-27 -71q45 -30 76.5 -74t48.5 -95h-96
q-9 28 -24 51t-34 40l-194 -519q15 -7 33.5 -10.5t39.5 -3.5q66 0 117.5 42.5t63.5 108.5zM463 589q-59 0 -98.5 -26.5t-62.5 -68.5q-24 -42 -34 -93.5t-10 -100.5q0 -63 14.5 -122t49.5 -101l186 507q-11 2 -22.5 3.5t-22.5 1.5z" />
    <glyph glyph-name="uniFFE1" unicode="&#xffe1;" horiz-adv-x="940" 
d="M274 290h-74v60h66q-6 33 -5.5 67t5.5 72q18 87 76 140t154 51q87 -2 143 -53t64 -142h-87q-3 48 -40 81.5t-86 33.5q-42 0 -78.5 -25.5t-47.5 -69.5q-9 -36 -11 -77.5t4 -77.5h248v-60h-241q3 -36 3 -73.5t-3 -78.5q-3 -36 -10 -63t-21 -45h221h34.5t36.5 4
q17 4 31.5 14t24.5 30q3 5 4 13.5t2 17.5t1 16v10h67q0 -16 -0.5 -32t-2.5 -31q-7 -43 -28 -69.5t-55 -35.5q-30 -9 -67 -13t-79 -4h-353v80h72q5 9 13.5 36t17.5 67q5 30 6 66.5t-5 90.5z" />
    <glyph glyph-name="uniFFE5" unicode="&#xffe5;" horiz-adv-x="940" 
d="M792 660l-218 -340h164v-57h-199l-24 -32v-21h223v-58h-223v-212h-89v212h-218v58h218v21l-16 32h-202v57h167q-27 42 -55 84l-56 84t-54.5 85t-51.5 87h102l211 -341q54 83 107 168.5t104 172.5h110z" />
    <glyph glyph-name="male" unicode="&#x2642;" horiz-adv-x="940" 
d="M225 448l245 292l245 -292l-40 -33l-180 219v-446q57 -9 96 -53.5t39 -104.5q0 -34 -12.5 -63t-34.5 -51t-51 -34t-62 -12q-34 0 -63 12t-51 34t-34 51t-12 63q0 60 38.5 104.5t96.5 53.5v446l-180 -219zM580 30q0 45 -32.5 77.5t-77.5 32.5q-46 0 -78 -32.5t-32 -77.5
q0 -46 32 -78t78 -32q45 0 77.5 32t32.5 78z" />
    <glyph glyph-name="female" unicode="&#x2640;" horiz-adv-x="940" 
d="M310 550q0 33 12 62t34 51t51 34.5t63 12.5q33 0 62 -12.5t51 -34.5t34.5 -51t12.5 -62q0 -61 -39 -105t-96 -53v-122h275v-50h-275v-370h-50v370h-275v50h275v122q-58 9 -96.5 53t-38.5 105zM360 550q0 -46 32 -78t78 -32q45 0 77.5 32t32.5 78q0 45 -32.5 77.5
t-77.5 32.5q-46 0 -78 -32.5t-32 -77.5z" />
    <glyph glyph-name="angle" unicode="&#x2220;" horiz-adv-x="900" 
d="M715 570l-511 -516h576v-64h-669q-12 0 -21.5 5.5t-9.5 19.5q0 8 8 19.5t14 17.5q68 69 138 140t141 142q70 72 140.5 142.5t138.5 139.5z" />
    <glyph glyph-name="perpendicular" unicode="&#x22a5;" horiz-adv-x="900" 
d="M788 -38h-676v68h300v588h76v-588h300v-68z" />
    <glyph glyph-name="uni2312" unicode="&#x2312;" horiz-adv-x="900" 
d="M177 360h-77q12 67 43.5 124.5t78.5 99.5q46 42 104 66.5t124 24.5q69 0 128 -26.5t105 -69.5q45 -44 75 -101t42 -118h-77q-11 52 -36 96.5t-61 77.5q-36 32 -80.5 51t-95.5 19q-53 0 -99 -19.5t-82 -53.5q-36 -33 -60 -77.5t-32 -93.5z" />
    <glyph glyph-name="partialdiff" unicode="&#x2202;" horiz-adv-x="500" 
d="M275 165q23 23 40 54.5t25 56.5q-28 -2 -58.5 -10t-56.5 -23q-25 -14 -41.5 -34.5t-16.5 -46.5q0 -20 6 -31t25 -11q20 0 41.5 16t35.5 29zM274 423q-25 0 -48 -10t-39 -27q-20 -21 -36 -26.5t-27 3.5q-12 9 -4 28.5t33 47.5q24 26 57.5 38.5t76.5 12.5q34 0 61 -14
t46 -37q18 -23 28.5 -51.5t10.5 -58.5q0 -47 -19.5 -95.5t-51.5 -87.5q-32 -40 -73.5 -64.5t-85.5 -24.5q-23 0 -44.5 6t-41.5 21q-20 14 -28 35.5t-8 43.5q0 11 2.5 23.5t6.5 23.5q19 47 62.5 72.5t86.5 37.5q28 7 57.5 8.5t50.5 1.5q3 35 -17.5 64t-55.5 29z" />
    <glyph glyph-name="gradient" unicode="&#x2207;" horiz-adv-x="900" 
d="M825 590l-375 -642l-375 642h750zM698 526h-506q33 -56 64.5 -110.5t63.5 -108.5q32 -55 64 -109.5t66 -109.5z" />
    <glyph glyph-name="equivalence" unicode="&#x2261;" horiz-adv-x="900" 
d="M92 426v68h716v-68h-716zM92 278v68h716v-68h-716zM92 130v68h716v-68h-716z" />
    <glyph glyph-name="uni2252" unicode="&#x2252;" horiz-adv-x="900" 
d="M195 557q0 26 19 45.5t46 19.5q26 0 45.5 -19.5t19.5 -45.5q0 -27 -19.5 -46t-45.5 -19q-27 0 -46 19t-19 46zM575 58q0 26 19 45.5t46 19.5q26 0 45.5 -19.5t19.5 -45.5q0 -27 -19.5 -46t-45.5 -19q-27 0 -46 19t-19 46zM92 357v61h716v-61h-716zM92 197v61h716v-61
h-716z" />
    <glyph glyph-name="section" unicode="&#xa7;" horiz-adv-x="600" 
d="M296 703q39 0 67.5 -12.5t48.5 -36.5q10 -15 16 -27t6 -23t-5 -19.5t-15 -14.5q-19 -12 -35.5 -8t-28.5 22q-9 14 -13 28t-4 27q0 6 -11.5 9.5t-35.5 4.5q-24 0 -35 -15t-11 -46q0 -39 26.5 -78t79.5 -76q56 -41 85 -89.5t24 -98.5q-3 -23 -17.5 -43t-46.5 -34
q20 -25 36 -53t16 -59q0 -20 -6.5 -42t-20.5 -42q-21 -31 -52 -48t-67 -16q-39 0 -69 12.5t-51 36.5q-18 21 -23 40t4 34q10 15 24.5 20t33.5 -1q18 -10 27.5 -26.5t9.5 -30.5q-1 -5 -4 -8.5t-4 -3.5q5 -3 9 -6t9 -5q4 -2 9 -3.5t12 -2.5q12 -3 27.5 3t25.5 19
q12 15 12.5 34t-4.5 37q-9 23 -24.5 45t-36.5 40q-30 24 -56.5 51t-51.5 56q-17 19 -25.5 39.5t-8.5 42.5q0 30 15.5 59t45.5 38l21 6l-15 21q-18 21 -28 48t-13 58q-3 29 6 54t27 44q18 18 42.5 28.5t52.5 10.5zM259 385q-15 3 -28 -1.5t-13 -19.5q0 -21 7.5 -39.5
t21.5 -33.5q30 -36 61 -53.5t45 -17.5q21 0 30 8.5t7 21.5q-3 16 -10.5 32t-18.5 29q-12 12 -22.5 23.5t-22.5 21.5q-11 9 -25 16.5t-32 12.5z" />
    <glyph glyph-name="uni203B" unicode="&#x203b;" horiz-adv-x="800" 
d="M644 601l39 -45l-242 -244l243 -245l-40 -41l-245 245l-247 -245l-41 41l243 245l-242 244l40 45l247 -248zM126 315q0 22 15 38.5t39 16.5q22 0 38.5 -16.5t16.5 -38.5q0 -24 -16.5 -39t-38.5 -15q-24 0 -39 15t-15 39zM346 95q0 22 15 38.5t39 16.5q22 0 38.5 -16.5
t16.5 -38.5q0 -24 -16.5 -39t-38.5 -15q-24 0 -39 15t-15 39zM566 315q0 22 15 38.5t39 16.5q22 0 38.5 -16.5t16.5 -38.5q0 -24 -16.5 -39t-38.5 -15q-24 0 -39 15t-15 39zM346 535q0 22 15 38.5t39 16.5q22 0 38.5 -16.5t16.5 -38.5q0 -24 -16.5 -39t-38.5 -15
q-24 0 -39 15t-15 39z" />
    <glyph glyph-name="uni2606" unicode="&#x2606;" horiz-adv-x="940" 
d="M378 395l92 301l92 -301h297l-241 -184q11 -37 23.5 -75t25.5 -76q12 -38 24.5 -76t24.5 -74l-246 185l-246 -185l97 301l-240 184h297zM470 568l-66 -211h-212q21 -17 42.5 -33.5t43.5 -33.5q21 -17 43 -33.5t43 -31.5l-69 -215l175 130l175 -130q-9 26 -17.5 53
t-17.5 54l-18 54t-17 54l173 132h-212z" />
    <glyph glyph-name="uni2605" unicode="&#x2605;" horiz-adv-x="940" 
d="M380 392l90 293l90 -293h290l-235 -180l95 -294l-240 180l-240 -180l95 294l-235 180h290z" />
    <glyph glyph-name="circle" unicode="&#x25cb;" horiz-adv-x="940" 
d="M90 300q0 78 29.5 147.5t81.5 120.5q51 52 120.5 82t148.5 30q78 0 147.5 -30t120.5 -82q52 -51 82 -120.5t30 -147.5q0 -79 -30 -148.5t-82 -120.5q-51 -52 -120.5 -81.5t-147.5 -29.5q-79 0 -148.5 29.5t-120.5 81.5q-52 51 -81.5 120.5t-29.5 148.5zM140 300
q0 -69 25.5 -129t70.5 -105t105 -70.5t129 -25.5q68 0 128 25.5t105 70.5t71 105t26 129q0 68 -26 128t-71 105t-105 71t-128 26q-69 0 -129 -26t-105 -71t-70.5 -105t-25.5 -128z" />
    <glyph glyph-name="H18533" unicode="&#x25cf;" horiz-adv-x="940" 
d="M90 300q0 78 29.5 147.5t81.5 120.5q51 52 120.5 82t148.5 30q78 0 147.5 -30t120.5 -82q52 -51 82 -120.5t30 -147.5q0 -79 -30 -148.5t-82 -120.5q-51 -52 -120.5 -81.5t-147.5 -29.5q-79 0 -148.5 29.5t-120.5 81.5q-52 51 -81.5 120.5t-29.5 148.5z" />
    <glyph glyph-name="uni25CE" unicode="&#x25ce;" horiz-adv-x="940" 
d="M90 300q0 78 29.5 147.5t81.5 120.5q51 52 120.5 82t148.5 30q78 0 147.5 -30t120.5 -82q52 -51 82 -120.5t30 -147.5q0 -79 -30 -148.5t-82 -120.5q-51 -52 -120.5 -81.5t-147.5 -29.5q-79 0 -148.5 29.5t-120.5 81.5q-52 51 -81.5 120.5t-29.5 148.5zM140 300
q0 -69 25.5 -129t70.5 -105t105 -70.5t129 -25.5q68 0 128 25.5t105 70.5t71 105t26 129q0 68 -26 128t-71 105t-105 71t-128 26q-69 0 -129 -26t-105 -71t-70.5 -105t-25.5 -128zM285 300q0 38 14.5 71.5t39.5 58.5t58.5 40t72.5 15q38 0 71.5 -15t58.5 -40t40 -58.5
t15 -71.5q0 -39 -15 -72.5t-40 -58.5t-58.5 -39.5t-71.5 -14.5q-39 0 -72.5 14.5t-58.5 39.5t-39.5 58.5t-14.5 72.5zM335 300q0 -27 10.5 -51.5t29.5 -43.5t43.5 -29.5t51.5 -10.5t51 10.5t43 29.5t30 43.5t11 51.5t-11 51t-30 43t-43 30t-51 11t-51.5 -11t-43.5 -30
t-29.5 -43t-10.5 -51z" />
    <glyph glyph-name="uni25C7" unicode="&#x25c7;" horiz-adv-x="940" 
d="M470 680l380 -380l-380 -380l-380 380zM782 300l-312 312l-312 -312l312 -312z" />
    <glyph glyph-name="uni25C6" unicode="&#x25c6;" horiz-adv-x="940" 
d="M470 680l380 -380l-380 -380l-380 380z" />
    <glyph glyph-name="H22073" unicode="&#x25a1;" horiz-adv-x="940" 
d="M750 580v-560h-560v560h560zM700 70v460h-460v-460h460z" />
    <glyph glyph-name="filledbox" unicode="&#x25a0;" horiz-adv-x="940" 
d="M750 580v-560h-560v560h560z" />
    <glyph glyph-name="uni25B3" unicode="&#x25b3;" horiz-adv-x="940" 
d="M90 -10l380 688l380 -688h-760zM470 570l-293 -530h586z" />
    <glyph glyph-name="triagup" unicode="&#x25b2;" horiz-adv-x="940" 
d="M90 -10l380 688l380 -688h-760z" />
    <glyph glyph-name="uni25BD" unicode="&#x25bd;" horiz-adv-x="940" 
d="M470 -78l-380 688h760zM177 560l293 -530l293 530h-586z" />
    <glyph glyph-name="triagdn" unicode="&#x25bc;" horiz-adv-x="940" 
d="M470 -78l-380 688h760z" />
    <glyph glyph-name="arrowright" unicode="&#x2192;" horiz-adv-x="1000" 
d="M55 276v68h700l-105 96l300 -130l-300 -130l105 96h-700z" />
    <glyph glyph-name="arrowleft" unicode="&#x2190;" horiz-adv-x="1000" 
d="M945 344v-68h-700l105 -96l-300 130l300 130l-105 -96h700z" />
    <glyph glyph-name="arrowup" unicode="&#x2191;" horiz-adv-x="1000" 
d="M534 -140h-68v700l-96 -105l130 300l130 -300l-96 105v-700z" />
    <glyph glyph-name="arrowdown" unicode="&#x2193;" horiz-adv-x="1000" 
d="M466 750h68v-700l96 105l-130 -300l-130 300l96 -105v700z" />
    <glyph glyph-name="arrowboth" unicode="&#x2194;" horiz-adv-x="1000" 
d="M350 440l-105 -96h510l-105 96l300 -130l-300 -130l105 96h-510l105 -96l-300 130z" />
    <glyph glyph-name="uni3013" unicode="&#x3013;" horiz-adv-x="940" 
d="M810 465v-68h-680v68h680zM810 221v-66h-680v66h680z" />
    <glyph glyph-name="guillemotleft" unicode="&#xab;" horiz-adv-x="655" 
d="M399 -88h-102l-233 419l233 412h102l-237 -412zM599 -88h-102l-233 419l233 412h102l-237 -412z" />
    <glyph glyph-name="guillemotright" unicode="&#xbb;" horiz-adv-x="655" 
d="M366 -88h-102l237 419l-237 412h102l233 -412zM166 -88h-102l237 419l-237 412h102l233 -412z" />
    <glyph glyph-name="radical" unicode="&#x221a;" horiz-adv-x="900" 
d="M78 142l-33 54l102 78l73 -137q9 58 20 117.5t22 118.5t22 118.5t21 118.5h515v-67h-459l-101 -541q-2 -18 -14.5 -20t-21.5 10l-99 183q-5 -5 -11 -9t-13 -9q-7 -4 -13 -8t-10 -7z" />
    <glyph glyph-name="uni223D" unicode="&#x223d;" horiz-adv-x="900" 
d="M634 482q41 0 75 -16.5t58 -44.5q25 -28 38.5 -63.5t13.5 -74.5q0 -36 -14 -68.5t-37 -56.5q-24 -25 -55 -39t-66 -14q-12 0 -30.5 2.5t-37.5 9.5q-20 6 -38.5 15.5t-29.5 23.5l28 57q43 -21 64.5 -26.5t41.5 -5.5q19 0 36 9.5t30 24.5t21 33.5t9 36.5q1 48 -31 83
t-78 38q-32 2 -55.5 -10t-39.5 -36v1q-7 -11 -13.5 -21t-12.5 -20l-12 -20t-12 -19q-17 -27 -35 -55t-38 -55q-26 -35 -65 -51.5t-88 -13.5q-84 7 -133.5 62t-47.5 133q1 39 16 72.5t40 58.5q25 24 58 38.5t71 14.5q39 0 68.5 -12.5t59.5 -32.5l-37 -64q-39 21 -57.5 27
t-35.5 6q-45 0 -77 -30.5t-32 -77.5q-2 -50 30.5 -84.5t80.5 -36.5q31 -3 56 9t43 38q6 9 12.5 19t12.5 19q6 10 12.5 20t12.5 19q17 27 34.5 54.5t35.5 54.5q23 33 61 51t89 18z" />
    <glyph glyph-name="proportional" unicode="&#x221d;" horiz-adv-x="900" 
d="M817 461l-33 -48l-6 2.5t-7 3.5q-10 4 -19 8t-19 8q-9 3 -20 5t-23 2q-40 -3 -69.5 -21t-49.5 -51q-21 -36 -31 -53l-10 -17q0 -2 2.5 -7l7.5 -15q6 -10 13.5 -23.5l17.5 -31.5q20 -33 50 -48.5t69 -15.5q26 0 47.5 6.5t46.5 20.5l33 -54q-33 -23 -61 -31.5t-66 -8.5
q-57 0 -98 18t-65 54q-3 3 -8.5 12t-11.5 18l-10.5 17.5t-5.5 9.5q-5 -9 -9 -16.5t-8 -14.5q-30 -48 -77.5 -73t-101.5 -25q-45 0 -82.5 16.5t-64.5 45.5q-28 28 -43 66t-15 80q0 43 16.5 80.5t44.5 66.5q28 28 65.5 44.5t78.5 16.5q57 0 97.5 -20t66.5 -59q10 -17 16.5 -27
t9.5 -15q4 -5 5.5 -7.5t2.5 -3.5q2 4 5.5 9t7.5 12q4 6 9 14t12 18q27 39 67.5 59t95.5 20q36 0 69 -12t58 -35zM157 300q0 -30 11 -56t31 -45q19 -19 44.5 -29.5t54.5 -10.5q38 0 70.5 20t52.5 47q6 12 11 21.5t10 17.5q5 9 9 16.5t9 16.5l-39 74q-19 33 -50 51t-73 18
q-30 0 -56 -12t-45 -31q-19 -20 -29.5 -45.5t-10.5 -52.5z" />
    <glyph glyph-name="uni2235" unicode="&#x2235;" horiz-adv-x="900" 
d="M389 91q0 24 18 42.5t43 18.5q24 0 42.5 -18.5t18.5 -42.5q0 -25 -18.5 -43t-42.5 -18q-25 0 -43 18t-18 43zM624 531q0 24 18 42.5t43 18.5q24 0 42.5 -18.5t18.5 -42.5q0 -25 -18.5 -43t-42.5 -18q-25 0 -43 18t-18 43zM154 531q0 24 18 42.5t43 18.5q24 0 42.5 -18.5
t18.5 -42.5q0 -25 -18.5 -43t-42.5 -18q-25 0 -43 18t-18 43z" />
    <glyph glyph-name="integral" unicode="&#x222b;" horiz-adv-x="900" 
d="M406 411q12 112 46 186.5t92 92.5q18 3 34 -2.5t26 -20.5q7 -13 7.5 -27t-5.5 -25q-14 -21 -28 -26.5t-31 8.5v-1q-6 4 -10.5 5t-7.5 0q-15 -8 -24.5 -24.5t-9.5 -43.5q-1 -34 -2.5 -72.5t-3.5 -80.5q-3 -32 -4 -60t-3 -53q-1 -26 -3 -49.5t-5 -45.5q-17 -111 -49 -184.5
t-91 -87.5q-20 -5 -36 -1t-25 19q-10 14 -11 27t8 28q12 21 27.5 26t33.5 -7l-1 1q6 -5 10.5 -7.5t5.5 -2.5q17 7 26 24.5t10 45.5q0 33 1.5 70.5t4.5 79.5q2 41 6.5 94.5t11.5 113.5z" />
    <glyph glyph-name="uni222C" unicode="&#x222c;" horiz-adv-x="900" 
d="M516 411q12 112 46 186.5t92 92.5q18 3 34 -2.5t26 -20.5q7 -13 7.5 -27t-5.5 -25q-14 -21 -28 -26.5t-31 8.5v-1q-6 4 -10.5 5t-7.5 0q-15 -8 -24.5 -24.5t-9.5 -43.5q-1 -34 -2.5 -72.5t-3.5 -80.5q-3 -32 -4 -60t-3 -53q-1 -26 -3 -49.5t-5 -45.5q-17 -111 -49 -184.5
t-91 -87.5q-20 -5 -36 -1t-25 19q-10 14 -11 27t8 28q12 21 27.5 26t33.5 -7l-1 1q6 -5 10.5 -7.5t5.5 -2.5q17 7 26 24.5t10 45.5q0 33 1.5 70.5t4.5 79.5q2 41 6.5 94.5t11.5 113.5zM316 411q12 112 46 186.5t92 92.5q18 3 34 -2.5t26 -20.5q7 -13 7.5 -27t-5.5 -25
q-14 -21 -28 -26.5t-31 8.5v-1q-6 4 -10.5 5t-7.5 0q-15 -8 -24.5 -24.5t-9.5 -43.5q-1 -34 -2.5 -72.5t-3.5 -80.5q-3 -32 -4 -60t-3 -53q-1 -26 -3 -49.5t-5 -45.5q-17 -111 -49 -184.5t-91 -87.5q-20 -5 -36 -1t-25 19q-10 14 -11 27t8 28q12 21 27.5 26t33.5 -7l-1 1
q6 -5 10.5 -7.5t5.5 -2.5q17 7 26 24.5t10 45.5q0 33 1.5 70.5t4.5 79.5q2 41 6.5 94.5t11.5 113.5z" />
    <glyph glyph-name="element" unicode="&#x2208;" horiz-adv-x="900" 
d="M795 260h-633q7 -39 26.5 -70.5t47.5 -54.5t63 -35.5t73 -12.5h428v-68h-417q-63 1 -116.5 20t-93.5 54q-39 34 -61 83.5t-22 113.5t23.5 115t64.5 86q40 35 93 54t112 20h417v-68h-428q-38 -3 -72 -17t-62 -37q-28 -22 -47.5 -51.5t-27.5 -63.5h632v-68z" />
    <glyph glyph-name="suchthat" unicode="&#x220b;" horiz-adv-x="900" 
d="M738 260h-633v68h632q-9 34 -28.5 63.5t-47.5 51.5q-28 23 -62 37t-71 17h-428v68h417q58 -1 111 -20t94 -54q40 -35 64 -86t24 -115t-22.5 -113.5t-61.5 -83.5q-40 -35 -93.5 -54t-115.5 -20h-417v68h428q37 0 72 12.5t63 35.5t47.5 54.5t27.5 70.5z" />
    <glyph glyph-name="reflexsubset" unicode="&#x2286;" horiz-adv-x="900" 
d="M92 -8v68h716v-68h-716zM163 385q0 -47 18.5 -79t49.5 -51q30 -19 68.5 -27t78.5 -8h410v-68h-399q-58 0 -111.5 12.5t-95.5 39.5q-41 28 -65.5 72.5t-24.5 108.5q0 63 26.5 107.5t69.5 71.5q43 28 95.5 41t105.5 13h399v-68h-410q-42 0 -80.5 -9.5t-68.5 -29.5t-48 -51
t-18 -75z" />
    <glyph glyph-name="reflexsuperset" unicode="&#x2287;" horiz-adv-x="900" 
d="M808 60v-68h-716v68h716zM737 385q0 44 -18.5 75t-48.5 51t-68.5 29.5t-79.5 9.5h-410v68h399q52 0 104.5 -13t95.5 -41q43 -27 70 -71.5t27 -107.5q0 -64 -25 -108.5t-66 -72.5q-41 -27 -95 -39.5t-111 -12.5h-399v68h410q39 0 77.5 8t68.5 27q31 19 50 51t19 79z" />
    <glyph glyph-name="propersubset" unicode="&#x2282;" horiz-adv-x="900" 
d="M163 295q-2 -51 15 -89t47 -64q29 -26 68.5 -39t84.5 -13h410v-68h-403q-63 0 -116.5 18.5t-93.5 54.5q-39 35 -61 85.5t-22 114.5t23.5 114.5t64.5 86.5q40 35 93 53.5t112 18.5h403v-68h-410q-52 0 -91.5 -17t-67.5 -46q-27 -28 -41.5 -65t-14.5 -77z" />
    <glyph glyph-name="propersuperset" unicode="&#x2283;" horiz-adv-x="900" 
d="M737 295q-1 40 -15.5 77t-41.5 65q-28 29 -67.5 46t-90.5 17h-410v68h403q58 0 111 -18.5t94 -53.5q40 -36 64 -86.5t24 -114.5t-22.5 -114.5t-61.5 -85.5q-40 -36 -93.5 -54.5t-115.5 -18.5h-403v68h410q44 0 83.5 13t68.5 39q30 26 47 64t16 89z" />
    <glyph glyph-name="union" unicode="&#x222a;" horiz-adv-x="900" 
d="M450 8q40 0 76.5 15t63.5 43q28 28 44.5 68t17.5 91v415h71v-405q0 -59 -18.5 -112.5t-53.5 -93.5q-35 -41 -86 -65t-115 -24t-114.5 22.5t-85.5 62.5q-36 40 -54.5 93.5t-18.5 116.5v405h71v-414q-1 -45 11.5 -85t38.5 -70q25 -30 63 -47.5t89 -15.5z" />
    <glyph glyph-name="intersection" unicode="&#x2229;" horiz-adv-x="900" 
d="M450 592q-51 1 -89 -16.5t-63 -47.5q-26 -30 -38.5 -70t-11.5 -84v-414h-71v405q0 62 18.5 116t54.5 93q35 40 85.5 63t114.5 23t115 -24.5t86 -64.5q35 -41 53.5 -94.5t18.5 -111.5v-405h-71v415q-1 51 -17.5 91t-44.5 67q-27 28 -63.5 43t-76.5 16z" />
    <glyph glyph-name="logicaland" unicode="&#x2227;" horiz-adv-x="900" 
d="M450 535l-268 -561l-63 36q15 30 34 69.5t41 83.5q21 43 43.5 89.5t44.5 92.5q22 45 42.5 87.5t37.5 78.5t30 63.5t21 42.5q5 11 13.5 21t23.5 10q9 0 18 -7.5t15 -19.5l298 -611l-63 -36q-10 18 -25 49t-33 70q-19 39 -40 83.5t-42 89.5q-22 45 -42 88t-38 79
q-17 36 -29.5 62.5t-18.5 39.5z" />
    <glyph glyph-name="logicalor" unicode="&#x2228;" horiz-adv-x="900" 
d="M182 635l268 -562q6 12 18.5 38.5t29.5 63.5q18 36 38 79t42 88q21 45 42 89.5t40 83.5q18 39 33 70t25 50l63 -36l-298 -612q-6 -12 -15 -19.5t-18 -7.5q-15 0 -23.5 9.5t-13.5 21.5q-8 15 -21 42t-30 63t-37.5 78.5t-42.5 88.5q-22 45 -44.5 91.5t-43.5 90.5
q-22 44 -41 83.5t-34 70.5z" />
    <glyph glyph-name="uniFFE2" unicode="&#xffe2;" horiz-adv-x="940" 
d="M50 730h830v-340h-50v290h-780v50z" />
    <glyph glyph-name="arrowdblright" unicode="&#x21d2;" horiz-adv-x="1000" 
d="M70 411h613q-18 12 -33 23.5t-29 20.5q-13 10 -25 18.5t-22 16.5q4 5 9 10.5t10 11.5q4 6 9 11.5t10 11.5l328 -225q-42 -29 -83 -57t-81 -55l-82 -56l-82 -56q-5 6 -10 11t-9 11q-5 5 -10 10.5t-9 11.5l114 83h-618v57h702q8 5 14.5 10t13.5 10q7 4 14 9t16 11
q-9 6 -17.5 12t-16.5 12q-7 5 -13.5 10t-10.5 10h-702v57z" />
    <glyph glyph-name="arrowdblboth" unicode="&#x21d4;" horiz-adv-x="1000" 
d="M270 407h457q-14 9 -28.5 18.5t-28.5 19.5q-15 10 -29 20t-27 20l37 47q41 -29 82 -56.5t82 -54.5q41 -28 82 -55.5t83 -55.5l-328 -225l-38 46l111 78h-454q29 -20 58.5 -40t57.5 -40l-42 -45q-41 28 -81.5 56t-81.5 57q-41 28 -81.5 56t-80.5 57l324 222l42 -47z
M189 266h622q15 11 29 20.5t30 19.5q-9 6 -17.5 12t-16.5 12q-7 5 -13.5 10t-10.5 10h-626q-9 -7 -16.5 -12t-15.5 -9l-29 -19q7 -6 15 -11.5t17 -10.5q8 -5 16 -10.5t16 -11.5z" />
    <glyph glyph-name="universal" unicode="&#x2200;" horiz-adv-x="750" 
d="M18 660h99l78 -197h352l80 197h105l-309 -720h-106q-38 89 -75.5 179t-74.5 181q-37 90 -74.5 180t-74.5 180zM369 30l144 352h-285z" />
    <glyph glyph-name="existential" unicode="&#x2203;" horiz-adv-x="600" 
d="M543 660v-720h-491v84h397v246h-367v84h367v222h-392v84h486z" />
    <glyph glyph-name="acute" unicode="&#xb4;" horiz-adv-x="400" 
d="M119 495l-12 9q3 13 18.5 58.5t39.5 102.5q7 16 16 30.5t19 29.5q11 16 26 19t31 -4q15 -11 18 -24.5t-5 -30.5q-7 -15 -16 -31t-19 -29q-36 -47 -68.5 -83.5t-47.5 -46.5z" />
    <glyph glyph-name="glyph200" horiz-adv-x="0" 
 />
    <glyph glyph-name="caron" unicode="&#x2c7;" horiz-adv-x="600" 
d="M502 696l-202 -115l-202 115l33 52l169 -96q20 12 41 24t43 24q21 12 42.5 24t42.5 24z" />
    <glyph glyph-name="breve" unicode="&#x2d8;" horiz-adv-x="600" 
d="M461 751l61 -43q-42 -48 -98 -79t-124 -31q-69 0 -125.5 31t-96.5 79l61 43q24 -39 69 -63.5t92 -24.5q46 0 91 24.5t70 63.5z" />
    <glyph glyph-name="hungarumlaut" unicode="&#x2dd;" horiz-adv-x="600" 
d="M153 524l-16 11q3 14 16 56t37 97q6 15 13.5 29.5t16.5 27.5q12 15 28 18.5t37 -5.5q12 -7 14.5 -20.5t-6.5 -31.5q-6 -14 -13.5 -28.5t-17.5 -27.5q-34 -47 -64 -82t-45 -44zM290 525l-17 12q6 18 11.5 37t11.5 38t12 37.5t14 37.5q5 14 13 30t17 28q12 16 26.5 19.5
t34.5 -4.5q17 -9 22 -22.5t-5 -31.5q-6 -14 -14 -27.5t-21 -28.5q-36 -44 -65 -79.5t-40 -45.5z" />
    <glyph glyph-name="ring" unicode="&#x2da;" horiz-adv-x="600" 
d="M205 680q0 38 28 66.5t67 28.5q38 0 66.5 -28.5t28.5 -66.5q0 -39 -28.5 -67t-66.5 -28q-39 0 -67 28t-28 67zM246 680q0 -23 15.5 -38.5t38.5 -15.5q22 0 38 15.5t16 38.5q0 22 -16 38t-38 16q-23 0 -38.5 -16t-15.5 -38z" />
    <glyph glyph-name="dotaccent" unicode="&#x2d9;" horiz-adv-x="600" 
d="M225 680q0 30 22 52.5t53 22.5q30 0 52.5 -22.5t22.5 -52.5q0 -31 -22.5 -53t-52.5 -22q-31 0 -53 22t-22 53z" />
    <glyph glyph-name="cedilla" unicode="&#xb8;" horiz-adv-x="400" 
d="M150 164l150 -154l-150 -154l-48 49l112 105q-13 12 -27.5 26t-29.5 28t-29 27.5t-26 26.5z" />
    <glyph glyph-name="ogonek" unicode="&#x2db;" horiz-adv-x="600" 
d="M202 -10l148 152l45 -44q-13 -13 -27.5 -27t-29.5 -28t-29 -27.5t-26 -25.5l112 -105l-45 -47z" />
    <glyph glyph-name="exclamdown" unicode="&#xa1;" horiz-adv-x="400" 
d="M151 -60l15 540h68l15 -540h-98zM244 680v-90h-88v90h88z" />
    <glyph glyph-name="questiondown" unicode="&#xbf;" horiz-adv-x="940" 
d="M598 158h82q2 -105 -55.5 -164t-159.5 -59q-38 0 -74.5 12t-65.5 35q-30 22 -47.5 54t-17.5 71q0 61 33.5 107.5t81.5 70.5q25 13 41 38t16 57v110h80v-107q0 -53 -24.5 -90t-65.5 -61q-39 -20 -61.5 -54t-22.5 -76q0 -26 12 -44.5t31 -31.5q20 -12 43 -18t46 -6
q72 0 103 45t25 111zM516 680v-90h-88v90h88z" />
    <glyph glyph-name="glyph210" horiz-adv-x="0" 
 />
    <glyph glyph-name="uni222E" unicode="&#x222e;" horiz-adv-x="900" 
d="M306 32q5 0 14 18.5t18 43.5q9 24 16 48t8 34q-28 17 -45 49t-17 70q0 27 13 53.5t34 46.5q21 19 48 30t54 8q7 25 19.5 59.5t31.5 64.5t44 49t58 14q24 -4 41 -24t17 -39q0 -10 -5.5 -19t-15.5 -15q-21 -13 -43 -3.5t-25 31.5q-9 -10 -17.5 -28t-15.5 -38t-12.5 -39
t-8.5 -32q27 -17 47.5 -50t20.5 -69q0 -33 -13.5 -59t-34.5 -44q-22 -18 -49.5 -27.5t-55.5 -9.5q-9 -27 -22 -61.5t-31 -64.5q-19 -29 -44 -47t-59 -12q-24 3 -41.5 22.5t-17.5 40.5q0 11 6 20.5t21 15.5q23 9 42 -3t20 -34zM367 291q0 -15 3.5 -28.5t14.5 -23.5
q5 16 11 32t11 33q5 16 9.5 32t8.5 33q-27 -6 -42.5 -27t-15.5 -51zM518 295q0 15 -6 28.5t-15 24.5q-6 -17 -10.5 -32.5t-9.5 -29.5q-4 -15 -9 -29.5t-10 -30.5q28 5 44 23.5t16 45.5z" />
    <glyph glyph-name="summation" unicode="&#x2211;" horiz-adv-x="900" 
d="M147 660h561v-240h-72v172h-399l254 -292l-253 -293h408v173h72v-240h-553q-18 0 -26 9.5t-10 21.5q-3 9 7 24.5t23 28.5l235 276l-247 280v80z" />
    <glyph glyph-name="product" unicode="&#x220f;" horiz-adv-x="900" 
d="M100 610h700v-70h-170v-588h-80v588h-200v-588h-80v588h-170v70z" />
    <glyph glyph-name="currency" unicode="&#xa4;" horiz-adv-x="900" 
d="M138 305q0 56 19 107.5t52 92.5l-111 112l39 40l111 -114q40 34 92 54.5t110 20.5q57 0 108.5 -20t92.5 -53l110 112l39 -40l-111 -111q33 -41 53.5 -93t20.5 -108q0 -59 -20 -110t-54 -91l111 -111l-39 -40l-110 112q-42 -34 -93.5 -53t-107.5 -19q-58 0 -110 19.5
t-92 53.5l-111 -113l-39 40l112 113q-34 39 -53 90.5t-19 108.5zM199 305q0 -53 19.5 -99t53.5 -79q33 -34 79 -53.5t99 -19.5q52 0 98 19.5t80 53.5q34 33 54 79t20 99q0 52 -20 98t-54 80t-80 54t-98 20q-53 0 -99 -20t-79 -54q-34 -34 -53.5 -80t-19.5 -98z" />
    <glyph glyph-name="uni2109" unicode="&#x2109;" horiz-adv-x="820" 
d="M0 670q0 42 29 71t71 29t71 -29t29 -71t-29 -71t-71 -29t-71 29t-29 71zM45 670q0 -23 16 -39t39 -16q22 0 38.5 16t16.5 39q0 22 -16.5 38.5t-38.5 16.5q-23 0 -39 -16.5t-16 -38.5zM262 -60v720h478v-78h-389v-227h371v-78h-371v-337h-89z" />
    <glyph glyph-name="perthousand" unicode="&#x2030;" horiz-adv-x="940" 
d="M85 -40l430 680h60l-430 -680h-60zM40 490q0 54 33 92t92 38q58 0 91.5 -38t33.5 -92q0 -53 -34 -91.5t-91 -38.5q-59 0 -92 38.5t-33 91.5zM105 490q0 -27 12.5 -49.5t47.5 -22.5q33 0 46.5 22.5t13.5 49.5q0 28 -15 50t-45 22q-31 0 -45.5 -22t-14.5 -50zM360 110
q0 54 33 92t92 38q58 0 91.5 -38t33.5 -92q0 -53 -34 -91.5t-91 -38.5q-59 0 -92 38.5t-33 91.5zM425 110q0 -27 12.5 -49.5t47.5 -22.5q33 0 46.5 22.5t13.5 49.5q0 28 -15 50t-45 22q-31 0 -45.5 -22t-14.5 -50zM640 110q0 54 33 92t92 38q58 0 91.5 -38t33.5 -92
q0 -53 -34 -91.5t-91 -38.5q-59 0 -92 38.5t-33 91.5zM705 110q0 -27 12.5 -49.5t47.5 -22.5q33 0 46.5 22.5t13.5 49.5q0 28 -15 50t-45 22q-31 0 -45.5 -22t-14.5 -50z" />
    <glyph glyph-name="uni25C1" unicode="&#x25c1;" horiz-adv-x="940" 
d="M780 -80l-688 380l688 380v-760zM200 300l530 -293v586z" />
    <glyph glyph-name="uni25C0" unicode="&#x25c0;" horiz-adv-x="940" 
d="M92 300l688 380v-760z" />
    <glyph glyph-name="uni25B7" unicode="&#x25b7;" horiz-adv-x="940" 
d="M848 300l-688 -380v760zM210 7l530 293l-530 293v-586z" />
    <glyph glyph-name="uni25B6" unicode="&#x25b6;" horiz-adv-x="940" 
d="M160 680l688 -380l-688 -380v760z" />
    <glyph glyph-name="uni2664" unicode="&#x2664;" horiz-adv-x="940" 
d="M622 429q-49 43 -90 90.5t-62 104.5q-21 -57 -62.5 -104.5t-88.5 -90.5q-23 -20 -43.5 -39.5t-36.5 -40.5q-15 -22 -24.5 -47t-9.5 -57q0 -24 10 -44t31 -34l-1 1q25 -14 53 -16t55 5t51 21t43 31q0 -99 -12.5 -158t-47.5 -86h167q-36 27 -48 86t-12 158q20 -18 45 -32
t51 -21q27 -7 54 -5t51 17q21 12 31 32.5t10 44.5q0 31 -11 56.5t-28 47.5q-16 22 -36.5 41.5t-38.5 38.5zM242 -38q53 0 86 11t51 34q19 23 25.5 58t8.5 83q-50 -37 -110 -34.5t-100 40.5q-20 19 -27.5 43.5t-7.5 54.5q0 63 32.5 107.5t89.5 91.5q28 24 57.5 55t54.5 67
t43 74.5t25 76.5q9 -38 27.5 -76.5t42.5 -74.5t52.5 -67t57.5 -55q56 -47 89.5 -91.5t33.5 -107.5q0 -30 -8 -54.5t-27 -43.5q-45 -39 -105.5 -41t-104.5 35q1 -48 7.5 -83t24.5 -58q19 -23 51.5 -34t86.5 -11l1 -8t3 -17h-464q0 4 1 8.5t1 7.5q1 3 1.5 5.5t0.5 3.5z" />
    <glyph glyph-name="spade" unicode="&#x2660;" horiz-adv-x="940" 
d="M242 -38q53 0 86 11t51 34q19 23 25.5 58t8.5 83q-22 -19 -48.5 -27t-53.5 -8q-31 0 -59 10.5t-49 30.5q-20 19 -27.5 43.5t-7.5 54.5q0 63 33 107t89 92q28 23 57.5 54.5t54.5 67.5t43 74.5t25 76.5q9 -38 27 -76.5t43 -74.5q24 -36 52.5 -67.5t57.5 -54.5
q55 -48 89 -92t34 -107q0 -30 -8 -54.5t-27 -43.5q-21 -20 -49.5 -30.5t-58.5 -10.5q-28 0 -54.5 8t-47.5 27q1 -48 7.5 -83t24.5 -58q19 -23 51.5 -34t86.5 -11l1 -8t3 -17h-464q0 4 1 8.5t1 7.5q1 3 1.5 5.5t0.5 3.5z" />
    <glyph glyph-name="uni2661" unicode="&#x2661;" horiz-adv-x="940" 
d="M470 480q-9 25 -22.5 53t-33.5 52q-19 23 -44.5 39t-55.5 18q-73 3 -104.5 -37.5t-31.5 -95.5q0 -73 36.5 -136.5t85.5 -124.5q48 -60 97 -119.5t73 -122.5q27 67 76 126t97 118t83.5 121.5t35.5 137.5q0 55 -32 95.5t-104 37.5q-31 -2 -57 -17.5t-45 -39.5
q-20 -23 -34 -51t-20 -54zM470 -81q-10 34 -24.5 63.5t-32.5 57.5q-18 27 -38 53l-40 52q-35 43 -71 86.5t-65 88.5t-47.5 93t-16.5 100q0 32 11.5 62.5t32.5 54.5t50.5 38.5t67.5 14.5q57 0 104.5 -33t68.5 -90q19 61 66 92t107 31q37 0 66.5 -14.5t50.5 -38.5t32.5 -54.5
t12.5 -62.5q1 -54 -19.5 -104.5t-51.5 -96.5q-31 -47 -66 -89t-63 -78q-45 -57 -77 -107.5t-58 -118.5z" />
    <glyph glyph-name="heart" unicode="&#x2665;" horiz-adv-x="940" 
d="M470 -81q-10 34 -24.5 63.5t-32.5 57.5q-18 27 -38 53l-40 52q-35 43 -71 86.5t-65 88.5t-47.5 93t-16.5 100q0 32 11.5 62.5t32.5 54.5t50.5 38.5t67.5 14.5q57 0 104.5 -33t68.5 -90q19 61 66 92t107 31q37 0 66.5 -14.5t50.5 -38.5t32.5 -54.5t12.5 -62.5
q1 -54 -19.5 -104.5t-51.5 -96.5q-31 -47 -66 -89t-63 -78q-45 -57 -77 -107.5t-58 -118.5z" />
    <glyph glyph-name="uni2667" unicode="&#x2667;" horiz-adv-x="940" 
d="M470 703q34 0 62.5 -14.5t49.5 -37.5q20 -23 31.5 -52t11.5 -59q0 -24 -6.5 -44t-17.5 -46q12 3 24.5 5t24.5 2q32 0 60 -13t49 -35q21 -23 33 -52.5t12 -63.5q0 -36 -13 -66t-34 -52q-22 -22 -51.5 -34.5t-63.5 -12.5q-36 0 -67 17t-48 43q0 -69 9.5 -114.5t27.5 -65.5
q16 -21 47.5 -30t77.5 -14l4 -27h-446q0 8 1.5 16t2.5 11q45 5 76.5 14t48.5 30q17 20 26.5 65.5t10.5 114.5q-18 -26 -49 -43t-66 -17t-64.5 12.5t-51.5 34.5q-21 22 -33.5 52t-12.5 66q0 34 11.5 63.5t32.5 52.5q21 22 49 35t61 13q12 0 24 -2t25 -5q-12 26 -18 46t-6 44
q0 30 11 59t32 52q20 23 48.5 37.5t63.5 14.5zM470 666q-51 0 -85 -38.5t-34 -89.5q0 -26 14.5 -55.5t27.5 -44.5l-24 -39q-17 9 -33.5 14t-32.5 5q-24 0 -47 -9t-40 -26q-18 -16 -28.5 -39t-10.5 -51q0 -25 9 -48t25 -40q16 -18 38 -28.5t49 -10.5q34 0 59.5 20t46.5 51h48
q0 -96 -9.5 -164t-53.5 -99h161q-43 32 -52.5 100.5t-9.5 162.5h48q20 -31 45.5 -51t60.5 -20q26 0 48 10.5t38 28.5q16 17 25.5 40t9.5 48q0 28 -11 51t-28 39q-18 17 -40.5 26t-46.5 9q-16 0 -33 -5t-33 -14l-24 39q12 15 27 44.5t15 55.5q0 51 -34 89.5t-85 38.5z" />
    <glyph glyph-name="club" unicode="&#x2663;" horiz-adv-x="940" 
d="M470 703q34 0 62.5 -14.5t49.5 -37.5q20 -23 31.5 -52t11.5 -59q0 -24 -6.5 -44t-17.5 -46q12 3 24.5 5t24.5 2q32 0 60 -13t49 -35q21 -23 33 -52.5t12 -63.5q0 -36 -13 -66t-34 -52q-22 -22 -51.5 -34.5t-63.5 -12.5q-36 0 -67 17t-48 43q0 -69 9.5 -114.5t27.5 -65.5
q16 -21 47.5 -30t77.5 -14l4 -27h-446q0 8 1.5 16t2.5 11q45 5 76.5 14t48.5 30q17 20 26.5 65.5t10.5 114.5q-18 -26 -49 -43t-66 -17t-64.5 12.5t-51.5 34.5q-21 22 -33.5 52t-12.5 66q0 34 11.5 63.5t32.5 52.5q21 22 49 35t61 13q12 0 24 -2t25 -5q-12 26 -18 46t-6 44
q0 30 11 59t32 52q20 23 48.5 37.5t63.5 14.5z" />
    <glyph glyph-name="glyph227" horiz-adv-x="0" 
 />
    <glyph glyph-name="uni25C8" unicode="&#x25c8;" horiz-adv-x="940" 
d="M470 740l440 -440l-440 -440l-440 440zM850 300l-380 380l-380 -380l380 -380zM470 505l205 -205l-205 -205l-205 205z" />
    <glyph glyph-name="uni25A3" unicode="&#x25a3;" horiz-adv-x="940" 
d="M850 680v-760h-760v760h760zM800 -30v660h-660v-660h660zM650 480v-360h-360v360h360z" />
    <glyph glyph-name="uni25D0" unicode="&#x25d0;" horiz-adv-x="940" 
d="M90 300q0 78 29.5 147.5t81.5 120.5q51 52 120.5 82t148.5 30q78 0 147.5 -30t120.5 -82q52 -51 82 -120.5t30 -147.5q0 -79 -30 -148.5t-82 -120.5q-51 -52 -120.5 -81.5t-147.5 -29.5q-79 0 -148.5 29.5t-120.5 81.5q-52 51 -81.5 120.5t-29.5 148.5zM470 630v-660
q68 0 128 25.5t105 70.5t71 105t26 129q0 68 -26 128t-71 105t-105 71t-128 26z" />
    <glyph glyph-name="uni25D1" unicode="&#x25d1;" horiz-adv-x="940" 
d="M850 300q0 -79 -30 -148.5t-82 -120.5q-51 -52 -120.5 -81.5t-147.5 -29.5q-79 0 -148.5 29.5t-120.5 81.5q-52 51 -81.5 120.5t-29.5 148.5q0 78 29.5 147.5t81.5 120.5q51 52 120.5 82t148.5 30q78 0 147.5 -30t120.5 -82q52 -51 82 -120.5t30 -147.5zM470 -30v660
q-69 0 -129 -26t-105 -71t-70.5 -105t-25.5 -128q0 -69 25.5 -129t70.5 -105t105 -70.5t129 -25.5z" />
    <glyph glyph-name="shade" unicode="&#x2592;" horiz-adv-x="940" 
d="M850 680v-760h-760v760h760z" />
    <glyph glyph-name="uni25A4" unicode="&#x25a4;" horiz-adv-x="940" 
d="M850 680v-760h-760v760h760zM820 575v75h-700v-75h700zM120 -50h700v75h-700v-75zM120 129v-74h700v74h-700zM120 233v-74h700v74h-700zM120 337v-74h700v74h-700zM120 545v-74h700v74h-700zM120 441v-74h700v74h-700z" />
    <glyph glyph-name="uni25A5" unicode="&#x25a5;" horiz-adv-x="940" 
d="M90 680h760v-760h-760v760zM195 650h-75v-700h75v700zM745 -50h75v700h-75v-700zM225 650v-700h74v700h-74zM329 650v-700h74v700h-74zM433 650v-700h74v700h-74zM641 650v-700h74v700h-74zM537 650v-700h74v700h-74z" />
    <glyph glyph-name="uni25A8" unicode="&#x25a8;" horiz-adv-x="940" 
d="M90 680h760v-760h-760v760zM120 76v-105l679 679h-105zM141 -50h105l574 574v105zM120 223v-105l532 532h-105zM288 -50h105l427 427v105zM436 -50h105l279 279v105zM120 370v-104l384 384h-104zM120 517v-104l237 237h-104zM583 -50h104l133 133v104zM729 -50h91v91z
M211 650h-91v-91z" />
    <glyph glyph-name="uni25A7" unicode="&#x25a7;" horiz-adv-x="940" 
d="M90 680h760v-760h-760v760zM120 629v-105l574 -574h105zM246 650h-105l679 -679v105zM120 482v-105l427 -427h105zM393 650h-105l532 -532v105zM120 334v-105l279 -279h105zM540 650h-104l384 -384v104zM120 187v-104l133 -133h104zM687 650h-104l237 -237v104zM211 -50
l-91 91v-91h91zM820 650h-91l91 -91v91z" />
    <glyph glyph-name="uni25A6" unicode="&#x25a6;" horiz-adv-x="940" 
d="M90 680h760v-760h-760v760zM195 650h-75v-75h75v75zM820 575v75h-75v-75h75zM745 -50h75v75h-75v-75zM120 25v-75h75v75h-75zM120 337v-74h75v74h-75zM120 441v-74h75v74h-75zM433 25v-75h74v75h-74zM120 545v-74h75v74h-75zM433 650v-75h74v75h-74zM225 25v-75h74v75
h-74zM537 25v-75h74v75h-74zM537 650v-75h74v75h-74zM225 650v-75h74v75h-74zM641 25v-75h74v75h-74zM329 25v-75h74v75h-74zM641 650v-75h74v75h-74zM745 129v-74h75v74h-75zM745 233v-74h75v74h-75zM745 337v-74h75v74h-75zM745 441v-74h75v74h-75zM745 545v-74h75v74h-75
zM120 129v-74h75v74h-75zM329 650v-75h74v75h-74zM120 233v-74h75v74h-75zM433 129v-74h74v74h-74zM433 233v-74h74v74h-74zM433 337v-74h74v74h-74zM433 441v-74h74v74h-74zM433 545v-74h74v74h-74zM225 129v-74h74v74h-74zM537 129v-74h74v74h-74zM537 233v-74h74v74h-74z
M537 337v-74h74v74h-74zM537 441v-74h74v74h-74zM537 545v-74h74v74h-74zM225 233v-74h74v74h-74zM225 441v-74h74v74h-74zM225 337v-74h74v74h-74zM225 545v-74h74v74h-74zM641 337v-74h74v74h-74zM641 441v-74h74v74h-74zM641 545v-74h74v74h-74zM329 129v-74h74v74h-74z
M641 233v-74h74v74h-74zM641 129v-74h74v74h-74zM329 233v-74h74v74h-74zM329 337v-74h74v74h-74zM329 441v-74h74v74h-74zM329 545v-74h74v74h-74z" />
    <glyph glyph-name="uni25A9" unicode="&#x25a9;" horiz-adv-x="940" 
d="M90 680h760v-760h-760v760zM175 278l-52 -52l52 -53l53 53zM270 79l52 -53l53 53l-53 52zM270 226l53 -52l52 52l-52 53zM323 426l-53 -53l53 -52l52 52zM344 153l52 -53l53 53l-53 52zM396 58l-53 -53l53 -52l52 52zM396 499l-52 -52l52 -53l53 53zM344 300l52 -53
l53 53l-53 52zM417 79l53 -52l52 52l-52 53zM470 573l-53 -53l53 -52l52 52zM417 226l53 -52l52 52l-52 53zM417 373l53 -52l52 52l-52 53zM491 153l52 -53l53 53l-53 52zM196 152l53 -52l52 52l-52 53zM544 58l-53 -53l53 -52l52 52zM491 300l52 -53l53 53l-53 52zM491 447
l52 -53l53 53l-53 52zM564 226l53 -52l52 52l-52 53zM617 131l-52 -52l52 -53l53 53zM564 373l53 -52l52 52l-52 53zM197 300l52 -53l53 53l-53 52zM638 300l52 -53l53 53l-53 52zM691 205l-53 -53l53 -52l52 52zM764 278l-52 -52l52 -53l53 53zM712 374l52 -53l52 52
l-52 53zM712 521l52 -53l52 52l-52 53zM270 520l52 -52l53 53l-52 52zM344 594l52 -52l52 52l-52 52zM228 521l-52 52l-53 -53l52 -52zM123 373l52 -52l53 53l-52 52zM175 131l-52 -52l53 -52l52 52zM491 594l53 -52l52 52l-53 52zM565 521l52 -53l52 52l-52 53zM249 58
l-52 -52l52 -52l52 51zM638 447l53 -52l52 52l-53 52zM638 594l53 -52l52 52l-53 52zM691 58l-53 -53l52 -51l53 52zM197 447l52 -52l52 52l-52 52zM712 79l52 -52l52 52l-52 52zM197 594l52 -52l52 52l-52 52zM155 6l-35 35v-70zM729 650l35 -35l35 35h-70zM785 6l35 -35
v70zM785 594l35 -35v70zM155 594l-35 35v-70zM176 -15l-35 -35h70zM764 -15l-35 -35h70zM141 650l35 -35l35 35h-70zM322 -16l-34 -34h69zM785 447l35 -34v69zM288 650l34 -35l35 35h-69zM154 447l-34 35v-69zM785 152l35 -34v69zM154 152l-34 35v-69zM583 650l34 -35l35 35
h-69zM617 -16l-34 -34h69zM786 300l34 -34v68zM154 300l-34 34v-68zM470 -16l-34 -34h68zM436 650l34 -34l34 34h-68z" />
    <glyph glyph-name="uni2668" unicode="&#x2668;" horiz-adv-x="940" 
d="M376 690q3 2 5.5 -10t2.5 -33q0 -18 -3 -36l-6 -36t-5.5 -36.5t-2.5 -37.5t3.5 -40t10.5 -42q9 -26 14 -45t7 -34t3 -27.5t2 -24.5q1 -18 -3.5 -39.5t-11.5 -44.5q-8 -22 -18 -43t-20 -36q-10 -19 -14 -33t-3 -23q0 -5 -3.5 -8.5t-9.5 -6.5q-1 0 -4 7.5t-7 23.5
q-3 14 -2 33t8 40q5 14 12 37t11 54q5 30 1.5 60t-13.5 63q-15 27 -17.5 51t-2.5 48q0 39 11 76.5t26 73.5q2 5 4 11t3 11q2 6 3.5 11.5t4.5 11.5q1 3 3 7.5t4 7.5q2 4 3.5 6.5t3.5 2.5zM298 278q6 0 9 -2t6 -5q0 -4 -1.5 -9.5t-9.5 -8.5q-18 -4 -40.5 -14.5t-43.5 -25.5
q-20 -16 -34 -35.5t-14 -40.5q0 -38 37.5 -62t88.5 -38q51 -13 103.5 -18t82.5 -4q25 0 75.5 5.5t101.5 18.5q51 14 89.5 38t38.5 62q0 23 -10.5 42.5t-31.5 35.5q-24 15 -40.5 23.5t-22.5 11.5q-9 5 -5.5 14.5t7.5 9.5q30 -6 59.5 -19t51.5 -33q23 -19 37 -45t14 -58
q0 -59 -40.5 -96t-97.5 -58t-119.5 -29t-107.5 -8q-44 0 -109.5 6.5t-126.5 26.5q-62 19 -105.5 54.5t-43.5 92.5q0 38 19.5 67.5t49.5 49.5q30 21 65.5 33.5t67.5 17.5zM495 738q2 0 6 -12.5t8 -29.5t7.5 -33t3.5 -21q0 -9 -1.5 -18.5t-3.5 -18.5q-3 -9 -5.5 -18.5
t-5.5 -19.5q-10 -29 -9 -62t8 -63q27 -54 32 -116.5t-11 -115.5q-7 -23 -16.5 -42t-18.5 -36t-17.5 -34t-12.5 -34q0 -6 -3 -11t-6 -8q-2 0 -3 2t-2 6q-2 5 -4 11.5t-5 15.5q-3 18 3 42.5t14 49.5q20 63 19.5 112t-17.5 108q-10 26 -18 52t-8 48q0 35 13 71.5t29 69.5
q9 20 14 38.5t5 36.5q-1 14 0.5 21.5t4.5 8.5zM623 690q6 0 9.5 -10t3.5 -31q0 -19 -3.5 -37t-7.5 -36t-7 -37t-3 -38q0 -25 6 -52.5t14 -54.5q7 -28 13.5 -55t6.5 -51q0 -34 -10.5 -64.5t-23.5 -57.5t-24.5 -51.5t-12.5 -45.5q-1 -5 -2.5 -8.5t-6.5 -6.5q-1 0 -1.5 1.5
t-1.5 5.5l-2.5 10t-2.5 14q-3 14 -2 33t7 40q3 14 7.5 29t8.5 30q4 16 6.5 33t2.5 35q0 23 -5.5 46t-11.5 47q-7 23 -12 46.5t-5 47.5q0 39 10 75.5t28 73.5q5 11 7.5 22.5t4.5 22.5q1 3 2 7l2 8t2.5 6.5t3.5 2.5z" />
    <glyph glyph-name="uni260F" unicode="&#x260f;" horiz-adv-x="940" 
d="M200 0h548q6 0 9.5 -1.5t5.5 0.5q2 3 3.5 11t4.5 27q2 15 3.5 26.5t1.5 18.5l-76 221q-6 15 -17.5 27.5t-23.5 22.5q-13 10 -23.5 18.5t-13.5 17.5q-3 5 -4 13.5t-1 21.5v51q36 -9 51 -24.5t20 -41.5q7 -43 22.5 -54.5t42.5 -11.5l80 -3h6q19 0 36 5.5t17 31.5
q0 76 -28.5 114t-84.5 55q-70 19 -150 30t-155 11q-72 0 -153 -10.5t-152 -30.5q-56 -16 -84.5 -55t-28.5 -114q0 -26 16.5 -31.5t35.5 -5.5h7l80 3q28 0 42.5 11.5t22.5 54.5q4 26 21 41.5t50 24.5v-51q0 -26 -5 -34.5t-26 -26.5q-9 -8 -17 -13.5t-14 -12.5q-7 -6 -12 -14
t-9 -20l-76 -221q0 -6 1.5 -19t3.5 -26q2 -14 3.5 -24t2.5 -10q0 -2 1.5 -2.5t4.5 -0.5q2 -1 5 -0.5t6 0.5v0zM208 30l-7 45l70 205q6 17 12.5 29t14.5 18l33 25q20 15 25 32.5t5 43.5v55l13 2l11 -72q1 0 9 0.5t21 1.5q12 1 27.5 2t30.5 1q13 0 28.5 -1t28.5 -1
q13 -1 22 -1.5l9 -0.5l13 70q1 0 2.5 -0.5t3.5 -0.5h3.5h3.5v-55q-1 -26 4.5 -43.5t25.5 -32.5l33 -25q7 -6 14 -18t13 -29l70 -205l-7 -45h-532zM474 559q60 0 130 -7.5t130 -22.5q60 -17 93 -44.5t33 -93.5q0 -16 -8 -21.5t-26 -4.5l-64 2q-21 0 -31 11.5t-16 48.5
q-6 31 -33 49t-63 27t-75 11.5t-70 2.5q-36 0 -76 -3t-75 -13q-35 -9 -60 -27t-30 -47q-7 -37 -16.5 -48.5t-30.5 -11.5l-64 -2q-19 -1 -26.5 4.5t-7.5 21.5q0 66 32.5 93.5t93.5 44.5q60 15 130 22.5t130 7.5v0zM474 370q-52 0 -90 -36.5t-38 -88.5q0 -53 35.5 -92.5
t89.5 -39.5t91.5 37.5t37.5 92.5q0 25 -10 48t-27 40q-17 18 -40 28.5t-49 10.5v0zM474 342q41 0 69.5 -30t28.5 -69q0 -43 -29.5 -72.5t-71.5 -29.5t-70 32t-28 72q0 41 30.5 69t70.5 28v0zM473 443q-16 0 -34.5 -0.5t-29.5 -2.5l-9 49q6 0 27.5 2t45.5 2q21 0 43.5 -2
t29.5 -2l-9 -49q-10 2 -29.5 2.5t-34.5 0.5v0z" />
    <glyph glyph-name="uni260E" unicode="&#x260e;" horiz-adv-x="940" 
d="M200 -2h548q6 0 9.5 -1.5t5.5 0.5q2 3 3.5 11t4.5 28q2 16 3.5 27.5t1.5 18.5l-76 221q-6 15 -13 23.5t-17 17.5q-10 8 -21.5 18.5t-25.5 28.5q-3 3 -4.5 11.5t-1.5 21.5v51q26 -4 48 -23.5t23 -42.5q33 -9 57 -13t67 -4q20 0 43 1.5t35 4.5q-4 33 -9 57t-16 41
t-31.5 29.5t-54.5 22.5q-73 20 -151.5 29.5t-153.5 9.5q-47 0 -109 -5t-120 -16t-103 -28t-59 -42q-9 -16 -15.5 -40.5t-9.5 -57.5q12 -3 34.5 -4.5t43.5 -1.5q42 0 66.5 4t57.5 13q2 23 23 42.5t48 23.5v-51q0 -14 -1.5 -21.5t-4.5 -12.5q-4 -6 -10 -12l-15 -15
q-11 -11 -18.5 -16.5t-13.5 -10.5q-6 -6 -11 -13t-9 -20l-76 -221q0 -5 1.5 -18.5t3.5 -27.5t4 -24.5l2 -10.5q0 -2 1.5 -2.5t4.5 -0.5q2 -1 5 -0.5t6 0.5v0zM474 370q26 0 49 -10.5t40 -28.5q17 -17 27 -40t10 -48q0 -55 -37.5 -92.5t-91.5 -37.5t-89.5 39.5t-35.5 92.5
q0 52 38 88.5t90 36.5v0zM473 490h10q26 0 49.5 -2.5t41.5 -4.5l-13 -74h-176l-13 73q9 1 20.5 2t24.5 3q13 1 27 2t29 1v0zM753 343l80 -3q26 0 43 5.5t17 32.5q-12 -3 -34 -4.5t-42 -1.5q-42 0 -69.5 3.5t-55.5 13.5q3 -25 19.5 -35.5t41.5 -10.5v0zM195 343
q24 0 40.5 10.5t20.5 35.5q-29 -10 -57 -13.5t-68 -3.5q-21 0 -42.5 1.5t-33.5 4.5q0 -27 17.5 -32.5t42.5 -5.5z" />
    <glyph glyph-name="uni261C" unicode="&#x261c;" horiz-adv-x="940" 
d="M725 462v-43h-12.5t-7.5 1t-6 2.5l-7 3.5l-91 48q-24 12 -49.5 18.5t-52.5 6.5q-13 0 -25.5 -4t-23.5 -12l-88 2l-160 -5q-16 -1 -36.5 -2.5t-38.5 -6.5t-30 -14.5t-12 -26.5q0 -25 14 -37.5t34 -17.5q19 -6 38.5 -6.5t30.5 -0.5l104 -6q-7 -7 -11 -16t-4 -18
q0 -6 2.5 -12.5t6.5 -9.5q-15 -6 -23.5 -18t-8.5 -27q0 -7 2 -15.5t8 -14.5q-10 -6 -17 -16.5t-7 -22.5q0 -21 14 -35.5t33 -23.5q20 -9 40.5 -12.5t34.5 -3.5q17 0 34 5t27 20q26 -1 51 -1h49q23 0 50 7t58 22q16 7 31 9.5t28 2.5h21v-46h129v326h-129zM725 207h-20t-21 -1
q-10 -2 -21.5 -4.5t-22.5 -8.5q-37 -19 -76 -25.5t-77 -6.5q-12 0 -23 0.5t-21 1.5v15q18 3 25 17.5t7 30.5q26 5 35.5 17t16.5 36l3.5 -0.5t9.5 -0.5q6 -1 13.5 -1h17.5q6 0 21 1t33 3q17 3 33 7.5t23 11.5v6l-7 8l-7 -2q-16 -6 -37.5 -10t-39.5 -4q-13 0 -24.5 0.5
t-21.5 2.5q-9 1 -15 2l-6 1q-7 9 -18 20t-19 17l42 47l-11 13l-44 -37q-12 -11 -29.5 -21t-34.5 -10q-12 0 -25.5 6.5t-13.5 19.5q0 4 2.5 9.5t6.5 10.5l8.5 8.5l8.5 8.5l48 49q14 14 27 21.5t34 7.5t44.5 -9t48.5 -21q24 -12 48 -25t45 -22q8 -3 11.5 -3.5t22.5 0.5v-187z
M357 386h-56l-133 5q-14 1 -35.5 7.5t-21.5 29.5q0 11 9.5 17.5t28.5 8.5l55 4h225zM791 163h-39v272h39v-272zM407 313q10 0 18 1.5t15 4.5q6 2 11 4t8 2q14 0 28 -15t14 -27q0 -16 -10.5 -23.5t-24.5 -7.5q-7 0 -19.5 2.5t-28.5 9.5l-45 18q-13 5 -33 17.5t-20 30.5
q0 8 4 13t10 9q14 -18 31.5 -28.5t41.5 -10.5v0zM448 225v-5q0 -10 -7 -16t-18 -6q-20 0 -42.5 4.5t-41.5 12.5t-31.5 19.5t-12.5 26.5q0 9 6 16t16 7q6 0 18 -6t27 -13q16 -8 33.5 -16t34.5 -12q1 -1 4 -1.5t6 -1.5q3 -2 5.5 -4t2.5 -5v0zM403 177q6 -1 11.5 -4t5.5 -11
q0 -16 -15 -21t-29 -5q-8 0 -24 3.5t-32 10.5q-16 6 -27.5 16.5t-11.5 24.5q0 9 3 16.5t9 7.5l1 -0.5t2 -0.5q15 -12 41 -21.5t66 -15.5v0z" />
    <glyph glyph-name="uni261E" unicode="&#x261e;" horiz-adv-x="940" 
d="M230 482h-129v-326h129v46h21q13 0 27 -2.5t31 -9.5q30 -15 57.5 -22t51.5 -7h48.5t51.5 1q9 -15 26.5 -20t33.5 -5q14 0 35 4t41 13q19 9 33 23.5t14 34.5q0 12 -7.5 22.5t-16.5 16.5q6 6 7.5 14.5t1.5 15.5q0 15 -8.5 27t-22.5 18q3 3 6 9.5t3 12.5q0 9 -4.5 18
t-10.5 16l104 6q9 0 28.5 0.5t39.5 6.5q19 5 34 18t15 37q0 17 -12.5 26.5t-30.5 14.5t-38.5 6.5t-35.5 2.5l-160 5l-88 -2q-10 8 -22.5 12t-26.5 4q-29 0 -54 -7.5t-49 -18.5t-46 -24t-44 -23q-5 -3 -8.5 -4t-6.5 -2t-7 -1h-11v43zM230 227v187q27 0 54.5 12.5t54.5 27.5
q28 15 55.5 27.5t55.5 12.5q21 -1 33.5 -7.5t27.5 -21.5l48 -49q3 -4 7.5 -8.5l8.5 -8.5q4 -5 7 -10.5t3 -9.5q0 -13 -14 -19.5t-25 -6.5q-9 0 -17.5 3t-16.5 7q-8 5 -15.5 10.5t-14.5 10.5l-44 37l-11 -13l42 -47q-9 -6 -20 -17t-17 -20q-1 0 -7 -1t-15 -2q-10 -2 -22 -2.5
t-24 -0.5q-18 0 -39 4t-37 10l-7 2l-7 -8v-6q5 -6 20 -10.5t32 -7.5t33.5 -4t25.5 -1h16.5t13.5 1q6 0 9 0.5t4 0.5q8 -24 16.5 -36t35.5 -17q0 -16 7 -30.5t25 -17.5v-15q-11 -1 -22 -1.5t-22 -0.5q-38 0 -77.5 6.5t-75.5 25.5q-12 6 -23.5 8.5t-21.5 4.5q-11 1 -21 1h-19
v0zM598 406l-72 74h225l55 -6q18 -3 28 -9t10 -17q0 -23 -22 -29.5t-35 -7.5l-133 -5h-56zM164 183v272h39v-272h-39zM548 333q23 0 41.5 10.5t31.5 28.5q6 -4 10 -9t4 -13q0 -18 -20.5 -30.5t-32.5 -17.5l-46 -18q-18 -7 -29.5 -9.5t-17.5 -2.5q-13 0 -24.5 7.5t-11.5 23.5
q0 12 15 27t28 15q3 0 7.5 -2t11.5 -4q7 -3 15 -4.5t18 -1.5v0zM506 245q0 3 13 8.5t31 12.5t36 15t29 15q2 1 5 2t6 3l6 2t6 1q9 0 15 -7t6 -16q0 -18 -16 -30t-37 -19q-21 -8 -42.5 -11t-31.5 -3q-14 0 -20 7.5t-6 19.5v0zM551 197q41 6 66.5 15.5t41.5 21.5l1 0.5t2 0.5
q4 0 8 -6.5t4 -14.5q0 -14 -11.5 -25t-26.5 -18q-16 -8 -32 -11.5t-25 -3.5q-13 0 -28.5 5t-15.5 21q0 8 5 11t11 4v0z" />
    <glyph glyph-name="paragraph" unicode="&#xb6;" horiz-adv-x="800" 
d="M345 710h203v-830h-52v779h-92v-779h-52v451q-44 1 -79.5 14.5t-59.5 40.5q-26 27 -38.5 61t-12.5 76q0 36 14.5 70t39.5 61q26 27 59 41.5t70 14.5z" />
    <glyph glyph-name="dagger" unicode="&#x2020;" horiz-adv-x="800" 
d="M425 543q19 3 36.5 7.5t34.5 8.5q16 4 33 5.5t36 -0.5q19 -3 34.5 -13.5t15.5 -28.5q0 -20 -15 -31.5t-35 -14.5q-22 -2 -39.5 0t-33.5 6t-31.5 8t-32.5 6q0 -21 4 -41t13 -32q13 -21 16 -31t1 -16t-7 -10.5t-7 -13.5q-8 -30 -15.5 -72t-7.5 -110q0 -33 0.5 -66t0.5 -66
t-1.5 -65.5t-4.5 -62.5q-2 -25 -7.5 -37.5t-12.5 -12.5q-8 0 -14 13t-6 37q-6 33 -7.5 65.5t-0.5 65.5q0 32 1.5 64t1.5 65q0 17 -1 41t-3 50q-2 25 -5.5 49.5t-9.5 41.5q-4 10 -9.5 16.5t-7.5 12.5q-2 7 0.5 16t15.5 26q7 12 13.5 32.5t7.5 40.5q-21 -3 -40.5 -7.5
t-37.5 -8.5q-18 -3 -36 -5t-37 1q-20 3 -30 14.5t-10 31.5q0 17 10.5 28t29.5 14q15 1 35 0t42 -5q21 -3 40.5 -7.5t33.5 -8.5q-3 16 -7 32.5t-8 32.5q-3 16 -5.5 32t-2.5 33q0 27 8 53.5t39 26.5q19 0 29.5 -11.5t13.5 -35.5q1 -22 -2 -44t-7 -43t-7.5 -40.5t-1.5 -35.5z
" />
    <glyph glyph-name="daggerdbl" unicode="&#x2021;" horiz-adv-x="800" 
d="M376 422v82q-21 0 -37.5 -4.5t-32.5 -9.5q-16 -4 -34 -6t-42 3q-20 3 -30 13.5t-10 28.5q0 17 10.5 28t29.5 14t37.5 1.5t36.5 -5.5q18 -3 35.5 -8t36.5 -7q-3 20 -7.5 39.5t-8.5 39.5q-4 19 -6 38t1 39q2 22 13.5 33.5t31.5 11.5t30 -11.5t13 -33.5q3 -27 -1 -48.5
t-9 -39.5t-8.5 -34.5t0.5 -33.5q19 2 37 6.5t35 8.5q18 4 35.5 5.5t37.5 -1.5t30 -14t10 -28q0 -18 -10 -28.5t-30 -13.5q-25 -5 -46 -2.5t-39 7.5q-17 5 -31.5 9t-25.5 3v-82q17 2 35 6.5t36 7.5q18 4 36 6t35 -1q20 -3 30 -13t10 -28q0 -17 -11 -29t-29 -16
q-20 -5 -38 -2.5t-36 7.5q-17 5 -34 9.5t-34 3.5q0 -19 4 -37.5t13 -30.5q10 -14 13 -22t2 -14q-1 -7 -5 -13.5t-8 -18.5q-11 -31 -18 -71.5t-7 -95.5l-2 -160q-2 -26 -7.5 -38t-12.5 -12q-8 0 -14 13.5t-6 37.5q-1 8 -1.5 20.5t-0.5 31.5q-1 19 -1 45v62q0 54 -5.5 93
t-17.5 68q-8 18 -12.5 25t-5.5 13q0 5 4 11.5t15 23.5q8 13 14 33t7 36q-20 1 -38 -4l-36 -10t-36 -7.5t-36 3.5q-19 4 -29.5 15.5t-10.5 29.5t10.5 28t29.5 13q19 1 37.5 -1.5t36.5 -5.5t36 -7t36 -5z" />
    <glyph glyph-name="arrowupdn" unicode="&#x2195;" horiz-adv-x="1000" 
d="M370 155l96 -105v510l-96 -105l130 300l130 -300l-96 105v-510l96 105l-130 -300z" />
    <glyph glyph-name="uni2197" unicode="&#x2197;" horiz-adv-x="1000" 
d="M148 -88l-48 48l643 646l-142 -6l304 120l-121 -304l7 142z" />
    <glyph glyph-name="uni2199" unicode="&#x2199;" horiz-adv-x="1000" 
d="M852 713l48 -48l-643 -646l142 6l-304 -120l121 304l-7 -142z" />
    <glyph glyph-name="uni2196" unicode="&#x2196;" horiz-adv-x="1000" 
d="M900 -40l-48 -48l-643 646l7 -142l-121 304l304 -120l-142 6z" />
    <glyph glyph-name="uni2198" unicode="&#x2198;" horiz-adv-x="1000" 
d="M100 665l48 48l643 -646l-7 142l121 -304l-304 120l142 -6z" />
    <glyph glyph-name="uni266D" unicode="&#x266d;" horiz-adv-x="940" 
d="M330 700h64v-359q11 25 31.5 47.5t46.5 35.5q26 14 55 16.5t58 -9.5q32 -15 50 -40t25 -55q8 -31 5.5 -65t-10.5 -66q-26 -95 -79.5 -146t-115.5 -69q-25 -8 -46.5 -12.5t-39.5 -7.5q-17 -2 -28.5 -3t-15.5 -1v734zM445 30q33 12 60.5 36t48.5 55q20 31 31.5 67t14.5 72
q3 48 -12.5 75.5t-40.5 38.5q-26 10 -53 3t-49 -24q-22 -18 -36 -40.5t-14 -42.5v-253q0 -3 10 -0.5t40 13.5z" />
    <glyph glyph-name="uni2669" unicode="&#x2669;" horiz-adv-x="940" 
d="M488 700v-635q0 -24 -15.5 -51.5t-42.5 -52.5q-25 -22 -61.5 -33.5t-67.5 12.5q-18 30 -1 67t44 61q28 24 53.5 32.5t52.5 5.5v594h38z" />
    <glyph glyph-name="musicalnote" unicode="&#x266a;" horiz-adv-x="940" 
d="M448 538v-473q0 -24 -15.5 -51.5t-42.5 -52.5q-25 -22 -61.5 -33.5t-67.5 12.5q-18 30 -1 67t44 61q28 24 53.5 32.5t52.5 5.5v601q21 -28 53 -55.5t62 -45.5q69 -44 116 -110t47 -145q0 -59 -29 -115t-73 -91q-22 -18 -37.5 -26t-18.5 -5q-2 1 0.5 4.5t8.5 10.5
q6 6 16 15t23 21q28 26 42 64t14 78q0 41 -12 79.5t-34 67.5q-26 31 -60.5 53t-79.5 31z" />
    <glyph glyph-name="uni266C" unicode="&#x266c;" horiz-adv-x="940" 
d="M735 700v-525q0 -24 -15.5 -51.5t-42.5 -52.5q-25 -22 -61.5 -33.5t-67.5 12.5q-18 30 -1 67t44 61q28 24 54 32.5t53 5.5v241l-365 -81v-301q0 -24 -15.5 -51.5t-42.5 -52.5q-25 -22 -61.5 -33.5t-67.5 12.5q-18 30 -1 67t44 61q28 24 53.5 32.5t52.5 5.5v485
q57 12 167 36.5t273 62.5zM333 517v-47l365 80v49z" />
    <glyph glyph-name="uni327F" unicode="&#x327f;" horiz-adv-x="1000" 
d="M373 225v-190h-68v553h68v-280l272 280h85l-220 -238q31 -38 63.5 -77t65.5 -79l64 -80t62 -79h-77l-228 273q-25 -27 -44.5 -45.5t-42.5 -37.5zM950 352h-47q-15 70 -51 134.5t-89 112.5q-52 49 -119.5 78t-145.5 29q-80 0 -150 -30t-124 -82t-87.5 -122.5t-38.5 -151.5
h154v-41h-202q0 93 32 178.5t90 150.5q59 65 141.5 104t184.5 39q85 0 160.5 -30.5t134.5 -84.5q60 -53 100.5 -126t56.5 -158zM749 320h202q1 -94 -32 -179.5t-93 -150.5t-144 -103.5t-183 -38.5q-83 0 -158.5 29.5t-135.5 81.5q-60 53 -100.5 125t-53.5 157h49
q14 -71 49 -134.5t87 -110.5q51 -48 118 -76t145 -28q83 0 153 29.5t122 81.5q53 53 86 124t43 155h-154v38z" />
    <glyph glyph-name="uni321C" unicode="&#x321c;" horiz-adv-x="1000" 
d="M262 600h417l-0.5 -19.5t-5.5 -31.5q-16 -33 -40.5 -61t-54.5 -52q26 -17 54 -31t55 -26t51 -22t43 -17l-17 -25q-4 -4 -7.5 -8t-6.5 -7t-7 -5t-9 -2h-4t-4 1q-2 0 -6 1.5t-10 3.5q-19 5 -77.5 26.5t-127.5 61.5q-31 -18 -61.5 -32.5t-56.5 -25.5q-27 -12 -48.5 -19.5
t-33.5 -11.5l-31 -10q-2 -1 -4 -1.5t-4 -0.5q-2 -1 -4.5 -1t-3.5 1q-5 0 -8.5 2.5t-6.5 6.5t-6 7.5t-4 6.5l-17 23q28 11 75 28.5t98 42.5t99 57.5t78 73.5v2h-304v64zM540 -54h-81v212h-282v64h646q3 -22 -5 -43t-33 -21h-245v-212zM40 300q0 127 31.5 236.5t88.5 183.5h50
q-46 -81 -73 -189t-27 -231q0 -124 27 -232t73 -188h-50q-57 73 -88.5 182.5t-31.5 237.5zM960 300q0 -128 -31.5 -237.5t-88.5 -182.5h-50q45 80 72.5 188t27.5 232q0 123 -27.5 231t-72.5 189h50q57 -74 88.5 -183.5t31.5 -236.5z" />
    <glyph glyph-name="uni2116" unicode="&#x2116;" horiz-adv-x="1000" 
d="M50 -60v720h97l238 -550l9 -28v578h75v-720h-95l-242 570l-7 23v-593h-75zM510 195q0 57 13 105.5t38 83.5q24 36 59 56t78 20t77.5 -20t59.5 -56q25 -35 38.5 -83.5t13.5 -105.5q0 -55 -14 -103t-39 -84q-24 -36 -59 -57t-77 -21q-43 0 -77.5 21t-59.5 57t-38 84
t-13 103zM586 195q0 -35 6 -68.5t20 -59.5q13 -27 34.5 -43t51.5 -16q29 0 50 16t35 43q14 26 21 59.5t7 68.5q0 36 -8 69.5t-22 59.5t-35 42t-48 16t-48 -16t-35 -42t-21.5 -59.5t-7.5 -69.5zM870 -24q0 23 17 39.5t38 16.5t38 -16.5t17 -39.5q0 -24 -17 -40t-38 -16
t-38 16t-17 40z" />
    <glyph glyph-name="uni33C7" unicode="&#x33c7;" horiz-adv-x="1100" 
d="M450 145h102q-20 -102 -84 -158.5t-164 -56.5q-72 0 -120.5 33.5t-78.5 85.5q-29 53 -41.5 117t-12.5 126q0 60 14 126.5t45 122.5q30 56 79 92.5t119 36.5q55 0 94.5 -15t68.5 -41q28 -26 47 -63t33 -81h-101q-13 57 -49 90t-93 33q-49 0 -80.5 -35.5t-49.5 -83.5
q-19 -49 -26 -100t-7 -82q0 -37 7.5 -86t25.5 -93q19 -44 49.5 -74.5t76.5 -31.5q31 -1 57 10.5t44 31.5q19 19 30.5 44.5t14.5 51.5zM761 430q50 0 87.5 -22.5t62.5 -57.5q24 -35 36.5 -78.5t12.5 -86.5q0 -47 -13 -91t-39 -78q-25 -35 -62 -55.5t-85 -20.5
q-51 0 -87.5 22.5t-60.5 57.5t-35.5 79t-11.5 86q0 45 12 88.5t37 78.5t61.5 56.5t84.5 21.5zM761 360q-31 0 -51 -19.5t-32 -46.5t-17 -57t-5 -52q0 -25 5 -55.5t17 -56.5q12 -27 32 -44.5t51 -17.5t51.5 18t33.5 45t18.5 57t5.5 54t-6 54.5t-19 56.5q-13 27 -34 45.5
t-50 18.5zM948 -15q0 23 15 39t37 16q21 0 36.5 -16t15.5 -39q0 -24 -15.5 -39.5t-36.5 -15.5q-22 0 -37 15.5t-15 39.5z" />
    <glyph glyph-name="trademark" unicode="&#x2122;" horiz-adv-x="940" 
d="M350 380v340h93l88 -249v-1l87 250h91v-340h-62v250q-4 -6 -16.5 -42t-26.5 -79q-14 -42 -27 -80.5t-16 -48.5h-62l-85 250v-250h-64zM135 380v283h-115v57h295v-57h-115v-283h-65z" />
    <glyph glyph-name="uni33C2" unicode="&#x33c2;" horiz-adv-x="1100" 
d="M944 268v-328h-82v303q-1 63 -9 95t-35 32q-26 0 -38 -34t-12 -93v-303h-82v303q0 63 -10.5 94.5t-36.5 31.5q-18 0 -28 -14.5t-14 -34.5t-4.5 -41.5t-0.5 -35.5v-303h-82v483h71l-2 -43q5 21 23.5 38.5t43.5 17.5q42 0 58.5 -23t22.5 -54q0 -1 0.5 0l1.5 3q0 2 1 4t2 3
q10 28 31 48t66 20q33 0 55.5 -16t35.5 -41t18.5 -55t5.5 -57zM212 442q32 -2 46 -14.5t28 -38.5q0 9 1 18t3 18l70 -3l-20 -362q-1 -19 0 -30t5 -20q5 -9 12.5 -17t20.5 -20q0 -1 1 -1.5t2 -0.5l-51 -46q-12 6 -29.5 26.5t-26.5 45.5q-19 -33 -41 -48t-64 -14
q-46 0 -73 27.5t-40 67.5q-14 39 -16.5 82.5t0.5 76.5q2 38 11 83.5t28 83.5q20 38 52 63t81 23zM257 190q1 12 2 43.5t-3 63.5q-3 32 -13.5 57t-31.5 25q-28 0 -43.5 -23.5t-22.5 -55.5q-8 -31 -10 -63t-2 -48q-1 -12 -2.5 -40.5t1.5 -58.5q3 -31 13 -54.5t32 -23.5
q31 -1 47 20t23 51q6 29 7 59t3 48zM970 -15q0 23 15 39t37 16q21 0 36.5 -16t15.5 -39q0 -24 -15.5 -39.5t-36.5 -15.5q-22 0 -37 15.5t-15 39.5zM380 -15q0 23 15 39t37 16q21 0 36.5 -16t15.5 -39q0 -24 -15.5 -39.5t-36.5 -15.5q-22 0 -37 15.5t-15 39.5z" />
    <glyph glyph-name="uni33D8" unicode="&#x33d8;" horiz-adv-x="1100" 
d="M949 268v-328h-82v303q-1 63 -9 95t-35 32q-26 0 -38 -34t-12 -93v-303h-82v303q0 63 -10.5 94.5t-36.5 31.5q-18 0 -28 -14.5t-14 -34.5t-4.5 -41.5t-0.5 -35.5v-303h-82v483h71l-2 -43q5 21 23.5 38.5t43.5 17.5q42 0 58.5 -23t22.5 -54q0 -1 0.5 0l1.5 3q0 2 1 4t2 3
q10 28 31 48t66 20q33 0 55.5 -16t35.5 -41t18.5 -55t5.5 -57zM975 -15q0 23 15 39t37 16q21 0 36.5 -16t15.5 -39q0 -24 -15.5 -39.5t-36.5 -15.5q-22 0 -37 15.5t-15 39.5zM377 -15q0 23 15 39t37 16q21 0 36.5 -16t15.5 -39q0 -24 -15.5 -39.5t-36.5 -15.5
q-22 0 -37 15.5t-15 39.5zM411 198q0 -37 -9.5 -80.5t-30.5 -81.5q-21 -37 -55 -62t-82 -24q-32 0 -62 17t-45 44v-201h-82v612h82v-44q17 26 46.5 43.5t65.5 18.5q48 0 80.5 -22.5t53.5 -57.5q20 -35 29 -78.5t9 -83.5zM133 197q0 -20 4 -50t15 -59q11 -28 29 -48.5
t47 -20.5q44 0 69.5 46t25.5 131q0 84 -24.5 131.5t-70.5 47.5q-39 0 -67 -47t-28 -131z" />
    <glyph glyph-name="uni2121" unicode="&#x2121;" horiz-adv-x="1050" 
d="M241 -60v630h-211v90h515v-90h-212v-630h-92zM812 62l9 -97q-12 -4 -14 -4.5l-2 -0.5q-27 -12 -58 -21t-80 -9q-119 0 -180.5 72.5t-61.5 197.5q0 57 16 104.5t45 82.5q29 34 69.5 53.5t90.5 19.5q57 0 97 -22.5t65 -61.5t37 -92t12 -114h-341q2 -70 44.5 -116t106.5 -46
q48 0 87.5 19t57.5 35zM516 242h251q-2 26 -11.5 51t-25.5 45q-16 19 -37.5 31.5t-46.5 12.5q-29 0 -51 -13.5t-39 -33.5q-16 -20 -26.5 -45t-13.5 -48zM916 -60v750h89v-750h-89z" />
    <glyph glyph-name="uniFF01" unicode="&#xff01;" horiz-adv-x="940" 
d="M561 655l-78 -515h-76q6 65 12 129t13 128q6 64 12.5 128t12.5 130h104zM373 -55l13 105h100q-2 -14 -3.5 -27.5t-3.5 -25.5q-1 -13 -3 -26t-3 -26h-100z" />
    <glyph glyph-name="uniFF02" unicode="&#xff02;" horiz-adv-x="940" 
d="M363 490l-18 260h100l-18 -260h-64zM513 490l-18 260h100l-18 -260h-64z" />
    <glyph glyph-name="uniFF03" unicode="&#xff03;" horiz-adv-x="940" 
d="M567 460l28 195h67l-27 -195h100v-66h-109q-8 -51 -14 -92.5t-10 -75.5h103v-66h-112l-10 -69l-17 -126h-68l27 195h-152l-10 -69l-17 -126h-68l27 195h-100v66h110l23 168h-103v66h112l28 195h67l-27 -195h152zM382 226h153l23 168h-152q-8 -51 -14 -92.5t-10 -75.5z
" />
    <glyph glyph-name="uniFF04" unicode="&#xff04;" horiz-adv-x="940" 
d="M434 651v104h66v-100q36 -1 78.5 -7t80.5 -17l-13 -80q-36 11 -71.5 18.5t-74.5 9.5v-231q31 -15 65 -33.5t61 -42.5q28 -24 46 -55.5t18 -71.5q0 -89 -53.5 -135t-136.5 -59v-106h-66v101q-3 0 -5 -0.5t-4 -0.5h-5h-3q-40 0 -81 9.5t-77 20.5l9 79q27 -10 72.5 -22
t93.5 -12v266q-31 13 -63.5 30.5t-59.5 40.5q-27 22 -44.5 50t-17.5 63q0 77 52 123t133 58zM596 140q0 37 -27 65t-69 51v-227q37 12 66.5 38.5t29.5 72.5zM342 480q0 -34 27 -58.5t65 -42.5v197q-39 -8 -65.5 -30.5t-26.5 -65.5z" />
    <glyph glyph-name="uniFF05" unicode="&#xff05;" horiz-adv-x="940" 
d="M205 -40l450 680h80l-450 -680h-80zM155 490q0 54 35.5 92t94.5 38q58 0 94 -38t36 -92q0 -53 -36.5 -91.5t-93.5 -38.5q-59 0 -94.5 38.5t-35.5 91.5zM226 490q0 -24 14 -44.5t45 -20.5q30 0 44 20.5t14 44.5q0 25 -15.5 45t-42.5 20q-28 0 -43.5 -20t-15.5 -45z
M525 110q0 54 35.5 92t94.5 38q58 0 94 -38t36 -92q0 -53 -36.5 -91.5t-93.5 -38.5q-59 0 -94.5 38.5t-35.5 91.5zM596 110q0 -24 14 -44.5t45 -20.5q30 0 44 20.5t14 44.5q0 25 -15.5 45t-42.5 20q-28 0 -43.5 -20t-15.5 -45z" />
    <glyph glyph-name="uniFF06" unicode="&#xff06;" horiz-adv-x="940" 
d="M652 332h84q-8 -74 -31 -133t-50 -101q26 -31 57.5 -67t59.5 -66h-111l-60 70q-39 -39 -88.5 -59.5t-110.5 -20.5q-103 0 -161.5 52t-58.5 138q0 75 43 122t116 77q-29 35 -52.5 74.5t-23.5 87.5q0 81 51.5 120t125.5 39q33 0 63.5 -9t53.5 -28t37 -47.5t14 -68.5
q0 -32 -14 -59t-36 -50q-22 -22 -50.5 -40t-56.5 -30l153 -173q21 33 31.5 73.5t14.5 98.5zM277 150q0 -30 11.5 -54t31.5 -41t46 -26t54 -9q50 0 83.5 25t51.5 46q-22 24 -44 49.5t-44 51.5q-22 25 -43.5 51t-42.5 51q-41 -29 -72.5 -61t-31.5 -83zM349 504q0 -36 21.5 -68
t45.5 -57q16 7 35.5 19.5t35.5 29.5q17 17 28 37t11 43q0 51 -25.5 71t-62.5 20t-63 -24t-26 -71z" />
    <glyph glyph-name="uniFF07" unicode="&#xff07;" horiz-adv-x="940" 
d="M438 490l-18 260h100l-18 -260h-64z" />
    <glyph glyph-name="uniFF08" unicode="&#xff08;" horiz-adv-x="940" 
d="M575 -140h-75q-68 101 -109 207.5t-41 232.5t41 231.5t109 208.5h75q-57 -102 -96 -212.5t-39 -227.5q0 -118 37.5 -228t97.5 -212z" />
    <glyph glyph-name="uniFF09" unicode="&#xff09;" horiz-adv-x="940" 
d="M440 -140h-75q59 102 97 212t38 228q0 117 -39 227.5t-96 212.5h75q67 -103 108.5 -208.5t41.5 -231.5t-41.5 -232.5t-108.5 -207.5z" />
    <glyph glyph-name="uniFF0A" unicode="&#xff0a;" horiz-adv-x="940" 
d="M546 353l-76 129q-10 -17 -19.5 -33t-19.5 -32q-10 -17 -19.5 -33t-18.5 -31l-72 48l103 116l-149 30l27 82l141 -58q-2 18 -4 37t-4 37l-4 38t-3 37h89l-15 -149q16 6 33 13.5t35 14.5q17 8 34 15t34 15l27 -82l-147 -30q12 -14 24.5 -28.5t25.5 -29.5t25.5 -29.5
t24.5 -28.5z" />
    <glyph glyph-name="uniFF0B" unicode="&#xff0b;" horiz-adv-x="940" 
d="M220 250v80h208v210h84v-210h208v-80h-208v-210h-84v210h-208z" />
    <glyph glyph-name="uniFF0C" unicode="&#xff0c;" horiz-adv-x="940" 
d="M382 -160l63 230h109q-15 -30 -28.5 -59t-27.5 -57t-27.5 -56.5t-27.5 -57.5h-61z" />
    <glyph glyph-name="uniFF0D" unicode="&#xff0d;" horiz-adv-x="940" 
d="M230 250v80h480v-80h-480z" />
    <glyph glyph-name="uniFF0E" unicode="&#xff0e;" horiz-adv-x="940" 
d="M415 -50v110h110v-110h-110z" />
    <glyph glyph-name="uniFF0F" unicode="&#xff0f;" horiz-adv-x="940" 
d="M300 -90l246 780h84q-30 -98 -61 -195.5t-62 -194.5q-32 -98 -62.5 -195.5t-60.5 -194.5h-84z" />
    <glyph glyph-name="uniFF10" unicode="&#xff10;" horiz-adv-x="940" 
d="M200 300q0 59 12 124.5t42 119.5q31 55 83 90.5t133 35.5q80 0 132 -35.5t83 -90.5q30 -54 42.5 -119.5t12.5 -124.5q0 -60 -12.5 -125.5t-42.5 -119.5q-31 -55 -83 -90t-132 -35q-81 0 -133 35t-83 90q-30 54 -42 119.5t-12 125.5zM294 300q0 -34 5.5 -84t24.5 -97
t53.5 -80.5t92.5 -33.5q57 0 91.5 33.5t53.5 80.5t25 97t6 84q0 33 -7 83.5t-26 97.5t-53.5 80.5t-89.5 33.5q-56 0 -90.5 -33.5t-53.5 -80.5t-25.5 -97.5t-6.5 -83.5z" />
    <glyph glyph-name="uniFF11" unicode="&#xff11;" horiz-adv-x="940" 
d="M429 505q-15 -13 -26.5 -27.5t-20.5 -27.5l-30 40q-12 15 -12.5 28.5t12.5 24.5q27 22 47 39t37 31q16 13 29.5 24.5t27.5 22.5h87v-720h-94v613q-7 -6 -14.5 -12t-14.5 -12t-14.5 -12t-13.5 -12z" />
    <glyph glyph-name="uniFF12" unicode="&#xff12;" horiz-adv-x="940" 
d="M455 670q49 0 93.5 -15t78.5 -42q33 -27 53 -66t20 -87q0 -33 -13.5 -66t-35.5 -65q-21 -32 -48 -62t-53 -57q-54 -54 -113.5 -102.5t-116.5 -92.5h390q3 -26 -6 -50.5t-39 -24.5h-435v102q19 16 37.5 31t37.5 30q18 14 36 28.5t35 28.5q31 26 71 63t75 78q36 41 60 84.5
t24 84.5q0 25 -13 47.5t-35 40.5q-22 17 -50 27.5t-58 10.5q-52 0 -99 -15t-86 -41l-10 51q-2 15 3 27.5t21 18.5q42 17 86.5 25t89.5 8z" />
    <glyph glyph-name="uniFF13" unicode="&#xff13;" horiz-adv-x="940" 
d="M369 591q-32 -4 -60 -15.5t-49 -21.5l-5 48q-2 14 3 25.5t20 17.5q42 14 86 19.5t86 5.5q48 0 93.5 -12t79.5 -35q35 -24 56 -59.5t21 -83.5q0 -30 -14 -56.5t-36 -48.5t-50.5 -37.5t-56.5 -22.5q72 -12 119.5 -63t47.5 -122q0 -56 -26 -94t-67 -62q-42 -24 -95 -34
t-107 -10q-44 0 -86.5 6t-80.5 20q-15 5 -20 17t-3 27l5 50q18 -10 44.5 -22t55.5 -16q18 -3 38.5 -5.5t41.5 -2.5q43 0 80.5 9t65.5 26t44 40t16 51q0 39 -20 66.5t-50 45.5q-31 18 -68.5 26.5t-72.5 8.5h-80v74h80q28 0 63 8.5t66 25.5q30 16 51 40t21 55t-14.5 53
t-37.5 36q-24 14 -52.5 20.5t-56.5 6.5q-19 0 -38.5 -1.5t-37.5 -3.5z" />
    <glyph glyph-name="uniFF14" unicode="&#xff14;" horiz-adv-x="940" 
d="M561 -60v165h-376v77q41 59 82 119t83 120q41 60 82 119.5t83 119.5h140v-480h100q3 -26 -6 -50.5t-39 -24.5h-55v-165h-94zM561 180v405l-281 -405h281z" />
    <glyph glyph-name="uniFF15" unicode="&#xff15;" horiz-adv-x="940" 
d="M340 9q11 -3 20.5 -4t17.5 -1q9 -1 16.5 -0.5t15.5 0.5q32 0 67 11t63 32q29 20 47.5 49t18.5 64q0 40 -17.5 71t-45.5 52q-28 20 -64.5 31t-73.5 11q-48 0 -85 -7.5t-65 -19.5l10 362h415q3 -26 -6 -50.5t-39 -24.5h-281q-1 -23 -1.5 -48.5t-1.5 -51.5t-1.5 -51.5
t-1.5 -47.5q16 4 39 6.5t53 2.5q48 0 94.5 -17.5t83.5 -47.5t59.5 -70t22.5 -85q0 -57 -24.5 -102.5t-64.5 -77.5q-40 -31 -92.5 -48t-108.5 -17q-40 0 -74 5t-66 15q-15 3 -21 16.5t-4 28.5v50q16 -9 42 -20t53 -16z" />
    <glyph glyph-name="uniFF16" unicode="&#xff16;" horiz-adv-x="940" 
d="M636 170q0 25 -9 52.5t-27 50.5q-19 23 -47.5 38t-67.5 15q-37 0 -68 -12t-53 -33q-23 -21 -35.5 -49.5t-12.5 -61.5q0 -26 10.5 -55.5t31.5 -53.5q21 -25 51.5 -41t70.5 -16q39 0 68 15t49 39q19 24 29 53.5t10 58.5zM525 596q-54 0 -94 -22.5t-68 -59.5
q-27 -38 -42 -85.5t-16 -98.5q38 34 85 51t100 17q52 0 96 -18t76 -49t50 -71t18 -85q0 -53 -19.5 -97.5t-53.5 -77.5q-33 -33 -79 -51.5t-98 -18.5q-80 0 -132 31.5t-83 82.5q-30 51 -42.5 114.5t-12.5 126.5q0 70 14.5 138.5t49.5 123.5q36 55 95.5 89t150.5 34
q36 0 72 -6t68 -16q15 -6 19.5 -17.5t3.5 -25.5l-5 -48q-37 18 -75.5 28.5t-77.5 10.5z" />
    <glyph glyph-name="uniFF17" unicode="&#xff17;" horiz-adv-x="940" 
d="M710 660v-76l-274 -644h-101l278 646h-383v74h480z" />
    <glyph glyph-name="uniFF18" unicode="&#xff18;" horiz-adv-x="940" 
d="M468 -70q-47 0 -93 13t-83 38q-37 24 -59.5 60.5t-22.5 83.5q0 66 49.5 117t120.5 78q-44 14 -73 35.5t-46 46.5t-24 52t-7 51q0 31 17 61t49 53q31 23 76 37t101 14q54 0 97 -14t73 -37q30 -22 46.5 -49.5t16.5 -54.5q0 -57 -32 -104t-110 -88q71 -27 118.5 -75.5
t47.5 -117.5q0 -51 -22 -89t-58 -62q-36 -25 -83.5 -37t-98.5 -12zM634 120q0 31 -11.5 53.5t-29.5 39.5q-19 16 -43 28t-48 23q-8 3 -15 5.5t-13 5.5q-6 2 -11.5 4.5t-9.5 5.5l-39 -23q-20 -11 -39 -23.5t-35 -28.5q-15 -16 -24.5 -35.5t-9.5 -44.5q0 -30 15 -53t40 -40
q25 -16 55.5 -24.5t60.5 -8.5q28 0 56 7.5t50 22.5t35.5 36.5t15.5 49.5zM326 490q0 -41 42 -76t124 -65q70 46 94 80.5t24 70.5q0 24 -14.5 42t-35.5 30t-46 18t-46 6q-22 0 -47 -7t-46 -20q-21 -14 -35 -33.5t-14 -45.5z" />
    <glyph glyph-name="uniFF19" unicode="&#xff19;" horiz-adv-x="940" 
d="M304 430q0 -26 8.5 -53.5t26.5 -50.5q19 -23 47.5 -37.5t68.5 -14.5q36 0 67 12t53 33q23 21 36 49.5t13 61.5q0 25 -11 54.5t-32 53.5q-21 25 -51.5 41.5t-69.5 16.5t-68.5 -15.5t-48.5 -39.5q-20 -24 -29.5 -53.5t-9.5 -57.5zM415 4q53 0 93 22t68 60q27 37 42 85
t17 99q-39 -35 -86 -51.5t-99 -16.5q-53 0 -97 17.5t-76 48.5t-49.5 71.5t-17.5 85.5q0 52 19 96.5t53 77.5q33 33 79 52t99 19q79 0 131 -32t83 -83q30 -51 43 -114t13 -126q0 -71 -15 -139.5t-50 -123.5q-36 -55 -95.5 -88.5t-149.5 -33.5q-36 0 -72.5 5.5t-67.5 16.5
q-15 5 -20 16.5t-3 26.5l5 48q36 -18 74.5 -28.5t78.5 -10.5z" />
    <glyph glyph-name="uniFF1A" unicode="&#xff1a;" horiz-adv-x="940" 
d="M525 535v-110h-110v110h110zM415 75v110h110v-110h-110z" />
    <glyph glyph-name="uniFF1B" unicode="&#xff1b;" horiz-adv-x="940" 
d="M381 -45l53 230h108l-101 -230h-60zM540 535v-110h-110v110h110z" />
    <glyph glyph-name="uniFF1C" unicode="&#xff1c;" horiz-adv-x="940" 
d="M720 560v-78l-405 -182q49 -23 100 -46l102 -46t101.5 -46t101.5 -44v-78q-64 28 -126 56l-124 56q-63 28 -125 56t-125 57v70q62 27 124.5 55.5t125.5 56.5q62 28 124.5 56.5t125.5 56.5z" />
    <glyph glyph-name="uniFF1D" unicode="&#xff1d;" horiz-adv-x="940" 
d="M225 370v80h490v-80h-490zM225 140v80h490v-80h-490z" />
    <glyph glyph-name="uniFF1E" unicode="&#xff1e;" horiz-adv-x="940" 
d="M220 482v78q62 -28 124.5 -56.5t125.5 -56.5q62 -28 124.5 -56.5t125.5 -55.5v-70q-64 -29 -126 -57l-124 -56q-63 -28 -125 -56t-125 -56v78q50 21 100.5 44t101.5 46l102 46t101 46z" />
    <glyph glyph-name="uniFF1F" unicode="&#xff1f;" horiz-adv-x="940" 
d="M395 -55v110h106v-110h-106zM437 670q43 0 84 -12t73 -35t51.5 -57.5t19.5 -79.5q0 -28 -9 -52t-24 -46q-15 -23 -34.5 -46t-41.5 -48q-24 -28 -44.5 -60t-20.5 -69v-25h-84v28q0 53 24.5 91t62.5 81q13 15 26.5 30.5t24.5 32.5t18 36t7 41q0 57 -43.5 84.5t-101.5 27.5
q-45 0 -81 -11.5t-66 -29.5l-8 51q-3 15 2.5 27t22.5 18q36 14 71 18.5t71 4.5z" />
    <glyph glyph-name="uniFF20" unicode="&#xff20;" horiz-adv-x="940" 
d="M680 488l-66 -253q-3 -12 -5.5 -24t-2.5 -21q0 -12 3.5 -19t15.5 -7q22 0 44 15.5t39 41.5q18 26 29 61t11 73q0 58 -21.5 103.5t-57.5 76.5t-85 47t-104 16q-65 0 -117.5 -22.5t-90.5 -62.5q-37 -39 -57.5 -92.5t-20.5 -115.5q0 -72 22 -128t61 -95q40 -39 94 -59.5
t119 -20.5q61 0 119.5 24.5t98.5 64.5h77q-51 -76 -130 -117.5t-169 -41.5q-78 0 -146.5 25.5t-118.5 74.5q-51 48 -80 117t-29 156q0 82 29 149t79 114q51 48 118 74t143 26q66 0 127 -22t108 -61q46 -39 74 -94t28 -121q0 -72 -27 -124.5t-64 -86.5q-38 -35 -78.5 -51
t-68.5 -16q-25 0 -41.5 12.5t-19.5 40.5q-21 -21 -50.5 -37t-60.5 -16q-32 0 -59.5 12t-46.5 34q-20 21 -31 50t-11 63q0 46 15 91t43 81q28 35 68 57t90 22q34 0 63.5 -15.5t53.5 -50.5l8 29q0 2 1 4.5t2 5.5q0 3 1 6.5t3 6.5h72zM430 170q28 0 51.5 15.5t41.5 40.5
q17 24 27 53.5t10 56.5q0 36 -23 61.5t-55 25.5q-30 0 -55 -15t-43 -39q-18 -23 -28 -51t-10 -54q0 -40 22.5 -67t61.5 -27z" />
    <glyph glyph-name="uniFF21" unicode="&#xff21;" horiz-adv-x="940" 
d="M210 -60h-95l300 720h52q24 0 44 -8.5t30 -31.5l294 -680h-100l-82 195h-363zM619 215l-141 335l-9 25l-9 -25l-137 -335h296z" />
    <glyph glyph-name="uniFF22" unicode="&#xff22;" horiz-adv-x="940" 
d="M200 -60v720h280q54 0 100.5 -10t79.5 -32q34 -21 53.5 -55t19.5 -81q0 -69 -33.5 -109.5t-104.5 -62.5q75 -12 121.5 -60.5t46.5 -119.5q0 -56 -23.5 -92.5t-62.5 -58.5t-89 -30.5t-103 -8.5h-285zM296 270v-250h187q34 0 66.5 4.5t58.5 17.5q25 13 41 36t16 60
t-20 62.5t-50 40.5q-31 15 -67 22t-68 7h-164zM296 580v-230h149q36 0 70 5t61 19q26 14 42.5 37.5t16.5 60.5q0 32 -13.5 53t-34.5 33t-45.5 17t-46.5 5h-199z" />
    <glyph glyph-name="uniFF23" unicode="&#xff23;" horiz-adv-x="940" 
d="M573 588q-68 0 -120 -22.5t-87 -61.5q-36 -39 -54 -91.5t-18 -112.5q0 -64 18.5 -117t54.5 -91t88 -59t118 -21q13 0 29.5 1.5t33.5 4.5q16 3 29.5 6t21.5 6q7 2 13.5 4t12.5 4q5 2 9.5 3.5t8.5 3.5l7 -45q3 -14 0 -23.5t-11 -15.5q-31 -18 -78.5 -22t-80.5 -4
q-84 0 -152.5 26t-116.5 74q-49 47 -75 114.5t-26 150.5q0 80 26 147t75 116q48 48 116.5 75t152.5 27q36 0 69.5 -6.5t67.5 -19.5q15 -6 19.5 -18.5t3.5 -27.5l-7 -51q-29 15 -67.5 30.5t-80.5 15.5z" />
    <glyph glyph-name="uniFF24" unicode="&#xff24;" horiz-adv-x="940" 
d="M180 -60v720h210q77 0 146 -25t121 -72q52 -46 82.5 -113t30.5 -150q0 -92 -27.5 -159.5t-76.5 -112.5q-50 -44 -120 -66t-156 -22h-210zM276 580v-560h124q129 0 201.5 67.5t72.5 212.5q0 65 -22.5 117t-60.5 88t-87.5 55.5t-103.5 19.5h-124z" />
    <glyph glyph-name="uniFF25" unicode="&#xff25;" horiz-adv-x="940" 
d="M695 350v-80h-369v-250h399q3 -26 -6 -53t-39 -27h-450v720h490q3 -26 -6 -53t-39 -27h-349v-230h369z" />
    <glyph glyph-name="uniFF26" unicode="&#xff26;" horiz-adv-x="940" 
d="M710 350v-80h-374v-330h-96v720h480q3 -26 -6 -53t-39 -27h-339v-230h374z" />
    <glyph glyph-name="uniFF27" unicode="&#xff27;" horiz-adv-x="940" 
d="M737 631q15 -6 19.5 -18.5t3.5 -27.5l-7 -51q-49 25 -99 39.5t-104 14.5q-63 0 -115 -23t-90 -62q-37 -39 -58 -91.5t-21 -111.5q0 -63 20 -116t57 -91q37 -39 88.5 -60t113.5 -21q31 0 68.5 1.5t60.5 10.5v241h-159v80h255v-380q-30 -10 -88.5 -20t-136.5 -10
q-85 0 -154 26.5t-118 74.5q-50 48 -76.5 115t-26.5 149q0 81 28.5 148t78.5 115t119 75t149 27q51 0 99 -9t93 -25z" />
    <glyph glyph-name="uniFF28" unicode="&#xff28;" horiz-adv-x="940" 
d="M271 605v-255h398v310q15 2 32 1t31 -7t23.5 -18t9.5 -31v-665h-96v330h-398v-330h-96v720q15 2 32 1t31 -7t23.5 -18t9.5 -31z" />
    <glyph glyph-name="uniFF29" unicode="&#xff29;" horiz-adv-x="940" 
d="M518 605v-665h-96v720q15 2 32 1t31 -7t23.5 -18t9.5 -31z" />
    <glyph glyph-name="uniFF2A" unicode="&#xff2a;" horiz-adv-x="940" 
d="M389 10q63 0 83.5 35t20.5 95v520q15 2 32 1t31 -7t23.5 -18t9.5 -31v-485q0 -36 -8 -70t-29 -61q-20 -27 -56 -43t-92 -16q-20 0 -35.5 1t-25.5 8q-11 6 -17 16.5t-7 24.5l-5 40q6 -2 12.5 -3.5t15.5 -3.5q9 -1 20 -2t27 -1z" />
    <glyph glyph-name="uniFF2B" unicode="&#xff2b;" horiz-adv-x="940" 
d="M321 605v-665h-96v720q15 2 32 1t31 -7t23.5 -18t9.5 -31zM334 320q0 1 0.5 2.5t1.5 3.5l281 304q12 12 26 20t32 10h85l-318 -340q43 -45 85.5 -93.5t85.5 -96.5q43 -49 85.5 -97.5t86.5 -92.5h-115l-334 373q-1 1 -1.5 2.5t-0.5 4.5z" />
    <glyph glyph-name="uniFF2C" unicode="&#xff2c;" horiz-adv-x="940" 
d="M356 605v-585h384q3 -26 -6 -53t-39 -27h-435v720q15 2 32 1t31 -7t23.5 -18t9.5 -31z" />
    <glyph glyph-name="uniFF2D" unicode="&#xff2d;" horiz-adv-x="940" 
d="M650 593q2 6 5 12t7 12q15 28 36.5 35.5t48.5 7.5h88v-720h-95v595l1 45q-10 -19 -15 -29.5t-8 -18.5q-27 -72 -51 -134t-48 -121q-24 -58 -48.5 -116t-52.5 -121h-96q-27 67 -51.5 125.5t-48.5 115.5q-25 58 -49.5 118.5t-50.5 132.5l-23 48l1 -49v-591h-95v720h92
q27 0 48 -7.5t37 -35.5q1 -3 5 -12.5t21 -51.5q17 -41 51.5 -128t98.5 -245l4 -12l4 -12q1 -6 2.5 -11.5t3.5 -9.5q3 11 7 23.5t8 21.5q26 66 50 126.5t44 112.5q21 53 38 97t31 77z" />
    <glyph glyph-name="uniFF2E" unicode="&#xff2e;" horiz-adv-x="940" 
d="M328 617l317 -515l27 -47q-1 7 -1.5 9t-0.5 4v9v23v560q15 2 31.5 1t30.5 -7t23.5 -18t9.5 -31v-665h-124l-349 578l-24 47q1 -15 1.5 -25.5t0.5 -22.5v-577h-95v720h63q28 0 50.5 -7.5t39.5 -35.5z" />
    <glyph glyph-name="uniFF2F" unicode="&#xff2f;" horiz-adv-x="940" 
d="M231 300q0 -55 14 -107.5t43 -92.5q29 -41 74.5 -65.5t107.5 -24.5q61 0 106.5 24.5t74.5 65.5q29 40 43.5 92.5t14.5 107.5t-15 107.5t-45 92.5q-30 41 -75 65.5t-104 24.5q-60 0 -105 -24.5t-75 -65.5q-30 -40 -44.5 -92.5t-14.5 -107.5zM135 300q0 81 22.5 148.5
t65.5 117.5q42 49 104.5 76.5t142.5 27.5q79 0 141.5 -27.5t105.5 -76.5q42 -50 65 -117.5t23 -148.5q0 -83 -22.5 -151.5t-65.5 -116.5q-43 -49 -105.5 -75.5t-141.5 -26.5q-80 0 -142.5 26.5t-105.5 75.5q-43 48 -65 116.5t-22 151.5z" />
    <glyph glyph-name="uniFF30" unicode="&#xff30;" horiz-adv-x="940" 
d="M316 580v-275h184q28 0 56 8.5t51 25.5t37.5 43.5t14.5 62.5q0 35 -13 60.5t-35 41.5q-22 17 -51 25t-60 8h-184zM220 -60v720h270q52 0 100 -12t85 -37q36 -26 58 -67t22 -99q0 -57 -24 -98.5t-62 -68.5t-85.5 -40t-93.5 -13h-174v-285h-96z" />
    <glyph glyph-name="uniFF31" unicode="&#xff31;" horiz-adv-x="940" 
d="M130 300q0 81 22.5 148.5t65.5 117.5q42 49 104.5 76.5t142.5 27.5q79 0 141.5 -27.5t105.5 -76.5q42 -50 65 -117.5t23 -148.5q0 -78 -20 -142t-57 -112l127 -116h-125l-63 58q-39 -28 -88.5 -43t-108.5 -15q-80 0 -142.5 26.5t-105.5 75.5q-43 48 -65 116.5t-22 151.5z
M425 205h125l103 -95q25 39 38 88.5t13 101.5q0 55 -15 107.5t-45 92.5q-30 41 -75 65.5t-104 24.5q-60 0 -105 -24.5t-75 -65.5q-30 -40 -44.5 -92.5t-14.5 -107.5t14 -107.5t43 -92.5q29 -41 74.5 -65.5t107.5 -24.5q39 0 71 10t59 29z" />
    <glyph glyph-name="uniFF32" unicode="&#xff32;" horiz-adv-x="940" 
d="M200 -60v720h255q55 0 105 -9.5t88 -31.5q37 -23 59.5 -60.5t22.5 -93.5q0 -32 -13.5 -59t-36.5 -48t-53.5 -35.5t-63.5 -20.5q29 -12 49.5 -28t35.5 -46l127 -288h-110l-103 252q-22 51 -54.5 62t-72.5 11h-139v-325h-96zM296 580v-235h159q34 0 66.5 9t57.5 26
q24 16 39.5 38.5t15.5 49.5q0 50 -41 81t-113 31h-184z" />
    <glyph glyph-name="uniFF33" unicode="&#xff33;" horiz-adv-x="940" 
d="M248 -41q-16 3 -21 16t-2 28l15 52q49 -22 97.5 -32.5t97.5 -10.5q34 0 70 8t66 24q29 16 48.5 40t19.5 56q0 25 -15 45t-39 35q-24 16 -53.5 28t-58.5 24l-22 8q-37 14 -78.5 31t-76.5 41q-35 23 -58 53t-23 70q0 45 22 80.5t61 59.5t92 37t115 13q45 0 87.5 -7
t83.5 -15q15 -4 21 -17t3 -27l-15 -51q-47 20 -94.5 30t-95.5 10q-33 0 -65.5 -7t-59.5 -21q-26 -13 -42.5 -33.5t-16.5 -46.5q0 -21 14.5 -37.5t38.5 -30.5q23 -14 51.5 -25.5t55.5 -21.5q3 -2 6.5 -3.5t7.5 -2.5t7.5 -2t6.5 -2q38 -15 79.5 -33.5t76.5 -43.5
q34 -25 57 -58t23 -75q0 -56 -24 -95.5t-66 -65.5q-42 -25 -99.5 -37t-125.5 -12q-46 0 -89 6.5t-83 17.5z" />
    <glyph glyph-name="uniFF34" unicode="&#xff34;" horiz-adv-x="940" 
d="M165 660h610q3 -26 -6 -53t-39 -27h-212v-640h-96v640h-257v80z" />
    <glyph glyph-name="uniFF35" unicode="&#xff35;" horiz-adv-x="940" 
d="M271 605v-365q0 -102 51 -166t148 -64q96 0 147.5 64t51.5 166v420q15 2 32 1t31 -7t23.5 -18t9.5 -31v-378q0 -74 -22 -129.5t-61 -92.5q-39 -38 -93.5 -56.5t-118.5 -18.5q-65 0 -119.5 18.5t-93.5 56.5q-39 37 -60.5 92.5t-21.5 129.5v433q15 2 32 1t31 -7t23.5 -18
t9.5 -31z" />
    <glyph glyph-name="uniFF36" unicode="&#xff36;" horiz-adv-x="940" 
d="M687 606q10 29 31.5 41.5t48.5 12.5h38l-272 -720h-126l-272 720h50q22 0 39 -7.5t30 -32.5v-2.5t3 -8.5q2 -6 7.5 -20.5t15.5 -41.5q9 -26 24 -67t37 -100t52 -139t69 -185l13 -41l13 40q25 70 49.5 138t49.5 137q25 68 49.5 136.5t50.5 139.5z" />
    <glyph glyph-name="uniFF37" unicode="&#xff37;" horiz-adv-x="940" 
d="M463 606l159 -551l13 -40l13 41l168 564q12 25 29 32.5t40 7.5h50q-34 -89 -62 -179.5t-54 -180.5q-27 -91 -55 -181.5t-61 -178.5h-126l-108 333l-106 -333h-126q-34 88 -62 178.5t-54 181.5q-27 90 -55 180.5t-61 179.5h50q22 0 39 -7.5t30 -32.5l168 -564l13 -41
l13 40l105 361l-78 244h38q27 0 48 -12.5t32 -41.5z" />
    <glyph glyph-name="uniFF38" unicode="&#xff38;" horiz-adv-x="940" 
d="M155 -60l263 375q-31 42 -61.5 85.5t-60.5 86.5t-60.5 86.5t-60.5 86.5h71q21 0 36.5 -8t30.5 -29l160 -233q7 8 29.5 39.5t49.5 69.5q26 38 50.5 73.5t35.5 52.5q12 18 30.5 26.5t40.5 8.5h61l-244 -340l264 -380h-112l-208 302q-26 -37 -52.5 -75t-52.5 -76
q-27 -39 -53.5 -77t-51.5 -74h-105z" />
    <glyph glyph-name="uniFF39" unicode="&#xff39;" horiz-adv-x="940" 
d="M422 -60v313q-67 97 -138 202t-134 205h65q21 0 37 -7t29 -30l175 -260l15 -28q1 3 3 6.5t4 7.5q2 3 4 7t4 7q61 93 95 145t51 77q16 25 20.5 31t6.5 9q12 18 30.5 26.5t40.5 8.5h60l-272 -407v-313h-96z" />
    <glyph glyph-name="uniFF3A" unicode="&#xff3a;" horiz-adv-x="940" 
d="M325 50l-27 -30h437q3 -26 -6 -53t-39 -27h-485v84q48 62 96 128t97 133t97.5 133t96.5 129l28 33h-400v80h500v-84q-47 -61 -97 -128t-101 -135q-51 -69 -101 -136t-96 -127z" />
    <glyph glyph-name="uniFF3B" unicode="&#xff3b;" horiz-adv-x="940" 
d="M380 -150v910h190v-65h-110v-780h110v-65h-190z" />
    <glyph glyph-name="uniFFE6" unicode="&#xffe6;" horiz-adv-x="940" 
d="M127 320h-117v58h102l-68 252h99l62 -252h155l58 252h111l60 -252h155q7 31 14.5 62.5t15.5 63.5q8 31 16 62.5t17 63.5h94l-70 -252h99v-58h-115l-96 -350h-118l-79 350h-96l-80 -350h-124zM603 320l61 -258h4q17 63 32.5 127.5t30.5 130.5h-128zM219 320l64 -258h4
l59 258h-127zM475 530l-35 -152h69z" />
    <glyph glyph-name="uniFF3D" unicode="&#xff3d;" horiz-adv-x="940" 
d="M560 760v-910h-190v65h110v780h-110v65h190z" />
    <glyph glyph-name="uniFF3E" unicode="&#xff3e;" horiz-adv-x="940" 
d="M270 450l160 300h80l160 -300h-85l-115 230l-115 -230h-85z" />
    <glyph glyph-name="uniFF3F" unicode="&#xff3f;" horiz-adv-x="940" 
d="M210 -150v52h520v-52h-520z" />
    <glyph glyph-name="uniFF40" unicode="&#xff40;" horiz-adv-x="940" 
d="M480 750l85 -180h-65l-130 180h110z" />
    <glyph glyph-name="uniFF41" unicode="&#xff41;" horiz-adv-x="940" 
d="M610 136v52q-15 0 -44 1t-56 1t-62.5 -3t-67.5 -13t-53.5 -30t-21.5 -54q0 -20 11.5 -36t30.5 -27q18 -12 42.5 -17.5t50.5 -5.5q34 0 65 9.5t54 27.5q24 18 37.5 42t13.5 53zM435 386q-49 -1 -91 -18t-79 -43l-5 50q-3 13 1 24.5t19 17.5q43 19 84.5 31t85.5 12
q120 0 185 -52t65 -157v-231q0 -22 0.5 -35t2.5 -21q1 -8 3 -13.5t4 -10.5q-15 -2 -31.5 -2.5t-29.5 2.5q-14 3 -22.5 11t-8.5 24v40q-10 -14 -29.5 -29t-45.5 -27q-25 -13 -54.5 -21t-58.5 -8q-99 0 -157 40t-58 120q0 47 21.5 79.5t57.5 51.5q36 20 82 28.5t94 8.5l140 -2
q-2 64 -47 97.5t-128 32.5z" />
    <glyph glyph-name="uniFF42" unicode="&#xff42;" horiz-adv-x="940" 
d="M315 20v-40q0 -31 -27.5 -37.5t-57.5 -2.5v750q14 2 29.5 1t29.5 -7q13 -6 22 -18t9 -31v-263q25 36 70 62t108 26q54 0 97 -21.5t73 -56.5q30 -36 46 -83t16 -99t-15 -100.5t-44 -86.5t-72.5 -60.5t-100.5 -22.5q-66 0 -113.5 30t-69.5 60zM640 195q0 34 -10.5 68.5
t-30.5 61.5t-50 44t-69 17q-40 0 -70 -16.5t-50 -43.5t-30 -61t-10 -70q0 -33 9 -66.5t29 -61.5q19 -28 49.5 -45.5t72.5 -17.5q39 0 68.5 18t50.5 47q20 28 30.5 61.5t10.5 64.5z" />
    <glyph glyph-name="uniFF43" unicode="&#xff43;" horiz-adv-x="940" 
d="M335 195q0 -84 54.5 -137.5t165.5 -53.5q38 0 69.5 10t55.5 20l7 -43q2 -13 -1 -22t-11 -15q-34 -16 -66.5 -20t-63.5 -4q-138 0 -219 71t-81 194q0 130 81 197.5t224 67.5q27 0 51.5 -5.5t51.5 -14.5q15 -6 19 -16t3 -24l-8 -50q-23 13 -56 25t-70 11q-98 -3 -152 -52
t-54 -139z" />
    <glyph glyph-name="uniFF44" unicode="&#xff44;" horiz-adv-x="940" 
d="M700 635v-615q0 -22 0.5 -35t2.5 -21q1 -8 3 -13.5t4 -10.5q-15 -2 -32 -2.5t-31 2.5t-23 11t-9 24v45q-23 -30 -70 -60t-113 -30q-58 0 -101.5 22.5t-72.5 60.5t-43.5 86.5t-14.5 100.5t15.5 99t45.5 83q30 35 73 56.5t98 21.5q63 0 107.5 -26t70.5 -62v318q14 2 29.5 1
t29.5 -7q13 -6 22 -18t9 -31zM290 195q0 -31 10 -64.5t31 -61.5q20 -29 50 -47t69 -18q41 0 71.5 17.5t49.5 45.5q20 28 29.5 61.5t9.5 66.5q0 36 -10.5 70t-30.5 61t-50 43.5t-69 16.5q-40 0 -70 -17t-50 -44t-30 -61.5t-10 -68.5z" />
    <glyph glyph-name="uniFF45" unicode="&#xff45;" horiz-adv-x="940" 
d="M312 240h315q-1 28 -12 54t-31 47q-19 20 -47 32.5t-62 12.5q-38 0 -67.5 -13.5t-49.5 -34.5t-31.5 -47t-14.5 -51zM665 48l7 -46q1 -13 0 -22.5t-10 -15.5q-38 -24 -80 -29t-82 -5q-138 0 -209 73t-71 197q0 56 18 104t52 82q33 35 80 54.5t105 19.5q66 0 112.5 -22.5
t75.5 -61.5q30 -39 43.5 -92t13.5 -114h-408q1 -75 52.5 -120.5t135.5 -45.5q45 0 86.5 12t78.5 32z" />
    <glyph glyph-name="uniFF46" unicode="&#xff46;" horiz-adv-x="940" 
d="M636 691q13 -4 18 -13.5t4 -21.5l-3 -44q-10 4 -22 5.5t-38 3.5q-32 0 -50 -8.5t-27 -24.5q-9 -15 -11 -36.5t-2 -46.5v-55h155q3 -26 -6 -51t-39 -25h-110v-434h-90v434h-140v76h140v45q0 46 6 83t24 63t50.5 40t84.5 14q15 0 29.5 -0.5t26.5 -3.5z" />
    <glyph glyph-name="uniFF47" unicode="&#xff47;" horiz-adv-x="940" 
d="M300 220q0 -70 41 -117t119 -47q77 0 118.5 46t41.5 118q0 32 -10 62t-30 53t-50 37t-70 14q-39 0 -69 -15t-50 -38q-20 -24 -30.5 -53.5t-10.5 -59.5zM455 -136q76 0 120.5 46.5t44.5 129.5l-1 26q-26 -36 -71 -60t-106 -24q-110 0 -171 64t-61 169q0 51 14.5 95.5
t43.5 77.5t72.5 52.5t101.5 19.5q64 0 111.5 -29t70.5 -59l-1 38q0 30 28.5 36.5t58.5 3.5v-420q0 -117 -65 -178.5t-200 -61.5q-48 0 -92 7.5t-83 24.5q-9 6 -12 14.5t0 21.5l7 50q48 -21 94 -32.5t96 -11.5z" />
    <glyph glyph-name="uniFF48" unicode="&#xff48;" horiz-adv-x="940" 
d="M235 -60v750q14 2 29.5 1t29.5 -7q13 -6 22 -18t9 -31v-265q29 45 75.5 67.5t99.5 22.5q96 0 155.5 -58t59.5 -160v-302h-90v262q0 90 -34.5 137t-100.5 47q-79 0 -122 -60.5t-43 -153.5v-232h-90z" />
    <glyph glyph-name="uniFF49" unicode="&#xff49;" horiz-adv-x="940" 
d="M515 395v-455h-90v510q14 2 29.5 1t29.5 -7q13 -6 22 -18t9 -31zM410 610q0 24 17.5 42t42.5 18q24 0 42 -18t18 -42q0 -25 -18 -42.5t-42 -17.5q-25 0 -42.5 17.5t-17.5 42.5z" />
    <glyph glyph-name="uniFF4A" unicode="&#xff4a;" horiz-adv-x="940" 
d="M415 -130q45 0 55 29.5t10 90.5v458q15 2 30.5 1t29.5 -7q13 -6 21.5 -17.5t8.5 -29.5v-425q0 -36 -4.5 -67.5t-19.5 -55.5q-14 -24 -42 -38t-74 -14q-19 0 -29.5 1.5t-20.5 7.5q-10 5 -14.5 16.5t-5.5 24.5l-5 35q15 -5 29.5 -7.5t30.5 -2.5zM465 610q0 24 17.5 42
t42.5 18q24 0 42 -18t18 -42q0 -25 -18 -42.5t-42 -17.5q-25 0 -42.5 17.5t-17.5 42.5z" />
    <glyph glyph-name="uniFF4B" unicode="&#xff4b;" horiz-adv-x="940" 
d="M360 635v-695h-90v750q14 2 29.5 1t29.5 -7q13 -6 22 -18t9 -31zM377 226l195 194q12 12 26 20t32 10h90l-235 -230q66 -69 132.5 -140t132.5 -140h-115l-258 273q-1 1 -1.5 2.5t-0.5 4.5q0 1 0.5 2.5t1.5 3.5z" />
    <glyph glyph-name="uniFF4C" unicode="&#xff4c;" horiz-adv-x="940" 
d="M516 635v-695h-91v750q14 2 30 1t29 -7q14 -6 23 -18t9 -31z" />
    <glyph glyph-name="uniFF4D" unicode="&#xff4d;" horiz-adv-x="940" 
d="M95 -60v510q30 3 58.5 -3.5t28.5 -36.5l-1 -40q30 49 71 69.5t98 20.5q43 0 86 -25t65 -81q14 29 33.5 49.5t40.5 32.5q21 13 42 18.5t38 5.5q95 0 142.5 -57.5t47.5 -140.5v-322h-90v302q0 24 -6.5 49.5t-19.5 46.5q-14 21 -34.5 34.5t-49.5 13.5q-37 0 -62 -17.5
t-40 -44.5q-15 -28 -21.5 -63t-6.5 -71v-250h-90v302q0 24 -5 49.5t-16 46.5q-12 21 -31 34.5t-48 13.5q-37 0 -63.5 -17.5t-43.5 -44.5q-17 -28 -25 -63t-8 -71v-250h-90z" />
    <glyph glyph-name="uniFF4E" unicode="&#xff4e;" horiz-adv-x="940" 
d="M322 410l-1 -34q27 40 77.5 62t101.5 22q98 0 156.5 -59t58.5 -161v-300h-90v260q0 90 -36 138t-99 48q-83 0 -124 -59t-41 -152v-235h-90v510q30 3 58.5 -3.5t28.5 -36.5z" />
    <glyph glyph-name="uniFF4F" unicode="&#xff4f;" horiz-adv-x="940" 
d="M210 195q0 57 18 105.5t52 83.5t82 55.5t108 20.5q59 0 107 -20.5t82 -55.5t52.5 -83.5t18.5 -105.5q0 -54 -19 -102.5t-53 -84.5q-35 -36 -82.5 -57t-105.5 -21q-59 0 -107 21t-82 57t-52.5 84.5t-18.5 102.5zM300 195q0 -35 9.5 -69t30.5 -61q20 -28 52.5 -44.5
t77.5 -16.5q43 0 75 16.5t53 44.5q21 27 31.5 61t10.5 69q0 36 -11.5 70.5t-33.5 60.5q-22 27 -53.5 43.5t-71.5 16.5q-41 0 -72.5 -16.5t-53.5 -43.5q-22 -26 -33 -60.5t-11 -70.5z" />
    <glyph glyph-name="uniFF50" unicode="&#xff50;" horiz-adv-x="940" 
d="M240 -210v660q30 3 58.5 -3.5t28.5 -36.5l-2 -38q22 32 70 60t113 28q57 0 100.5 -21t72.5 -56t44 -81t15 -97q0 -53 -16 -97.5t-46 -77.5t-73 -51.5t-97 -18.5q-62 0 -109 25.5t-69 61.5v-257h-90zM650 210q0 30 -11 61t-31 57q-20 25 -50 41.5t-68 16.5
q-42 0 -72.5 -15.5t-49.5 -40.5q-20 -25 -29 -56.5t-9 -63.5q0 -36 10 -68t30 -56t50 -38t70 -14q39 0 69 14t50 39q20 24 30.5 56t10.5 67z" />
    <glyph glyph-name="uniFF51" unicode="&#xff51;" horiz-adv-x="940" 
d="M705 450v-660h-90v257q-24 -37 -70.5 -62t-107.5 -25q-55 0 -98 18.5t-73 51.5t-45.5 77.5t-15.5 97.5q0 51 14.5 97t43.5 81t72.5 56t101.5 21q64 0 112 -28.5t71 -59.5l-2 38q0 30 28.5 36.5t58.5 3.5zM295 210q0 -35 10 -67t30 -56q20 -25 50 -39t70 -14q39 0 69 14
t50 38t30.5 56t10.5 68q0 32 -9.5 63.5t-29.5 56.5q-19 25 -49.5 40.5t-71.5 15.5q-39 0 -69 -16.5t-50 -41.5q-20 -26 -30.5 -57t-10.5 -61z" />
    <glyph glyph-name="uniFF52" unicode="&#xff52;" horiz-adv-x="940" 
d="M310 -60v510q30 3 58.5 -3.5t28.5 -36.5l-1 -40q12 19 32.5 35.5t44.5 28.5q25 12 51.5 19t50.5 7t54 -5t46 -10l-15 -80q-14 6 -37.5 10.5t-42.5 4.5q-37 0 -69.5 -13.5t-57.5 -38.5q-25 -26 -39 -63t-14 -85v-240h-90z" />
    <glyph glyph-name="uniFF53" unicode="&#xff53;" horiz-adv-x="940" 
d="M612 446q14 -3 20 -13t4 -23l-6 -50q-37 15 -67 20.5t-78 5.5q-47 0 -82.5 -14.5t-35.5 -46.5q0 -16 11 -28.5t28 -22.5t38 -18.5t42 -15.5l18 -7q25 -11 52.5 -24t50.5 -31t38 -42t15 -56q0 -41 -17.5 -69.5t-46.5 -46.5q-28 -18 -65 -26t-76 -8q-53 0 -89.5 5.5
t-62.5 12.5q-15 3 -20 13t-3 24l5 50q44 -17 81 -24t74 -7q19 0 41 3t42 11q19 8 32 21.5t13 35.5q0 15 -10.5 27.5t-27.5 23.5t-39 21l-44 20q-26 10 -56.5 23t-55.5 30q-26 17 -43 39t-17 51q0 40 17 68.5t47 46.5q29 18 68 26.5t83 8.5q18 0 35 -1.5t32 -3.5t29 -4.5
t26 -4.5z" />
    <glyph glyph-name="uniFF54" unicode="&#xff54;" horiz-adv-x="940" 
d="M590 11q15 0 25 1t17 2q7 2 11 4t9 4l3 -45q1 -13 -4 -22t-18 -13q-14 -4 -29 -5.5t-29 -1.5q-72 0 -121 36t-49 114v289h-120v74h120v152h90v-152h150q3 -26 -6 -51t-39 -25h-105v-267q0 -50 27 -72t68 -22z" />
    <glyph glyph-name="uniFF55" unicode="&#xff55;" horiz-adv-x="940" 
d="M710 395v-394q0 -15 1 -25t2 -16q1 -7 3 -11.5t4 -8.5q-15 -2 -32 -2.5t-31 2.5t-23 11t-9 24v40q-28 -41 -79 -63t-101 -22q-99 0 -157 58.5t-58 161.5v300q14 2 29.5 1t29.5 -7q13 -6 22 -18t9 -31v-205q0 -91 35.5 -138.5t99.5 -47.5q82 0 123.5 59t41.5 152v235
q14 2 29.5 1t29.5 -7q13 -6 22 -18t9 -31z" />
    <glyph glyph-name="uniFF56" unicode="&#xff56;" horiz-adv-x="940" 
d="M475 25l140 371q10 29 30 41.5t47 12.5h38l-204 -510h-107l-209 510h46q22 0 39 -7.5t30 -32.5z" />
    <glyph glyph-name="uniFF57" unicode="&#xff57;" horiz-adv-x="940" 
d="M485 396l120 -371l130 385q12 25 29 32.5t40 7.5h46l-189 -510h-107l-79 218l-79 -218h-107l-189 510h46q22 0 39 -7.5t30 -32.5l130 -385l84 261l-59 164h38q27 0 46.5 -12.5t30.5 -41.5z" />
    <glyph glyph-name="uniFF58" unicode="&#xff58;" horiz-adv-x="940" 
d="M225 -60l199 262q-23 30 -46 61l-46 62q-24 31 -47 62.5t-45 62.5h64q18 0 33 -5.5t27 -20.5l108 -154q10 13 24 31.5t29 39.5q16 20 30.5 41t26.5 38q11 15 28 22.5t38 7.5h52l-184 -242q24 -33 49 -67t50 -67q25 -34 50 -67.5t50 -66.5h-106l-141 200l-148 -200h-95z
" />
    <glyph glyph-name="uniFF59" unicode="&#xff59;" horiz-adv-x="940" 
d="M426 -20q0 9 -6 28t-12 32l-193 410h45q22 0 40 -7t30 -33l145 -326l135 312q12 28 31.5 41t46.5 13h37l-207 -460q-15 -33 -32.5 -66.5t-40.5 -61.5q-22 -28 -51.5 -46t-68.5 -21q-13 0 -24.5 1.5t-20.5 3.5q-14 4 -18 13t-2 22l5 45q2 -2 4 -3t5 -3q4 -1 11 -2t20 -1
q33 0 56 15.5t37 34.5q14 20 21 37.5t7 21.5z" />
    <glyph glyph-name="uniFF5A" unicode="&#xff5a;" horiz-adv-x="940" 
d="M685 367l-330 -351h340q3 -26 -6 -51t-39 -25h-395v83l-1 -1l326 352h-310v76h415v-83z" />
    <glyph glyph-name="uniFF5B" unicode="&#xff5b;" horiz-adv-x="940" 
d="M605 760v-62h-45q-33 0 -43.5 -25.5t-10.5 -54.5v-192q0 -30 -9.5 -51t-23.5 -34q-13 -14 -28 -21.5t-25 -10.5v-9q10 -2 25 -9t28 -20q14 -14 23.5 -36t9.5 -54v-189q0 -30 10.5 -55t43.5 -25h45v-62h-70q-18 0 -37 7.5t-35 22.5t-26.5 38t-10.5 54v193q0 51 -30.5 79
t-60.5 30v62q30 1 60.5 28.5t30.5 75.5v198q0 30 10.5 53t26.5 38t35 23t37 8h70z" />
    <glyph glyph-name="uniFF5C" unicode="&#xff5c;" horiz-adv-x="940" 
d="M440 -150v910h60v-910h-60z" />
    <glyph glyph-name="uniFF5D" unicode="&#xff5d;" horiz-adv-x="940" 
d="M335 698v62h70q17 0 36 -8t35 -23t27 -38t11 -53v-198q0 -48 30 -75.5t61 -28.5v-62q-31 -2 -61 -30t-30 -79v-193q0 -31 -11 -54t-27 -38t-35 -22.5t-36 -7.5h-70v62h45q33 0 43.5 25t10.5 55v189q0 32 9.5 54t22.5 36q14 13 28.5 20t25.5 9v9q-11 3 -25.5 10.5
t-28.5 21.5q-13 13 -22.5 34t-9.5 51v192q0 29 -10.5 54.5t-43.5 25.5h-45z" />
    <glyph glyph-name="uniFFE3" unicode="&#xffe3;" horiz-adv-x="940" 
d="M210 680v65h520v-65h-520z" />
    <glyph glyph-name="uni3131" unicode="&#x3131;" horiz-adv-x="940" 
d="M790 600v-230q0 -44 -3 -90t-9 -88q-5 -42 -12 -76.5t-14 -55.5h-92q10 34 16.5 79.5t10.5 90.5q4 46 5.5 86t2.5 64v145h-555v75h650z" />
    <glyph glyph-name="uni3132" unicode="&#x3132;" horiz-adv-x="940" 
d="M810 600v-200q0 -44 -3 -91.5t-9 -91.5q-5 -44 -12 -80t-14 -57h-92q10 34 16.5 81t10.5 94q4 48 5.5 89.5t2.5 65.5v115h-235v75h330zM440 600v-200q0 -25 -6.5 -66.5t-17.5 -87.5q-10 -45 -25 -87.5t-31 -68.5h-92q17 37 31.5 82.5t24.5 90.5q10 44 15.5 83t5.5 64v115
h-225v75h320z" />
    <glyph glyph-name="uni3133" unicode="&#x3133;" horiz-adv-x="940" 
d="M685 550v-55q-4 -28 -10 -55t-12 -53q20 -39 45 -77.5t50 -71.5t46.5 -58.5t35.5 -38.5l-18 -26q-4 -5 -7 -9t-7 -8q-3 -3 -7 -5.5t-10 -2.5t-10.5 0.5t-8.5 4.5q-15 12 -33.5 31.5t-38.5 43.5q-21 24 -41 50t-37 52q-27 -63 -56.5 -109.5t-53.5 -70.5q-9 -9 -15.5 -10.5
t-11.5 -1.5q-6 0 -11 2t-9 5t-7.5 7t-7.5 8l-20 23q12 7 35 41.5t48 86.5t45.5 116.5t26.5 133.5v102q16 1 33.5 -0.5t32.5 -7.5q14 -6 24 -17.5t10 -29.5zM430 600v-210q0 -44 -3 -90t-9 -88q-5 -42 -12 -76.5t-14 -55.5h-92q10 34 16.5 79.5t10.5 90.5q4 46 5.5 86t2.5 64
v125h-215v75h310z" />
    <glyph glyph-name="uni3134" unicode="&#x3134;" horiz-adv-x="940" 
d="M235 545v-370h565q1 -12 1 -25t-4 -25q-4 -11 -12.5 -18t-24.5 -7h-620v500q28 4 49 0t33 -16q5 -7 8 -13.5t4 -12.5t1 -9.5v-3.5z" />
    <glyph glyph-name="uni3135" unicode="&#x3135;" horiz-adv-x="940" 
d="M470 600h275l-1.5 -22.5t-3.5 -47.5q-7 -44 -21.5 -89t-33.5 -89q40 -72 83 -124t67 -68l-21 -33q-4 -5 -7 -9t-7 -8q-3 -3 -7 -5.5t-10 -2.5h-5t-4 1q-3 1 -5 1.5t-4 2.5q-22 16 -58.5 57.5t-69.5 92.5q-29 -51 -59.5 -91.5t-57.5 -65.5q-9 -9 -16 -10.5t-14 0.5
q-8 1 -15 7.5t-11 12.5l-24 30q24 20 52.5 58t56.5 89q27 51 50.5 111.5t38.5 126.5h-168v75zM235 545v-370h185q1 -12 1 -25t-4 -25q-4 -11 -12.5 -18t-24.5 -7h-240v500q28 4 49 0t33 -16q5 -7 8 -13.5t4 -12.5t1 -9.5v-3.5z" />
    <glyph glyph-name="uni3136" unicode="&#x3136;" horiz-adv-x="940" 
d="M780 465h-42q26 -30 41.5 -71t15.5 -86q0 -44 -14.5 -83.5t-38.5 -69.5t-57 -47.5t-70 -17.5q-38 0 -71 17.5t-57 47.5t-38 69.5t-14 83.5q0 45 14.5 86t41.5 71h-81v75h153q13 17 30 48t37 82l90 -40q-7 -16 -22 -42t-34 -48h156q3 -21 0.5 -36.5t-10.5 -24.5
q-9 -10 -18 -12t-12 -2zM235 545v-370h195q1 -12 1 -25t-4 -25q-4 -11 -12.5 -18t-24.5 -7h-250v500q28 4 49 0t33 -16q5 -7 8 -13.5t4 -12.5t1 -9.5v-3.5zM615 164q20 0 36 12t27 32q10 21 16 47t6 55q0 28 -6 54.5t-16 46.5q-11 20 -27 32.5t-36 12.5q-21 0 -37 -12.5
t-27 -32.5q-10 -20 -15.5 -46.5t-5.5 -54.5q0 -29 5.5 -55t15.5 -47q11 -20 27 -32t37 -12z" />
    <glyph glyph-name="uni3137" unicode="&#x3137;" horiz-adv-x="940" 
d="M790 600v-75h-555v-350h565q1 -12 1 -25t-4 -25q-4 -11 -12.5 -18t-24.5 -7h-620v500h650z" />
    <glyph glyph-name="uni3138" unicode="&#x3138;" horiz-adv-x="940" 
d="M465 100v500h335v-75h-240v-350h250q3 -24 -5.5 -49.5t-39.5 -25.5h-300zM130 100v500h285v-75h-190v-350h215q3 -24 -8 -49.5t-42 -25.5h-260z" />
    <glyph glyph-name="uni3139" unicode="&#x3139;" horiz-adv-x="940" 
d="M767 90h-627v305h560v140h-560v75h655v-290h-560v-155h575q1 -10 -0.5 -23t-6.5 -25q-6 -12 -15 -20t-21 -7z" />
    <glyph glyph-name="uni313A" unicode="&#x313a;" horiz-adv-x="940" 
d="M427 100h-297v295h225v130h-225v75h320v-280h-225v-145h245q1 -10 -0.5 -23t-6.5 -25q-6 -12 -15 -20t-21 -7zM810 100h-95v425h-225v75h320v-500z" />
    <glyph glyph-name="uni313B" unicode="&#x313b;" horiz-adv-x="940" 
d="M407 100h-277v295h215v130h-215v75h310v-280h-215v-145h225q1 -10 -0.5 -23t-6.5 -25q-6 -12 -15 -20t-21 -7zM490 100v500h320v-500h-320zM715 175v350h-130v-350h130z" />
    <glyph glyph-name="uni313C" unicode="&#x313c;" horiz-adv-x="940" 
d="M397 100h-267v295h205v130h-205v75h300v-280h-205v-145h215q1 -10 -0.5 -23t-6.5 -25q-6 -12 -15 -20t-21 -7zM810 555v-455h-330v500q15 2 31.5 1.5t30.5 -6.5t23.5 -17.5t9.5 -31.5v-121h140v185q15 2 31.5 1.5t30.5 -6.5q13 -6 22 -18t11 -32zM715 175v175h-140v-175
h140z" />
    <glyph glyph-name="uni313D" unicode="&#x313d;" horiz-adv-x="940" 
d="M397 100h-267v295h205v130h-205v75h300v-280h-205v-145h215q1 -10 -0.5 -23t-6.5 -25q-6 -12 -15 -20t-21 -7zM695 550v-55q-4 -26 -8.5 -50t-10.5 -47q19 -40 42 -80.5t46 -75.5q22 -35 42 -61.5t34 -39.5l-18 -26q-4 -5 -7 -9t-7 -8q-3 -3 -7 -5.5t-10 -2.5t-10.5 0.5
t-8.5 4.5q-15 12 -31.5 32t-34.5 45t-35.5 52t-32.5 54q-24 -59 -50.5 -103.5t-50.5 -72.5q-8 -9 -15 -10.5t-12 -1.5q-6 0 -11 2t-9 5t-7.5 7t-7.5 8l-20 23q12 7 33 40t43 83q21 50 39.5 113t24.5 132v102q16 1 33.5 -0.5t32.5 -7.5q14 -6 24 -17.5t10 -29.5z" />
    <glyph glyph-name="uni313E" unicode="&#x313e;" horiz-adv-x="940" 
d="M407 100h-277v295h215v130h-215v75h310v-280h-215v-145h225q1 -10 -0.5 -23t-6.5 -25q-6 -12 -15 -20t-21 -7zM800 600v-75h-215v-130h205v-75h-205v-145h225q1 -12 1 -25t-4 -25q-4 -11 -12.5 -18t-24.5 -7h-280v500h310z" />
    <glyph glyph-name="uni313F" unicode="&#x313f;" horiz-adv-x="940" 
d="M760 175h75q3 -26 -6 -50.5t-39 -24.5h-322v75h55v350h-45v75h344v-75h-44v-245q0 -27 -4.5 -55.5t-13.5 -49.5zM397 100h-267v295h210v130h-210v75h305v-280h-210v-145h215q1 -10 -0.5 -23t-6.5 -25q-6 -12 -15 -20t-21 -7zM684 290v235h-67v-350h50q9 25 13 56t4 59z
" />
    <glyph glyph-name="uni3140" unicode="&#x3140;" horiz-adv-x="940" 
d="M785 465h-31q23 -30 37 -71t14 -86q0 -44 -12.5 -83.5t-34.5 -69.5t-52.5 -47.5t-65.5 -17.5q-36 0 -66.5 17.5t-52.5 47.5t-34 69.5t-12 83.5q0 45 13 86t37 71h-70v75h133q13 17 30 48t37 82l90 -40q-7 -16 -22 -42t-34 -48h136q3 -21 0.5 -36.5t-10.5 -24.5
q-9 -10 -18 -12t-12 -2zM397 100h-267v295h195v130h-195v75h290v-280h-195v-145h215q1 -10 -0.5 -23t-6.5 -25q-6 -12 -15 -20t-21 -7zM640 164q16 0 29 12t22 32q9 21 14 47t5 55q0 28 -5 54.5t-14 46.5t-22 32.5t-29 12.5q-17 0 -30 -12.5t-22 -32.5t-13.5 -46.5
t-4.5 -54.5q0 -29 4.5 -55t13.5 -47q9 -20 22 -32t30 -12z" />
    <glyph glyph-name="uni3141" unicode="&#x3141;" horiz-adv-x="940" 
d="M140 100v500h660v-500h-660zM705 175v350h-470v-350h470z" />
    <glyph glyph-name="uni3142" unicode="&#x3142;" horiz-adv-x="940" 
d="M800 555v-455h-660v500q15 2 31.5 1.5t30.5 -6.5t23.5 -17.5t9.5 -31.5v-121h470v185q15 2 31.5 1.5t30.5 -6.5q13 -6 22 -18t11 -32zM705 175v175h-470v-175h470z" />
    <glyph glyph-name="uni3143" unicode="&#x3143;" horiz-adv-x="940" 
d="M810 555v-455h-680v500q15 2 31.5 1.5t30.5 -6.5t23.5 -17.5t9.5 -31.5v-121h195v175q15 2 31.5 1.5t30.5 -6.5t23.5 -17.5t9.5 -31.5v-121h200v185q15 2 31.5 1.5t30.5 -6.5q13 -6 22 -18t11 -32zM715 175v175h-200v-175h200zM225 350v-175h195v175h-195z" />
    <glyph glyph-name="uni3144" unicode="&#x3144;" horiz-adv-x="940" 
d="M450 555v-455h-320v500q15 2 31.5 1.5t30.5 -6.5t23.5 -17.5t9.5 -31.5v-121h130v185q15 2 31.5 1.5t30.5 -6.5q13 -6 22 -18t11 -32zM695 550v-55q-4 -26 -8.5 -50t-10.5 -47q19 -40 42 -80.5t46 -75.5q22 -35 42 -61.5t34 -39.5l-18 -26q-4 -5 -7 -9t-7 -8
q-3 -3 -7 -5.5t-10 -2.5t-10.5 0.5t-8.5 4.5q-15 12 -31.5 32t-34.5 45t-35.5 52t-32.5 54q-24 -59 -50.5 -103.5t-50.5 -72.5q-8 -9 -15 -10.5t-12 -1.5q-6 0 -11 2t-9 5t-7.5 7t-7.5 8l-20 23q12 7 33 40t43 83q21 50 39.5 113t24.5 132v102q16 1 33.5 -0.5t32.5 -7.5
q14 -6 24 -17.5t10 -29.5zM355 175v175h-130v-175h130z" />
    <glyph glyph-name="uni3145" unicode="&#x3145;" horiz-adv-x="940" 
d="M530 557v-42q-2 -28 -9.5 -55t-19.5 -52q28 -35 69.5 -72.5t87.5 -71.5q47 -35 94 -64t88 -47q-12 -15 -20.5 -25.5t-14.5 -16.5t-11 -8.5t-11 -2.5q-3 0 -4.5 0.5l-4.5 1.5q-3 2 -7.5 3.5t-11.5 4.5q-18 5 -54 24.5t-80 47.5q-44 29 -90.5 64t-84.5 72
q-33 -43 -72.5 -80t-76.5 -65q-37 -29 -68 -47.5t-47 -25.5q-7 -3 -10.5 -5t-5.5 -3q-3 -2 -4.5 -2h-4.5q-6 0 -11 2t-9 6t-7.5 8t-7.5 9l-22 28q26 13 77.5 47t104.5 83q52 50 94 113.5t48 138.5v85q15 2 33.5 1t34.5 -6q16 -6 27 -17.5t11 -30.5z" />
    <glyph glyph-name="uni3146" unicode="&#x3146;" horiz-adv-x="940" 
d="M405 550v-53q-3 -33 -10.5 -63.5t-18.5 -58.5q16 -29 37 -56.5t43 -53.5q32 51 57.5 112t31.5 126v102q16 1 33.5 -0.5t32.5 -7.5q14 -6 24 -17.5t10 -29.5v-55q-3 -29 -9.5 -56.5t-15.5 -53.5q21 -39 51.5 -77.5t60.5 -71.5q31 -34 57.5 -59t40.5 -36l-18 -26
q-4 -5 -7 -9t-7 -8q-3 -3 -7 -5.5t-10 -2.5t-10 1t-9 4q-18 9 -42 29.5t-49 46.5q-26 25 -51.5 54t-45.5 55q-39 -71 -83 -120.5t-69 -69.5q-9 -9 -15.5 -10.5t-11.5 -1.5q-6 0 -11 2t-9 5t-7.5 7t-7.5 8l-20 25q7 4 24 21t38 44q-21 21 -40.5 43t-34.5 43
q-39 -63 -80 -106.5t-65 -59.5q-4 -5 -7.5 -7t-6.5 -3t-5.5 -0.5t-4.5 0.5q-12 0 -21.5 6.5t-16.5 15.5l-20 23q19 15 52.5 50.5t66.5 84.5q32 49 57 109.5t29 125.5v90q15 1 32.5 -0.5t32.5 -7.5t25 -17.5t10 -29.5z" />
    <glyph glyph-name="uni3147" unicode="&#x3147;" horiz-adv-x="940" 
d="M160 350q0 56 23 105.5t64 85.5q42 37 98.5 58t124.5 21q67 0 123.5 -21t98.5 -58q41 -36 64.5 -85.5t23.5 -105.5q0 -57 -23.5 -106.5t-64.5 -85.5q-42 -37 -98.5 -57.5t-123.5 -20.5q-68 0 -124.5 20.5t-98.5 57.5q-41 36 -64 85.5t-23 106.5zM255 350q0 -42 16 -77.5
t45 -61.5q28 -26 67.5 -41t86.5 -15q46 0 85 15t68 41t45.5 61.5t16.5 77.5q0 41 -16.5 76.5t-45.5 61.5q-29 27 -68 42t-85 15q-47 0 -86.5 -15t-67.5 -42q-29 -26 -45 -61.5t-16 -76.5z" />
    <glyph glyph-name="uni3148" unicode="&#x3148;" horiz-adv-x="940" 
d="M160 600h540l-0.5 -8.5t-0.5 -19.5q-1 -11 -2.5 -23t-4.5 -19q-20 -50 -55.5 -96.5t-79.5 -88.5q33 -30 72 -59t78 -54q39 -26 73.5 -46.5t59.5 -32.5l-21 -29q-5 -5 -8.5 -9t-8.5 -8q-4 -3 -8.5 -5t-10.5 -2h-4.5t-4.5 1l-7.5 2.5t-11.5 4.5q-13 4 -43.5 20.5
t-70.5 40.5q-39 24 -82.5 52t-80.5 56q-44 -35 -89.5 -64t-86.5 -53q-42 -23 -77.5 -40.5t-60.5 -26.5q-4 -2 -9.5 -3t-9.5 0q-5 0 -9.5 3.5t-8.5 8.5t-7 10t-5 8l-20 28q60 25 131 63t138 86q66 49 121 105.5t83 119.5v3h-408v75z" />
    <glyph glyph-name="uni3149" unicode="&#x3149;" horiz-adv-x="940" 
d="M490 600h245l-1.5 -22.5t-3.5 -47.5q-7 -42 -25.5 -86.5t-43.5 -87.5q24 -35 51.5 -68t52.5 -60t44 -45.5t26 -22.5l-21 -33q-4 -5 -7 -9t-7 -8q-3 -3 -7 -5.5t-10 -2.5h-5t-4 1q-3 1 -5 1.5t-4 2.5q-12 9 -31 27t-41 40t-45 47t-42 50q-42 -58 -84 -106t-72 -75
q-9 -9 -16 -10.5t-14 0.5q-8 1 -15 7.5t-11 12.5l-24 30q10 9 24 22t30 30q-21 19 -43.5 44t-43.5 51q-35 -51 -70 -91t-59 -64q-9 -9 -16.5 -11t-14.5 -1q-7 0 -15.5 8t-12.5 14l-24 28q21 19 55 59t69 90q34 51 62 107t37 109h-168v75h275l-1.5 -23.5t-3.5 -45.5
q-8 -44 -24.5 -87t-37.5 -82q20 -31 44.5 -61t48.5 -53q44 56 85.5 127.5t61.5 149.5h-138v75z" />
    <glyph glyph-name="uni314A" unicode="&#x314a;" horiz-adv-x="940" 
d="M491 550h219l-0.5 -8.5t-1.5 -19.5t-3 -23t-5 -19q-24 -44 -59 -83t-75 -74q64 -54 140 -98.5t134 -71.5l-20 -28l-9 -9l-8 -8q-5 -4 -9.5 -6t-10.5 -2q-3 0 -5.5 -0.5t-6.5 -0.5t-9 1t-12 5q-19 9 -49.5 24.5t-66.5 36.5q-36 20 -75 44t-75 50q-45 -31 -91 -57.5
t-88 -47.5t-78.5 -36.5t-62.5 -25.5q-4 -2 -9.5 -3t-9.5 0q-5 0 -9.5 3.5t-8.5 8.5t-7 10t-5 8l-20 28q42 18 105.5 48t132.5 71q68 41 134 93.5t113 114.5h-430v75h231q18 19 45 54.5t49 85.5l95 -40q-9 -18 -31.5 -47.5t-47.5 -52.5z" />
    <glyph glyph-name="uni314B" unicode="&#x314b;" horiz-adv-x="940" 
d="M145 285v75h550v165h-555v75h650v-240q0 -44 -3 -90t-9 -88q-5 -42 -12 -76.5t-14 -55.5h-92q15 48 21.5 113t9.5 122h-546z" />
    <glyph glyph-name="uni314C" unicode="&#x314c;" horiz-adv-x="940" 
d="M790 605v-75h-555v-135h545v-75h-545v-150h565q1 -12 1 -25t-4 -25q-4 -11 -12.5 -18t-24.5 -7h-620v510h650z" />
    <glyph glyph-name="uni314D" unicode="&#x314d;" horiz-adv-x="940" 
d="M673 175h157q3 -26 -6 -50.5t-39 -24.5h-675v75h140v350h-130v75h700v-75h-129v-245q0 -27 -4.5 -55.5t-13.5 -49.5zM596 290v235h-251v-350h234q9 25 13 56t4 59z" />
    <glyph glyph-name="uni314E" unicode="&#x314e;" horiz-adv-x="940" 
d="M775 470h-139q47 -30 75.5 -75t28.5 -97q0 -46 -21.5 -85.5t-58.5 -69.5q-36 -29 -85.5 -46t-104.5 -17q-56 0 -105.5 17t-85.5 46q-37 30 -58 69.5t-21 85.5q0 52 28 97t76 75h-179v75h276q18 18 46.5 55t52.5 90l95 -40q-9 -18 -33.5 -50t-50.5 -55h304
q3 -21 0.5 -36.5t-10.5 -24.5q-6 -8 -15 -11t-15 -3zM295 301q0 -32 13.5 -58.5t37.5 -46.5q23 -20 55 -31t69 -11q36 0 68 11t55 31q24 20 38 46.5t14 58.5q0 31 -14 57.5t-38 46.5q-23 20 -55 31.5t-68 11.5q-37 0 -69 -11.5t-55 -31.5q-24 -20 -37.5 -46.5t-13.5 -57.5z
" />
    <glyph glyph-name="uni314F" unicode="&#x314f;" horiz-adv-x="940" 
d="M620 284h-105v-384h-95v800q15 1 31.5 0t30.5 -7t23.5 -18t9.5 -30v-285h145q3 -21 1 -37t-10 -25q-9 -10 -18.5 -12t-12.5 -2z" />
    <glyph glyph-name="uni3150" unicode="&#x3150;" horiz-adv-x="940" 
d="M620 645v-745h-92v384h-116v-364h-92v770q15 2 31 1t30 -7q13 -6 22 -18t9 -31v-275h116v340q15 2 31 1t30 -7q13 -6 22 -18t9 -31z" />
    <glyph glyph-name="uni3151" unicode="&#x3151;" horiz-adv-x="940" 
d="M620 409h-105v-174h145q3 -21 1 -37t-10 -25q-9 -10 -18.5 -12t-12.5 -2h-105v-259h-95v800q15 1 31.5 0t30.5 -7t23.5 -18t9.5 -30v-160h145q3 -21 1 -37t-10 -25q-9 -10 -18.5 -12t-12.5 -2z" />
    <glyph glyph-name="uni3152" unicode="&#x3152;" horiz-adv-x="940" 
d="M620 645v-745h-92v260h-116v-240h-92v770q15 2 31 1t30 -7q13 -6 22 -18t9 -31v-150h116v215q15 2 31 1t30 -7q13 -6 22 -18t9 -31zM412 410v-175h116v175h-116z" />
    <glyph glyph-name="uni3153" unicode="&#x3153;" horiz-adv-x="940" 
d="M515 645v-745h-95v385h-170v75h170v340q15 1 31.5 0t30.5 -7t23.5 -18t9.5 -30z" />
    <glyph glyph-name="uni3154" unicode="&#x3154;" horiz-adv-x="940" 
d="M422 635v-715h-92v364h-170v76h170v330q15 2 31 1t30 -7q13 -6 22 -18t9 -31zM620 645v-745h-92v800q15 2 31 1t30 -7q13 -6 22 -18t9 -31z" />
    <glyph glyph-name="uni3155" unicode="&#x3155;" horiz-adv-x="940" 
d="M515 645v-745h-95v260h-170v75h170v175h-170v75h170v215q15 1 31.5 0t30.5 -7t23.5 -18t9.5 -30z" />
    <glyph glyph-name="uni3156" unicode="&#x3156;" horiz-adv-x="940" 
d="M422 635v-715h-92v240h-170v75h170v175h-170v75h170v205q15 2 31 1t30 -7q13 -6 22 -18t9 -31zM620 645v-745h-92v800q15 2 31 1t30 -7q13 -6 22 -18t9 -31z" />
    <glyph glyph-name="uni3157" unicode="&#x3157;" horiz-adv-x="940" 
d="M518 445v-240h382q3 -26 -6 -50.5t-39 -24.5h-815v75h383v295q15 1 31.5 0t30.5 -7t23.5 -18t9.5 -30z" />
    <glyph glyph-name="uni3158" unicode="&#x3158;" horiz-adv-x="940" 
d="M880 294h-95v-394h-95v800q15 1 31.5 0t30.5 -7t23.5 -18t9.5 -30v-275h135q3 -21 1 -37t-10 -25q-9 -10 -18.5 -12t-12.5 -2zM388 375v-240h262q3 -26 -6 -50.5t-39 -24.5h-575v75h263v295q15 1 31.5 0t30.5 -7t23.5 -18t9.5 -30z" />
    <glyph glyph-name="uni3159" unicode="&#x3159;" horiz-adv-x="940" 
d="M850 645v-745h-92v384h-96v-364h-92v770q15 2 31 1t30 -7q13 -6 22 -18t9 -31v-275h96v340q15 2 31 1t30 -7q13 -6 22 -18t9 -31zM338 375v-240h202q3 -26 -6 -50.5t-39 -24.5h-465v75h213v295q15 1 31.5 0t30.5 -7t23.5 -18t9.5 -30z" />
    <glyph glyph-name="uni315A" unicode="&#x315a;" horiz-adv-x="940" 
d="M815 645v-745h-95v800q15 1 31.5 0t30.5 -7t23.5 -18t9.5 -30zM408 375v-240h272q3 -26 -6 -50.5t-39 -24.5h-595v75h273v295q15 1 31.5 0t30.5 -7t23.5 -18t9.5 -30z" />
    <glyph glyph-name="uni315B" unicode="&#x315b;" horiz-adv-x="940" 
d="M358 445v-240h225v295q15 1 31.5 0t30.5 -7t23.5 -18t9.5 -30v-240h222q3 -26 -6 -50.5t-39 -24.5h-815v75h223v295q15 1 31.5 0t30.5 -7t23.5 -18t9.5 -30z" />
    <glyph glyph-name="uni315C" unicode="&#x315c;" horiz-adv-x="940" 
d="M517 35h-95v315h-382v75h860q3 -26 -6 -50.5t-39 -24.5h-338v-315z" />
    <glyph glyph-name="uni315D" unicode="&#x315d;" horiz-adv-x="940" 
d="M835 645v-745h-95v195h-170v75h170v530q15 1 31.5 0t30.5 -7t23.5 -18t9.5 -30zM397 -70h-95v320h-272v75h650q3 -26 -6 -50.5t-39 -24.5h-238v-320z" />
    <glyph glyph-name="uni315E" unicode="&#x315e;" horiz-adv-x="940" 
d="M672 635v-715h-92v184h-150v76h150v510q15 2 31 1t30 -7q13 -6 22 -18t9 -31zM850 645v-745h-92v800q15 2 31 1t30 -7q13 -6 22 -18t9 -31zM337 -70h-95v320h-212v75h500q3 -26 -6 -50.5t-39 -24.5h-148v-320z" />
    <glyph glyph-name="uni315F" unicode="&#x315f;" horiz-adv-x="940" 
d="M397 -70h-95v320h-272v75h650q3 -26 -6 -50.5t-39 -24.5h-238v-320zM835 645v-745h-95v800q15 1 31.5 0t30.5 -7t23.5 -18t9.5 -30z" />
    <glyph glyph-name="uni3160" unicode="&#x3160;" horiz-adv-x="940" 
d="M685 35h-95v315h-240v-305h-95v305h-215v75h860q3 -26 -6 -50.5t-39 -24.5h-170v-315z" />
    <glyph glyph-name="uni3161" unicode="&#x3161;" horiz-adv-x="940" 
d="M40 225h860q3 -26 -6 -50.5t-39 -24.5h-815v75z" />
    <glyph glyph-name="uni3162" unicode="&#x3162;" horiz-adv-x="940" 
d="M815 645v-745h-95v800q15 1 31.5 0t30.5 -7t23.5 -18t9.5 -30zM40 135h640q3 -26 -6 -50.5t-39 -24.5h-595v75z" />
    <glyph glyph-name="uni3163" unicode="&#x3163;" horiz-adv-x="940" 
d="M515 645v-745h-95v800q15 1 31.5 0t30.5 -7t23.5 -18t9.5 -30z" />
    <glyph glyph-name="uni3165" unicode="&#x3165;" horiz-adv-x="940" 
d="M225 545v-370h215q3 -24 -7.5 -49.5t-42.5 -25.5h-260v500q28 4 49 0t33 -16q5 -7 8 -13.5t4 -12.5t1 -9.5v-3.5zM565 545v-370h245q3 -24 -7.5 -49.5t-42.5 -25.5h-290v500q28 4 49 0t33 -16q5 -7 8 -13.5t4 -12.5t1 -9.5v-3.5z" />
    <glyph glyph-name="uni3166" unicode="&#x3166;" horiz-adv-x="940" 
d="M475 100v500h325v-75h-230v-350h240q3 -24 -5.5 -49.5t-39.5 -25.5h-290zM225 545v-370h215q3 -24 -7.5 -49.5t-42.5 -25.5h-260v500q28 4 49 0t33 -16q5 -7 8 -13.5t4 -12.5t1 -9.5v-3.5z" />
    <glyph glyph-name="uni3167" unicode="&#x3167;" horiz-adv-x="940" 
d="M685 550v-55q-4 -27 -9 -52.5t-11 -49.5q20 -39 45 -77t49 -70q25 -33 46 -58t35 -37l-18 -26q-4 -5 -7 -9t-7 -8q-3 -3 -7 -5.5t-10 -2.5t-10.5 0.5t-8.5 4.5q-29 24 -70.5 72t-75.5 99q-25 -60 -52.5 -105t-51.5 -69q-9 -9 -15.5 -10.5t-11.5 -1.5q-6 0 -11 2t-9 5
t-7.5 7t-7.5 8l-20 23q12 7 33.5 40t44.5 83t42 113t25 132v102q16 1 33.5 -0.5t32.5 -7.5q14 -6 24 -17.5t10 -29.5zM225 545v-370h205q3 -24 -7.5 -49.5t-42.5 -25.5h-250v500q28 4 49 0t33 -16q5 -7 8 -13.5t4 -12.5t1 -9.5v-3.5z" />
    <glyph glyph-name="uni3168" unicode="&#x3168;" horiz-adv-x="940" 
d="M640 630l200 -530h-400zM640 410l-85 -235h170zM225 545v-370h200q3 -24 -7.5 -49.5t-42.5 -25.5h-245v500q28 4 49 0t33 -16q5 -7 8 -13.5t4 -12.5t1 -9.5v-3.5z" />
    <glyph glyph-name="uni3169" unicode="&#x3169;" horiz-adv-x="940" 
d="M297 100h-197v295h135v130h-135v75h220v-280h-135v-145h155q1 -10 -0.5 -23t-6.5 -25q-6 -12 -15 -20t-21 -7zM763 550v-45q-2 -21 -5 -44.5t-7 -47.5q20 -66 43.5 -134t57.5 -138l-17 -26q-4 -5 -7 -9l-6 -8q-3 -3 -7 -5.5t-9 -2.5q-3 0 -6 -0.5t-5 0.5q-2 0 -4 1t-3 4
q-21 39 -38 80t-32 87q-12 -45 -27 -87t-30 -73q-3 -6 -6.5 -8.5t-6.5 -3.5q-4 -1 -7.5 -0.5t-5.5 0.5q-6 0 -10.5 2t-8.5 5t-7.5 7t-6.5 8l-19 23q11 7 26 50.5t28 101.5q14 58 23 120t8 106v92q15 1 31.5 -0.5t30.5 -7.5t23.5 -17.5t9.5 -29.5zM560 100h-85v425h-125v75
h210v-500z" />
    <glyph glyph-name="uni316A" unicode="&#x316a;" horiz-adv-x="940" 
d="M407 100h-277v295h215v130h-215v75h310v-280h-215v-145h225q1 -10 -0.5 -23t-6.5 -25q-6 -12 -15 -20t-21 -7zM490 100v500h310v-75h-215v-350h225q3 -24 -5.5 -49.5t-39.5 -25.5h-275z" />
    <glyph glyph-name="uni316B" unicode="&#x316b;" horiz-adv-x="940" 
d="M590 555v-455h-250v500q30 4 57.5 -5t27.5 -49v-121h80v185q31 4 56.5 -5t28.5 -50zM277 100h-197v295h135v130h-135v75h220v-280h-135v-145h155q1 -10 -0.5 -23t-6.5 -25q-6 -12 -15 -20t-21 -7zM773 550v-45q-2 -21 -5 -44.5t-7 -47.5q20 -66 43.5 -134t57.5 -138
l-17 -26q-4 -5 -7 -9l-6 -8q-3 -3 -7 -5.5t-9 -2.5q-3 0 -6 -0.5t-5 0.5q-2 0 -4 1t-3 4q-21 39 -38 80t-32 87q-12 -45 -27 -87t-30 -73q-3 -6 -6.5 -8.5t-6.5 -3.5q-4 -1 -7.5 -0.5t-5.5 0.5q-6 0 -10.5 2t-8.5 5t-7.5 7t-6.5 8l-19 23q11 7 26 50.5t28 101.5
q14 58 23 120t8 106v92q15 1 31.5 -0.5t30.5 -7.5t23.5 -17.5t9.5 -29.5zM505 175v175h-80v-175h80z" />
    <glyph glyph-name="uni316C" unicode="&#x316c;" horiz-adv-x="940" 
d="M392 100h-262v295h205v130h-205v75h300v-280h-205v-145h210q1 -10 -0.5 -23t-6.5 -25q-6 -12 -15 -20t-21 -7zM640 630l200 -530h-400zM640 410l-85 -235h170z" />
    <glyph glyph-name="uni316D" unicode="&#x316d;" horiz-adv-x="940" 
d="M490 260q0 36 12 67t34 54t51 36t63 13q33 0 62 -13t51 -36t34.5 -54t12.5 -67q0 -37 -12.5 -68t-34.5 -54t-51 -35.5t-62 -12.5q-34 0 -63 12.5t-51 35.5t-34 54t-12 68zM578 260q0 -39 21.5 -67.5t50.5 -28.5q28 0 50 28.5t22 67.5q0 38 -22 67t-50 29q-29 0 -50.5 -29
t-21.5 -67zM392 100h-262v295h205v130h-205v75h300v-280h-205v-145h210q1 -10 -0.5 -23t-6.5 -25q-6 -12 -15 -20t-21 -7zM490 525v75h330q3 -26 -6 -50.5t-39 -24.5h-285z" />
    <glyph glyph-name="uni316E" unicode="&#x316e;" horiz-adv-x="940" 
d="M130 100v500h315v-500h-315zM350 175v350h-125v-350h125zM810 555v-455h-315v500q15 2 31.5 1.5t30.5 -6.5t23.5 -17.5t9.5 -31.5v-121h125v185q15 2 31.5 1.5t30.5 -6.5q13 -6 22 -18t11 -32zM715 175v175h-125v-175h125z" />
    <glyph glyph-name="uni316F" unicode="&#x316f;" horiz-adv-x="940" 
d="M130 100v500h315v-500h-315zM700 550v-55q-4 -26 -8.5 -50.5t-9.5 -47.5q19 -40 41 -80t43 -75q22 -35 41 -61.5t33 -39.5l-18 -26q-4 -5 -7 -9t-7 -8q-3 -3 -7 -5.5t-10 -2.5t-10.5 0.5t-8.5 4.5q-28 23 -62.5 75t-64.5 103q-21 -57 -45.5 -100.5t-47.5 -70.5
q-8 -9 -15 -10.5t-12 -1.5q-6 0 -11 2t-9 5t-7.5 7t-7.5 8l-20 23q12 7 31.5 40t39.5 83q19 50 36 113t23 132v102q16 1 33.5 -0.5t32.5 -7.5q14 -6 24 -17.5t10 -29.5zM350 175v350h-125v-350h125z" />
    <glyph glyph-name="uni3170" unicode="&#x3170;" horiz-adv-x="940" 
d="M130 100v500h315v-500h-315zM350 175v350h-125v-350h125zM655 630l190 -530h-380zM655 405l-75 -230h150z" />
    <glyph glyph-name="uni3171" unicode="&#x3171;" horiz-adv-x="940" 
d="M470 -110q-51 0 -95 17t-76 45q-33 28 -51 64t-18 74q0 37 18 73t51 64q32 28 76 45.5t95 17.5t94.5 -17.5t76.5 -45.5q32 -28 50.5 -64t18.5 -73q0 -38 -18.5 -74t-50.5 -64q-33 -28 -76.5 -45t-94.5 -17zM470 215q-28 0 -54 -8.5t-46 -24.5q-21 -16 -33 -39t-12 -53
q0 -31 12 -54.5t33 -38.5q20 -16 46 -24t54 -8q27 0 53 8t46 24q20 15 33 38.5t13 54.5q0 30 -13 53t-33 39t-46 24.5t-53 8.5zM200 350v360h540v-360h-540zM645 425v210h-350v-210h350z" />
    <glyph glyph-name="uni3172" unicode="&#x3172;" horiz-adv-x="940" 
d="M465 555v-455h-335v500q15 2 31.5 1.5t30.5 -6.5t23.5 -17.5t9.5 -31.5v-121h145v185q15 2 31.5 1.5t30.5 -6.5q13 -6 22 -18t11 -32zM370 175v175h-145v-175h145zM810 100h-95v425h-205v75h300v-500z" />
    <glyph glyph-name="uni3173" unicode="&#x3173;" horiz-adv-x="940" 
d="M465 555v-455h-335v500q15 2 31.5 1.5t30.5 -6.5t23.5 -17.5t9.5 -31.5v-121h145v185q15 2 31.5 1.5t30.5 -6.5q13 -6 22 -18t11 -32zM370 175v175h-145v-175h145zM810 600v-75h-195v-350h205q1 -12 1 -25t-4 -25q-4 -11 -12.5 -18t-24.5 -7h-260v500h290z" />
    <glyph glyph-name="uni3174" unicode="&#x3174;" horiz-adv-x="940" 
d="M370 555v-455h-250v500q30 4 57.5 -5t27.5 -49v-121h80v185q31 4 56.5 -5t28.5 -50zM565 550v-45q-2 -20 -5 -42.5t-7 -46.5q21 -66 48.5 -135t62.5 -140l-17 -26q-4 -5 -7 -9l-6 -8q-3 -3 -7 -5.5t-9 -2.5q-3 0 -6 -0.5t-5 0.5q-2 0 -4 1t-3 4q-22 42 -43 85t-39 94
q-15 -49 -32 -94t-33 -78q-3 -6 -6.5 -8.5t-6.5 -3.5q-4 -1 -7.5 -0.5t-5.5 0.5q-6 0 -9 2t-5 5t-4 7t-5 8l-29 23q11 7 27.5 50.5t31.5 101.5q16 58 26.5 120t9.5 106v92q15 1 31.5 -0.5t30.5 -7.5t23.5 -17.5t9.5 -29.5zM820 100h-85v425h-125v75h210v-500zM285 175v175
h-80v-175h80z" />
    <glyph glyph-name="uni3175" unicode="&#x3175;" horiz-adv-x="940" 
d="M360 555v-455h-250v500q30 4 57.5 -5t27.5 -49v-121h80v185q31 4 56.5 -5t28.5 -50zM543 550v-45q-2 -21 -5 -44.5t-7 -47.5q20 -66 43.5 -134t57.5 -138l-17 -26q-4 -5 -7 -9l-6 -8q-3 -3 -7 -5.5t-9 -2.5q-3 0 -6 -0.5t-5 0.5q-2 0 -4 1t-3 4q-21 39 -38 80t-32 87
q-12 -45 -27 -87t-30 -73q-3 -6 -6.5 -8.5t-6.5 -3.5q-4 -1 -7.5 -0.5t-5.5 0.5q-6 0 -10.5 2t-8.5 5t-7.5 7t-6.5 8l-19 23q11 7 26 50.5t28 101.5q14 58 23 120t8 106v92q15 1 31.5 -0.5t30.5 -7.5t23.5 -17.5t9.5 -29.5zM830 600v-75h-105v-350h115q1 -12 1 -25t-4 -25
q-4 -11 -12.5 -18t-24.5 -7h-160v500h190zM275 175v175h-80v-175h80z" />
    <glyph glyph-name="uni3176" unicode="&#x3176;" horiz-adv-x="940" 
d="M445 555v-455h-315v500q15 2 31.5 1.5t30.5 -6.5t23.5 -17.5t9.5 -31.5v-121h125v185q15 2 31.5 1.5t30.5 -6.5q13 -6 22 -18t11 -32zM490 600h275l-1.5 -22.5t-3.5 -47.5q-8 -42 -23.5 -91t-36.5 -97q38 -68 75 -117.5t60 -64.5l-21 -33q-4 -5 -7 -9t-7 -8
q-3 -3 -7 -5.5t-10 -2.5h-5t-4 1q-3 1 -5 1.5t-4 2.5q-21 15 -51.5 53t-60.5 85q-25 -46 -51.5 -83.5t-51.5 -61.5q-9 -9 -16 -10.5t-14 0.5q-8 1 -15 7.5t-11 12.5l-24 30q24 20 51 58t53 89q25 51 47 111.5t37 126.5h-168v75zM350 175v175h-125v-175h125z" />
    <glyph glyph-name="uni3177" unicode="&#x3177;" horiz-adv-x="940" 
d="M460 555v-455h-330v500q15 2 31.5 1.5t30.5 -6.5t23.5 -17.5t9.5 -31.5v-121h140v185q15 2 31.5 1.5t30.5 -6.5q13 -6 22 -18t11 -32zM365 175v175h-140v-175h140zM810 600v-75h-205v-130h195v-75h-195v-145h215q1 -12 1 -25t-4 -25q-4 -11 -12.5 -18t-24.5 -7h-270v500
h300z" />
    <glyph glyph-name="uni3178" unicode="&#x3178;" horiz-adv-x="940" 
d="M470 -110q-51 0 -95 17t-76 45q-33 28 -51 64t-18 74q0 37 18 73t51 64q32 28 76 45.5t95 17.5t94.5 -17.5t76.5 -45.5q32 -28 50.5 -64t18.5 -73q0 -38 -18.5 -74t-50.5 -64q-33 -28 -76.5 -45t-94.5 -17zM470 215q-28 0 -54 -8.5t-46 -24.5q-21 -16 -33 -39t-12 -53
q0 -31 12 -54.5t33 -38.5q20 -16 46 -24t54 -8q27 0 53 8t46 24q20 15 33 38.5t13 54.5q0 30 -13 53t-33 39t-46 24.5t-53 8.5zM740 665v-325h-540v370q15 2 31.5 1.5t30.5 -6.5t23.5 -17.5t9.5 -31.5v-51h350v115q15 2 31.5 1.5t30.5 -6.5q13 -6 22 -18t11 -32zM645 415
v115h-350v-115h350z" />
    <glyph glyph-name="uni3179" unicode="&#x3179;" horiz-adv-x="940" 
d="M750 665v-325h-560v370q15 2 31.5 1.5t30.5 -6.5t23 -17.5t9 -31.5v-51h139v105q15 2 31.5 1.5t30.5 -6.5t23 -17.5t9 -31.5v-51h139v115q15 2 31.5 1.5t29.5 -6.5q14 -6 22.5 -18t10.5 -32zM470 -110q-51 0 -95 17t-76 45q-33 28 -51 64t-18 74q0 37 18 73t51 64
q32 28 76 45.5t95 17.5t94.5 -17.5t76.5 -45.5q32 -28 50.5 -64t18.5 -73q0 -38 -18.5 -74t-50.5 -64q-33 -28 -76.5 -45t-94.5 -17zM470 215q-28 0 -54 -8.5t-46 -24.5q-21 -16 -33 -39t-12 -53q0 -31 12 -54.5t33 -38.5q20 -16 46 -24t54 -8q27 0 53 8t46 24
q20 15 33 38.5t13 54.5q0 30 -13 53t-33 39t-46 24.5t-53 8.5zM284 530v-115h139v115h-139zM656 415v115h-139v-115h139z" />
    <glyph glyph-name="uni317A" unicode="&#x317a;" horiz-adv-x="940" 
d="M395 550v-55q-4 -27 -10 -53.5t-12 -50.5q20 -40 45 -79t50 -73t46.5 -60t35.5 -38l-18 -26q-4 -5 -7 -9t-7 -8q-3 -3 -7 -5.5t-10 -2.5t-10.5 0.5t-8.5 4.5q-15 12 -34 32.5t-39 45.5q-20 24 -40.5 51.5t-37.5 53.5q-30 -65 -62.5 -113.5t-56.5 -72.5q-9 -9 -15.5 -10.5
t-11.5 -1.5q-6 0 -11 2t-9 5t-7.5 7t-7.5 8l-20 23q12 7 37 41.5t51 86.5t48.5 116.5t28.5 133.5v102q16 1 33.5 -0.5t32.5 -7.5q14 -6 24 -17.5t10 -29.5zM810 90h-95v435h-225v75h320v-510z" />
    <glyph glyph-name="uni317B" unicode="&#x317b;" horiz-adv-x="940" 
d="M350 550v-55q-4 -26 -8.5 -50t-10.5 -47q19 -40 42 -80.5t46 -75.5q22 -35 42 -61.5t34 -39.5l-18 -26q-4 -5 -7 -9t-7 -8q-3 -3 -7 -5.5t-10 -2.5t-10.5 0.5t-8.5 4.5q-15 12 -31.5 32t-34.5 45t-35.5 52t-32.5 54q-24 -59 -50.5 -103.5t-50.5 -72.5q-8 -9 -15 -10.5
t-12 -1.5q-6 0 -11 2t-9 5t-7.5 7t-7.5 8l-20 23q12 7 33 40t43 83q21 50 39.5 113t24.5 132v102q16 1 33.5 -0.5t32.5 -7.5q14 -6 24 -17.5t10 -29.5zM610 545v-370h200q3 -24 -7.5 -49.5t-42.5 -25.5h-245v500q28 4 49 0t33 -16q5 -7 8 -13.5t4 -12.5t1 -9.5v-3.5z" />
    <glyph glyph-name="uni317C" unicode="&#x317c;" horiz-adv-x="940" 
d="M515 100v500h285v-75h-190v-350h200q3 -24 -5.5 -49.5t-39.5 -25.5h-250zM350 550v-55q-4 -26 -8.5 -50t-10.5 -47q19 -40 42 -80.5t46 -75.5q22 -35 42 -61.5t34 -39.5l-18 -26q-4 -5 -7 -9t-7 -8q-3 -3 -7 -5.5t-10 -2.5t-10.5 0.5t-8.5 4.5q-15 12 -31.5 32t-34.5 45
t-35.5 52t-32.5 54q-24 -59 -50.5 -103.5t-50.5 -72.5q-8 -9 -15 -10.5t-12 -1.5q-6 0 -11 2t-9 5t-7.5 7t-7.5 8l-20 23q12 7 33 40t43 83q21 50 39.5 113t24.5 132v102q16 1 33.5 -0.5t32.5 -7.5q14 -6 24 -17.5t10 -29.5z" />
    <glyph glyph-name="uni317D" unicode="&#x317d;" horiz-adv-x="940" 
d="M810 555v-455h-310v500q15 2 31.5 1.5t30.5 -6.5t23.5 -17.5t9.5 -31.5v-121h120v185q15 2 31.5 1.5t30.5 -6.5q13 -6 22 -18t11 -32zM345 550v-55q-4 -26 -8.5 -50.5t-9.5 -47.5q18 -40 40 -80t44 -75q21 -35 40.5 -61.5t33.5 -39.5l-18 -26q-4 -5 -7 -9t-7 -8
q-3 -3 -7 -5.5t-10 -2.5t-10.5 0.5t-8.5 4.5q-29 24 -63.5 76t-64.5 104q-23 -57 -48 -101.5t-49 -71.5q-8 -9 -15 -10.5t-12 -1.5q-6 0 -11 2t-9 5t-7.5 7t-7.5 8l-20 23q12 7 32 40t41 83t38.5 113t23.5 132v102q16 1 33.5 -0.5t32.5 -7.5q14 -6 24 -17.5t10 -29.5z
M715 175v175h-120v-175h120z" />
    <glyph glyph-name="uni317E" unicode="&#x317e;" horiz-adv-x="940" 
d="M490 600h275l-1.5 -22.5t-3.5 -47.5q-8 -42 -23.5 -91t-36.5 -97q38 -68 75 -117.5t60 -64.5l-21 -33q-4 -5 -7 -9t-7 -8q-3 -3 -7 -5.5t-10 -2.5h-5t-4 1q-3 1 -5 1.5t-4 2.5q-21 15 -51.5 53t-60.5 85q-25 -46 -51.5 -83.5t-51.5 -61.5q-9 -9 -16 -10.5t-14 0.5
q-8 1 -15 7.5t-11 12.5l-17 20l-10 -15q-4 -5 -7 -9t-7 -8q-3 -3 -7 -5.5t-10 -2.5t-10.5 0.5t-8.5 4.5q-29 24 -63.5 76t-64.5 104q-23 -57 -48 -101.5t-49 -71.5q-8 -9 -15 -10.5t-12 -1.5q-6 0 -11 2t-9 5t-7.5 7t-7.5 8l-20 23q12 7 32 40t41 83t38.5 113t23.5 132v102
q16 1 33.5 -0.5t32.5 -7.5q14 -6 24 -17.5t10 -29.5v-55q-4 -26 -8.5 -50.5t-9.5 -47.5q17 -38 37.5 -76t41.5 -72q20 -33 39 -60t33 -42q24 22 49.5 60.5t50.5 87.5q24 50 45 108.5t35 121.5h-168v75z" />
    <glyph glyph-name="uni317F" unicode="&#x317f;" horiz-adv-x="940" 
d="M470 630l270 -550h-540zM470 450l-140 -295h280z" />
    <glyph glyph-name="uni3180" unicode="&#x3180;" horiz-adv-x="940" 
d="M115 350q0 58 12.5 106t35.5 82q22 34 53.5 53t68.5 19q36 0 67.5 -19t53.5 -53q23 -34 36 -82t13 -106q0 -59 -13 -107t-36 -82q-22 -34 -53.5 -52.5t-67.5 -18.5q-37 0 -68.5 18.5t-53.5 52.5q-23 34 -35.5 82t-12.5 107zM208 350q0 -90 24.5 -137.5t52.5 -47.5
q27 0 52 47.5t25 137.5t-25 137.5t-52 47.5q-28 0 -52.5 -47.5t-24.5 -137.5zM495 350q0 58 12.5 106t35.5 82q22 34 53.5 53t68.5 19q36 0 67.5 -19t53.5 -53q23 -34 36 -82t13 -106q0 -59 -13 -107t-36 -82q-22 -34 -53.5 -52.5t-67.5 -18.5q-37 0 -68.5 18.5t-53.5 52.5
q-23 34 -35.5 82t-12.5 107zM588 350q0 -90 24.5 -137.5t52.5 -47.5q27 0 52 47.5t25 137.5t-25 137.5t-52 47.5q-28 0 -52.5 -47.5t-24.5 -137.5z" />
    <glyph glyph-name="uni3181" unicode="&#x3181;" horiz-adv-x="940" 
d="M518 595v-139q47 -8 87.5 -28.5t70.5 -52.5q30 -33 47 -74.5t17 -90.5q0 -56 -21.5 -102t-58.5 -79q-36 -33 -85.5 -51t-104.5 -18q-56 0 -105.5 18t-85.5 51q-37 33 -58 79t-21 102q0 49 16.5 90.5t46.5 74.5q30 32 71 52.5t89 28.5v194q15 1 31.5 0t30.5 -7t23.5 -18
t9.5 -30zM295 210q0 -42 13.5 -74.5t37.5 -54.5q24 -23 56 -34.5t68 -11.5q35 0 67 11.5t56 34.5q24 22 38 54.5t14 74.5q0 37 -14 69t-38 56q-24 23 -56 36.5t-67 13.5q-36 0 -68 -13.5t-56 -36.5q-24 -24 -37.5 -56t-13.5 -69z" />
    <glyph glyph-name="uni3182" unicode="&#x3182;" horiz-adv-x="940" 
d="M342 565v-57q57 -18 92.5 -76t35.5 -137q0 -48 -13 -88.5t-36 -69.5q-24 -29 -56 -45.5t-70 -16.5q-39 0 -71 16.5t-56 45.5q-23 29 -35.5 69.5t-12.5 88.5q0 79 34.5 137t92.5 76v112q15 1 31.5 0t30.5 -7t23.5 -18t9.5 -30zM700 550v-55q-4 -26 -8.5 -50.5t-9.5 -47.5
q19 -40 41 -80t43 -75q22 -35 41 -61.5t33 -39.5l-18 -26q-4 -5 -7 -9t-7 -8q-3 -3 -7 -5.5t-10 -2.5t-10.5 0.5t-8.5 4.5q-28 23 -62.5 75t-64.5 103q-21 -57 -45.5 -100.5t-47.5 -70.5q-8 -9 -15 -10.5t-12 -1.5q-6 0 -11 2t-9 5t-7.5 7t-7.5 8l-20 23q12 7 31.5 40
t39.5 83q19 50 36 113t23 132v102q16 1 33.5 -0.5t32.5 -7.5q14 -6 24 -17.5t10 -29.5zM210 295q0 -33 8 -60t20 -46q13 -19 28 -29.5t29 -10.5q13 0 28 10.5t28 29.5q12 19 20.5 46t8.5 60q0 32 -8.5 59t-20.5 46q-13 19 -28 29.5t-28 10.5q-14 0 -29 -10.5t-28 -29.5
q-12 -19 -20 -46t-8 -59z" />
    <glyph glyph-name="uni3183" unicode="&#x3183;" horiz-adv-x="940" 
d="M342 565v-57q57 -18 92.5 -76t35.5 -137q0 -48 -13 -88.5t-36 -69.5q-24 -29 -56 -45.5t-70 -16.5q-39 0 -71 16.5t-56 45.5q-23 29 -35.5 69.5t-12.5 88.5q0 79 34.5 137t92.5 76v112q15 1 31.5 0t30.5 -7t23.5 -18t9.5 -30zM640 630l190 -530h-380zM210 295
q0 -33 8 -60t20 -46q13 -19 28 -29.5t29 -10.5q13 0 28 10.5t28 29.5q12 19 20.5 46t8.5 60q0 32 -8.5 59t-20.5 46q-13 19 -28 29.5t-28 10.5q-14 0 -29 -10.5t-28 -29.5q-12 -19 -20 -46t-8 -59zM640 405l-75 -230h150z" />
    <glyph glyph-name="uni3184" unicode="&#x3184;" horiz-adv-x="940" 
d="M637 420h113q3 -26 -6 -50.5t-39 -24.5h-515v75h105v215h-95v75h540v-75h-85v-130q0 -27 -4.5 -46.5t-13.5 -38.5zM470 -110q-51 0 -95 17t-76 45q-33 28 -51 64t-18 74q0 37 18 73t51 64q32 28 76 45.5t95 17.5t94.5 -17.5t76.5 -45.5q32 -28 50.5 -64t18.5 -73
q0 -38 -18.5 -74t-50.5 -64q-33 -28 -76.5 -45t-94.5 -17zM470 215q-28 0 -54 -8.5t-46 -24.5q-21 -16 -33 -39t-12 -53q0 -31 12 -54.5t33 -38.5q20 -16 46 -24t54 -8q27 0 53 8t46 24q20 15 33 38.5t13 54.5q0 30 -13 53t-33 39t-46 24.5t-53 8.5zM560 515v120h-170v-215
h153q9 23 13 45.5t4 49.5z" />
    <glyph glyph-name="uni3185" unicode="&#x3185;" horiz-adv-x="940" 
d="M490 250q0 36 12 67t34 54t51 36t63 13q33 0 62 -13t51 -36t34.5 -54t12.5 -67q0 -37 -12.5 -68t-34.5 -54t-51 -35.5t-62 -12.5q-34 0 -63 12.5t-51 35.5t-34 54t-12 68zM575 250q0 -41 23 -70.5t52 -29.5q28 0 51.5 29.5t23.5 70.5q0 40 -23.5 70t-51.5 30
q-29 0 -52 -30t-23 -70zM490 525v75h330q3 -26 -6 -50.5t-39 -24.5h-285zM130 525v75h330q3 -26 -6 -50.5t-39 -24.5h-285zM130 250q0 36 12 67t34 54t51 36t63 13q33 0 62 -13t51 -36t34.5 -54t12.5 -67q0 -37 -12.5 -68t-34.5 -54t-51 -35.5t-62 -12.5q-34 0 -63 12.5
t-51 35.5t-34 54t-12 68zM215 250q0 -41 23 -70.5t52 -29.5q28 0 51.5 29.5t23.5 70.5q0 40 -23.5 70t-51.5 30q-29 0 -52 -30t-23 -70z" />
    <glyph glyph-name="uni3186" unicode="&#x3186;" horiz-adv-x="940" 
d="M220 180q0 43 20.5 83t55.5 70q35 31 80 49t94 18q48 0 93 -18t80 -49q35 -30 56 -70t21 -83q0 -44 -21 -84t-56 -70q-35 -31 -80 -48.5t-93 -17.5q-49 0 -94 17.5t-80 48.5q-35 30 -55.5 70t-20.5 84zM315 180q0 -30 12.5 -56.5t33.5 -46.5t49 -31t60 -11q31 0 59 11
t49 31t34 46.5t13 56.5t-13 56t-34 46t-49 31.5t-59 11.5q-32 0 -60 -11.5t-49 -31.5t-33.5 -46t-12.5 -56zM705 525h-505v75h550q3 -26 -6 -50.5t-39 -24.5z" />
    <glyph glyph-name="uni3187" unicode="&#x3187;" horiz-adv-x="940" 
d="M518 375v-240h142q3 -26 -6 -50.5t-39 -24.5h-585v75h173v295q15 1 31.5 0t30.5 -7t23.5 -18t9.5 -30v-240h125v295q15 1 31.5 0t30.5 -7t23.5 -18t9.5 -30zM890 409h-95v-174h135q3 -21 1 -37t-10 -25q-9 -10 -18.5 -12t-12.5 -2h-95v-259h-95v800q15 1 31.5 0t30.5 -7
t23.5 -18t9.5 -30v-160h135q3 -21 1 -37t-10 -25q-9 -10 -18.5 -12t-12.5 -2z" />
    <glyph glyph-name="uni3188" unicode="&#x3188;" horiz-adv-x="940" 
d="M850 645v-745h-92v260h-96v-240h-92v770q15 2 31 1t30 -7q13 -6 22 -18t9 -31v-150h96v215q15 2 31 1t30 -7q13 -6 22 -18t9 -31zM458 375v-240h82q3 -26 -6 -50.5t-39 -24.5h-465v75h143v295q15 1 31.5 0t30.5 -7t23.5 -18t9.5 -30v-240h95v295q15 1 31.5 0t30.5 -7
t23.5 -18t9.5 -30zM662 410v-175h96v175h-96z" />
    <glyph glyph-name="uni3189" unicode="&#x3189;" horiz-adv-x="940" 
d="M538 375v-240h162q3 -26 -6 -50.5t-39 -24.5h-615v75h183v295q15 1 31.5 0t30.5 -7t23.5 -18t9.5 -30v-240h125v295q15 1 31.5 0t30.5 -7t23.5 -18t9.5 -30zM835 645v-745h-95v800q15 1 31.5 0t30.5 -7t23.5 -18t9.5 -30z" />
    <glyph glyph-name="uni318A" unicode="&#x318a;" horiz-adv-x="940" 
d="M510 -80h-95v330h-128v-330h-95v330h-162v75h650q3 -26 -6 -50.5t-39 -24.5h-125v-330zM835 645v-745h-95v95h-150v75h150v55h-150v75h150v500q15 1 31.5 0t30.5 -7t23.5 -18t9.5 -30z" />
    <glyph glyph-name="uni318B" unicode="&#x318b;" horiz-adv-x="940" 
d="M415 -80h-95v330h-95v-330h-95v330h-100v75h500q3 -26 -6 -50.5t-39 -24.5h-70v-330zM675 635v-715h-92v75h-123v75h123v55h-123v75h123v490q15 2 31 1t30 -7q13 -6 22 -18t9 -31zM850 645v-745h-92v800q15 2 31 1t30 -7q13 -6 22 -18t9 -31z" />
    <glyph glyph-name="uni318C" unicode="&#x318c;" horiz-adv-x="940" 
d="M520 -80h-95v330h-138v-330h-95v330h-162v75h650q3 -26 -6 -50.5t-39 -24.5h-115v-330zM835 645v-745h-95v800q15 1 31.5 0t30.5 -7t23.5 -18t9.5 -30z" />
    <glyph glyph-name="uni318D" unicode="&#x318d;" horiz-adv-x="940" 
d="M400 320q0 27 21 48.5t49 21.5q27 0 48.5 -21.5t21.5 -48.5q0 -28 -21.5 -49t-48.5 -21q-28 0 -49 21t-21 49z" />
    <glyph glyph-name="uni318E" unicode="&#x318e;" horiz-adv-x="940" 
d="M295 320q0 27 21 48.5t49 21.5q27 0 48.5 -21.5t21.5 -48.5q0 -28 -21.5 -49t-48.5 -21q-28 0 -49 21t-21 49zM620 645v-745h-95v800q15 1 31.5 0t30.5 -7t23.5 -18t9.5 -30z" />
    <glyph glyph-name="uni2170" unicode="&#x2170;" horiz-adv-x="940" 
d="M400 607q0 27 18.5 46t46.5 19q27 0 46 -19t19 -46q0 -28 -19 -46.5t-46 -18.5q-28 0 -46.5 18.5t-18.5 46.5zM385 450h130v-452q0 -8 12.5 -12.5t27.5 -4.5v-41h-170v41q15 0 27.5 4.5t12.5 12.5v394q0 7 -12.5 12t-27.5 5v41z" />
    <glyph glyph-name="uni2171" unicode="&#x2171;" horiz-adv-x="940" 
d="M305 607q0 27 18.5 46t46.5 19q27 0 46 -19t19 -46q0 -28 -19 -46.5t-46 -18.5q-28 0 -46.5 18.5t-18.5 46.5zM290 450h130v-452q0 -8 12.5 -12.5t27.5 -4.5v-41h-170v41q15 0 27.5 4.5t12.5 12.5v394q0 7 -12.5 12t-27.5 5v41zM505 607q0 27 18.5 46t46.5 19
q27 0 46 -19t19 -46q0 -28 -19 -46.5t-46 -18.5q-28 0 -46.5 18.5t-18.5 46.5zM490 450h130v-452q0 -8 12.5 -12.5t27.5 -4.5v-41h-170v41q15 0 27.5 4.5t12.5 12.5v394q0 7 -12.5 12t-27.5 5v41z" />
    <glyph glyph-name="uni2172" unicode="&#x2172;" horiz-adv-x="940" 
d="M585 607q0 27 18.5 46t46.5 19q27 0 46 -19t19 -46q0 -28 -19 -46.5t-46 -18.5q-28 0 -46.5 18.5t-18.5 46.5zM405 607q0 27 18.5 46t46.5 19q27 0 46 -19t19 -46q0 -28 -19 -46.5t-46 -18.5q-28 0 -46.5 18.5t-18.5 46.5zM225 607q0 27 18.5 46t46.5 19q27 0 46 -19
t19 -46q0 -28 -19 -46.5t-46 -18.5q-28 0 -46.5 18.5t-18.5 46.5zM570 450h130v-452q0 -8 12.5 -12.5t27.5 -4.5v-41h-168v41q15 0 26.5 4.5t11.5 12.5v394q0 7 -12.5 12t-27.5 5v41zM390 450h130v-452q0 -8 11.5 -12.5t26.5 -4.5v-41h-166v41q15 0 26.5 4.5t11.5 12.5v394
q0 7 -12.5 12t-27.5 5v41zM210 450h130v-452q0 -8 11.5 -12.5t26.5 -4.5v-41h-168v41q15 0 27.5 4.5t12.5 12.5v394q0 7 -12.5 12t-27.5 5v41z" />
    <glyph glyph-name="uni2173" unicode="&#x2173;" horiz-adv-x="940" 
d="M175 607q0 27 18.5 46t46.5 19q27 0 46 -19t19 -46q0 -28 -19 -46.5t-46 -18.5q-28 0 -46.5 18.5t-18.5 46.5zM160 450h130v-452q0 -8 12.5 -12.5t27.5 -4.5v-41h-170v41q15 0 27.5 4.5t12.5 12.5v394q0 7 -12.5 12t-27.5 5v41zM452 397l98 -317q12 38 24 78t24 81
q12 40 24.5 80t25.5 79q-2 5 -9.5 7.5t-16.5 2.5v42h158v-41q-9 0 -21.5 -3t-18.5 -12q-19 -55 -38 -112.5t-38 -115.5q-20 -58 -39 -115l-37 -111h-76l-151 453q-7 10 -20 13t-21 3v41h158v-42q-9 0 -17.5 -2.5t-8.5 -8.5z" />
    <glyph glyph-name="uni2174" unicode="&#x2174;" horiz-adv-x="940" 
d="M346 397l124 -328q15 39 30.5 80.5t31.5 83.5q15 42 30.5 83.5t31.5 80.5q-1 6 -8.5 8.5t-15.5 2.5v42h160v-41q-9 0 -22 -2.5t-19 -12.5q-23 -55 -46 -112.5t-45 -115.5q-23 -58 -46 -115t-45 -111h-74l-182 453q-7 10 -20 13t-21 3v41h160v-42q-9 0 -16.5 -3t-7.5 -8z
" />
    <glyph glyph-name="uni2175" unicode="&#x2175;" horiz-adv-x="940" 
d="M645 607q0 27 18.5 46t46.5 19q27 0 46 -19t19 -46q0 -28 -19 -46.5t-46 -18.5q-28 0 -46.5 18.5t-18.5 46.5zM630 450h130v-452q0 -8 12.5 -12.5t27.5 -4.5v-41h-170v41q15 0 27.5 4.5t12.5 12.5v394q0 7 -12.5 12t-27.5 5v41zM282 397l98 -317q12 38 24 78t24 81
q12 40 24.5 80t25.5 79q-2 5 -9.5 7.5t-16.5 2.5v42h158v-41q-9 0 -21.5 -3t-18.5 -12q-19 -55 -38 -112.5t-38 -115.5q-20 -58 -39 -115l-37 -111h-76l-151 453q-7 10 -20 13t-21 3v41h158v-42q-9 0 -17.5 -2.5t-8.5 -8.5z" />
    <glyph glyph-name="uni2176" unicode="&#x2176;" horiz-adv-x="940" 
d="M656 450h124v-452q0 -8 11.5 -12.5t26.5 -4.5v-41h-312v41q14 0 26 4.5t12 12.5v394q0 7 -12 12t-26 5q-9 0 -21 -2.5t-17 -11.5q-9 -27 -17.5 -55.5t-16.5 -57.5t-16.5 -58t-16.5 -57q-9 -30 -17.5 -59t-16.5 -57q-9 -29 -17 -56.5t-16 -54.5h-73l-133 455
q-6 9 -17.5 11.5t-20.5 2.5v41h151v-42q-9 0 -16.5 -2.5t-8.5 -7.5l82 -310l39 151q10 40 20.5 80t21.5 79q-2 5 -9 7.5t-15 2.5v42h275v-452q0 -7 8 -12t22 -5t24 4.5t10 12.5v394q0 7 -12 12t-26 5v41zM670 607q0 27 18 46t44 19q27 0 44.5 -19t17.5 -46
q0 -28 -17.5 -46.5t-44.5 -18.5q-26 0 -44 18.5t-18 46.5zM520 607q0 27 18 46t44 19q27 0 44.5 -19t17.5 -46q0 -28 -17.5 -46.5t-44.5 -18.5q-26 0 -44 18.5t-18 46.5z" />
    <glyph glyph-name="uni2177" unicode="&#x2177;" horiz-adv-x="940" 
d="M564 450h118v-452q0 -7 6.5 -12t18.5 -5q13 0 21.5 4.5t8.5 12.5v394q0 7 -11 12t-24 5v41h118v-452q0 -8 11 -12.5t25 -4.5v-41h-431v41q13 0 25 4.5t12 12.5v394q0 7 -11.5 12t-24.5 5q-8 -1 -16.5 -4t-12.5 -10q-7 -27 -14 -55.5t-13 -57.5l-14 -58t-13 -57l-53 -227
h-72l-106 454q-6 9 -18 12t-19 3v41h145v-42q-9 0 -16.5 -2.5t-7.5 -7.5l58 -292q5 24 10 50t10 53q5 26 10.5 53.5t11.5 54.5l16 81q-2 5 -9 7.5t-14 2.5v42h255v-452q0 -8 8 -12.5t22 -4.5q11 0 18 5t7 12v394q0 7 -11 12t-24 5v41zM714 587q0 27 17.5 46t42.5 19t42 -19
t17 -46q0 -28 -17 -46.5t-42 -18.5t-42.5 18.5t-17.5 46.5zM576 587q0 27 17.5 46t42.5 19t42 -19t17 -46q0 -28 -17 -46.5t-42 -18.5t-42.5 18.5t-17.5 46.5zM439 587q0 27 17.5 46t41.5 19q26 0 43 -19t17 -46q0 -28 -17 -46.5t-43 -18.5q-24 0 -41.5 18.5t-17.5 46.5z
" />
    <glyph glyph-name="uni2178" unicode="&#x2178;" horiz-adv-x="940" 
d="M607 210l123 -207q7 -9 25 -15.5t34 -6.5v-41h-172v41q12 0 17.5 4.5t6.5 10.5q-11 17 -21 34t-19 35l-20 34t-20 35q-11 -17 -21 -34.5t-19 -34.5q-10 -18 -20 -35.5t-20 -33.5q0 -6 5 -10.5t18 -4.5v-41h-329v41q14 0 26 4.5t12 12.5v394q0 7 -12 12t-26 5v41h125v-452
q0 -7 9.5 -11.5t22.5 -5.5q13 0 31 6.5t27 14.5l124 208q-14 21 -27 43.5t-26 44.5t-26 44.5t-26 44.5q-7 9 -25 15.5t-33 6.5v41h172v-41q-13 0 -18 -4.5t-5 -10.5q8 -14 15.5 -27.5t15.5 -25.5q7 -13 14.5 -26.5t15.5 -26.5l61 106q-1 6 -6.5 10.5t-17.5 4.5v41h172v-41
q-15 0 -33 -7t-25 -14q-14 -22 -27.5 -44.5t-26.5 -44.5q-13 -23 -26 -45.5t-25 -43.5zM190 607q0 27 18 46t44 19q25 0 43.5 -19t18.5 -46q0 -28 -18.5 -46.5t-43.5 -18.5q-26 0 -44 18.5t-18 46.5z" />
    <glyph glyph-name="uni2179" unicode="&#x2179;" horiz-adv-x="940" 
d="M519 208l149 -205q8 -9 26.5 -15.5t35.5 -6.5v-41h-180v41q13 0 18.5 4.5t6.5 10.5q-14 18 -27 36.5t-26 36.5l-26 36t-26 37q-14 -18 -27 -36.5t-26 -36.5q-14 -19 -27 -37.5t-25 -35.5q0 -6 5.5 -10.5t19.5 -4.5v-41h-180v41q15 0 35 6.5t28 15.5h-1q18 24 36.5 50
t37.5 52q18 26 36.5 52t37.5 51q-16 21 -32 43t-32 45q-17 23 -33 46t-31 45h1q-9 8 -28 15t-35 7v41h180v-41q-14 0 -19.5 -4.5t-5.5 -10.5q10 -15 20.5 -30t21.5 -31q11 -15 21.5 -30.5t21.5 -28.5q10 14 20.5 29.5t20.5 30.5l22 30l22 30q-1 6 -6.5 10.5t-18.5 4.5v41
h180v-41q-18 0 -37 -7t-26 -15h1z" />
    <glyph glyph-name="uni2160" unicode="&#x2160;" horiz-adv-x="940" 
d="M515 602v-604q0 -8 12.5 -12.5t27.5 -4.5v-41h-170v41q15 0 27.5 4.5t12.5 12.5v604q0 7 -12.5 12t-27.5 5v41h170v-41q-15 0 -27.5 -5t-12.5 -12z" />
    <glyph glyph-name="uni2161" unicode="&#x2161;" horiz-adv-x="940" 
d="M415 602v-604q0 -8 12.5 -12.5t27.5 -4.5v-41h-170v41q15 0 27.5 4.5t12.5 12.5v604q0 7 -12.5 12t-27.5 5v41h170v-41q-15 0 -27.5 -5t-12.5 -12zM615 602v-604q0 -8 12.5 -12.5t27.5 -4.5v-41h-170v41q15 0 27.5 4.5t12.5 12.5v604q0 7 -12.5 12t-27.5 5v41h170v-41
q-15 0 -27.5 -5t-12.5 -12z" />
    <glyph glyph-name="uni2162" unicode="&#x2162;" horiz-adv-x="940" 
d="M515 602v-604q0 -8 10.5 -12.5t25.5 -4.5v-41h-162v41q15 0 25.5 4.5t10.5 12.5v604q0 7 -10.5 12t-25.5 5v41h162v-41q-15 0 -25.5 -5t-10.5 -12zM335 602v-604q0 -8 10.5 -12.5t25.5 -4.5v-41h-166v41q15 0 27.5 4.5t12.5 12.5v604q0 7 -12.5 12t-27.5 5v41h166v-41
q-15 0 -25.5 -5t-10.5 -12zM695 602v-604q0 -8 12.5 -12.5t27.5 -4.5v-41h-166v41q15 0 25.5 4.5t10.5 12.5v604q0 7 -10.5 12t-25.5 5v41h166v-41q-15 0 -27.5 -5t-12.5 -12z" />
    <glyph glyph-name="uni2163" unicode="&#x2163;" horiz-adv-x="940" 
d="M250 602v-604q0 -8 12.5 -12.5t27.5 -4.5v-41h-170v41q15 0 27.5 4.5t12.5 12.5v604q0 7 -12.5 12t-27.5 5v41h303v-42q-9 0 -16.5 -2.5t-7.5 -8.5l146 -521q18 57 36 124.5t37 136.5q18 69 36.5 136.5t36.5 124.5q-2 5 -9 7.5t-15 2.5v42h158v-41q-9 0 -21.5 -3
t-18.5 -12q-25 -75 -50.5 -160t-50.5 -172q-26 -87 -51.5 -172t-49.5 -160h-76l-201 663q-5 6 -13 10t-16 5q-12 -2 -19.5 -6t-7.5 -10z" />
    <glyph glyph-name="uni2164" unicode="&#x2164;" horiz-adv-x="940" 
d="M286 607l184 -533q22 59 45 128t46 139q23 71 46.5 139.5t47.5 128.5q-1 5 -8.5 7t-16.5 2v42h160v-41q-9 0 -22 -3t-19 -13q-31 -75 -61 -159.5t-60 -171.5q-31 -87 -61 -172t-60 -160h-74l-242 664q-7 9 -20 12t-21 3v41h160v-42q-10 0 -17.5 -2t-6.5 -9z" />
    <glyph glyph-name="uni2165" unicode="&#x2165;" horiz-adv-x="940" 
d="M690 -2v604q0 6 -8.5 10t-19.5 6q-8 -1 -16 -5t-12 -10l-201 -663h-76q-25 75 -50.5 160t-50.5 172q-26 87 -51.5 172t-49.5 160q-6 9 -19 12t-21 3v41h158v-42q-9 0 -16 -2.5t-8 -7.5q18 -57 36 -124.5t37 -136.5q18 -69 36.5 -136.5t36.5 -124.5l146 521q0 6 -7.5 8.5
t-16.5 2.5v42h303v-41q-15 0 -27.5 -5t-12.5 -12v-604q0 -8 12.5 -12.5t27.5 -4.5v-41h-170v41q15 0 27.5 4.5t12.5 12.5z" />
    <glyph glyph-name="uni2166" unicode="&#x2166;" horiz-adv-x="940" 
d="M318 97l119 511q-2 5 -8.5 7.5t-14.5 2.5v42h424v-41q-15 0 -26.5 -5t-11.5 -12v-604q0 -8 11.5 -12.5t26.5 -4.5v-41h-310v41q14 0 26 4.5t12 12.5v604q0 5 -6 8.5t-15 6.5q-6 -2 -10.5 -4.5t-7.5 -7.5q-22 -74 -44 -160t-43 -174q-22 -88 -43.5 -173.5t-42.5 -157.5
h-73l-172 664q-6 9 -18.5 12t-20.5 3v41h151v-42q-9 0 -15.5 -2.5t-6.5 -7.5q15 -57 29.5 -122.5t29.5 -133.5q15 -67 29.5 -132.5t30.5 -122.5zM713 -2v604q0 7 -9.5 12t-23.5 5q-13 -1 -20.5 -6t-7.5 -11v-604q0 -7 7.5 -12t20.5 -5q14 0 23.5 4.5t9.5 12.5z" />
    <glyph glyph-name="uni2167" unicode="&#x2167;" horiz-adv-x="940" 
d="M258 129l86 479q-1 6 -7 8t-15 2v42h522v-41q-14 0 -25 -5t-11 -12v-604q0 -8 11 -12.5t25 -4.5v-41h-415v41q13 0 24.5 4.5t11.5 12.5v604q0 4 -5.5 8t-12.5 7q-6 -2 -10.5 -5t-6.5 -7q-17 -75 -34 -160t-34 -173q-18 -88 -35 -173t-33 -159h-72l-135 664q-6 9 -18 12
t-19 3v41h144v-42q-8 0 -14.5 -2.5t-6.5 -7.5q10 -56 20.5 -117t20.5 -123q11 -63 21.5 -123.5t22.5 -115.5zM595 -2v604q0 6 -6.5 11t-18.5 6q-12 -1 -17 -6t-5 -11v-604q0 -7 6 -12t18 -5q11 0 17 5t6 12zM678 602v-604q0 -7 6 -12t18 -5q11 0 17 5t6 12v604q0 6 -6 11
t-17 6q-12 -1 -18 -6t-6 -11z" />
    <glyph glyph-name="uni2168" unicode="&#x2168;" horiz-adv-x="940" 
d="M448 605l100 -202l99 201q-1 6 -6.5 10.5t-17.5 4.5v41h172v-41q-14 0 -32 -7t-26 -14l-143 -274q21 -37 42 -78t43 -83q21 -42 42.5 -83t42.5 -77q8 -12 25.5 -17t33.5 -5v-41h-172v41q12 0 17.5 4.5t6.5 10.5q-17 28 -33 59.5t-31 64.5q-16 32 -32 63.5t-32 60.5
l-127 -248q0 -6 5 -10.5t18 -4.5v-41h-313v41q14 0 27 4.5t13 12.5v604q0 7 -13 12t-27 5v41h167v-41q-15 0 -27.5 -5t-12.5 -12v-604q0 -6 8 -10.5t20 -5.5q12 1 24.5 6t19.5 14l171 322q-18 29 -36 64.5t-35 71.5q-18 36 -36 71.5t-35 65.5q-8 8 -26.5 15t-32.5 7v41h174
v-41q-12 0 -18.5 -4.5t-6.5 -9.5z" />
    <glyph glyph-name="uni2169" unicode="&#x2169;" horiz-adv-x="940" 
d="M345 606l125 -213l125 212q-1 6 -7 10t-18 4v41h180v-41q-18 0 -36.5 -6.5t-24.5 -15.5l-170 -276l199 -318q8 -9 26.5 -15.5t35.5 -6.5v-41h-180v41q12 0 18 3.5t7 9.5l-155 255l-155 -255q0 -6 6 -9.5t19 -3.5v-41h-180v41q16 0 35.5 6.5t25.5 15.5l199 318
q-22 31 -43 66.5t-42 71.5t-42 71t-41 67q-9 8 -28 15t-34 7v41h180v-41q-12 0 -18.5 -4t-6.5 -9z" />
    <glyph glyph-name="Alpha" unicode="&#x391;" horiz-adv-x="740" 
d="M436 641q6 9 15.5 14t24.5 5t25.5 -5t15.5 -13q14 -75 29 -152.5t30 -154.5q15 -78 30 -155.5t30 -151.5q3 -22 13 -27t28 -6q7 -1 17.5 -1h21.5q-1 -7 -2 -13.5t-2 -12.5q-2 -7 -3 -13t-1 -12h-242l7 51h20t18 1q19 1 25.5 8t1.5 25v-1q-3 18 -6.5 36t-6.5 36t-6.5 36.5
t-6.5 36.5h-259l-30 -55q-9 -18 -20 -38t-29 -51q-16 -26 -10.5 -30t35.5 -4h44q-2 -8 -4 -14l-4 -12t-4 -12.5t-3 -12.5h-233l11 51h20.5t18.5 1q10 0 17.5 3t12.5 8q6 4 11 10.5t11 14.5q1 1 3.5 5t8.5 15q6 10 16.5 28.5t27.5 49.5q17 30 41.5 74.5t58.5 106.5
q35 63 80 144.5t103 186.5zM501 226l-13 61q-6 27 -11.5 55.5t-10.5 57.5q-5 28 -10.5 56.5t-9.5 56.5h-7q-19 -35 -39 -71.5t-41 -73.5q-20 -36 -39.5 -72t-37.5 -70h219z" />
    <glyph glyph-name="Beta" unicode="&#x392;" horiz-adv-x="750" 
d="M301 -57h-295q2 7 4.5 13t4.5 13q2 6 4.5 12t5.5 14h30t24 2q21 1 29 8.5t12 29.5l98 528q3 24 -3 30.5t-24 8.5h-6q-6 0 -12 0.5t-13 0.5q-7 1 -15 1.5t-16 0.5q0 6 1 12.5t3 13.5q1 7 2 13.5t2 12.5h325q41 0 84.5 -8t71.5 -29q43 -39 50.5 -86t-10.5 -91t-55.5 -79
t-82.5 -49q51 -21 90.5 -54t39.5 -87q0 -9 -1 -19.5t-2 -18.5q-11 -62 -48.5 -100t-87.5 -58q-50 -21 -106 -28t-104 -7zM263 283l-45 -251q-6 -28 6 -32.5t42 -4.5q12 0 24 0.5t23 1.5q11 0 21.5 1t21.5 1q33 1 65 12t58 31t43 49t22 65l3 27q0 34 -21 54t-50 30t-61 13
t-54 3h-98zM316 562l-44 -226h45q35 0 73 2.5t62 12.5q38 13 74.5 45t43.5 76q1 6 2 13.5t1 15.5q0 26 -9.5 45t-27.5 31v-1q-21 19 -62.5 24t-98.5 5q-19 0 -29.5 -1t-15.5 -4q-6 -4 -8.5 -13t-5.5 -25z" />
    <glyph glyph-name="Gamma" unicode="&#x393;" horiz-adv-x="740" 
d="M127 60l89 502q1 27 -6 32.5t-31 7.5h-15.5t-14.5 1q-8 1 -15 1.5t-14 0.5l15 52h544q9 0 16.5 -9t7.5 -24q-8 -61 -15 -115t-14 -104h-55v5v6.5v8.5t0.5 10.5t0.5 12.5q0 56 -7.5 88t-22.5 43q-18 12 -72 19t-142 7q-33 0 -44 -6.5t-14 -33.5l-91 -509q-2 -15 -3 -26
t1 -18q3 -7 10.5 -11t23.5 -4q9 -2 22 -2h28q-2 -7 -2.5 -13.5t-1.5 -12.5q-1 -7 -1.5 -13.5t-1.5 -12.5h-295l10 52q12 0 24.5 0.5t21.5 1.5h2h2t2 0.5t3 0.5q16 0 25.5 5t14.5 13q6 8 9 19t6 25z" />
    <glyph glyph-name="uni0394" unicode="&#x394;" horiz-adv-x="660" 
d="M498 29l-99 479q-33 -62 -66.5 -121t-66.5 -118q-34 -59 -67 -118t-66 -119v1q-16 -26 -13.5 -30t30.5 -4h302q20 0 34.5 4t11.5 26zM474 635l129 -606v1q2 -14 3 -29t-2 -28t-12 -21.5t-26 -8.5h-468q-35 0 -49 9t-14 26q0 9 5 24t14 30q42 73 84.5 149.5t85.5 153.5
q42 77 84.5 153.5t83.5 151.5v-1q7 10 20.5 16t26.5 6q12 0 22 -6.5t13 -19.5z" />
    <glyph glyph-name="Epsilon" unicode="&#x395;" horiz-adv-x="750" 
d="M607 193h46l-51 -222q-3 -14 -10 -20t-18 -6h-561l11 52h30t25 2q19 1 30.5 7.5t14.5 27.5q10 61 22 128t24 135q13 68 25 135.5t23 130.5q1 16 -6 29t-23 13h-61q0 6 1 12.5t3 13.5q1 7 2 13.5t2 12.5h545q16 0 22 -7t3 -26q-6 -38 -11 -78.5t-9 -78.5q-2 -8 -2.5 -16
t-1.5 -16t-1.5 -15.5t-1.5 -14.5h-47q0 12 1 28.5t1 27.5q0 48 -8.5 78t-23.5 43q-20 10 -76 16.5t-145 6.5q-34 0 -46.5 -6.5t-16.5 -33.5q-9 -54 -19.5 -116.5t-17.5 -115.5q51 0 84 4t45 11q13 6 26.5 33.5t28.5 70.5h45q-7 -38 -13.5 -74.5t-12.5 -72.5
q-7 -36 -13.5 -72.5t-12.5 -73.5h-45q0 10 0.5 18.5t0.5 17.5q0 30 -4.5 47.5t-13.5 23.5q-12 6 -43 10t-83 4l-44 -246q-4 -24 1.5 -30.5t41.5 -6.5q101 0 162.5 6.5t85.5 18.5t45.5 55.5t44.5 115.5z" />
    <glyph glyph-name="Zeta" unicode="&#x396;" horiz-adv-x="730" 
d="M552 605h-110q-73 0 -119.5 -6.5t-64.5 -15.5q-20 -15 -41.5 -57t-43.5 -111h-52q9 51 21 106.5t24 106.5q3 17 10.5 23t22.5 6h481q11 0 17 -4.5t6 -11.5q0 -6 -4.5 -13t-10.5 -15q-65 -77 -131 -154.5t-132 -154.5q-66 -78 -132.5 -155.5t-130.5 -153.5h149
q78 0 123.5 4.5t61.5 13.5q9 6 20.5 22.5t23.5 39.5t23.5 50.5t21.5 55.5l55 -1q-8 -27 -14.5 -53t-12.5 -52q-6 -27 -12 -53t-12 -51q-3 -15 -10 -21.5t-23 -6.5h-510q-13 0 -18.5 4.5t-5.5 11.5q0 6 3 13.5t9 14.5q61 70 126.5 148t132.5 158q66 81 131.5 160t127.5 152z
" />
    <glyph glyph-name="Eta" unicode="&#x397;" horiz-adv-x="860" 
d="M588 341l2 2q8 45 18.5 98.5t19.5 99.5q5 21 5.5 34t-3.5 18q-6 6 -24.5 9t-51.5 3q0 6 1 12.5t3 13.5q1 7 2 13.5t2 12.5h276q-2 -7 -3 -13.5t-3 -12.5q-1 -7 -2.5 -13.5t-2.5 -12.5q-33 0 -52 -4t-25 -8q-6 -5 -12 -20.5t-10 -33.5l-82 -485q-6 -38 2.5 -45.5
t31.5 -8.5q4 -1 8 -1.5t9 -0.5q5 -1 10 -1.5t11 -1.5l-6 -52h-275l7 52q33 0 52.5 3t25.5 7q5 5 9 16t8 25l4 12q4 24 9 53.5t11 60.5q5 30 10 58.5t10 52.5h-315l-39 -228q-4 -21 -4 -35t4 -18q3 -3 21.5 -5t52.5 -2q-1 -7 -1.5 -13.5t-1.5 -12.5q-1 -7 -1.5 -13.5
t-0.5 -12.5h-280l11 52q33 0 53 2.5t25 7.5t11.5 21t9.5 35l82 480v-1q4 21 5.5 34.5t-2.5 18.5q-6 6 -28 9t-63 3l15 52h286l-10 -52q-34 0 -53 -3t-25 -9q-7 -7 -12.5 -23t-9.5 -34l-35 -195h310z" />
    <glyph glyph-name="Theta" unicode="&#x398;" horiz-adv-x="760" 
d="M441 667q61 0 111.5 -25.5t85.5 -67.5t54.5 -96t19.5 -111q0 -82 -32 -160t-87 -139q-54 -61 -126 -98t-151 -37q-67 0 -117.5 26t-83.5 68q-34 43 -51 97t-17 110q0 15 1.5 30.5t4.5 31.5q14 73 49 140t86 118t115 82t138 31zM424 608q-60 0 -106 -30.5t-78 -75.5
q-33 -46 -53 -100.5t-29 -103.5q-3 -18 -4.5 -37.5t-1.5 -37.5q0 -42 8.5 -83.5t28.5 -74.5t53.5 -53t83.5 -20q62 0 109.5 28.5t80.5 73.5t52.5 100t27.5 107q2 15 3.5 32.5t1.5 35.5q0 42 -9 84.5t-30 76.5q-20 35 -54 56.5t-84 21.5zM507 383h49l-35 -163h-44
q0 32 -4.5 43.5t-13.5 11.5h-165q-12 0 -20.5 -11.5t-23.5 -43.5h-46l37 170h44q-1 -8 -1 -15v-11q0 -20 5 -23.5t14 -3.5h166q15 0 23.5 7.5t14.5 38.5z" />
    <glyph glyph-name="Iota" unicode="&#x399;" horiz-adv-x="470" 
d="M326 536l-84 -481q-4 -20 -4.5 -33.5t2.5 -17.5q3 -5 22.5 -7t53.5 -2l-7 -52h-277q0 6 1 12.5t3 13.5q1 7 2 13.5t2 12.5q31 0 51.5 2t26.5 8q7 6 11 19t8 34q21 120 42.5 241t44.5 241q3 20 3.5 35t-2.5 20q-4 4 -25.5 7t-54.5 3l7 52h284q-2 -7 -3 -13.5t-3 -12.5
q-1 -7 -2.5 -13.5t-2.5 -12.5q-35 0 -54 -3t-25 -9t-11.5 -22.5t-8.5 -34.5z" />
    <glyph glyph-name="Kappa" unicode="&#x39a;" horiz-adv-x="830" 
d="M383 289l-132 -125l-24 -120q-6 -28 -0.5 -36t39.5 -9q7 0 13 -0.5t11 -0.5q5 -1 9.5 -1h9.5q-2 -8 -4 -14.5t-3 -12.5q-2 -6 -4 -12.5t-3 -12.5h-273q0 6 1 12.5t3 13.5q1 7 2 13.5t2 12.5h24t22 2q30 2 40 19t14 41q21 123 35.5 208t24.5 139q10 55 15 84.5t8 43.5
q1 7 2 12t1 7q4 24 -7.5 36.5t-32.5 13.5q-8 0 -17.5 1t-18.5 1l7 52h272l-6 -52q-12 0 -22 -0.5t-18 -1.5q-33 -3 -43.5 -21t-14.5 -45l-50 -280l344 318q5 4 9.5 8t7.5 7l5 5t2 4q0 4 -22.5 5t-71.5 1l7 52h275l-6 -52q-11 0 -22 -0.5t-20 -1.5q-24 -2 -42.5 -11
t-34.5 -23l-244 -226l198 -319q4 -8 9 -13.5t14 -8.5t24.5 -4t42.5 -1l-6 -52h-286l6 52q57 0 74.5 6.5t12.5 21.5q-12 18 -24 37t-23 39q-12 19 -23 38t-22 39q-17 27 -34 55.5t-32 55.5z" />
    <glyph glyph-name="Lambda" unicode="&#x39b;" horiz-adv-x="740" 
d="M538 28l-93 492q-41 -76 -73.5 -135t-63.5 -114q-32 -56 -64 -113.5t-70 -129.5q-10 -18 -8 -26t26 -8h51q-2 -8 -4 -14l-4 -12t-4 -12.5t-3 -12.5h-233l11 51h7h3.5h5.5q2 0 6 0.5t9 0.5q25 1 38 10.5t25 30.5q40 73 83 149.5t86 153.5t85.5 153t81.5 150v-1
q7 8 16.5 13.5t23.5 5.5q15 0 25.5 -5t15.5 -13q14 -75 29 -152.5t30 -154.5q15 -78 30 -155.5t30 -151.5q3 -22 13.5 -27t29.5 -6q7 -1 17 -1h20q-1 -7 -2 -13.5t-2 -12.5q-2 -7 -3 -13t-1 -12h-242l7 51h20t18 1q20 2 25 9t2 24z" />
    <glyph glyph-name="Mu" unicode="&#x39c;" horiz-adv-x="880" 
d="M253 516l-67 -464q-2 -36 2 -45t28 -11q6 0 10.5 -0.5t8.5 -0.5h5.5h5.5l-7 -52h-226q0 6 1 12.5t3 13.5q1 7 2 13.5t2 12.5h16.5t14.5 1q23 1 30 13.5t10 30.5q28 189 43.5 292t23.5 151q7 48 8.5 57t1.5 10q0 4 1 8.5t1 8.5q1 4 1.5 7t0.5 6q0 12 -7 17t-25 6h-11.5
h-7.5q-4 0 -6 0.5t-4 0.5v12.5v13.5t0.5 13.5t0.5 13.5h185q14 0 19.5 -9t6.5 -20q10 -66 22 -131t25 -130t25.5 -130t23.5 -130q28 65 59 130.5t63 130.5l62 130t60 131q2 5 4.5 10t6.5 9q5 4 12 6.5t19 2.5h163q-2 -7 -3 -13.5t-3 -13.5q-1 -7 -2.5 -13.5t-2.5 -12.5
q-9 0 -19 -0.5t-16 -0.5q-24 -2 -33.5 -12t-11.5 -32q-20 -123 -38.5 -251.5t-35.5 -251.5v1q-6 -24 -2.5 -41t30.5 -20q8 -1 18.5 -1h22.5l-7 -52h-253l7 52h20.5t18.5 1q26 3 35 20t14 44l66 452l-4 1q-30 -70 -63 -139.5t-67 -138.5l-66 -138t-63 -138q-7 -15 -14 -22.5
t-13 -7.5q-7 0 -12 8t-7 23q-11 72 -24.5 141t-28.5 138q-14 69 -28.5 138t-26.5 140z" />
    <glyph glyph-name="Nu" unicode="&#x39d;" horiz-adv-x="820" 
d="M565 128l74 413q7 48 -7.5 55.5t-47.5 7.5h-10q0 6 1 12.5t3 13.5q1 7 2 13.5t2 13.5h221q-1 -7 -2 -13.5t-2 -13.5q-2 -7 -3 -13.5t-1 -12.5q-24 -1 -38.5 -3.5t-23.5 -8.5q-8 -7 -12.5 -20t-8.5 -34q-14 -72 -27.5 -145.5t-26.5 -147.5q-14 -75 -27.5 -148.5
t-25.5 -144.5q-3 -9 -11.5 -14.5t-17.5 -5.5t-17 3.5t-12 12.5v-1l-280 589h-7q-6 -32 -18.5 -100t-26.5 -143q-13 -75 -25 -142.5t-16 -98.5q-6 -40 5.5 -49t44.5 -9h16q-1 -7 -2 -13.5t-2 -12.5q-2 -7 -3 -13t-1 -12h-224l11 51q46 0 62.5 12t23.5 49l83 487q1 9 2 16.5
t1 13.5q0 12 -3.5 18.5t-10.5 9.5q-8 3 -20 3.5t-30 0.5q0 6 1 12.5t3 13.5q1 7 2 13.5t2 13.5h158q9 0 15 -7t10 -13l240 -509h7z" />
    <glyph glyph-name="Xi" unicode="&#x39e;" horiz-adv-x="760" 
d="M589 -57h-510q-15 0 -21.5 6.5t-8.5 24.5q3 26 6.5 52t7.5 53q4 26 7.5 52t7.5 53h53q-2 -12 -2 -27.5v-23.5q0 -45 5.5 -71t17.5 -33q15 -9 40.5 -14t62.5 -5h184q34 0 60.5 5t46.5 15q18 9 39 47.5t42 106.5h49l-51 -217q-4 -12 -11 -18t-25 -6zM230 657h454
q11 0 18.5 -6.5t9.5 -25.5l-32 -214h-46v5v7t0.5 10.5t0.5 17.5q0 51 -7 80t-19 37v-1q-17 11 -42 17t-57 6h-131q-34 0 -60 -5.5t-47 -14.5q-19 -11 -38.5 -49.5t-38.5 -104.5h-51l52 213q5 16 10 22t24 6zM554 210h-48v21q0 13 -2 25t-18 12h-200q-12 0 -20 -9.5
t-19 -44.5h-55q3 10 13.5 53.5t26.5 115.5h46q-2 -33 1.5 -42t16.5 -9h207q11 1 17 6.5t9 12.5q3 8 5 16.5t6 16.5h53q-3 -8 -6 -21t-6 -28q-4 -16 -7.5 -33.5t-6.5 -33.5z" />
    <glyph glyph-name="Omicron" unicode="&#x39f;" horiz-adv-x="760" 
d="M441 667q61 0 111.5 -25.5t85.5 -67.5t54.5 -96t19.5 -111q0 -82 -32 -160t-87 -139q-54 -61 -126 -98t-151 -37q-67 0 -117.5 26t-83.5 68q-34 43 -51 97t-17 110q0 15 1.5 30.5t4.5 31.5q14 73 49 140t86 118t115 82t138 31zM424 608q-60 0 -106 -30.5t-78 -75.5
q-33 -46 -53 -100.5t-29 -103.5q-3 -18 -4.5 -37.5t-1.5 -37.5q0 -42 8.5 -83.5t28.5 -74.5t53.5 -53t83.5 -20q62 0 109.5 28.5t80.5 73.5t52.5 100t27.5 107q2 15 3.5 32.5t1.5 35.5q0 42 -9 84.5t-30 76.5q-20 35 -54 56.5t-84 21.5z" />
    <glyph glyph-name="Pi" unicode="&#x3a0;" horiz-adv-x="860" 
d="M142 657h692q-2 -7 -3 -13.5t-3 -12.5q-1 -7 -2.5 -13.5t-2.5 -12.5q-29 -1 -46 -3.5t-27 -9.5q-10 -8 -15.5 -21t-10.5 -34l-83 -482q-9 -45 6 -52.5t52 -7.5h16l-7 -52h-276l7 52q26 0 42.5 1.5t27.5 7.5q10 6 16.5 18.5t12.5 35.5q8 43 21 118l26 150q13 76 23.5 137
t14.5 79q8 33 -5.5 46.5t-48.5 15.5q-20 1 -39 1.5t-40 1.5h-45.5h-51.5q-36 0 -51.5 -16.5t-23.5 -52.5q-30 -169 -46.5 -263.5t-24.5 -141.5q-8 -46 -10 -59t-3 -18q-9 -46 5.5 -53.5t50.5 -7.5h18q-1 -7 -1.5 -13.5t-1.5 -12.5q-1 -7 -1.5 -13.5t-0.5 -12.5h-280l11 52
q51 1 69.5 11.5t29.5 51.5l82 482q7 43 -5.5 54.5t-54.5 10.5h-28z" />
    <glyph glyph-name="Rho" unicode="&#x3a1;" horiz-adv-x="710" 
d="M148 657h324q42 1 85 -13t75 -41t47.5 -66t3.5 -88q-12 -48 -39.5 -85t-63.5 -62q-37 -25 -79.5 -37.5t-83.5 -12.5h-150l-36 -197q-6 -42 8.5 -51.5t65.5 -8.5q0 -7 -0.5 -13.5t-0.5 -12.5q-1 -7 -1 -13.5v-12.5h-281l7 52h7q48 1 66 12.5t29 50.5q10 59 22 124t23 131
q12 66 23 130t20 121v-1q3 12 0.5 21.5t-7.5 15.5q-4 1 -22.5 3t-49.5 2q0 6 1 12.5t3 13.5q1 7 2 13.5t2 12.5zM446 605h-72q-31 0 -40 -7t-13 -34l-44 -259h74q88 0 149.5 31.5t77.5 116.5q12 72 -25 111.5t-107 40.5z" />
    <glyph glyph-name="Sigma" unicode="&#x3a3;" horiz-adv-x="720" 
d="M556 -57h-493q-21 0 -28.5 6t-7.5 15t5 20t14 21h-1l254 288l-150 306q-3 7 -6 17.5t-3 15.5q0 12 8.5 18.5t28.5 6.5h487q16 0 22 -7.5t4 -25.5l-25 -209h-45q-1 69 -10 111t-28 54q-20 12 -87 18.5t-181 6.5h-10q-26 0 -35.5 -3.5t-2.5 -17.5l127 -254q3 -5 5 -10
t2 -11q0 -7 -4 -15.5t-14 -19.5q-56 -63 -115 -129.5t-115 -128.5h1q-13 -13 -10.5 -17t15.5 -4q128 0 209.5 6t114.5 18t57 50t47 106h48l-47 -205q-3 -14 -11 -20.5t-20 -6.5z" />
    <glyph glyph-name="Tau" unicode="&#x3a4;" horiz-adv-x="690" 
d="M114 657h515q10 0 17 -6.5t10 -25.5q-4 -28 -7.5 -55.5t-7.5 -54.5q-4 -28 -7.5 -55.5t-6.5 -54.5h-47q0 11 0.5 22t1.5 21q1 11 1.5 21.5t0.5 21.5q0 27 -4 51.5t-16 37.5q-14 15 -39 22t-63 7q-30 0 -40 -5.5t-14 -28.5q-12 -63 -23.5 -128.5t-23.5 -130.5
q-12 -66 -24 -131t-22 -128q-9 -25 -1 -42.5t35 -17.5q9 -1 20.5 -1.5t23.5 -0.5l-8 -52h-278l11 52q10 0 21.5 0.5t20.5 1.5q27 0 38 16t14 40v0.5v1.5l0.5 0.5t0.5 1.5l93 521q2 18 -5 24.5t-35 6.5q-38 0 -64.5 -7.5t-42.5 -21.5q-18 -15 -37.5 -59t-43.5 -116h-43
l47 224q3 17 12.5 22.5t19.5 5.5z" />
    <glyph glyph-name="Upsilon" unicode="&#x3a5;" horiz-adv-x="570" 
d="M276 321l-50 -303q0 -17 15.5 -20t47.5 -3l-6 -52h-250l11 52q27 0 41 2.5t20 8.5q7 7 9.5 19.5t7.5 33.5q3 20 7 41.5t8 42.5q4 22 8 43.5t7 43.5l14 94v-1q8 45 12.5 84.5t4.5 72.5q0 69 -33 97t-101 28l15 44q85 4 141.5 -36.5t68.5 -124.5h7q19 33 43.5 64t53.5 55
t62.5 39t72.5 15t59 -25t14 -68q-4 -24 -25.5 -39.5t-48.5 -15.5q-16 0 -31.5 15t-15.5 40q0 1 1 4t3 7q1 4 2.5 8.5t4.5 9.5q-39 -14 -73 -45.5t-60 -71.5q-27 -39 -44.5 -82t-22.5 -77z" />
    <glyph glyph-name="Phi" unicode="&#x3a6;" horiz-adv-x="725" 
d="M258 2q5 1 9.5 6.5t8.5 13.5q-50 9 -94.5 29t-77.5 49t-52.5 68t-19.5 87q0 9 1 21.5t4 24.5q14 57 49 105t82 83q46 36 100 58.5t106 28.5q-3 15 -18.5 22t-62.5 7l7 52h250l-6 -52q-33 0 -51.5 -2.5t-24.5 -5.5q-6 -4 -10.5 -8.5t-8.5 -12.5q47 -11 91 -32t78 -52
t54.5 -70.5t20.5 -86.5q0 -5 -0.5 -9.5t-1.5 -8.5q0 -5 -1 -9.5t-1 -8.5q-12 -60 -46.5 -108t-80.5 -83q-47 -36 -101 -57.5t-105 -27.5q-6 -9 -3.5 -15t5.5 -8q5 -3 24 -4t52 -1l-7 -52h-249l6 52q29 0 44 0.5t30 6.5zM436 527l-76 -458q91 18 146.5 81.5t69.5 149.5v-1
q2 12 3.5 24t1.5 24q0 66 -37 118t-108 62zM291 67l76 458q-45 -8 -82 -30t-65 -52q-29 -31 -48 -69t-26 -78q-2 -9 -2.5 -19t-0.5 -19q0 -66 38 -120.5t110 -70.5z" />
    <glyph glyph-name="Chi" unicode="&#x3a7;" horiz-adv-x="755" 
d="M152 60l182 241q-17 31 -32.5 63.5t-30.5 65.5l-30 66t-31 65q-12 24 -22.5 32t-32.5 10q-9 1 -19.5 1.5t-21.5 0.5l6 52h277l-6 -52q-61 0 -75 -6t-1 -28l92 -198q19 24 38.5 50.5t40.5 53.5q20 26 39.5 52.5t39.5 51.5q6 12 1.5 17t-21.5 5h-17.5t-21.5 2l6 52h229
l-6 -52q-25 -1 -41 -2.5t-28 -6.5q-12 -4 -22.5 -12.5t-23.5 -23.5q-43 -52 -88.5 -109.5t-85.5 -108.5l-18 -22l14 -31q26 -58 53 -116.5t54 -114.5q11 -24 21 -37t22 -19t28 -6.5t40 -0.5l-7 -52h-283l7 52h28t24 2q24 1 27.5 10.5t-2.5 22.5l-99 213q-20 -25 -38 -50.5
t-36 -51.5q-18 -25 -36 -50.5t-36 -49.5q-3 -5 -6 -8.5t-6 -6.5q-7 -7 -12 -13t-5 -10q-1 -4 4.5 -6t19.5 -2h57l-7 -52h-242l7 52q48 2 75.5 14.5t57.5 50.5z" />
    <glyph glyph-name="Psi" unicode="&#x3a8;" horiz-adv-x="800" 
d="M435 536l-56 -334q35 8 70.5 20t56.5 36q19 21 28.5 60t12.5 89q3 52 11.5 94.5t23.5 69.5q21 39 49 62t69 23q28 0 45.5 -10.5t22.5 -26.5q8 -33 -6.5 -53t-39.5 -20q-10 0 -18 7.5t-12 19.5l-3 4h1l-4 8l-4 8t-4.5 7t-4.5 5q-18 -4 -27.5 -30.5t-9.5 -71.5v-28t1 -21
v-7v-6t0.5 -6t0.5 -5q0 -63 -13.5 -113.5t-44.5 -83.5q-41 -43 -98 -58.5t-111 -21.5q-6 -24 -11 -48t-9 -50q-5 -42 9 -50.5t46 -7.5h24l-6 -54h-278l7 54q25 0 42 1t29 6q11 6 17.5 18.5t11.5 36.5l19 94q-51 6 -101 26t-77 65q-8 17 -13.5 41t-5.5 43q0 30 11.5 71.5
t29.5 80.5q15 33 24.5 59.5t9.5 43.5q0 9 -5.5 15t-14.5 7q-8 -4 -16.5 -15t-14.5 -23t-14 -18t-17 -6q-18 0 -32.5 13.5t-14.5 33.5q0 7 1.5 13.5t6.5 13.5q9 18 28.5 29t47.5 11q55 0 80.5 -36t25.5 -84q0 -28 -6.5 -62t-18.5 -68q-9 -27 -15 -55t-6 -45q0 -49 34.5 -76
t76.5 -33l61 342q5 23 6.5 36t-1.5 16h1q-6 8 -26 10.5t-53 2.5q0 6 1 12.5t3 13.5q1 7 2 13.5t2 12.5h273q-1 -7 -2 -13.5t-2 -13.5q-2 -7 -3 -13t-1 -12q-36 0 -56.5 -2.5t-24.5 -8.5h1q-5 -5 -12 -21.5t-10 -36.5z" />
    <glyph glyph-name="uni03A9" unicode="&#x3a9;" horiz-adv-x="750" 
d="M434 72l-11 -61h13q38 1 65 6t47 18q19 13 33 35.5t26 57.5l37 -3l-40 -154q-5 -13 -11 -20.5t-21 -7.5h-234l33 175q48 6 86 29.5t66 58.5q28 34 46.5 76.5t27.5 86.5q2 12 3 27t1 25q0 42 -13 78t-37 63t-57 42.5t-73 15.5q-50 0 -92 -23.5t-74 -59.5
q-32 -37 -53.5 -82t-29.5 -89q-3 -14 -3.5 -28t-0.5 -24q0 -77 41 -132.5t119 -63.5l-34 -175h-231q-20 0 -25 8.5t-2 23.5l20 163l38 -2q0 -39 6 -63.5t20 -38.5q14 -13 37.5 -18t59.5 -5h19l15 62q-40 12 -74 35.5t-58 54.5q-25 31 -38.5 69t-13.5 80q0 12 1 26.5t4 27.5
q14 67 50.5 123t86.5 96q50 39 110.5 61.5t123.5 22.5q52 0 101.5 -18t88.5 -50q38 -32 61.5 -77.5t23.5 -100.5q0 -15 -1.5 -29t-4.5 -28q-16 -50 -44.5 -97.5t-65.5 -87.5t-80 -68.5t-88 -40.5z" />
    <glyph glyph-name="alpha" unicode="&#x3b1;" horiz-adv-x="630" 
d="M360 428q39 -19 59.5 -49t29.5 -69h9q14 27 26.5 53t24.5 52q6 9 17 15t23 3q20 -9 31.5 -21.5t11.5 -27.5q0 -9 -4 -20t-10 -21q-16 -26 -36.5 -64t-38.5 -79t-29 -81t-6 -69q3 -18 19.5 -28.5t34.5 -10.5q31 3 42.5 -6t2.5 -32q-9 -16 -35.5 -22t-59.5 -4
q-30 2 -53.5 18.5t-36.5 43.5h-6q-33 -36 -73.5 -57.5t-85.5 -21.5q-26 0 -52.5 4.5t-53.5 19.5q-45 29 -64.5 74.5t-19.5 92.5q0 40 13.5 86t31.5 82q15 28 38.5 55.5t50.5 50.5q28 22 59 36t63 14q18 0 38 -4t39 -13zM333 379q-33 10 -61.5 -4t-51.5 -41t-40 -59.5
t-27 -58.5q-9 -23 -16.5 -55.5t-7.5 -62.5q0 -29 10.5 -53t34.5 -36q9 -5 21 -8.5t23 -3.5q24 0 45.5 15t39.5 37q18 23 31.5 49t21.5 48q8 24 16.5 62.5t8.5 74.5q0 33 -10.5 58.5t-37.5 37.5z" />
    <glyph glyph-name="beta" unicode="&#x3b2;" horiz-adv-x="570" 
d="M128 -75q-4 -52 -13.5 -77t-31.5 -23q-25 1 -38 14t-13 31q5 80 17 165.5t28 161.5q6 38 13.5 78.5t15.5 81.5t16.5 81t19.5 78q21 66 62 104.5t98 38.5q41 -2 81.5 -15t72.5 -37t52 -58.5t20 -79.5q0 -64 -35 -100.5t-88 -55.5q41 -39 63.5 -75t24.5 -73q1 -41 -8.5 -81
t-27.5 -67q-21 -32 -56.5 -50.5t-84.5 -18.5q-66 -3 -99.5 21t-64.5 70l-8 -1q-3 -13 -6 -29.5t-5 -33.5q-2 -16 -3.5 -30t-1.5 -20zM293 296h1q-25 6 -44.5 20t-19.5 29q2 20 16.5 27.5t36.5 4.5q8 -3 16.5 -5t16.5 -4t15.5 -4.5t14.5 -5.5q19 3 34.5 15.5t26.5 29.5
q10 17 15.5 36t5.5 37q-1 46 -22 79t-54 45q-19 4 -39 -2.5t-38 -21.5t-32 -37t-21 -48q-13 -48 -25.5 -110.5t-21.5 -122.5v1q-12 -66 -15 -106t1 -53q5 -20 20 -35.5t34 -25.5t40 -14.5t40 -2.5q33 3 54.5 18t29.5 41q9 30 13.5 59t4.5 52t-15.5 52t-30.5 48q-12 -1 -29 0
t-29 4z" />
    <glyph glyph-name="gamma" unicode="&#x3b3;" horiz-adv-x="590" 
d="M162 394q-23 9 -44 -2t-30 -29q-16 -33 -27.5 -47t-22.5 -5q-6 2 -8.5 9t-2.5 18q0 27 11.5 51t30.5 42t44 27.5t52 8.5q57 -9 93 -53t42 -119l4 -32q3 -21 4 -44t-2 -42h10q11 19 22.5 39t22.5 40t22 39.5t22 39.5q5 10 11 20.5t12 20.5q5 10 11 20t12 21q12 22 28 34
t36 12q21 0 37 -12.5t16 -34.5q0 -12 -6.5 -25.5t-16.5 -28.5q-59 -75 -112.5 -153.5t-86.5 -156.5q-5 -12 -9 -23.5t-8 -23.5q-3 -11 -6 -22.5t-6 -22.5q-9 -30 -19.5 -62t-26.5 -59q-8 -10 -19.5 -16t-26.5 -6q-27 0 -43 14.5t-16 42.5q0 15 10 42t24 57t29.5 57.5
t26.5 43.5q-3 11 -4.5 23.5t-2.5 25.5t-2 26.5t-1 26.5q-2 25 -5.5 58t-12.5 64q-9 32 -24.5 58t-41.5 38z" />
    <glyph glyph-name="delta" unicode="&#x3b4;" horiz-adv-x="560" 
d="M282 383q-38 0 -65.5 -25t-45.5 -61q-18 -35 -26.5 -74t-8.5 -67q0 -32 8 -63t24 -56q16 -24 41 -39.5t58 -15.5q38 0 64 25t42 61t23 75.5t7 68.5q0 30 -7 60t-21 55t-37 40.5t-56 15.5zM406 392v-2q53 -42 79.5 -95.5t26.5 -110.5q0 -48 -17 -94t-47 -82t-71.5 -58
t-89.5 -22q-59 0 -106 18.5t-80 51.5q-33 34 -51 80.5t-18 103.5q0 11 1.5 27t4.5 28q10 40 32.5 76t53.5 62q31 27 67.5 42.5t74.5 16.5q-24 28 -44.5 60t-31.5 63q-4 22 -1.5 43.5t15.5 40.5q15 24 35.5 37t44.5 13q37 0 71.5 -16t64.5 -41q30 -24 55.5 -53.5t44.5 -55.5
q10 -16 16 -30t6 -26q0 -9 -3.5 -18t-7.5 -15q-9 -5 -18 -7.5t-15 -2.5q-14 0 -27.5 10.5t-22.5 28.5q-11 20 -27.5 45.5t-36.5 48.5q-20 22 -42.5 39t-43.5 22q-17 2 -30 -2.5t-19 -14.5q-10 -24 7 -55.5t45 -62.5t58 -56t47 -37z" />
    <glyph glyph-name="epsilon" unicode="&#x3b5;" horiz-adv-x="520" 
d="M381 376q-25 22 -55 30.5t-64 8.5q-45 0 -74.5 -25t-29.5 -65q0 -27 13 -44t33 -27t43 -13.5t43 -3.5h24t25 -2q11 -2 19 -7.5t8 -15.5q0 -16 -21 -23.5t-62 -7.5q-26 0 -51 -4.5t-45 -15.5t-32 -29.5t-12 -46.5q0 -49 38 -78t110 -29q38 0 70.5 18.5t32.5 58.5
q0 27 16 46.5t43 13.5h-1q26 -9 33 -26t4 -38q-20 -57 -78 -90t-127 -33q-124 0 -186 38t-62 115q0 43 26 76.5t86 53.5q-48 15 -72 44t-24 74q0 57 49.5 96.5t160.5 39.5q31 0 63.5 -5t60.5 -17q29 -12 51 -32.5t33 -51.5q4 -20 -7 -37t-24 -20q-33 -3 -43 15.5t-13 37.5
q0 3 -1 6.5t-1 6.5q-1 3 -1 5.5t1 2.5z" />
    <glyph glyph-name="zeta" unicode="&#x3b6;" horiz-adv-x="520" 
d="M234 685q0 -12 -8 -21.5t-17 -17.5v1l-5 -4q-18 -12 -37.5 -33t-19.5 -44q0 -11 7.5 -20.5t21.5 -15.5q16 -7 42 7.5t62 44.5q29 23 66 46t73 23q13 0 25 -4t22 -14q5 -7 7.5 -13.5t2.5 -13.5q0 -17 -12 -33t-28 -30t-33 -24.5t-27 -16.5q-28 -16 -61.5 -27t-94.5 -20
l-14 -19q-36 -51 -67 -108t-31 -120q0 -37 12.5 -63t34.5 -43q22 -16 50.5 -22.5t60.5 -4.5q57 3 102.5 -26t58.5 -75q6 -39 -10.5 -71t-46.5 -50q-33 -18 -66 -24t-67 -6q-20 0 -41 2.5t-38 8.5q-18 6 -29 15.5t-11 23.5q-1 19 14 31.5t51 12.5q15 -1 39.5 -4.5t55.5 -8.5
q27 -3 41 4t14 27q-1 13 -14.5 22t-31.5 15t-36.5 8.5t-28.5 3.5q-87 12 -127 65t-48 137q-2 36 6.5 71t23.5 68q14 33 33 64t39 59q1 1 1 1.5t1 2.5q1 1 3.5 4.5t8.5 10.5q-38 17 -56.5 42t-21.5 67q-2 19 8.5 44.5t27.5 47.5q17 23 38.5 38.5t42.5 15.5q14 0 23 -12.5
t9 -24.5z" />
    <glyph glyph-name="eta" unicode="&#x3b7;" horiz-adv-x="570" 
d="M67 395q-23 -4 -34.5 0t-11.5 12q0 6 4 13.5t10 14.5q12 12 29.5 17.5t41.5 4.5q33 -3 56 -27t40 -54q32 36 76 62.5t80 26.5q33 0 64 -12t55 -33t37.5 -50.5t12.5 -64.5q-4 -71 -23 -151.5t-39 -144.5q-4 -11 -7.5 -21.5t-6.5 -20.5l-4 -11q-8 -30 -19 -60t-23 -57
q-12 -24 -33.5 -31.5t-42.5 -0.5q-24 10 -27 28t5 37q18 41 39 94t37 104q17 57 32 127t15 125q0 34 -23.5 58t-56.5 24q-25 0 -48.5 -16t-43.5 -40t-34.5 -51t-20.5 -49q-5 -24 -9.5 -46t-9.5 -44t-9.5 -43t-8.5 -42q-12 -55 -35.5 -84.5t-54.5 -20.5h1q-16 6 -23 17.5
t-7 31.5q0 15 8.5 42.5t23.5 57.5q18 38 31.5 82.5t13.5 88.5q0 15 -1.5 35t-7.5 37q-5 17 -16.5 27.5t-31.5 7.5z" />
    <glyph glyph-name="theta" unicode="&#x3b8;" horiz-adv-x="520" 
d="M323 656q44 -14 73.5 -49.5t47.5 -80.5t26 -92.5t8 -85.5q0 -26 -3 -55.5t-7 -53.5q-10 -46 -30 -98.5t-49 -97.5q-30 -45 -68.5 -75t-84.5 -30q-11 0 -20 1.5t-18 4.5q-43 16 -72.5 50t-48.5 78q-19 43 -27 92t-8 95q0 25 1 49.5t4 45.5q8 49 28 103t50 99t70.5 75
t90.5 30q9 0 18.5 -1t18.5 -4zM378 335l2 3q0 12 1 28t1 34q0 29 -3.5 61.5t-11.5 61.5q-9 29 -23.5 51.5t-37.5 33.5q-35 4 -61.5 -25.5t-46.5 -72.5q-21 -44 -34 -92.5t-20 -82.5h234zM140 284l-2 -3q0 -2 -0.5 -4t-0.5 -4v-4v-3q-1 -14 -1.5 -30.5t-0.5 -33.5
q0 -30 3 -62.5t11 -60.5q9 -29 23 -51.5t36 -32.5q37 -5 65.5 27t48.5 80q20 47 32 98t17 84h-231z" />
    <glyph glyph-name="iota" unicode="&#x3b9;" horiz-adv-x="310" 
d="M190 457q17 -5 26.5 -19.5t7.5 -33.5q-6 -51 -19.5 -98.5t-29.5 -92.5q-13 -38 -25 -78t-16 -81q-3 -18 8 -27.5t34 -11.5t42 2.5t28 15.5q13 14 26.5 17t19.5 -10q6 -16 -3 -35t-31 -37q-27 -19 -57.5 -26.5t-59.5 -1.5q-48 8 -72 48t-22 88q2 17 7.5 52t15.5 86
q5 28 9.5 55.5t10.5 53.5q5 26 10.5 51t12.5 50q3 12 20.5 26.5t56.5 6.5z" />
    <glyph glyph-name="kappa" unicode="&#x3ba;" horiz-adv-x="540" 
d="M161 445q33 -4 50 -11.5t17 -24.5q-1 -12 -5.5 -34t-11.5 -46t-14.5 -46.5t-13.5 -36.5h40q31 0 49 25t39 71q24 53 56.5 81.5t77.5 21.5q24 -6 46 -25t21 -47q-2 -27 -17.5 -36.5t-35.5 -9.5q-11 0 -22 5t-20 16q-4 5 -12.5 5t-17.5 -6v1q-14 -10 -21.5 -22t-12.5 -25
q-6 -13 -11 -25.5t-12 -23.5q-12 -21 -27 -32t-27 -17q21 -17 35 -33.5t17 -42.5q4 -47 13.5 -75.5t38.5 -31.5q8 -1 21 9t19 22q9 25 22.5 36t28.5 4q17 -10 14.5 -28.5t-8.5 -31.5q-18 -39 -49.5 -65t-67.5 -26q-33 0 -59.5 14t-33.5 47q-3 9 -6.5 29t-6.5 43q-4 22 -6 43
t-2 32q0 12 -9.5 19t-24.5 7h-44q-5 -26 -9 -52l-8 -52q-3 -25 -8 -50.5t-11 -49.5q-3 -13 -12.5 -18.5t-21.5 -7.5q-12 -1 -24 0.5t-21 3.5h1q-22 9 -22 31.5t5 40.5q21 78 35.5 148.5t26.5 136.5q4 25 8.5 50.5t10.5 51.5q4 21 15 30t28 8z" />
    <glyph glyph-name="lambda" unicode="&#x3bb;" horiz-adv-x="520" 
d="M150 674q25 15 50 4.5t46 -23.5q30 -19 49 -44.5t25 -52.5q4 -22 5.5 -43t1.5 -41q1 -21 1 -41t3 -39q9 -103 45 -204.5t89 -179.5q6 -11 10 -22.5t4 -20.5q0 -20 -13 -32t-37 -12q-18 0 -33.5 14.5t-28.5 36.5q-14 21 -24.5 44.5t-16.5 40.5q-26 66 -36 133t-10 133
q-47 -64 -86.5 -136t-52.5 -146q-13 -69 -35 -99t-52 -21q-14 4 -21 15t-7 29q0 15 5.5 33.5t14.5 38.5q8 19 18.5 38.5t20.5 37.5q25 39 49 77t47 74q23 37 45.5 73.5t45.5 72.5q-2 18 -3.5 37t-5.5 37q-5 18 -14 33.5t-25 26.5q-15 7 -32.5 16.5t-33.5 20.5
q-15 11 -25 23.5t-10 25.5q0 10 6 21.5t21 20.5z" />
    <glyph glyph-name="uni03BC" unicode="&#x3bc;" horiz-adv-x="560" 
d="M138 393q9 27 25 39.5t37 12.5q23 0 38.5 -12.5t15.5 -38.5q-4 -39 -19 -76.5t-31 -70.5q-6 -12 -13 -27t-12 -27q-8 -17 -12.5 -34.5t-7.5 -34.5q-4 -17 -7 -34.5t-7 -33.5q18 -25 41 -38.5t55 -13.5q46 7 72.5 33t35.5 53q9 28 15 61.5t13 82.5q5 35 13.5 77.5
t20.5 78.5q8 18 24 31t35 13q5 0 12 -1t15 -2h-1q11 -5 16.5 -17.5t5.5 -33.5q-2 -19 -8 -44.5t-13 -52.5q-8 -27 -17 -52t-16 -43q-6 -15 -14 -36.5t-14 -43.5q-7 -22 -9.5 -40.5t3.5 -27.5q7 -13 20 -18.5t25 -5.5q9 0 19 3.5t19 12.5q18 15 23.5 12t2.5 -27v1
q-7 -33 -33 -59t-75 -18q-21 3 -39 22t-31 40q-24 -30 -53.5 -49t-63.5 -19t-60 13.5t-55 45.5q-5 -18 -9.5 -50t-6.5 -62q-3 -53 -21.5 -70t-31.5 -14q-26 3 -37.5 14t-14.5 27t1.5 34t12.5 36q23 58 37 119t25 123q12 62 23.5 123t30.5 119z" />
    <glyph glyph-name="nu" unicode="&#x3bd;" horiz-adv-x="470" 
d="M85 446q15 6 32 -5t31 -33q14 -24 23 -53t12 -62q1 -22 -4.5 -54.5t-14.5 -67.5q-9 -36 -20.5 -70.5t-21.5 -60.5q45 21 89 54t78 74q35 40 56 87t22 98q-2 43 8.5 69.5t26.5 23.5q12 -7 19 -41t9 -93q1 -62 -17 -115t-50 -96q-33 -43 -78.5 -76t-98.5 -55
q-35 -15 -64.5 -22t-44.5 -7q-18 0 -25 9t-7 24q0 6 2.5 16t7.5 21q21 45 26.5 103.5t5.5 105.5q0 23 -3.5 45t-8.5 44q-6 22 -11.5 43t-9.5 43q-4 18 3 30.5t28 20.5z" />
    <glyph glyph-name="xi" unicode="&#x3be;" horiz-adv-x="519" 
d="M380 278q-14 4 -30.5 7t-34.5 6q-18 2 -36.5 4.5t-35.5 4.5l-38 4q-45 -33 -74.5 -78t-26.5 -79q3 -39 34.5 -58t80.5 -16q63 2 99 -24t39 -78q2 -36 -10 -63.5t-33 -46.5q-22 -19 -50.5 -28.5t-58.5 -9.5q-20 0 -30.5 9t-11.5 23q-3 20 12.5 34t51.5 14q24 0 38 6.5
t14 21.5q0 9 -10.5 17t-25.5 11q-24 2 -51.5 7.5t-51.5 16.5q-48 22 -76 68t-28 95q0 66 31.5 115t81.5 84q-19 20 -30 39t-11 46q0 49 22.5 79t56.5 54q-6 33 6.5 61.5t35.5 48.5q23 21 52.5 32.5t58.5 11.5q23 0 35.5 -12t15.5 -35q0 -20 -22.5 -30t-64.5 -9
q-30 0 -43.5 -9t-11.5 -32q14 4 34 6t43 2q31 0 65.5 -3t52.5 -7q18 -8 28 -24t8 -28q-3 -21 -18 -35t-39 -14t-45 3t-40 9q-9 1 -17 2.5t-17 2.5q-8 2 -16.5 2.5t-16.5 0.5q-19 -1 -38.5 -5t-34.5 -12q-15 -9 -24.5 -22.5t-8.5 -33.5q3 -26 15 -36t35 -9h35.5t30.5 1h32
t31 -1l30 -2t30 -4q23 -6 37.5 -23t11.5 -39q-5 -27 -24 -38.5t-49 -4.5z" />
    <glyph glyph-name="omicron" unicode="&#x3bf;" horiz-adv-x="530" 
d="M328 436q39 -11 70 -36t54 -57q22 -33 34 -71.5t12 -75.5q0 -58 -26 -113t-69 -95q-42 -39 -96 -56t-109 1q-41 13 -72.5 38t-52.5 58q-21 32 -32 69t-9 75q2 56 27.5 110t67.5 93q41 39 93 57t108 3zM314 385h-1q-46 10 -79 -14t-54 -64q-22 -41 -32 -88t-10 -82
q0 -23 5 -48t16 -46q10 -22 26.5 -38.5t38.5 -22.5q34 -8 61.5 5.5t48.5 38.5q20 26 33.5 57.5t19.5 59.5q6 32 8.5 68.5t-3.5 70.5q-7 34 -25.5 61.5t-52.5 41.5z" />
    <glyph glyph-name="pi" unicode="&#x3c0;" horiz-adv-x="560" 
d="M48 305l-1 1q-11 9 -8 29t21 52q18 28 41 43t53 15q27 0 52 -1t49 -2q24 -2 47 -2.5t46 -0.5q44 0 85 3.5t70 12.5q23 6 35.5 -11t9.5 -52q-3 -30 -17.5 -39.5t-50.5 -9.5q-12 0 -24 1t-23 2q-12 1 -21.5 1.5t-16.5 -0.5q-5 -33 -11.5 -61t-12.5 -57q-7 -30 -11 -65
t-4 -80q0 -12 2.5 -25.5t8.5 -24.5t15 -16t22 1q9 5 17.5 8t14.5 3q9 0 12.5 -8.5t0.5 -27.5q-3 -17 -15.5 -28.5t-28.5 -17.5t-34 -8t-31 1q-28 9 -40 37t-12 68q0 39 6 79t14 80q8 39 16 76t11 71q-25 -3 -50.5 -3t-49.5 3q-9 -38 -16.5 -75t-14.5 -73q-8 -36 -16.5 -71
t-18.5 -69q-6 -18 -14 -39t-20 -40q-12 -18 -28 -30t-37 -12q-17 0 -28.5 9.5t-11.5 30.5q0 35 23 68.5t46 56.5q22 22 36.5 51.5t23.5 60.5q9 32 14 64t8 61q-30 5 -58.5 -2.5t-43.5 -27.5q-7 -12 -15 -14t-16 4z" />
    <glyph glyph-name="rho" unicode="&#x3c1;" horiz-adv-x="580" 
d="M331 414q-27 0 -50 -16.5t-40 -40.5q-18 -24 -30.5 -51.5t-19.5 -49.5q-5 -20 -6.5 -38.5t-1.5 -36.5q0 -29 6.5 -57t21.5 -50q14 -23 35.5 -36.5t50.5 -13.5q37 0 64 25t45 61t27 76t9 70q0 25 -7 53t-20 51q-14 24 -35 39t-49 15zM320 -33q-68 0 -116 31t-78 91
q-6 -36 -9 -77.5t-3 -78.5q0 -34 -0.5 -55.5t-1.5 -37.5q-3 -26 -15 -40t-30 -12q-25 4 -37.5 25t-12.5 51q9 105 26 201.5t44 187.5q13 43 35 81.5t51 67.5q30 29 67 46.5t82 17.5q47 0 88 -18.5t71 -50.5q30 -31 47 -72.5t17 -87.5q0 -51 -17 -99.5t-47 -86.5t-71.5 -61
t-89.5 -23z" />
    <glyph glyph-name="sigma" unicode="&#x3c3;" horiz-adv-x="500" 
d="M455 402q-2 -14 -10 -19t-18 -6q-11 -1 -22.5 1.5t-19.5 5.5q-19 3 -39.5 5t-35.5 -4q37 -7 65.5 -28.5t47.5 -50.5q20 -30 30 -65t10 -69q0 -27 -5.5 -56t-17.5 -54q-30 -56 -85 -92.5t-112 -36.5q-46 0 -84.5 19.5t-66.5 52.5q-29 33 -44.5 74.5t-15.5 85.5
q0 57 22 109t59 92t85.5 63.5t101.5 23.5q45 0 75.5 -3.5t46.5 -8.5q15 -8 24.5 -17.5t8.5 -21.5zM226 -7q21 0 40.5 11t35.5 29q16 17 29 38t21 40q8 20 13.5 47t5.5 55q0 50 -22.5 89.5t-76.5 39.5q-39 0 -74 -34t-56 -82q-13 -28 -17 -68t5 -77q8 -36 31 -62t65 -26z" />
    <glyph glyph-name="tau" unicode="&#x3c4;" horiz-adv-x="510" 
d="M286 344l-1 -1q-11 -33 -19.5 -65t-15.5 -63q-8 -32 -15 -63l-14 -62q-3 -10 -4 -19t-1 -18q0 -23 12 -37t47 -14q13 0 25 3t21 6q22 10 32.5 5t10.5 -17q0 -15 -11.5 -32t-30.5 -26q-21 -11 -41 -16.5t-32 -5.5q-59 0 -83.5 27t-24.5 73q0 25 5.5 48.5t12.5 47.5
q8 30 16 59.5t15 58.5q7 28 13 56.5t9 57.5q-14 2 -35 2.5t-43 -2.5q-21 -4 -39 -11.5t-26 -20.5v-1q-7 -12 -16 -14t-17 4q-8 5 -13.5 16t-4.5 25q0 10 4 24t13 29q12 25 45.5 38t75.5 10q24 -2 67.5 -3t122.5 -1q31 0 55 4.5t41 10.5q24 7 37.5 -8t13.5 -56
q0 -20 -8.5 -30t-21.5 -14t-28 -4t-28 2q-8 0 -26 0.5t-37 -0.5q-19 0 -35.5 -1t-22.5 -2z" />
    <glyph glyph-name="upsilon" unicode="&#x3c5;" horiz-adv-x="540" 
d="M130 445q30 0 41.5 -16.5t11.5 -49.5q-2 -51 -14 -102t-31 -90q-10 -26 -18 -51.5t-8 -51.5q0 -27 11.5 -50t36.5 -36q32 -14 63 -7.5t58 24.5q27 19 48.5 45.5t34.5 53.5q25 52 37 113t-2 115q-3 10 -5 20.5t-2 20.5q0 19 10 29.5t27 10.5q37 -3 60.5 -36.5t23.5 -81.5
q0 -51 -17.5 -102.5t-38.5 -94.5t-55 -83t-68 -63q-50 -34 -103 -36.5t-103 20.5q-47 28 -72 61.5t-23 72.5q1 30 5.5 60.5t11.5 67.5q6 36 12 78.5t5 80.5q0 33 15 55.5t48 22.5z" />
    <glyph glyph-name="phi" unicode="&#x3c6;" horiz-adv-x="540" 
d="M33 270q11 40 35.5 74.5t57.5 59.5q32 25 70.5 39t77.5 15q17 -4 26 -11t9 -13q0 -9 -10.5 -15.5t-28.5 -9.5q-29 -1 -55 -25.5t-45 -60.5q-20 -36 -31 -77t-11 -74q0 -39 12.5 -74.5t48.5 -59.5l14 60t13 60l3 14q6 30 12.5 61.5t14.5 61.5q9 34 26 63t35 47
q10 9 23.5 16.5t28.5 7.5q6 0 20 -5.5t24 -10.5q47 -30 80 -83t33 -107q0 -66 -33 -126.5t-84 -93.5q-36 -19 -77.5 -30.5t-75.5 -5.5q-13 -68 -23 -107t-20 -47t-22.5 -9t-23.5 4t-18 14.5t-7 23.5q0 19 5 36t12 34t14.5 33.5t11.5 34.5q-34 13 -62 36.5t-48 52.5
q-20 30 -30.5 63.5t-10.5 67.5q0 16 2 33t7 33zM251 22q43 3 74.5 26t51.5 56q21 34 30.5 73t9.5 75q0 37 -9 72t-36 59q-12 9 -27 -5.5t-23 -42.5q-5 -17 -11 -39.5t-14 -57.5q-8 -36 -19 -88t-27 -128z" />
    <glyph glyph-name="chi" unicode="&#x3c7;" horiz-adv-x="480" 
d="M36 10l149 156q-2 21 -6 51t-12 61q-7 30 -18 55.5t-26 38.5q-6 2 -13.5 -3t-14.5 -13q-15 -18 -28.5 -23.5t-19.5 2.5q-10 9 -6 28.5t19 42.5q15 19 34 35t40 16q33 0 54.5 -22.5t34.5 -54.5q12 -31 18.5 -66t11.5 -59q9 9 15.5 17.5t11.5 17.5q5 8 9.5 16t10.5 16
q19 32 38.5 61.5t37.5 49.5q18 18 36.5 11.5t33.5 -18.5q17 -24 5 -44.5t-27 -35.5l-3 -3q-48 -45 -88 -86t-64 -78q5 -22 14.5 -57.5t24.5 -64.5q15 -28 35 -40.5t46 12.5q7 6 12.5 12t9.5 9q5 3 9 3t10 -4q9 -9 6.5 -26.5t-13.5 -41.5q-12 -24 -25.5 -38.5t-28.5 -17.5
q-35 -9 -61 5t-46 40q-19 26 -32 59t-20 62q-31 -41 -58 -74.5t-51 -61.5h1q-16 -17 -33 -20.5t-33 13.5q-14 13 -12.5 31.5t12.5 30.5z" />
    <glyph glyph-name="psi" unicode="&#x3c8;" horiz-adv-x="550" 
d="M126 114q0 -31 13 -54.5t49 -38.5q24 98 37.5 190t18.5 188q7 26 22.5 37t36.5 6q14 -6 23 -19.5t9 -31.5q0 -21 -10 -55.5t-19 -62.5q-12 -35 -20.5 -68.5t-15.5 -65.5t-13.5 -63.5t-13.5 -61.5q65 13 106 65t40 132q-1 28 4.5 66.5t19.5 74.5t38.5 62.5t63.5 30.5
q25 2 30 -4.5t-1 -17.5q-7 -10 -20 -21.5t-23 -18.5q-12 -15 -16.5 -34t-4.5 -40q0 -18 1.5 -33.5t3.5 -29.5q1 -14 3 -27t2 -26q0 -55 -23 -94.5t-58 -66.5q-36 -27 -80 -42t-87 -20q-5 -18 -7 -36.5t-4 -37.5t-6 -37t-13 -35t-21 -22.5t-25 -2.5q-18 6 -29 17.5t-6 32.5
q3 16 8 32t11 32t12 31.5t12 31.5q-60 20 -101 51.5t-41 91.5q0 20 3.5 39.5t9.5 38.5q6 18 13 36.5t14 36.5q3 9 7 19.5t7 20.5q3 11 5.5 21.5t2.5 20.5q0 12 -5.5 24.5t-16.5 21.5q-9 6 -15 15.5t-6 18.5t10.5 13.5t31.5 -0.5q36 -10 50.5 -46t14.5 -78q0 -30 -5 -60.5
t-10 -49.5q-8 -27 -12.5 -51.5t-4.5 -45.5z" />
    <glyph glyph-name="omega" unicode="&#x3c9;" horiz-adv-x="600" 
d="M259 418q2 -12 -11.5 -27t-41.5 -33v1q-27 -18 -44 -47.5t-26 -63.5t-12 -68.5t-3 -61.5q0 -20 2 -40t9 -36q6 -16 18.5 -25t32.5 -5q28 8 50 29t25 56q4 42 8 77.5t9 64.5q9 57 35 90t49 27q15 -8 25 -29t4 -49q-3 -14 -7.5 -27t-8.5 -26q-5 -13 -10 -25t-9 -24
q-13 -25 -23.5 -54.5t-16.5 -55.5q-6 -22 0 -41.5t30 -35.5q40 0 67 29.5t44 71.5q16 41 23 87t7 80q0 23 -3 44t-9 42q-8 27 -11.5 54.5t2.5 33.5q11 9 31 -17.5t44 -74.5q15 -33 24 -69.5t9 -69.5q0 -44 -14.5 -91t-40.5 -87q-26 -39 -64 -64.5t-85 -25.5
q-30 0 -56.5 21.5t-39.5 50.5q-15 -11 -30 -21t-30 -18q-14 -8 -28.5 -12.5t-28.5 -4.5q-36 0 -60.5 16.5t-39.5 42.5t-21.5 59t-5.5 65q3 93 45 165t111 116q8 5 20 11.5t23 9.5t20 0t13 -15z" />
    <glyph glyph-name="SF100000" unicode="&#x2500;" horiz-adv-x="940" 
d="M940 280h-940v40h940v-40z" />
    <glyph glyph-name="SF110000" unicode="&#x2502;" horiz-adv-x="940" 
d="M450 -200v1000h40v-1000h-40z" />
    <glyph glyph-name="SF010000" unicode="&#x250c;" horiz-adv-x="940" 
d="M450 -200v520h490v-40h-450v-480h-40z" />
    <glyph glyph-name="SF030000" unicode="&#x2510;" horiz-adv-x="940" 
d="M450 -200v480h-450v40h490v-520h-40z" />
    <glyph glyph-name="SF040000" unicode="&#x2518;" horiz-adv-x="940" 
d="M490 280h-490v40h450v480h40v-520z" />
    <glyph glyph-name="SF020000" unicode="&#x2514;" horiz-adv-x="940" 
d="M940 280h-490v520h40v-480h450v-40z" />
    </font>
</defs>
</svg>
