<svg xmlns="http://www.w3.org/2000/svg" id="_레이어_2" data-name="레이어 2" viewBox="0 0 291.5 424.1"><defs><style>.cls-1{fill:#fff}</style></defs><g id="_레이어_19" data-name="레이어 19"><path d="M27.9 103.5h56.7l-56.7 20.8v10.8h56.7l-56.7 20.8v10.8H114v-10.8H57.3l56.7-20.8v-10.8H57.3l56.7-20.8V92.8H27.9v10.7zM113 46.6V0H94.8v3s7.5.5 7.5 7.8V52.6a123.8 123.8 0 0 1-52.8 10.2H18.2V19.4h64.1V8.6H0v3s7.4.5 7.4 7.8V73.6h42c26.5 0 47-12.1 52.9-16V82H113V57.4h23V46.6h-23ZM140.3 243.2v-10.8h-24.5v-21.2H97.6v3s7.5.5 7.5 7.8v84.9h10.7v-35.3h24.5v-10.8h-24.5v-17.6h24.5ZM50.7 218.8a36.5 36.5 0 1 0 0 73 36.5 36.5 0 0 0 0-73Zm0 62.3a25.7 25.7 0 1 1 0-51.5 25.7 25.7 0 0 1 0 51.5ZM263.8 363.6v-93h-18.3v3s7.5.5 7.5 7.6v34.7h-15.4v-45.2h-18.2v3s7.5.4 7.5 7.5V361.4a31.5 31.5 0 1 0 10.7.6v-35.7H253v37.3h10.8Zm-12.6 29a20.7 20.7 0 1 1-41.3 0 20.7 20.7 0 0 1 41.3 0ZM213.1 283.1h-30.9V270H171v13.1h-30.9v10.8h73v-10.8z" class="cls-1"/><path d="M176.6 298.7a31.5 31.5 0 1 0 0 63 31.5 31.5 0 0 0 0-63Zm0 52.2a20.7 20.7 0 1 1 0-41.4 20.7 20.7 0 0 1 0 41.4ZM254.8 71.4V166h10.8V60.6h-18.2v3s7.4.5 7.4 7.8ZM213.2 152.7c-5.9-2.2-8.8-5.5-8.8-5.5v3C210.2 161.4 224 165 224 165V70h-10.8v.1h-7.5v3s7.5.5 7.5 7.8v14.3H167V106h46v20.8h-46v10.8h46v15ZM291.5 280.5a109.3 109.3 0 0 0-54.5-53.8 92.5 92.5 0 0 0 25.3-33.1v-10.8h-39v-11H212v11h-35.8v10.8H249a78 78 0 0 1-24.6 28.3c-22.2-6.8-42.6-5.1-51.5 2.2-15.6 13.1-.4 35.1 27.1 24.2 11.1-4.4 21.8-10 31.5-17.2 32.3 10.8 60 49.4 60 49.4Zm-112.2-45.9c.8-5.2 7-10.8 36.4-6.8-2.6 1.7-5.2 3.2-7.6 4.6-15.9 8.9-30 10.6-28.8 2.2ZM143.3 70v3.1s7.4.5 7.4 7.8v70.5c0 25.6-17.7 46.1-17.7 46.1h3.4s25-20.5 25-46.1V70h-18.2Z" class="cls-1"/></g></svg>